# Blender 5.0.1
# www.blender.org
mtllib Mario64BrazoIzq.mtl
o Mario__BodyMT.006
v -0.038437 0.040615 -0.025478
v -0.038437 -0.073857 -0.028223
v -0.038437 -0.037486 0.082019
v 0.025292 0.000031 0.200890
v -0.038437 -0.032322 -0.156056
v 0.025291 0.168499 -0.030986
v 0.025291 -0.003216 -0.245635
v 0.325800 0.154742 -0.028223
v 0.325800 -0.003216 0.189188
v 0.325800 -0.003216 -0.245635
v 0.389528 -0.032322 -0.156056
v 0.389528 0.060554 -0.028223
v 0.389528 -0.073857 -0.028223
v 0.389528 -0.032322 0.099610
v 0.389528 -0.182598 0.050782
v 0.325800 -0.258798 0.106144
v 0.025292 -0.272555 0.112322
v 0.325800 -0.258798 -0.162591
v 0.025292 -0.272555 -0.174293
v 0.389528 -0.182598 -0.107229
v -0.038437 -0.163856 -0.091914
v -0.038437 -0.163856 0.040959
vn -0.9073 0.4202 0.0137
vn -0.9001 0.1335 -0.4148
vn -1.0000 -0.0000 -0.0000
vn -0.9113 0.1289 0.3911
vn -0.1488 0.3052 0.9406
vn -0.1470 0.9891 -0.0079
vn -0.1567 0.3052 -0.9393
vn 0.1744 0.9847 -0.0000
vn 0.1783 0.3040 0.9358
vn 0.1703 0.3045 -0.9372
vn 0.8778 0.4791 -0.0000
vn 0.8777 0.1481 -0.4557
vn 1.0000 -0.0000 -0.0000
vn 0.8777 0.1488 0.4555
vn 0.1861 -0.7924 0.5809
vn 0.8779 -0.3874 0.2815
vn -0.1489 -0.8045 0.5750
vn 0.1840 -0.7917 -0.5826
vn -0.1449 -0.7965 -0.5871
vn 0.8778 -0.3876 -0.2816
vn -0.9141 -0.3348 -0.2289
vn -0.9159 -0.3211 0.2408
vt 0.639648 0.187500
vt 0.639648 0.186035
vt 0.639648 0.185059
vt 0.641113 0.186523
vt 0.641113 0.190430
vt 0.648926 0.189941
vt 0.648926 0.186523
vt 0.649902 0.187988
vt 0.649902 0.186035
vt 0.649902 0.185059
vt 0.648926 0.181152
vt 0.649902 0.182617
vt 0.641113 0.180664
vt 0.639648 0.183105
s 1
usemtl BodyMT
f 1/1/1 5/2/2 2/3/3
f 1/1/1 2/3/3 3/2/4
f 1/1/1 3/2/4 4/4/5
f 1/1/1 4/4/5 6/5/6
f 1/1/1 6/5/6 5/2/2
f 5/2/2 6/5/6 7/4/7
f 4/4/5 8/6/8 6/5/6
f 6/5/6 8/6/8 7/4/7
f 4/4/5 9/7/9 8/6/8
f 7/4/7 8/6/8 10/7/10
f 9/7/9 12/8/11 8/6/8
f 8/6/8 11/9/12 10/7/10
f 8/6/8 12/8/11 11/9/12
f 12/8/11 13/10/13 11/9/12
f 9/7/9 14/9/14 12/8/11
f 14/9/14 13/10/13 12/8/11
f 16/11/15 14/9/14 9/7/9
f 15/12/16 13/10/13 14/9/14
f 16/11/15 15/12/16 14/9/14
f 16/11/15 17/13/17 18/11/18
f 4/4/5 17/13/17 16/11/15
f 4/4/5 16/11/15 9/7/9
f 16/11/15 18/11/18 15/12/16
f 7/4/7 18/11/18 19/13/19
f 19/13/19 18/11/18 17/13/17
f 7/4/7 10/7/10 18/11/18
f 10/7/10 20/12/20 18/11/18
f 18/11/18 20/12/20 15/12/16
f 10/7/10 11/9/12 20/12/20
f 15/12/16 20/12/20 13/10/13
f 11/9/12 13/10/13 20/12/20
f 5/2/2 7/4/7 19/13/19
f 5/2/2 19/13/19 21/14/21
f 21/14/21 19/13/19 17/13/17
f 2/3/3 5/2/2 21/14/21
f 2/3/3 21/14/21 22/14/22
f 21/14/21 17/13/17 22/14/22
f 2/3/3 22/14/22 3/2/4
f 3/2/4 22/14/22 4/4/5
f 4/4/5 22/14/22 17/13/17
