# Blender 5.0.1
# www.blender.org
mtllib Mario64Cuerpo.mtl
o Mario__BodyMT.002
v -0.188147 2.209687 0.238844
v -0.241902 1.978314 0.497330
v -0.000000 1.978142 0.495975
v -0.000000 2.209537 0.238844
v -0.174839 2.295614 -0.021263
v -0.000000 2.303399 -0.023515
v -0.000000 2.278636 -0.250649
v -0.177087 2.259978 -0.250649
v -0.000000 1.999619 -0.424810
v 0.177086 2.259978 -0.250649
v 0.174839 2.295614 -0.021264
v 0.188147 2.209688 0.238844
v 0.241901 1.978314 0.497330
v -0.386566 2.209118 -0.172667
v -0.351350 2.094451 -0.345701
v -0.563242 1.974535 0.015864
v -0.421966 2.181392 0.089916
v -0.508569 1.958362 0.328908
v -0.623744 1.748565 0.209709
v -0.623744 1.716546 -0.034638
v -0.457904 1.802875 -0.390142
v 0.386566 2.209118 -0.172667
v 0.421966 2.181392 0.089916
v 0.563241 1.974535 0.015864
v 0.351350 2.094451 -0.345701
v 0.457904 1.802876 -0.390142
v 0.623744 1.716546 -0.034638
v 0.623744 1.748565 0.209708
v 0.508569 1.958362 0.328908
v -0.404107 1.984259 0.417157
v -0.241902 1.978314 0.497330
v -0.188147 2.209687 0.238844
v -0.421966 2.181392 0.089916
v -0.508569 1.958362 0.328908
v -0.499642 1.878075 0.404689
v -0.623744 1.748565 0.209709
v -0.512831 1.779920 0.424054
v -0.551273 1.640457 0.378266
v -0.417103 1.692785 0.502625
v -0.486794 1.508102 0.419865
v -0.345483 1.471233 0.516826
v -0.252155 1.608130 0.556237
v -0.281197 1.729081 0.568581
v -0.000000 1.728804 0.581106
v -0.209156 1.857812 0.558529
v -0.000000 1.978142 0.495975
v -0.000000 1.857939 0.558529
v 0.209156 1.857812 0.558529
v 0.241901 1.978314 0.497330
v 0.281197 1.729081 0.568581
v 0.252155 1.608130 0.556237
v 0.417103 1.692785 0.502625
v 0.551273 1.640457 0.378266
v 0.512831 1.779920 0.424054
v 0.486794 1.508102 0.419865
v 0.345483 1.471233 0.516826
v 0.177575 1.433752 0.541985
v 0.342559 1.286233 0.392097
v 0.465724 1.333230 0.312536
v 0.162816 1.261748 0.455049
v 0.000000 1.208977 0.094224
v -0.342559 1.286233 0.392097
v -0.162816 1.261748 0.455049
v 0.000000 1.257398 0.444464
v -0.465724 1.333229 0.312536
v -0.548638 1.351597 0.156251
v -0.562236 1.353084 -0.021443
v -0.491098 1.340688 -0.341960
v -0.362062 1.321924 -0.415395
v -0.000000 1.305061 -0.414926
v 0.362062 1.321924 -0.415395
v 0.491098 1.340688 -0.341960
v 0.562236 1.353084 -0.021443
v 0.548638 1.351597 0.156251
v 0.598374 1.531746 0.170416
v 0.613205 1.533368 -0.023387
v 0.623744 1.716546 -0.034638
v 0.535618 1.519849 -0.372960
v 0.394885 1.499384 -0.453053
v 0.457904 1.802876 -0.390142
v -0.000000 1.999619 -0.424810
v 0.351350 2.094451 -0.345701
v -0.000000 1.724797 -0.460414
v -0.394885 1.499384 -0.453053
v -0.457904 1.802875 -0.390142
v -0.000000 1.480991 -0.452541
v -0.351350 2.094451 -0.345701
v -0.535618 1.519849 -0.372960
v -0.623744 1.716546 -0.034638
v -0.598375 1.531746 0.170416
v -0.613205 1.533368 -0.023387
v -0.177087 2.259978 -0.250649
v -0.386566 2.209118 -0.172667
v -0.174839 2.295614 -0.021263
v 0.177086 2.259978 -0.250649
v 0.386566 2.209118 -0.172667
v 0.421966 2.181392 0.089916
v 0.174839 2.295614 -0.021264
v 0.188147 2.209688 0.238844
v 0.404107 1.984259 0.417157
v 0.508569 1.958362 0.328908
v 0.499642 1.878075 0.404689
v 0.623744 1.748565 0.209708
v -0.000000 1.429008 0.530440
v -0.000000 1.610400 0.581105
v -0.177575 1.433752 0.541985
v -0.241902 1.978314 0.497330
v -0.404107 1.984259 0.417157
v -0.499642 1.878075 0.404689
v -0.512831 1.779920 0.424054
v -0.417103 1.692785 0.502625
v -0.281197 1.729081 0.568581
v -0.209156 1.857812 0.558529
v 0.499642 1.878075 0.404689
v 0.404107 1.984259 0.417157
v 0.241901 1.978314 0.497330
v 0.512831 1.779920 0.424054
v 0.417103 1.692785 0.502625
v 0.281197 1.729081 0.568581
v 0.209156 1.857812 0.558529
v 0.501468 1.629456 0.265226
v 0.362929 1.550615 0.428110
v 0.617927 1.534034 0.258693
v 0.522417 1.608210 0.014387
v 0.000000 1.630997 0.083500
v 0.172016 1.509008 0.491969
v 0.471453 1.628314 -0.234040
v 0.260737 1.588591 -0.384337
v -0.000000 1.502078 0.479437
v -0.172016 1.509008 0.491969
v -0.362929 1.550616 0.428110
v -0.501468 1.629457 0.265226
v -0.522417 1.608210 0.014387
v -0.471453 1.628314 -0.234040
v -0.260736 1.588591 -0.384337
v 0.000000 1.577026 -0.392755
v 0.000000 1.458987 -0.467993
v -0.000000 1.185502 -0.467993
v -0.311337 1.467257 -0.475296
v 0.311337 1.467257 -0.475296
v 0.582121 1.283355 -0.405294
v 0.534617 1.510473 -0.398573
v 0.359522 1.224793 -0.479839
v 0.449343 1.081094 -0.268972
v 0.292773 1.066323 -0.324485
v 0.294095 1.045310 0.285890
v -0.000000 1.040862 0.285889
v -0.000000 1.035232 -0.325318
v -0.292773 1.066323 -0.324485
v -0.294095 1.045310 0.285889
v -0.449343 1.081095 -0.268972
v -0.359522 1.224793 -0.479840
v -0.582122 1.283355 -0.405294
v -0.645636 1.302199 -0.252339
v -0.534617 1.510474 -0.398573
v -0.617927 1.534035 -0.233040
v -0.617927 1.534035 -0.000991
v -0.661622 1.311399 -0.001855
v -0.628897 1.299934 0.191711
v -0.559722 1.095943 0.104942
v -0.562205 1.095943 -0.132426
v -0.481633 1.228605 0.373057
v -0.477897 1.072471 0.236678
v -0.231791 1.191082 0.474639
v -0.433758 1.429540 0.528912
v -0.174328 1.396553 0.578034
v -0.617927 1.534035 0.258693
v -0.000000 1.390979 0.573008
v -0.000000 1.187965 0.474639
v 0.174327 1.396553 0.578035
v 0.231791 1.191082 0.474639
v 0.481632 1.228604 0.373057
v 0.433757 1.429540 0.528913
v 0.628897 1.299934 0.191711
v 0.617927 1.534034 -0.000991
v 0.661621 1.311399 -0.001854
v 0.559722 1.095943 0.104943
v 0.562204 1.095943 -0.132426
v 0.477896 1.072471 0.236679
v 0.645636 1.302198 -0.252338
v 0.617927 1.534034 -0.233039
vn -0.1329 0.8446 0.5186
vn -0.1193 0.6494 0.7511
vn -0.0000 0.6700 0.7423
vn -0.0000 0.8416 0.5402
vn -0.1583 0.9806 0.1154
vn -0.0000 0.9926 0.1214
vn -0.0000 0.8870 -0.4618
vn -0.1407 0.8337 -0.5340
vn -0.0000 0.2702 -0.9628
vn 0.1409 0.8337 -0.5340
vn 0.1583 0.9806 0.1154
vn 0.1331 0.8442 0.5193
vn 0.1192 0.6494 0.7511
vn -0.6658 0.6970 -0.2662
vn -0.4955 0.4179 -0.7615
vn -0.9076 0.3989 -0.1310
vn -0.6047 0.7657 0.2191
vn -0.7972 0.5126 0.3190
vn -0.9777 0.1360 0.1603
vn -0.9632 0.1527 -0.2212
vn -0.5870 0.2647 -0.7651
vn 0.6657 0.6971 -0.2662
vn 0.6056 0.7650 0.2193
vn 0.9075 0.3990 -0.1310
vn 0.4956 0.4167 -0.7620
vn 0.5871 0.2640 -0.7652
vn 0.9631 0.1535 -0.2212
vn 0.9776 0.1367 0.1602
vn 0.7971 0.5127 0.3190
vn -0.4206 0.6714 0.6102
vn -0.1195 0.6494 0.7510
vn -0.1332 0.8446 0.5186
vn -0.6045 0.7658 0.2192
vn -0.7970 0.5127 0.3192
vn -0.6892 0.2822 0.6673
vn -0.9777 0.1357 0.1604
vn -0.6738 0.1816 0.7163
vn -0.8610 -0.1259 0.4927
vn -0.5067 0.0960 0.8568
vn -0.7405 -0.3288 0.5861
vn -0.4318 -0.3774 0.8192
vn -0.1274 -0.1153 0.9851
vn -0.2232 0.0899 0.9706
vn -0.0000 0.0351 0.9994
vn -0.0686 0.2915 0.9541
vn -0.0000 0.2961 0.9552
vn -0.0000 0.6698 0.7425
vn -0.1193 0.6492 0.7512
vn 0.0685 0.2915 0.9541
vn 0.1193 0.6492 0.7512
vn 0.2231 0.0899 0.9706
vn 0.1274 -0.1156 0.9851
vn 0.5066 0.0952 0.8569
vn 0.7405 -0.3291 0.5860
vn 0.8611 -0.1251 0.4928
vn 0.6737 0.1815 0.7164
vn 0.4318 -0.3772 0.8193
vn 0.1115 -0.3546 0.9283
vn 0.3973 -0.8147 0.4224
vn 0.6150 -0.7245 0.3113
vn 0.1370 -0.8047 0.5777
vn -0.0000 -0.9985 -0.0549
vn -0.3975 -0.8146 0.4224
vn -0.6148 -0.7247 0.3112
vn -0.1371 -0.8047 0.5777
vn -0.0000 -0.8051 0.5931
vn -0.6648 -0.7317 0.1505
vn 0.6649 -0.7316 0.1506
vn -0.6320 -0.7729 -0.0567
vn -0.6065 -0.7513 -0.2604
vn -0.1487 -0.7475 -0.6474
vn -0.0000 -0.7922 -0.6103
vn 0.1487 -0.7473 -0.6476
vn 0.6065 -0.7513 -0.2604
vn 0.6322 -0.7727 -0.0567
vn 0.9465 -0.2407 0.2152
vn 0.9742 -0.1995 -0.1056
vn 0.9631 0.1532 -0.2212
vn 0.8787 -0.0843 -0.4699
vn 0.1837 -0.0569 -0.9813
vn 0.5870 0.2639 -0.7653
vn -0.0000 0.0977 -0.9952
vn -0.0000 0.2700 -0.9629
vn 0.4955 0.4166 -0.7622
vn -0.0000 -0.1388 -0.9903
vn -0.1838 -0.0572 -0.9813
vn -0.5869 0.2646 -0.7652
vn -0.4953 0.4179 -0.7616
vn -0.8788 -0.0843 -0.4698
vn -0.9633 0.1524 -0.2211
vn -0.9465 -0.2407 0.2152
vn -0.9741 -0.1998 -0.1056
vn -0.6656 0.6972 -0.2663
vn -0.1586 0.9806 0.1154
vn 0.1410 0.8336 -0.5340
vn 0.6655 0.6973 -0.2662
vn 0.6053 0.7651 0.2195
vn 0.1586 0.9806 0.1154
vn 0.1333 0.8442 0.5192
vn 0.4207 0.6714 0.6101
vn 0.1194 0.6493 0.7511
vn 0.7969 0.5128 0.3193
vn 0.6891 0.2823 0.6674
vn 0.9776 0.1365 0.1604
vn -0.0000 -0.3133 0.9497
vn -0.0000 -0.1289 0.9917
vn -0.1116 -0.3546 0.9283
vn -0.1194 0.6493 0.7511
vn -0.6891 0.2822 0.6675
vn -0.6736 0.1816 0.7164
vn -0.5066 0.0962 0.8568
vn -0.2233 0.0901 0.9706
vn -0.0687 0.2915 0.9541
vn 0.6890 0.2822 0.6676
vn 0.4207 0.6714 0.6102
vn 0.1193 0.6493 0.7511
vn 0.6735 0.1816 0.7166
vn 0.5066 0.0955 0.8569
vn 0.2233 0.0901 0.9706
vn 0.0686 0.2915 0.9541
vn 0.2332 0.9380 0.2566
vn -0.0000 0.9983 0.0587
vn 0.1036 0.8353 0.5399
vn 0.8340 0.4093 0.3700
vn 0.2719 0.9623 -0.0078
vn -0.0293 0.8281 0.5598
vn 0.1879 0.9666 -0.1742
vn -0.0000 0.8548 0.5190
vn 0.0019 0.9090 -0.4168
vn -0.0000 0.8946 -0.4468
vn 0.0294 0.8283 0.5595
vn -0.1037 0.8353 0.5399
vn -0.2333 0.9379 0.2567
vn -0.2719 0.9623 -0.0078
vn -0.1879 0.9666 -0.1742
vn -0.0020 0.9091 -0.4166
vn -0.0000 0.1941 -0.9810
vn 0.0842 0.1836 -0.9794
vn -0.0000 -0.3585 -0.9335
vn -0.0842 0.1840 -0.9793
vn 0.6283 -0.2407 -0.7398
vn 0.1683 -0.3166 -0.9335
vn 0.5239 0.4232 -0.7392
vn 0.3171 -0.9119 -0.2605
vn 0.1154 -0.9586 -0.2603
vn 0.0978 -0.9838 0.1505
vn -0.0000 -0.9877 0.1566
vn -0.0000 -0.9769 -0.2136
vn -0.1154 -0.9586 -0.2602
vn -0.0978 -0.9837 0.1509
vn -0.3170 -0.9120 -0.2605
vn -0.1685 -0.3175 -0.9332
vn -0.6283 -0.2407 -0.7398
vn -0.9317 -0.2449 -0.2682
vn -0.5243 0.4224 -0.7394
vn -0.7770 0.5639 -0.2798
vn -0.9803 -0.1957 0.0274
vn -0.8271 0.5620 0.0039
vn -0.9197 -0.1957 0.3404
vn -0.6481 -0.7573 0.0803
vn -0.6928 -0.7125 -0.1116
vn -0.6048 -0.4661 0.6457
vn -0.2501 -0.9601 0.1253
vn -0.1211 -0.6419 0.7571
vn -0.4932 0.1781 0.8515
vn -0.0607 0.0176 0.9980
vn -0.8339 0.4096 0.3700
vn -0.0000 -0.0895 0.9960
vn -0.0000 -0.6594 0.7518
vn 0.0607 0.0176 0.9980
vn 0.1213 -0.6417 0.7573
vn 0.4932 0.1781 0.8515
vn 0.6048 -0.4661 0.6457
vn 0.9198 -0.1949 0.3405
vn 0.8267 0.5626 0.0039
vn 0.9804 -0.1952 0.0274
vn 0.6482 -0.7572 0.0804
vn 0.6927 -0.7126 -0.1115
vn 0.2504 -0.9600 0.1253
vn 0.9317 -0.2449 -0.2682
vn 0.7776 0.5630 -0.2799
vt 0.756836 0.121094
vt 0.759766 0.107910
vt 0.746094 0.107910
vt 0.746094 0.121094
vt 0.755859 0.125488
vt 0.746094 0.125977
vt 0.746094 0.124512
vt 0.755859 0.123535
vt 0.746094 0.109375
vt 0.772949 0.359863
vt 0.771484 0.354004
vt 0.782227 0.347656
vt 0.774902 0.358398
vt 0.779297 0.346680
vt 0.785156 0.335938
vt 0.785156 0.334473
vt 0.776855 0.338867
vt 0.125122 2.265625
vt 0.089294 2.264648
vt 0.077454 2.315430
vt 0.129028 2.309570
vt 0.148193 2.259766
vt 0.146240 2.242188
vt 0.173584 2.213867
vt 0.149170 2.220703
vt 0.160767 2.189453
vt 0.127930 2.201172
vt 0.148071 2.152344
vt 0.118408 2.142578
vt 0.091553 2.174805
vt 0.097961 2.209961
vt 0.035889 2.208984
vt 0.082092 2.238281
vt 0.035889 2.238281
vt 0.035889 2.264648
vt 0.075073 2.136719
vt 0.111511 2.103516
vt 0.138672 2.114258
vt 0.071838 2.098633
vt 0.035889 2.086914
vt 0.035889 2.097656
vt 0.156982 2.118164
vt 0.160034 2.118164
vt 0.144287 2.116211
vt 0.115845 2.111328
vt 0.035889 2.107422
vt 0.167969 2.158203
vt 0.171265 2.158203
vt 0.173584 2.207031
vt 0.154175 2.155273
vt 0.123108 2.150391
vt 0.136963 2.225586
vt 0.035889 2.269531
vt 0.113464 2.290039
vt 0.035889 2.146484
vt 0.075012 2.327148
vt 0.121277 2.315430
vt 0.074463 2.334961
vt 0.035889 2.134766
vt 0.035889 2.175781
vt 0.050964 0.957092
vt 0.341309 0.982727
vt 0.498047 0.813110
vt 0.512207 0.651123
vt 0.326660 0.493164
vt 0.069641 0.529297
vt -0.029739 0.748291
vt 0.863281 0.846191
vt 0.780273 0.852417
vt 0.840332 0.833130
vt 0.882324 0.830444
vt 0.866699 0.848633
vt 0.808594 0.826294
vt 0.858398 0.846069
vt 0.780273 0.825073
vt 0.823242 0.839478
vt 0.780273 0.837524
vt 0.780273 0.817993
vt 0.831543 0.819336
vt 0.780273 0.772583
vt 0.876465 0.788818
vt 0.839844 0.779175
vt 0.868652 0.826538
vt 0.854492 0.755371
vt 0.828613 0.752808
vt 0.828613 0.749512
vt 0.780273 0.748779
vt 0.780273 0.747803
vt 0.887207 0.791992
vt 0.889648 0.793457
vt 0.884277 0.791626
vt 0.873047 0.757812
vt 0.873535 0.757812
vt 0.859863 0.779785
vt 0.859375 0.753906
vt 0.818359 0.773560
vt 0.852051 0.813110
vt 0.809082 0.807617
vt 0.780273 0.806641
vt 0.780273 0.773071
s 1
usemtl BodyMT
f 1/1/1 2/2/2 3/3/3
f 4/4/4 1/1/1 3/3/3
f 5/5/5 1/1/1 4/4/4
f 5/5/5 4/4/4 6/6/6
f 7/7/7 5/5/5 6/6/6
f 8/8/8 5/5/5 7/7/7
f 8/8/8 7/7/7 9/9/9
f 7/7/7 10/8/10 9/9/9
f 7/7/7 11/5/11 10/8/10
f 6/6/6 4/4/4 11/5/11
f 11/5/11 4/4/4 12/1/12
f 7/7/7 6/6/6 11/5/11
f 4/4/4 3/3/3 12/1/12
f 12/1/12 3/3/3 13/2/13
f 14/10/14 15/11/15 16/12/16
f 14/10/14 16/12/16 17/13/17
f 16/12/16 18/14/18 17/13/17
f 16/12/16 19/15/19 18/14/18
f 16/12/16 20/16/20 19/15/19
f 16/12/16 21/17/21 20/16/20
f 16/12/16 15/11/15 21/17/21
f 22/10/22 23/13/23 24/12/24
f 22/10/22 24/12/24 25/11/25
f 24/12/24 26/17/26 25/11/25
f 24/12/24 27/16/27 26/17/26
f 24/12/24 28/15/28 27/16/27
f 24/12/24 29/14/29 28/15/28
f 23/13/23 29/14/29 24/12/24
f 30/18/30 31/19/31 32/20/32
f 30/18/30 32/20/32 33/21/33
f 34/22/34 30/18/30 33/21/33
f 35/23/35 30/18/30 34/22/34
f 35/23/35 34/22/34 36/24/36
f 37/25/37 35/23/35 36/24/36
f 37/25/37 36/24/36 38/26/38
f 39/27/39 37/25/37 38/26/38
f 39/27/39 38/26/38 40/28/40
f 41/29/41 39/27/39 40/28/40
f 41/29/41 42/30/42 39/27/39
f 42/30/42 43/31/43 39/27/39
f 42/30/42 44/32/44 43/31/43
f 43/31/43 44/32/44 45/33/45
f 44/32/44 47/34/46 45/33/45
f 47/34/46 46/35/47 45/33/45
f 45/33/45 46/35/47 31/19/48
f 47/34/46 48/33/49 46/35/47
f 44/32/44 48/33/49 47/34/46
f 48/33/49 49/19/50 46/35/47
f 50/31/51 48/33/49 44/32/44
f 51/30/52 50/31/51 44/32/44
f 51/30/52 52/27/53 50/31/51
f 52/27/53 55/28/54 53/26/55
f 52/27/53 53/26/55 54/25/56
f 51/30/52 56/29/57 52/27/53
f 56/29/57 55/28/54 52/27/53
f 57/36/58 56/29/57 51/30/52
f 56/29/57 58/37/59 55/28/54
f 57/36/58 58/37/59 56/29/57
f 58/37/59 59/38/60 55/28/54
f 57/36/58 60/39/61 58/37/59
f 58/37/59 61/40/62 59/38/60
f 60/39/61 61/40/62 58/37/59
f 62/37/63 65/38/64 61/40/62
f 62/37/63 61/40/62 63/39/65
f 63/39/65 61/40/62 64/41/66
f 64/41/66 61/40/62 60/39/61
f 65/38/64 66/42/67 61/40/62
f 59/38/60 61/40/62 74/42/68
f 61/40/62 66/42/67 67/43/69
f 61/40/62 67/43/69 68/44/70
f 61/40/62 68/44/70 69/45/71
f 70/46/72 61/40/62 69/45/71
f 71/45/73 61/40/62 70/46/72
f 72/44/74 61/40/62 71/45/73
f 73/43/75 61/40/62 72/44/74
f 74/42/68 61/40/62 73/43/75
f 59/38/60 74/42/68 75/47/76
f 75/47/76 74/42/68 76/48/77
f 74/42/68 73/43/75 76/48/77
f 75/47/76 76/48/77 77/49/78
f 77/49/78 76/48/77 78/50/79
f 76/48/77 73/43/75 78/50/79
f 78/50/79 72/44/74 79/51/80
f 78/50/79 79/51/80 80/52/81
f 77/49/78 78/50/79 80/52/81
f 73/43/75 72/44/74 78/50/79
f 80/52/81 83/32/82 81/53/83
f 80/52/81 81/53/83 82/54/84
f 80/52/81 79/51/80 83/32/82
f 83/32/82 86/55/85 84/51/86
f 83/32/82 84/51/86 85/52/87
f 81/53/83 83/32/82 85/52/87
f 79/51/80 86/55/85 83/32/82
f 86/55/85 70/46/72 69/45/71
f 86/55/85 69/45/71 84/51/86
f 71/45/73 70/46/72 86/55/85
f 79/51/80 71/45/73 86/55/85
f 87/54/88 81/53/83 85/52/87
f 85/52/87 84/51/86 88/50/89
f 85/52/87 88/50/89 89/49/90
f 36/24/36 89/49/90 90/47/91
f 89/49/90 91/48/92 90/47/91
f 88/50/89 91/48/92 89/49/90
f 66/42/67 90/47/91 91/48/92
f 88/50/89 67/43/69 91/48/92
f 67/43/69 66/42/67 91/48/92
f 38/26/38 36/24/36 90/47/91
f 38/26/38 90/47/91 40/28/40
f 40/28/40 90/47/91 65/38/64
f 65/38/64 90/47/91 66/42/67
f 88/50/89 68/44/70 67/43/69
f 84/51/86 68/44/70 88/50/89
f 92/56/8 81/53/83 87/54/88
f 93/57/93 92/56/8 87/54/88
f 94/58/94 92/56/8 93/57/93
f 33/21/33 94/58/94 93/57/93
f 33/21/33 32/20/32 94/58/94
f 84/51/86 69/45/71 68/44/70
f 81/53/83 95/56/95 82/54/84
f 82/54/84 95/56/95 96/57/96
f 97/21/97 96/57/96 98/58/98
f 98/58/98 96/57/96 95/56/95
f 97/21/97 98/58/98 99/20/99
f 100/18/100 97/21/97 99/20/99
f 100/18/100 99/20/99 49/19/101
f 101/22/102 97/21/97 100/18/100
f 102/23/103 101/22/102 100/18/100
f 103/24/104 101/22/102 102/23/103
f 54/25/56 103/24/104 102/23/103
f 53/26/55 103/24/104 54/25/56
f 53/26/55 75/47/76 103/24/104
f 75/47/76 77/49/78 103/24/104
f 72/44/74 71/45/73 79/51/80
f 55/28/54 75/47/76 53/26/55
f 55/28/54 59/38/60 75/47/76
f 62/37/63 40/28/40 65/38/64
f 63/39/65 64/41/66 104/59/105
f 104/59/105 64/41/66 60/39/61
f 104/59/105 60/39/61 57/36/58
f 104/59/105 57/36/58 105/60/106
f 106/36/107 104/59/105 105/60/106
f 63/39/65 104/59/105 106/36/107
f 106/36/107 105/60/106 42/30/42
f 106/36/107 42/30/42 41/29/41
f 62/37/63 106/36/107 41/29/41
f 62/37/63 63/39/65 106/36/107
f 105/60/106 57/36/58 51/30/52
f 105/60/106 51/30/52 44/32/44
f 105/60/106 44/32/44 42/30/42
f 62/37/63 41/29/41 40/28/40
f 107/61/108 108/62/30 109/63/109
f 110/64/110 107/61/108 109/63/109
f 110/64/110 111/65/111 107/61/108
f 107/61/108 111/65/111 112/66/112
f 107/61/108 112/66/112 113/67/113
f 114/63/114 115/62/115 116/61/116
f 117/64/117 114/63/114 116/61/116
f 117/64/117 116/61/116 118/65/118
f 116/61/116 119/66/119 118/65/118
f 116/61/116 120/67/120 119/66/119
f 121/68/121 125/69/122 122/70/123
f 121/68/121 122/70/123 123/71/124
f 124/72/125 121/68/121 123/71/124
f 124/72/125 125/69/122 121/68/121
f 122/70/123 125/69/122 126/73/126
f 127/74/127 125/69/122 124/72/125
f 126/73/126 125/69/122 129/75/128
f 128/76/129 125/69/122 127/74/127
f 128/76/129 136/77/130 125/69/122
f 129/75/128 125/69/122 130/73/131
f 130/73/131 125/69/122 131/70/132
f 131/70/132 125/69/122 132/68/133
f 125/69/122 133/72/134 132/68/133
f 134/74/135 133/72/134 125/69/122
f 135/76/136 134/74/135 125/69/122
f 136/77/130 135/76/136 125/69/122
f 137/78/137 135/76/136 136/77/130
f 128/76/129 137/78/137 136/77/130
f 140/79/138 138/80/139 137/78/137
f 137/78/137 138/80/139 139/79/140
f 137/78/137 139/79/140 135/76/136
f 128/76/129 140/79/138 137/78/137
f 140/79/138 141/81/141 143/82/142
f 142/83/143 141/81/141 140/79/138
f 128/76/129 142/83/143 140/79/138
f 140/79/138 143/82/142 138/80/139
f 143/82/142 144/84/144 145/85/145
f 141/81/141 144/84/144 143/82/142
f 143/82/142 145/85/145 138/80/139
f 144/84/144 146/86/146 145/85/145
f 145/85/145 146/86/146 147/87/147
f 145/85/145 148/88/148 138/80/139
f 145/85/145 147/87/147 148/88/148
f 148/88/148 147/87/147 149/85/149
f 148/88/148 149/85/149 138/80/139
f 147/87/147 150/86/150 149/85/149
f 149/85/149 150/86/150 151/84/151
f 138/80/139 149/85/149 152/82/152
f 149/85/149 151/84/151 152/82/152
f 152/82/152 151/84/151 153/81/153
f 152/82/152 153/81/153 139/79/140
f 138/80/139 152/82/152 139/79/140
f 153/81/153 154/89/154 155/83/155
f 151/84/151 154/89/154 153/81/153
f 139/79/140 153/81/153 155/83/155
f 155/83/155 154/89/154 156/71/156
f 155/83/155 156/71/156 134/74/135
f 135/76/136 155/83/155 134/74/135
f 135/76/136 139/79/140 155/83/155
f 156/71/156 158/90/157 157/71/158
f 156/71/156 157/71/158 133/72/134
f 156/71/156 133/72/134 134/74/135
f 154/89/154 158/90/157 156/71/156
f 159/91/159 157/71/158 158/90/157
f 160/92/160 159/91/159 158/90/157
f 161/93/161 160/92/160 158/90/157
f 161/93/161 158/90/157 154/89/154
f 151/84/151 160/92/160 161/93/161
f 151/84/151 161/93/161 154/89/154
f 162/94/162 159/91/159 160/92/160
f 162/94/162 160/92/160 163/95/163
f 151/84/151 163/95/163 160/92/160
f 150/86/150 162/94/162 163/95/163
f 150/86/150 163/95/163 151/84/151
f 164/96/164 165/97/165 162/94/162
f 164/96/164 162/94/162 150/86/150
f 162/94/162 165/97/165 159/91/159
f 165/97/165 130/73/131 131/70/132
f 166/98/166 130/73/131 165/97/165
f 164/96/164 166/98/166 165/97/165
f 165/97/165 131/70/132 167/71/167
f 165/97/165 167/71/167 159/91/159
f 159/91/159 167/71/167 157/71/158
f 131/70/132 132/68/133 167/71/167
f 167/71/167 132/68/133 133/72/134
f 167/71/167 133/72/134 157/71/158
f 168/99/168 130/73/131 166/98/166
f 169/100/169 168/99/168 166/98/166
f 169/100/169 166/98/166 164/96/164
f 170/98/170 168/99/168 169/100/169
f 170/98/170 169/100/169 171/96/171
f 147/87/147 171/96/171 169/100/169
f 147/87/147 169/100/169 164/96/164
f 173/97/172 171/96/171 172/94/173
f 146/86/146 172/94/173 171/96/171
f 146/86/146 171/96/171 147/87/147
f 173/97/172 170/98/170 171/96/171
f 122/70/123 126/73/126 173/97/172
f 123/71/124 122/70/123 173/97/172
f 123/71/124 173/97/172 174/91/174
f 173/97/172 126/73/126 170/98/170
f 174/91/174 173/97/172 172/94/173
f 123/71/124 174/91/174 175/71/175
f 175/71/175 174/91/174 176/90/176
f 176/90/176 174/91/174 177/92/177
f 174/91/174 172/94/173 177/92/177
f 176/90/176 177/92/177 178/93/178
f 177/92/177 172/94/173 179/95/179
f 178/93/178 177/92/177 144/84/144
f 144/84/144 177/92/177 179/95/179
f 144/84/144 179/95/179 146/86/146
f 179/95/179 172/94/173 146/86/146
f 180/89/180 176/90/176 178/93/178
f 180/89/180 178/93/178 144/84/144
f 181/71/181 176/90/176 180/89/180
f 142/83/143 181/71/181 180/89/180
f 142/83/143 180/89/180 141/81/141
f 180/89/180 144/84/144 141/81/141
f 124/72/125 175/71/175 181/71/181
f 181/71/181 175/71/175 176/90/176
f 127/74/127 124/72/125 181/71/181
f 127/74/127 181/71/181 142/83/143
f 124/72/125 123/71/124 175/71/175
f 126/73/126 168/99/168 170/98/170
f 126/73/126 129/75/128 168/99/168
f 168/99/168 129/75/128 130/73/131
f 147/87/147 164/96/164 150/86/150
f 128/76/129 127/74/127 142/83/143
