# Blender 5.0.1
# www.blender.org
mtllib Mario64PieDer.mtl
o Mario__BodyMT.015
v 0.196455 -0.392272 -0.231473
v 0.224721 -0.045502 0.268690
v 0.260972 -0.392273 0.390034
v -0.074308 -0.392272 0.390034
v 0.131238 -0.078882 -0.265550
v 0.041200 -0.392272 -0.446376
v -0.057846 -0.034221 -0.412627
v -0.178842 -0.392272 -0.446376
v -0.302742 -0.053046 -0.280793
v -0.365225 -0.392272 -0.233594
v -0.372265 -0.045502 0.268690
v -0.409589 -0.392272 0.390034
v -0.241948 -0.392272 0.622612
v -0.047596 -0.051361 0.516760
v 0.127675 -0.392273 0.622612
v -0.064768 0.113188 0.195576
vn 0.4107 -0.9044 -0.1153
vn 0.7591 0.5578 -0.3356
vn 0.8473 0.5203 0.1064
vn 0.5950 -0.7997 0.0806
vn -0.0000 -1.0000 -0.0000
vn 0.1877 -0.9177 -0.3502
vn -0.1781 -0.9129 -0.3673
vn 0.0471 0.7486 -0.6614
vn -0.7062 0.6088 -0.3615
vn -0.4284 -0.8956 -0.1197
vn -0.8236 0.5422 0.1663
vn -0.5720 -0.8116 0.1187
vn -0.4384 -0.1281 0.8896
vn 0.4559 -0.1680 0.8740
vn 0.0118 0.6573 0.7535
vn 0.0038 0.9986 0.0532
vt 0.920898 0.051758
vt 0.923340 0.062012
vt 0.920410 0.062988
vt 0.918945 0.051758
vt 0.929688 0.051758
vt 0.926270 0.051758
vt 0.933105 0.051758
vt 0.929199 0.063477
vt 0.937500 0.062500
vt 0.939453 0.051758
vt 0.939453 0.062988
vt 0.940918 0.051758
vt 0.935547 0.051758
vt 0.923340 0.051758
vt 0.929199 0.062500
vt 0.929688 0.067871
s 1
usemtl BodyMT
f 1/1/1 5/2/2 2/3/3
f 1/1/1 2/3/3 3/4/4
f 4/5/5 1/1/1 3/4/4
f 4/5/5 6/6/6 1/1/1
f 6/6/6 5/2/2 1/1/1
f 4/5/5 8/7/7 6/6/6
f 6/6/6 7/8/8 5/2/2
f 8/7/7 7/8/8 6/6/6
f 8/7/7 9/9/9 7/8/8
f 4/5/5 10/10/10 8/7/7
f 8/7/7 10/10/10 9/9/9
f 10/10/10 11/11/11 9/9/9
f 12/12/12 11/11/11 10/10/10
f 4/5/5 12/12/12 10/10/10
f 13/13/13 11/11/11 12/12/12
f 4/5/5 13/13/13 12/12/12
f 15/14/14 14/15/15 13/13/13
f 13/13/13 14/15/15 11/11/11
f 4/5/5 15/14/14 13/13/13
f 15/14/14 2/3/3 14/15/15
f 3/4/4 2/3/3 15/14/14
f 4/5/5 3/4/4 15/14/14
f 2/3/3 16/16/16 14/15/15
f 14/15/15 16/16/16 11/11/11
f 7/8/8 16/16/16 5/2/2
f 5/2/2 16/16/16 2/3/3
f 7/8/8 9/9/9 16/16/16
f 9/9/9 11/11/11 16/16/16
