# Blender 5.0.1
# www.blender.org
mtllib Mario64MusloIzq.mtl
o Mario__BodyMT.009
v 0.065530 -0.021358 -0.067849
v 0.243826 -0.072117 -0.296218
v -0.096365 -0.072117 -0.308098
v -0.212788 -0.072117 0.011772
v 0.337652 -0.072117 0.030994
v 0.055449 -0.072117 0.221342
v 0.054591 -0.470152 0.253851
v -0.246587 -0.470152 0.018545
v 0.065938 -0.520289 -0.071071
v 0.371451 -0.470152 0.040127
v 0.266102 -0.470152 -0.327269
v -0.115867 -0.470152 -0.340607
vn -0.0000 1.0000 0.0002
vn 0.8532 0.4171 0.3131
vn 0.5423 0.4289 -0.7225
vn -0.5045 0.4364 -0.7450
vn -0.8730 0.4172 0.2525
vn -0.0313 0.4291 0.9027
vn -0.0321 -0.3875 0.9213
vn -0.8946 -0.3663 0.2558
vn 0.8754 -0.3664 0.3153
vn -0.0000 -1.0000 -0.0000
vn 0.5574 -0.3699 -0.7433
vn -0.5168 -0.3799 -0.7672
vt 0.836426 0.702148
vt 0.881836 0.693848
vt 0.866211 0.693848
vt 0.809570 0.693848
vt 0.790527 0.693848
vt 0.834961 0.693848
vt 0.834961 0.627930
vt 0.784668 0.627930
vt 0.887207 0.627930
vt 0.836426 0.619629
vt 0.869629 0.627930
vt 0.806641 0.627930
s 1
usemtl BodyMT
f 1/1/1 5/2/2 2/3/3
f 1/1/1 2/3/3 3/4/4
f 1/1/1 3/4/4 4/5/5
f 6/6/6 1/1/1 4/5/5
f 6/6/6 5/2/2 1/1/1
f 6/6/6 4/5/5 7/7/7
f 6/6/6 7/7/7 5/2/2
f 4/5/5 8/8/8 7/7/7
f 5/2/2 7/7/7 10/9/9
f 7/7/7 8/8/8 9/10/10
f 7/7/7 9/10/10 10/9/9
f 5/2/2 10/9/9 11/11/11
f 10/9/9 9/10/10 11/11/11
f 5/2/2 11/11/11 2/3/3
f 2/3/3 11/11/11 12/12/12
f 12/12/12 11/11/11 9/10/10
f 2/3/3 12/12/12 3/4/4
f 4/5/5 3/4/4 12/12/12
f 4/5/5 12/12/12 8/8/8
f 12/12/12 9/10/10 8/8/8
