# Blender 5.0.1
# www.blender.org
mtllib Mario64Cabeza.mtl
o Face__FaceMT
v -0.205074 0.168664 0.726607
v -0.515189 -0.011418 0.631173
v -0.209333 0.006653 0.731363
v -0.567629 0.290136 0.599298
v -0.211150 -0.145006 0.646968
v -0.000000 -0.060515 0.712237
v -0.000000 -0.151022 0.662386
v 0.211149 -0.145006 0.646968
v 0.209333 0.006653 0.731363
v -0.370877 -0.287093 0.351469
v -0.000000 -0.365399 0.409315
v 0.370877 -0.287093 0.351469
v 0.515189 -0.011419 0.631173
v 0.205074 0.168664 0.726607
v -0.648869 -0.022793 0.297783
v -0.474452 0.358357 0.590766
v -0.638821 0.314645 0.340551
v 0.648868 -0.022793 0.297783
v 0.567629 0.290136 0.599298
v 0.638820 0.314645 0.340551
v 0.474452 0.358358 0.590766
v -0.000000 0.873518 0.635656
v -0.039480 0.993150 0.655565
v -0.235606 0.817685 0.589346
v 0.272698 0.821116 0.528709
v -0.362851 1.113013 0.521021
v -0.477918 0.822335 0.412884
v 0.407714 1.094371 0.476906
v 0.477918 0.822335 0.412884
v -0.525461 0.967762 0.317640
v -0.631209 0.689511 0.258823
v 0.525461 0.967762 0.317640
v 0.631209 0.689511 0.258823
v -0.711652 0.878542 -0.024322
v -0.750211 0.489732 -0.036763
v 0.711652 0.878542 -0.024322
v 0.750211 0.489732 -0.036763
v 0.510822 1.176680 0.305784
v 0.260014 1.176337 0.497783
v 0.547837 0.604181 -0.451831
v 0.585120 0.314145 -0.324729
v 0.147536 1.180884 0.603925
v -0.000000 1.237253 0.217886
v -0.128270 1.240615 0.613011
v -0.203425 1.241376 0.429579
v -0.510823 1.176680 0.305784
v -0.393682 1.189252 -0.003773
v 0.393682 1.189252 -0.003773
v -0.000000 1.197139 -0.138428
v 0.477578 0.971121 -0.337091
v -0.477578 0.971121 -0.337091
v -0.000000 0.834690 -0.483605
v 0.310728 0.507412 -0.655011
v -0.547838 0.604181 -0.451831
v -0.585121 0.314145 -0.324729
v -0.310728 0.507412 -0.655011
v -0.356649 0.152112 -0.666978
v -0.516762 0.083729 -0.288001
v -0.000000 0.528737 -0.683414
v -0.000000 0.152112 -0.666978
v 0.356649 0.152112 -0.666978
v 0.516762 0.083729 -0.288001
v -0.000000 -0.069961 -0.784023
v 0.402307 0.112428 -0.745158
v 0.253576 -0.029999 -0.788442
v 0.590157 -0.073234 -0.566027
v 0.381000 -0.176633 -0.333487
v 0.446390 -0.029999 -0.772328
v 0.381000 -0.211240 -0.582351
v -0.000000 -0.176633 -0.333487
v -0.381000 -0.211240 -0.582351
v -0.381000 -0.176633 -0.333487
v -0.253576 -0.029999 -0.788441
v -0.590157 -0.073234 -0.566027
v -0.402308 0.112428 -0.745158
v -0.446390 -0.029999 -0.772328
v -0.457351 0.625340 0.580089
v -0.272698 0.821117 0.645595
v -0.616600 0.685049 0.248821
v -0.626035 0.309217 0.332814
v -0.474452 0.358357 0.590766
v -0.560556 0.280168 0.592372
v -0.173172 0.304229 0.705682
v -0.196693 0.166403 0.725074
v -0.301412 0.156960 0.887748
v -0.274466 0.331325 0.886851
v -0.000000 0.427710 0.887129
v -0.000000 0.382758 0.716417
v 0.173172 0.304229 0.705682
v 0.274466 0.331325 0.886851
v 0.301412 0.156960 0.887748
v 0.196693 0.166403 0.725074
v 0.560556 0.280168 0.592372
v 0.474452 0.358357 0.590766
v 0.626035 0.309217 0.332814
v 0.457351 0.625340 0.580089
v 0.616600 0.685049 0.248821
v 0.272698 0.821117 0.645595
v 0.631209 0.689511 0.258822
v 0.471367 1.345369 0.489968
v 0.202756 0.969812 0.680197
v -0.000000 1.464973 0.646917
v -0.202756 0.969812 0.680197
v -0.471367 1.345369 0.489968
v -0.631209 0.689511 0.258823
v 0.631209 0.689511 0.258822
v 0.425409 0.808598 0.928432
v 0.272698 0.821116 0.645595
v -0.000000 0.855311 1.075412
v -0.235606 0.817685 0.706232
v -0.425409 0.808598 0.928432
v -0.631209 0.689511 0.258823
v 0.631209 0.689511 0.258822
v 0.202756 0.969812 0.680197
v 0.425409 0.808598 0.928432
v 0.885799 0.929245 0.018947
v 0.750210 0.489732 -0.036763
v 0.471367 1.345369 0.489968
v 0.288403 1.491828 0.091036
v -0.000000 1.464973 0.646917
v -0.288403 1.491828 0.091036
v -0.471367 1.345369 0.489968
v -0.885799 0.929245 0.018947
v -0.631209 0.689511 0.258823
v -0.425409 0.808598 0.928432
v -0.202756 0.969812 0.680197
v -0.750211 0.489732 -0.036763
v -0.815383 0.578514 -0.325539
v -0.585121 0.314145 -0.324729
v -0.356649 0.152112 -0.666978
v -0.337783 0.241562 -0.878370
v 0.356649 0.152112 -0.666978
v 0.815383 0.578515 -0.325539
v 0.585120 0.314145 -0.324729
v 0.337783 0.241562 -0.878370
v -0.334035 0.539531 -0.878190
v 0.334034 0.539531 -0.878190
v 0.474607 0.805689 -0.544399
v -0.474608 0.805689 -0.544399
v -0.000000 0.855311 1.075412
v -0.356649 0.152112 -0.666978
v 0.000876 0.874901 0.010566
v -0.585121 0.314145 -0.324729
v 0.356649 0.152112 -0.666978
v 0.585120 0.314145 -0.324729
v 0.750210 0.489732 -0.036763
v 0.631209 0.689511 0.258822
v 0.272698 0.821116 0.645595
v -0.235606 0.817685 0.706232
v -0.631209 0.689511 0.258823
v -0.750211 0.489732 -0.036763
v -0.474452 0.358357 0.590766
v -0.457351 0.625340 0.580089
v -0.638821 0.314645 0.340551
v -0.631209 0.689512 0.258822
v -0.272698 0.821117 0.645595
v -0.205074 0.168664 0.726607
v -0.173172 0.304229 0.705682
v -0.567629 0.290136 0.599298
v -0.474452 0.358357 0.590766
v -0.205074 0.168664 0.726607
v -0.306792 0.157607 0.884254
v -0.279274 0.334630 0.883371
v -0.173172 0.304229 0.705682
v -0.209333 0.006653 0.731363
v -0.278588 -0.025088 0.870101
v -0.000000 -0.060515 0.712237
v -0.000000 -0.122866 0.881058
v -0.276855 -0.003601 1.091181
v -0.000000 -0.123174 1.095167
v 0.209333 0.006653 0.731363
v 0.276855 -0.003601 1.091181
v 0.278587 -0.025088 0.870101
v 0.306791 0.157607 0.884254
v 0.308263 0.165439 1.092546
v 0.279273 0.334630 0.883371
v 0.205074 0.168664 0.726607
v 0.173171 0.304229 0.705682
v -0.000000 0.435839 0.884361
v -0.000000 0.382758 0.716417
v -0.280683 0.332565 1.091468
v -0.000000 0.439072 1.093295
v 0.280683 0.332565 1.091468
v -0.000000 0.314433 1.209921
v -0.308263 0.165439 1.092546
v -0.000000 0.045812 1.208104
v -0.750211 0.489732 -0.036763
v -0.891792 0.379954 -0.190439
v -0.745247 0.266224 -0.131486
v -0.585120 0.314145 -0.324729
v -0.886979 0.126684 -0.151221
v -0.516762 0.083729 -0.288001
v -0.684521 -0.021421 0.010362
v -0.516762 0.083729 -0.288001
v -0.381000 -0.176633 -0.333487
v -0.684521 -0.021421 0.010362
v -0.370877 -0.287093 0.351469
v -0.648869 -0.022793 0.297783
v -0.638821 0.314645 0.340551
v -0.000000 -0.176633 -0.333487
v -0.000000 -0.365399 0.409315
v 0.370877 -0.287093 0.351469
v 0.381000 -0.176633 -0.333487
v 0.684521 -0.021421 0.010362
v 0.648868 -0.022793 0.297783
v 0.638820 0.314645 0.340551
v 0.516762 0.083729 -0.288001
v -0.631209 0.689512 0.258822
v -0.750211 0.489732 -0.036763
v -0.638821 0.314645 0.340551
v -0.745247 0.266224 -0.131486
v -0.684521 -0.021421 0.010362
v 0.474452 0.358358 0.590766
v 0.638820 0.314645 0.340551
v 0.457351 0.625340 0.580089
v 0.631209 0.689511 0.258823
v 0.272698 0.821117 0.645595
v 0.205074 0.168664 0.726607
v 0.567629 0.290136 0.599298
v 0.173171 0.304229 0.705682
v 0.474452 0.358358 0.590766
v 0.750210 0.489732 -0.036763
v 0.745247 0.266224 -0.131485
v 0.891792 0.379954 -0.190439
v 0.585120 0.314145 -0.324729
v 0.886979 0.126684 -0.151221
v 0.516762 0.083729 -0.288001
v 0.684521 -0.021421 0.010362
v 0.631209 0.689511 0.258823
v 0.638820 0.314645 0.340551
v 0.750210 0.489732 -0.036763
v 0.745247 0.266224 -0.131485
v 0.684521 -0.021421 0.010362
v -0.616600 0.685049 0.248821
v -0.272698 0.821117 0.645595
v -0.272698 0.929957 0.507926
v -0.000000 0.928241 0.538244
v -0.000000 0.819401 0.675913
v 0.272698 0.821117 0.645595
v 0.272698 0.929957 0.507926
v 0.616600 0.685049 0.248821
v 0.173172 0.304229 0.705682
v 0.474452 0.358357 0.590766
v 0.457351 0.625340 0.580089
v 0.272698 0.821117 0.645595
v -0.000000 0.630957 0.698233
v -0.000000 0.382758 0.716417
v -0.173172 0.304229 0.705682
v -0.272698 0.821117 0.645595
v -0.457351 0.625340 0.580089
v -0.474452 0.358357 0.590766
v -0.000000 0.819401 0.675913
vn -0.9082 0.1253 0.3993
vn -0.6488 -0.3875 0.6549
vn -0.6575 -0.7120 0.2465
vn -0.7456 0.1389 0.6517
vn -0.2444 -0.7184 0.6513
vn 0.0001 -1.0000 0.0020
vn -0.0000 -0.7029 0.7113
vn 0.2449 -0.7176 0.6520
vn 0.6576 -0.7119 0.2465
vn -0.2646 -0.9637 -0.0372
vn -0.0000 -0.9974 -0.0724
vn 0.2645 -0.9637 -0.0372
vn 0.6493 -0.3862 0.6552
vn 0.9083 0.1251 0.3992
vn -0.8876 -0.4090 0.2118
vn -0.5754 0.2165 0.7887
vn -0.9464 0.0375 0.3207
vn 0.8876 -0.4090 0.2118
vn 0.7456 0.1397 0.6516
vn 0.9465 0.0374 0.3206
vn 0.5756 0.2144 0.7891
vn 0.1605 -0.1098 0.9809
vn -0.0059 0.0167 0.9998
vn -0.4519 -0.0137 0.8920
vn 0.4034 -0.0275 0.9146
vn -0.5676 0.2930 0.7694
vn -0.7132 0.0496 0.6992
vn 0.5479 0.1466 0.8236
vn 0.6814 0.0458 0.7305
vn -0.8518 0.1388 0.5051
vn -0.9031 0.1640 0.3969
vn 0.8597 0.1373 0.4920
vn 0.9031 0.1640 0.3969
vn -0.9146 0.3710 -0.1606
vn -0.9674 0.0641 -0.2449
vn 0.9146 0.3710 -0.1606
vn 0.9674 0.0641 -0.2449
vn 0.5394 0.8354 0.1056
vn 0.1781 0.9643 0.1961
vn 0.7764 0.1495 -0.6122
vn 0.8673 -0.1526 -0.4738
vn 0.3364 0.6361 0.6944
vn 0.0254 0.9991 -0.0351
vn -0.0998 0.7612 0.6408
vn -0.2015 0.9789 0.0328
vn -0.5980 0.7926 0.1194
vn -0.3522 0.8984 -0.2623
vn 0.3522 0.8984 -0.2623
vn -0.0000 0.8667 -0.4989
vn 0.4071 0.6318 -0.6596
vn -0.4071 0.6318 -0.6596
vn -0.0000 0.6076 -0.7942
vn 0.2272 0.2305 -0.9462
vn -0.7764 0.1495 -0.6122
vn -0.8673 -0.1526 -0.4738
vn -0.2272 0.2305 -0.9462
vn -0.3485 0.1565 -0.9241
vn -0.9855 -0.1388 -0.0977
vn -0.0000 0.1846 -0.9828
vn -0.0000 0.1252 -0.9921
vn 0.3485 0.1565 -0.9241
vn 0.9855 -0.1388 -0.0977
vn -0.0000 -0.8509 -0.5254
vn 0.5456 0.6861 -0.4813
vn 0.0117 -0.2456 -0.9693
vn 0.9945 -0.0589 -0.0863
vn 0.0665 -0.9977 0.0135
vn 0.4932 -0.3447 -0.7987
vn 0.0021 -0.9840 -0.1780
vn -0.0000 -0.9948 -0.1018
vn -0.0021 -0.9840 -0.1779
vn -0.0665 -0.9977 0.0136
vn -0.0117 -0.2456 -0.9693
vn -0.9945 -0.0589 -0.0863
vn -0.5456 0.6861 -0.4812
vn -0.4932 -0.3447 -0.7987
vn -0.6550 0.2106 0.7256
vn -0.3618 0.1662 0.9173
vn -0.8923 0.1588 0.4225
vn -0.5754 0.2159 0.7889
vn -0.7457 0.1381 0.6518
vn -0.5864 0.4013 0.7036
vn -0.9082 0.1244 0.3997
vn -0.9734 0.0092 -0.2289
vn -0.7069 0.6825 -0.1860
vn -0.0000 0.9961 -0.0882
vn -0.0000 0.6350 0.7725
vn 0.5864 0.4013 0.7036
vn 0.7068 0.6825 -0.1860
vn 0.9734 0.0092 -0.2290
vn 0.9082 0.1244 0.3997
vn 0.7457 0.1381 0.6519
vn 0.5754 0.2159 0.7889
vn 0.9464 0.0375 0.3207
vn 0.6551 0.2106 0.7256
vn 0.8923 0.1588 0.4226
vn 0.3617 0.1662 0.9174
vn 0.7684 -0.0000 0.6400
vn 0.6845 0.5187 0.5122
vn 0.4778 0.5159 0.7110
vn -0.0000 0.7550 0.6557
vn -0.4778 0.5160 0.7110
vn -0.6845 0.5187 0.5122
vn -0.7684 -0.0000 0.6400
vn -0.2524 -0.9630 0.0942
vn -0.1645 -0.9853 0.0450
vn -0.1429 -0.9869 0.0747
vn 0.0039 -0.9980 0.0625
vn 0.1096 -0.9899 0.0900
vn 0.1448 -0.9861 0.0817
vn 0.1839 -0.9759 0.1177
vn 0.7685 0.0001 0.6399
vn 0.4779 0.5158 0.7110
vn 0.4478 0.8782 0.1679
vn 0.8633 0.4822 -0.1488
vn 0.6845 0.5188 0.5121
vn 0.7684 -0.0001 0.6399
vn 0.8831 -0.4061 0.2349
vn 0.1624 0.8007 -0.5767
vn -0.0000 0.7549 0.6558
vn -0.1623 0.8007 -0.5767
vn -0.6845 0.5189 0.5121
vn -0.8633 0.4823 -0.1487
vn -0.7684 -0.0001 0.6399
vn -0.7685 0.0001 0.6399
vn -0.4478 0.8782 0.1679
vn -0.4779 0.5158 0.7110
vn -0.8831 -0.4061 0.2349
vn -0.8924 0.0334 -0.4501
vn -0.7455 -0.6493 -0.1506
vn -0.3467 -0.8558 -0.3839
vn -0.2542 -0.4681 -0.8463
vn 0.3467 -0.8558 -0.3839
vn 0.2549 -0.4666 -0.8469
vn 0.8924 0.0334 -0.4501
vn 0.7455 -0.6493 -0.1506
vn -0.1684 0.5160 -0.8398
vn 0.1684 0.5161 -0.8398
vn 0.1802 0.6947 -0.6963
vn -0.1801 0.6948 -0.6963
vn -0.0000 0.9377 0.3474
vn 0.1095 -0.7079 0.6978
vn -0.1095 -0.7079 0.6978
vn 0.0078 -0.9125 0.4091
vn 0.3482 -0.7213 0.5987
vn -0.3488 -0.7204 0.5995
vn -0.3560 -0.7586 0.5457
vn -0.3583 -0.9030 0.2372
vn -0.1487 -0.9887 -0.0191
vn 0.1527 -0.9879 -0.0290
vn 0.3499 -0.9130 0.2096
vn 0.3542 -0.7592 0.5460
vn -0.5755 0.2165 0.7886
vn -0.6552 0.2106 0.7256
vn -0.9464 0.0375 0.3208
vn -0.8925 0.1573 0.4227
vn -0.3617 0.1662 0.9174
vn -0.9083 0.1251 0.3992
vn -0.5869 0.3990 0.7045
vn -0.7456 0.1388 0.6518
vn -0.5753 0.2166 0.7887
vn -0.9082 0.1251 0.3993
vn -0.6574 -0.7120 0.2467
vn -0.9733 0.0076 -0.2293
vn -0.7065 0.6829 -0.1858
vn -0.5870 0.3991 0.7043
vn -0.7451 -0.6333 -0.2091
vn -0.0000 -0.9840 -0.1781
vn -0.0000 -1.0000 0.0017
vn 0.6575 -0.7119 0.2466
vn -0.7398 -0.5248 0.4211
vn -0.0000 -0.9142 0.4053
vn 0.7398 -0.5247 0.4211
vn 0.7451 -0.6333 -0.2091
vn 0.9733 0.0076 -0.2293
vn 0.8754 -0.0076 0.4833
vn 0.7065 0.6829 -0.1858
vn 0.9082 0.1252 0.3993
vn 0.5864 0.4013 0.7037
vn -0.0000 0.9961 -0.0881
vn -0.0000 0.6356 0.7720
vn -0.6689 0.6832 0.2930
vn -0.0000 0.9803 0.1974
vn 0.6695 0.6824 0.2933
vn -0.0000 0.2526 0.9676
vn -0.8753 -0.0076 0.4835
vn -0.0000 -0.2167 0.9762
vn -0.9676 0.1707 0.1860
vn -0.7950 -0.3077 -0.5228
vn -0.6365 0.4057 -0.6560
vn -0.8575 -0.0412 0.5129
vn -0.7396 -0.4989 -0.4518
vn -0.5796 -0.4435 -0.6836
vn -0.7770 -0.6260 -0.0665
vn -0.5798 -0.4434 -0.6835
vn -0.2411 -0.9439 -0.2255
vn -0.7771 -0.6258 -0.0666
vn -0.2647 -0.9636 -0.0373
vn -0.8876 -0.4091 0.2117
vn -0.9465 0.0374 0.3206
vn -0.0000 -0.9787 -0.2054
vn 0.2646 -0.9636 -0.0373
vn 0.2411 -0.9439 -0.2255
vn 0.7771 -0.6258 -0.0666
vn 0.8877 -0.4090 0.2116
vn 0.9465 0.0374 0.3205
vn 0.5795 -0.4446 -0.6830
vn -0.8926 0.1572 0.4225
vn -0.9464 0.0374 0.3207
vn -0.8575 -0.0412 0.5128
vn -0.7771 -0.6259 -0.0667
vn 0.5758 0.2144 0.7890
vn 0.9464 0.0374 0.3207
vn 0.6553 0.2114 0.7252
vn 0.8923 0.1580 0.4230
vn 0.3618 0.1662 0.9173
vn 0.7455 0.1396 0.6517
vn 0.5863 0.4012 0.7038
vn 0.5756 0.2145 0.7891
vn 0.9677 0.1700 0.1862
vn 0.8575 -0.0412 0.5128
vn 0.6367 0.4057 -0.6558
vn 0.7954 -0.3067 -0.5228
vn 0.7395 -0.4990 -0.4519
vn 0.5792 -0.4448 -0.6831
vn 0.7770 -0.6260 -0.0665
vn 0.8924 0.1579 0.4228
vn 0.8576 -0.0412 0.5127
vn 0.7771 -0.6259 -0.0666
vn -0.8923 0.1587 0.4225
vn -0.4107 0.1585 0.8979
vn -0.0000 0.1738 0.9848
vn -0.0000 0.1173 0.9931
vn 0.4107 0.1585 0.8979
vn 0.8923 0.1587 0.4225
vn 0.5865 0.4013 0.7036
vn 0.5752 0.2158 0.7890
vn 0.6549 0.2105 0.7258
vn -0.0000 0.0939 0.9956
vn -0.0000 0.6351 0.7725
vn -0.5865 0.4012 0.7036
vn -0.6549 0.2105 0.7258
vn -0.5753 0.2158 0.7890
vn -0.0000 0.1176 0.9931
vt 0.337830 0.399414
vt 0.482300 0.362061
vt 0.346191 0.339355
vt 0.485840 0.518311
vt 0.377563 0.270020
vt 0.286316 0.279785
vt 0.276718 0.235352
vt 0.495850 0.176758
vt 0.308350 0.106934
vt 0.596436 0.334961
vt 0.474121 0.565063
vt 0.602051 0.499268
vt 0.271180 0.730758
vt 0.749992 0.449995
vt 1.004883 0.212891
vt 0.808105 0.669739
vt 0.624512 0.383301
vt 0.499878 0.738739
vt 0.375244 0.383301
vt 0.191437 0.669739
vt -0.005127 0.212891
vt 0.713867 0.701538
vt 0.706055 0.706085
vt 0.700195 0.706543
vt 0.689941 0.707855
vt 0.680908 0.706421
vt 0.673828 0.706085
vt 0.666016 0.701538
vt 0.697510 0.712189
vt 0.723389 0.710663
vt 0.707764 0.726440
vt 0.718262 0.693970
vt 0.700928 0.731995
vt 0.689941 0.730972
vt 0.678955 0.731995
vt 0.672119 0.726440
vt 0.656250 0.710663
vt 0.682129 0.712189
vt 0.661377 0.693970
vt 0.658936 0.697327
vt 0.667725 0.687317
vt 0.676270 0.681152
vt 0.677002 0.684570
vt 0.703369 0.681152
vt 0.702637 0.684570
vt 0.720947 0.697327
vt 0.712158 0.687317
vt 0.677246 0.695862
vt 0.702637 0.695862
vt 0.708008 0.705963
vt 0.671875 0.705963
vt 0.697998 0.304932
vt 0.711670 0.304932
vt 0.704834 0.291992
vt 0.693604 0.298340
vt 0.715820 0.298340
vt 0.718994 0.292969
vt 0.716797 0.287354
vt 0.709961 0.279785
vt 0.700195 0.278809
vt 0.692871 0.287354
vt 0.690430 0.292969
vt 0.280106 0.544189
vt 0.304657 0.614746
vt 0.355835 0.505127
vt 0.407349 0.600098
vt 0.284363 0.688965
vt 0.638672 0.445068
vt 0.607422 1.356934
vt 0.594971 1.316895
vt 0.588867 1.350098
vt 0.580322 1.370605
vt 0.591064 1.388184
vt 0.581299 1.328613
vt 0.546143 1.312500
vt 0.546143 1.291992
vt 0.568848 1.340332
vt 0.546143 1.331055
vt 0.571533 1.351562
vt 0.546143 1.386719
vt 0.546143 1.405273
vt 0.568359 1.362305
vt 0.546143 1.371094
vt 0.546143 1.359375
vt 0.546143 1.345215
vt 0.817383 1.460449
vt 0.771484 1.411133
vt 0.857422 1.429688
vt 0.815918 1.397949
vt 0.855957 1.358887
vt 0.751953 1.346680
vt 0.799316 1.317383
vt 1.696289 0.374756
vt 1.674805 0.369385
vt 1.694336 0.397949
vt 1.669922 0.405273
vt 1.687500 0.414551
vt 1.696289 0.440430
vt 1.645508 0.369873
vt 1.645508 0.400146
vt 0.495728 0.755322
vt 0.733398 0.711578
vt 0.477539 0.572510
vt 0.755859 0.556885
vt 0.655273 0.442627
vt 0.223487 0.057131
vt 0.645192 0.137364
vt 0.625446 0.621082
vt 0.367748 0.902463
vt -0.000549 0.635090
vt -0.000549 0.170507
vt 0.000000 0.902463
s 1
usemtl CapMT
f 99/15/98 100/16/99 101/17/100
f 100/16/99 102/18/101 101/17/100
f 101/17/100 102/18/101 103/19/102
f 102/18/101 104/20/103 103/19/102
f 103/19/102 104/20/103 105/21/104
f 106/22/105 107/23/106 108/24/107
f 107/23/106 109/25/108 108/24/107
f 108/24/107 109/25/108 110/26/109
f 109/25/108 111/27/110 110/26/109
f 110/26/109 111/27/110 112/28/111
f 113/22/112 114/29/113 115/23/114
f 116/30/115 118/31/116 113/22/117
f 116/30/115 113/22/117 117/32/118
f 116/30/115 119/33/119 118/31/116
f 119/33/119 120/34/120 118/31/116
f 121/35/121 120/34/120 119/33/119
f 121/35/121 122/36/122 120/34/120
f 123/37/123 122/36/122 121/35/121
f 123/37/123 124/28/124 122/36/122
f 124/28/125 125/27/126 126/38/127
f 127/39/128 124/28/124 123/37/123
f 128/40/129 127/39/128 123/37/123
f 128/40/129 129/41/130 127/39/128
f 128/40/129 130/42/131 129/41/130
f 131/43/132 130/42/131 128/40/129
f 131/43/132 132/44/133 130/42/131
f 135/45/134 133/46/135 132/44/133
f 132/44/133 133/46/135 134/47/136
f 131/43/132 135/45/134 132/44/133
f 131/43/132 136/48/137 135/45/134
f 135/45/134 136/48/137 137/49/138
f 135/45/134 137/49/138 133/46/135
f 133/46/135 137/49/138 138/50/139
f 137/49/138 139/51/140 138/50/139
f 136/48/137 139/51/140 137/49/138
f 139/51/140 123/37/123 121/35/121
f 139/51/140 121/35/121 138/50/139
f 128/40/129 123/37/123 139/51/140
f 136/48/137 128/40/129 139/51/140
f 133/46/135 138/50/139 116/30/115
f 116/30/115 138/50/139 119/33/119
f 138/50/139 121/35/121 119/33/119
f 131/43/132 128/40/129 136/48/137
f 133/46/135 117/32/118 134/47/136
f 133/46/135 116/30/115 117/32/118
f 125/27/126 140/25/141 126/38/127
f 126/38/127 140/25/141 114/29/113
f 114/29/113 140/25/141 115/23/114
f 141/52/142 144/53/143 142/54/144
f 141/52/142 142/54/144 143/55/145
f 144/53/143 145/56/146 142/54/144
f 145/56/146 146/57/147 142/54/144
f 146/57/147 147/58/148 142/54/144
f 142/54/144 147/58/148 148/59/149
f 149/60/150 142/54/144 148/59/149
f 150/61/151 142/54/144 149/60/150
f 151/62/152 142/54/144 150/61/151
f 143/55/145 142/54/144 151/62/152
usemtl EyeMT
f 77/14/77 78/14/78 79/14/79
f 80/14/17 77/14/77 79/14/79
f 81/14/80 77/14/77 80/14/17
f 82/14/81 81/14/80 80/14/17
f 81/14/80 82/14/81 83/14/82
f 84/14/83 83/14/82 82/14/81
f 85/14/84 86/14/85 84/14/83
f 86/14/85 83/14/82 84/14/83
f 83/14/82 86/14/85 87/14/86
f 83/14/82 87/14/86 88/14/87
f 89/14/88 88/14/87 87/14/86
f 89/14/88 87/14/86 90/14/89
f 90/14/89 91/14/90 92/14/91
f 89/14/88 90/14/89 92/14/91
f 92/14/91 93/14/92 89/14/88
f 94/14/93 89/14/88 93/14/92
f 93/14/92 95/14/94 94/14/93
f 94/14/93 95/14/94 96/14/95
f 95/14/94 97/14/96 96/14/95
f 96/14/95 97/14/96 98/14/97
f 234/14/230 235/14/78 236/14/231
f 237/14/232 236/14/231 235/14/78
f 238/14/233 237/14/232 235/14/78
f 238/14/233 239/14/97 237/14/232
f 239/14/97 240/14/234 237/14/232
f 239/14/97 241/14/235 240/14/234
f 242/106/236 243/107/237 244/108/238
f 242/106/236 244/108/238 245/109/97
f 246/110/239 242/106/236 245/109/97
f 247/111/240 242/106/236 246/110/239
f 247/111/240 246/110/239 248/106/241
f 246/110/239 249/109/157 248/106/241
f 248/106/241 249/109/157 250/108/242
f 248/106/241 250/108/242 251/107/243
f 252/112/244 249/109/157 246/110/239
f 252/112/244 246/110/239 245/109/97
usemtl FaceMT
f 1/1/1 2/2/2 3/3/3
f 1/1/1 4/4/4 2/2/2
f 3/3/3 2/2/2 5/5/5
f 3/3/3 5/5/5 6/6/6
f 6/6/6 7/7/7 8/5/8
f 6/6/6 8/5/8 9/3/9
f 6/6/6 5/5/5 7/7/7
f 5/5/5 10/8/10 11/9/11
f 5/5/5 11/9/11 7/7/7
f 5/5/5 2/2/2 10/8/10
f 7/7/7 11/9/11 8/5/8
f 8/5/8 11/9/11 12/8/12
f 8/5/8 13/2/13 9/3/9
f 8/5/8 12/8/12 13/2/13
f 9/3/9 13/2/13 14/1/14
f 10/8/10 2/2/2 15/10/15
f 2/2/2 4/4/4 15/10/15
f 4/4/4 16/11/16 17/12/17
f 4/4/4 17/12/17 15/10/15
f 12/8/12 18/10/18 13/2/13
f 13/2/13 19/4/19 14/1/14
f 13/2/13 18/10/18 19/4/19
f 18/10/18 20/12/20 19/4/19
f 19/4/19 20/12/20 21/11/21
f 152/63/153 153/64/154 154/65/155
f 153/64/154 155/66/156 154/65/155
f 153/64/154 156/67/157 155/66/156
f 157/68/158 158/68/159 159/68/160
f 158/68/159 160/68/161 159/68/160
f 161/69/162 165/70/163 162/71/164
f 161/69/162 162/71/164 163/72/165
f 161/69/162 163/72/165 164/73/166
f 162/71/164 165/70/163 166/74/167
f 165/70/163 168/75/168 166/74/167
f 165/70/163 167/76/169 168/75/168
f 167/76/169 171/70/170 168/75/168
f 166/74/167 168/75/168 169/77/171
f 169/77/171 168/75/168 170/78/172
f 168/75/168 172/77/173 170/78/172
f 168/75/168 171/70/170 173/74/174
f 168/75/168 173/74/174 172/77/173
f 172/77/173 173/74/174 174/71/175
f 171/70/170 174/71/175 173/74/174
f 172/77/173 174/71/175 175/79/176
f 176/72/177 175/79/176 174/71/175
f 176/72/177 174/71/175 177/69/178
f 171/70/170 177/69/178 174/71/175
f 178/73/179 176/72/177 177/69/178
f 179/80/180 176/72/177 178/73/179
f 180/81/181 179/80/180 178/73/179
f 164/73/166 179/80/180 180/81/181
f 163/72/165 181/82/182 179/80/180
f 163/72/165 179/80/180 164/73/166
f 181/82/182 182/83/183 179/80/180
f 179/80/180 182/83/183 183/82/184
f 179/80/180 183/82/184 176/72/177
f 176/72/177 183/82/184 175/79/176
f 184/84/185 183/82/184 182/83/183
f 184/84/185 175/79/176 183/82/184
f 185/79/186 186/85/187 184/84/185
f 185/79/186 184/84/185 181/82/182
f 181/82/182 184/84/185 182/83/183
f 186/85/187 175/79/176 184/84/185
f 169/77/171 170/78/172 186/85/187
f 185/79/186 169/77/171 186/85/187
f 186/85/187 170/78/172 172/77/173
f 186/85/187 172/77/173 175/79/176
f 162/71/164 169/77/171 185/79/186
f 162/71/164 185/79/186 163/72/165
f 163/72/165 185/79/186 181/82/182
f 162/71/164 166/74/167 169/77/171
f 187/86/188 190/87/189 188/88/190
f 187/86/188 188/88/190 189/89/191
f 188/88/190 190/87/189 191/90/192
f 190/87/189 192/91/193 191/90/192
f 191/90/192 192/91/193 193/92/194
f 189/89/191 191/90/192 193/92/194
f 188/88/190 191/90/192 189/89/191
f 194/93/195 195/94/196 196/95/197
f 195/94/196 197/96/198 196/95/197
f 196/95/197 197/96/198 198/97/199
f 196/95/197 198/97/199 199/98/200
f 200/99/201 201/100/11 197/96/198
f 195/94/196 200/99/201 197/96/198
f 200/99/201 202/96/202 201/100/11
f 203/94/203 204/95/204 202/96/202
f 200/99/201 203/94/203 202/96/202
f 202/96/202 204/95/204 205/97/205
f 204/95/204 206/98/206 205/97/205
f 203/94/203 207/93/207 204/95/204
f 208/101/208 209/102/188 210/103/209
f 209/102/188 211/104/210 210/103/209
f 210/103/209 211/104/210 212/105/211
f 213/63/212 214/65/213 215/64/214
f 214/65/213 216/66/215 215/64/214
f 215/64/214 216/66/215 217/67/216
f 218/68/14 219/68/217 220/68/218
f 219/68/217 221/68/219 220/68/218
f 222/86/220 223/89/221 224/88/222
f 222/86/220 224/88/222 225/87/223
f 224/88/222 226/90/224 225/87/223
f 225/87/223 226/90/224 227/91/225
f 226/90/224 228/92/226 227/91/225
f 223/89/221 228/92/226 226/90/224
f 223/89/221 226/90/224 224/88/222
f 229/101/227 230/103/20 231/102/220
f 230/103/20 232/104/228 231/102/220
f 230/103/20 233/105/229 232/104/228
usemtl HairMT
f 22/13/22 23/13/23 24/13/24
f 22/13/22 25/13/25 23/13/23
f 24/13/24 23/13/23 26/13/26
f 24/13/24 26/13/26 27/13/27
f 25/13/25 28/13/28 23/13/23
f 25/13/25 29/13/29 28/13/28
f 27/13/27 26/13/26 30/13/30
f 27/13/27 30/13/30 31/13/31
f 29/13/29 32/13/32 28/13/28
f 29/13/29 33/13/33 32/13/32
f 30/13/30 34/13/34 31/13/31
f 31/13/31 34/13/34 35/13/35
f 33/13/33 36/13/36 32/13/32
f 33/13/33 37/13/37 36/13/36
f 28/13/28 32/13/32 38/13/38
f 32/13/32 36/13/36 38/13/38
f 28/13/28 38/13/38 39/13/39
f 37/13/37 40/13/40 36/13/36
f 37/13/37 41/13/41 40/13/40
f 28/13/28 39/13/39 42/13/42
f 28/13/28 42/13/42 23/13/23
f 38/13/38 43/13/43 39/13/39
f 42/13/42 39/13/39 43/13/43
f 42/13/42 44/13/44 23/13/23
f 42/13/42 43/13/43 44/13/44
f 23/13/23 44/13/44 26/13/26
f 44/13/44 45/13/45 26/13/26
f 44/13/44 43/13/43 45/13/45
f 46/13/46 26/13/26 45/13/45
f 46/13/46 45/13/45 43/13/43
f 30/13/30 26/13/26 46/13/46
f 30/13/30 46/13/46 34/13/34
f 46/13/46 43/13/43 47/13/47
f 46/13/46 47/13/47 34/13/34
f 38/13/38 48/13/48 43/13/43
f 38/13/38 36/13/36 48/13/48
f 43/13/43 49/13/49 47/13/47
f 43/13/43 48/13/48 49/13/49
f 48/13/48 36/13/36 50/13/50
f 48/13/48 50/13/50 49/13/49
f 50/13/50 36/13/36 40/13/40
f 47/13/47 49/13/49 51/13/51
f 47/13/47 51/13/51 34/13/34
f 49/13/49 50/13/50 52/13/52
f 49/13/49 52/13/52 51/13/51
f 50/13/50 40/13/40 53/13/53
f 50/13/50 53/13/53 52/13/52
f 54/13/54 34/13/34 51/13/51
f 35/13/35 34/13/34 54/13/54
f 35/13/35 54/13/54 55/13/55
f 51/13/51 52/13/52 56/13/56
f 54/13/54 51/13/51 56/13/56
f 54/13/54 57/13/57 55/13/55
f 54/13/54 56/13/56 57/13/57
f 55/13/55 57/13/57 58/13/58
f 56/13/56 52/13/52 59/13/59
f 52/13/52 53/13/53 59/13/59
f 56/13/56 59/13/59 60/13/60
f 53/13/53 60/13/60 59/13/59
f 56/13/56 60/13/60 57/13/57
f 40/13/40 61/13/61 53/13/53
f 53/13/53 61/13/61 60/13/60
f 41/13/41 61/13/61 40/13/40
f 41/13/41 62/13/62 61/13/61
f 60/13/60 63/13/63 57/13/57
f 60/13/60 61/13/61 63/13/63
f 62/13/62 64/13/64 61/13/61
f 63/13/63 61/13/61 65/13/65
f 64/13/64 65/13/65 61/13/61
f 62/13/62 66/13/66 64/13/64
f 62/13/62 67/13/67 66/13/66
f 64/13/64 68/13/68 65/13/65
f 66/13/66 68/13/68 64/13/64
f 69/13/69 65/13/65 68/13/68
f 66/13/66 69/13/69 68/13/68
f 66/13/66 67/13/67 69/13/69
f 63/13/63 65/13/65 69/13/69
f 67/13/67 70/13/70 69/13/69
f 63/13/63 69/13/69 70/13/70
f 71/13/71 63/13/63 70/13/70
f 72/13/72 71/13/71 70/13/70
f 73/13/73 63/13/63 71/13/71
f 57/13/57 63/13/63 73/13/73
f 74/13/74 71/13/71 72/13/72
f 58/13/58 74/13/74 72/13/72
f 58/13/58 57/13/57 75/13/75
f 58/13/58 75/13/75 74/13/74
f 75/13/75 57/13/57 73/13/73
f 74/13/74 76/13/76 71/13/71
f 75/13/75 76/13/76 74/13/74
f 73/13/73 71/13/71 76/13/76
f 75/13/75 73/13/73 76/13/76
