# Blender 5.0.1
# www.blender.org
mtllib Mario64PiernaIzq.mtl
o Mario__BodyMT.008
v 0.065565 -0.659501 -0.068802
v 0.243826 -0.608732 -0.296218
v 0.337652 -0.608732 0.030994
v 0.055449 -0.608732 0.221342
v -0.096365 -0.608732 -0.308098
v -0.212788 -0.608732 0.011772
v -0.270729 -0.075517 0.023383
v 0.053979 -0.075517 0.277073
v 0.066213 -0.034922 -0.073234
v -0.104723 -0.075517 -0.322030
v 0.253373 -0.075517 -0.309525
v 0.395594 -0.075517 0.046651
vn -0.0000 -1.0000 -0.0000
vn -0.5206 -0.3270 -0.7887
vn 0.5788 -0.3309 -0.7454
vn 0.8699 -0.3759 0.3193
vn -0.0333 -0.3542 0.9346
vn -0.8901 -0.3757 0.2581
vn -0.9214 0.2973 0.2504
vn -0.0335 0.2821 0.9588
vn -0.5122 0.3034 -0.8035
vn 0.0001 1.0000 -0.0000
vn 0.5707 0.3054 -0.7623
vn 0.9024 0.2959 0.3132
vt 0.836426 0.685547
vt 0.809570 0.693848
vt 0.866211 0.693848
vt 0.881836 0.693848
vt 0.834961 0.693848
vt 0.790527 0.693848
vt 0.780762 0.782227
vt 0.834473 0.782227
vt 0.808105 0.782227
vt 0.836426 0.788940
vt 0.867676 0.782227
vt 0.891113 0.782227
s 1
usemtl BodyMT
f 1/1/1 5/2/2 2/3/3
f 1/1/1 2/3/3 3/4/4
f 1/1/1 3/4/4 4/5/5
f 1/1/1 4/5/5 6/6/6
f 1/1/1 6/6/6 5/2/2
f 6/6/6 4/5/5 7/7/7
f 5/2/2 6/6/6 7/7/7
f 4/5/5 8/8/8 7/7/7
f 5/2/2 7/7/7 10/9/9
f 7/7/7 8/8/8 9/10/10
f 7/7/7 9/10/10 10/9/9
f 5/2/2 10/9/9 11/11/11
f 11/11/11 10/9/9 9/10/10
f 5/2/2 11/11/11 2/3/3
f 2/3/3 11/11/11 12/12/12
f 11/11/11 9/10/10 12/12/12
f 2/3/3 12/12/12 3/4/4
f 4/5/5 3/4/4 12/12/12
f 4/5/5 12/12/12 8/8/8
f 12/12/12 9/10/10 8/8/8
