# Blender 5.0.1
# www.blender.org
mtllib Mario64BrazoDer.mtl
o Mario__BodyMT.012
v 0.038235 0.040615 -0.025478
v 0.038235 -0.037486 0.082019
v 0.038235 -0.073858 -0.028223
v -0.025493 0.000031 0.200890
v 0.038235 -0.032322 -0.156056
v -0.025493 0.168499 -0.030986
v -0.025493 -0.003216 -0.245635
v -0.326001 0.154742 -0.028223
v -0.326001 -0.003216 0.189188
v -0.326001 -0.003216 -0.245635
v -0.389730 -0.032322 -0.156056
v -0.389730 0.060554 -0.028223
v -0.389730 -0.073858 -0.028223
v -0.389730 -0.032322 0.099610
v -0.389730 -0.182599 0.050782
v -0.326001 -0.258799 0.106144
v -0.025493 -0.272555 0.112322
v -0.326001 -0.258799 -0.162591
v -0.025493 -0.272555 -0.174293
v -0.389730 -0.182599 -0.107229
v 0.038235 -0.163856 -0.091914
v 0.038235 -0.163856 0.040959
vn 0.9073 0.4202 0.0137
vn 0.1490 0.3051 0.9406
vn 0.9113 0.1289 0.3910
vn 1.0000 -0.0000 -0.0000
vn 0.9001 0.1335 -0.4147
vn 0.1470 0.9891 -0.0079
vn 0.1567 0.3052 -0.9393
vn -0.1746 0.9846 -0.0000
vn -0.1783 0.3040 0.9358
vn -0.1703 0.3045 -0.9372
vn -0.8778 0.4791 -0.0000
vn -0.8777 0.1488 -0.4555
vn -1.0000 -0.0000 -0.0000
vn -0.8777 0.1481 0.4557
vn -0.1859 -0.7925 0.5809
vn -0.8780 -0.3869 0.2817
vn 0.1489 -0.8045 0.5750
vn -0.1840 -0.7897 -0.5852
vn 0.1449 -0.7965 -0.5871
vn -0.8778 -0.3876 -0.2816
vn 0.9141 -0.3348 -0.2289
vn 0.9159 -0.3213 0.2405
vt 0.639648 0.187500
vt 0.641113 0.186523
vt 0.639648 0.186035
vt 0.639648 0.185059
vt 0.641113 0.190430
vt 0.648926 0.189941
vt 0.648926 0.186523
vt 0.649902 0.187988
vt 0.649902 0.186035
vt 0.649902 0.185059
vt 0.648926 0.181152
vt 0.649902 0.182617
vt 0.641113 0.180664
vt 0.639648 0.183105
s 1
usemtl BodyMT
f 1/1/1 4/2/2 2/3/3
f 1/1/1 2/3/3 3/4/4
f 1/1/1 3/4/4 5/3/5
f 1/1/1 6/5/6 4/2/2
f 1/1/1 5/3/5 6/5/6
f 5/3/5 7/2/7 6/5/6
f 4/2/2 6/5/6 8/6/8
f 6/5/6 7/2/7 8/6/8
f 4/2/2 8/6/8 9/7/9
f 7/2/7 10/7/10 8/6/8
f 9/7/9 8/6/8 12/8/11
f 8/6/8 10/7/10 11/9/12
f 8/6/8 11/9/12 12/8/11
f 12/8/11 11/9/12 13/10/13
f 9/7/9 12/8/11 14/9/14
f 14/9/14 12/8/11 13/10/13
f 16/11/15 9/7/9 14/9/14
f 15/12/16 14/9/14 13/10/13
f 16/11/15 14/9/14 15/12/16
f 4/2/2 9/7/9 16/11/15
f 4/2/2 16/11/15 17/13/17
f 16/11/15 18/11/18 17/13/17
f 16/11/15 15/12/16 18/11/18
f 19/13/19 17/13/17 18/11/18
f 19/13/19 18/11/18 7/2/7
f 7/2/7 18/11/18 10/7/10
f 18/11/18 20/12/20 10/7/10
f 18/11/18 15/12/16 20/12/20
f 10/7/10 20/12/20 11/9/12
f 15/12/16 13/10/13 20/12/20
f 11/9/12 20/12/20 13/10/13
f 21/14/21 17/13/17 19/13/19
f 5/3/5 21/14/21 19/13/19
f 5/3/5 19/13/19 7/2/7
f 22/14/22 17/13/17 21/14/21
f 3/4/4 22/14/22 21/14/21
f 3/4/4 21/14/21 5/3/5
f 2/3/3 4/2/2 22/14/22
f 2/3/3 22/14/22 3/4/4
f 4/2/2 17/13/17 22/14/22
