# Blender 5.0.1
# www.blender.org
mtllib Mario64PiernaDer.mtl
o Mario__BodyMT.010
v -0.062017 -0.659500 -0.068802
v -0.334104 -0.608733 0.030993
v -0.240277 -0.608732 -0.296218
v -0.051901 -0.608732 0.221342
v 0.099913 -0.608731 -0.308098
v 0.216336 -0.608731 0.011772
v 0.274276 -0.075515 0.023383
v -0.050433 -0.075516 0.277073
v -0.062666 -0.034922 -0.073234
v 0.108270 -0.075515 -0.322030
v -0.249826 -0.075517 -0.309525
v -0.392047 -0.075517 0.046651
vn -0.0002 -1.0000 -0.0000
vn 0.0332 -0.3542 0.9346
vn -0.8698 -0.3762 0.3192
vn -0.5788 -0.3307 -0.7454
vn 0.5206 -0.3274 -0.7885
vn 0.8900 -0.3758 0.2582
vn 0.9214 0.2973 0.2504
vn 0.0335 0.2818 0.9589
vn -0.0001 1.0000 -0.0000
vn 0.5122 0.3034 -0.8035
vn -0.5706 0.3053 -0.7623
vn -0.9024 0.2958 0.3132
vt 0.836426 0.685547
vt 0.834961 0.693848
vt 0.881836 0.693848
vt 0.866211 0.693848
vt 0.809570 0.693848
vt 0.790527 0.693848
vt 0.780762 0.782227
vt 0.834473 0.782227
vt 0.836426 0.788940
vt 0.808105 0.782227
vt 0.867676 0.782227
vt 0.891113 0.782227
s 1
usemtl BodyMT
f 1/1/1 4/2/2 2/3/3
f 1/1/1 2/3/3 3/4/4
f 1/1/1 3/4/4 5/5/5
f 1/1/1 6/6/6 4/2/2
f 1/1/1 5/5/5 6/6/6
f 6/6/6 7/7/7 4/2/2
f 5/5/5 7/7/7 6/6/6
f 4/2/2 7/7/7 8/8/8
f 7/7/7 9/9/9 8/8/8
f 5/5/5 10/10/10 7/7/7
f 10/10/10 9/9/9 7/7/7
f 5/5/5 11/11/11 10/10/10
f 11/11/11 9/9/9 10/10/10
f 11/11/11 12/12/12 9/9/9
f 3/4/4 12/12/12 11/11/11
f 3/4/4 11/11/11 5/5/5
f 4/2/2 12/12/12 2/3/3
f 3/4/4 2/3/3 12/12/12
f 4/2/2 8/8/8 12/12/12
f 12/12/12 8/8/8 9/9/9
