# Blender 5.0.1
# www.blender.org
mtllib Mario64AntebrazoIzq.mtl
o Mario64HandL__BodyMT
v 0.394932 -0.245849 0.158109
v 0.405772 -0.251276 0.172268
v 0.392261 -0.244529 0.164706
v 0.465302 -0.280631 -0.015698
v 0.391316 -0.245075 0.150990
v 0.511397 0.034308 0.335909
v 0.705916 -0.392956 0.334921
v 0.306240 -0.281466 0.216864
v 0.381466 -0.005125 0.279238
v 0.858229 0.035536 0.366417
v 0.289114 0.013557 0.329879
v 0.890224 -0.301027 0.256760
v 0.163968 -0.075605 -0.026047
v 0.546632 -0.272103 0.011408
v 0.284304 -0.298571 -0.236359
v 0.368465 -0.258285 -0.180791
v 0.473007 -0.062097 -0.390464
v 0.394297 -0.035876 -0.325984
v 0.284165 -0.044545 -0.391007
v 0.285844 0.184081 -0.051165
v 0.375745 0.139634 -0.032685
v 0.499998 0.245010 -0.033670
v 0.830051 0.013415 -0.391285
v 0.862750 0.262247 -0.031067
v 0.998063 -0.109394 -0.038746
v 0.786553 -0.288388 -0.220498
v 0.876978 -0.309005 0.092066
vn -0.4130 -0.9106 0.0137
vn -0.5853 -0.5380 0.6067
vn -0.1664 -0.6022 0.7808
vn -0.0740 -0.9759 -0.2054
vn 0.1369 -0.9900 0.0333
vn -0.2622 0.4304 0.8637
vn -0.0800 -0.6873 0.7220
vn -0.6931 -0.6027 0.3954
vn -0.0583 0.4670 0.8823
vn 0.4562 0.4501 0.7677
vn -0.7527 0.2571 0.6061
vn 0.7709 -0.5085 0.3837
vn -0.9997 -0.0114 0.0215
vn -0.0956 -0.9443 -0.3148
vn -0.7434 -0.5950 -0.3053
vn 0.4752 -0.8039 -0.3577
vn -0.2423 0.0884 -0.9662
vn -0.0408 0.4812 -0.8756
vn -0.7028 0.1770 -0.6890
vn -0.6964 0.7147 -0.0645
vn -0.2773 0.9598 -0.0430
vn -0.1978 0.9774 -0.0744
vn 0.3974 0.3371 -0.8535
vn 0.4737 0.8803 -0.0255
vn 0.9953 0.0136 -0.0958
vn 0.1840 -0.8312 -0.5246
vn 0.3548 -0.9316 -0.0783
vt 0.139038 2.015625
vt 0.139282 2.014648
vt 0.138916 2.015625
vt 0.141235 2.013672
vt 0.142700 2.024414
vt 0.148926 2.010742
vt 0.136108 2.013672
vt 0.138550 2.022461
vt 0.153809 2.024414
vt 0.135620 2.023438
vt 0.154907 2.013672
vt 0.131592 2.020508
vt 0.143799 2.014648
vt 0.135498 2.013672
vt 0.138184 2.014648
vt 0.141479 2.021484
vt 0.138916 2.021484
vt 0.135376 2.021484
vt 0.135498 2.029297
vt 0.138428 2.027344
vt 0.142334 2.031250
vt 0.152954 2.023438
vt 0.153931 2.031250
vt 0.158325 2.019531
vt 0.151489 2.013672
vt 0.154419 2.012695
s 1
usemtl HandMT
f 1/1/1 2/2/2 3/3/3
f 1/1/1 4/4/4 2/2/2
f 1/1/1 3/3/3 5/3/5
f 1/1/1 5/3/5 4/4/4
f 2/2/2 6/5/6 3/3/3
f 4/4/4 7/6/7 2/2/2
f 2/2/2 7/6/7 6/5/6
f 3/3/3 8/7/8 5/3/5
f 3/3/3 6/5/6 9/8/9
f 3/3/3 9/8/9 8/7/8
f 7/6/7 10/9/10 6/5/6
f 8/7/8 9/8/9 11/10/11
f 7/6/7 12/11/12 10/9/10
f 8/7/8 11/10/11 13/12/13
f 7/6/7 14/13/14 12/11/12
f 4/4/4 14/13/14 7/6/7
f 8/7/8 13/12/13 15/14/15
f 5/3/5 8/7/8 15/14/15
f 4/4/4 5/3/5 16/15/16
f 5/3/5 15/14/15 16/15/16
f 4/4/4 16/15/16 17/16/17
f 4/4/4 17/16/17 14/13/14
f 16/15/16 15/14/15 18/17/18
f 16/15/16 18/17/18 17/16/17
f 15/14/15 13/12/13 19/18/19
f 15/14/15 19/18/19 18/17/18
f 13/12/13 20/19/20 19/18/19
f 19/18/19 20/19/20 18/17/18
f 13/12/13 11/10/11 20/19/20
f 11/10/11 9/8/9 20/19/20
f 18/17/18 20/19/20 21/20/21
f 20/19/20 9/8/9 21/20/21
f 18/17/18 21/20/21 22/21/22
f 22/21/22 21/20/21 9/8/9
f 17/16/17 18/17/18 22/21/22
f 6/5/6 22/21/22 9/8/9
f 6/5/6 10/9/10 22/21/22
f 17/16/17 22/21/22 23/22/23
f 10/9/10 24/23/24 22/21/22
f 24/23/24 23/22/23 22/21/22
f 10/9/10 25/24/25 24/23/24
f 25/24/25 23/22/23 24/23/24
f 12/11/12 25/24/25 10/9/10
f 26/25/26 17/16/17 23/22/23
f 26/25/26 23/22/23 25/24/25
f 14/13/14 17/16/17 26/25/26
f 12/11/12 27/26/27 25/24/25
f 14/13/14 27/26/27 12/11/12
f 26/25/26 25/24/25 27/26/27
f 14/13/14 26/25/26 27/26/27
o Mario__BodyMT.007
v 0.307802 -0.075604 -0.026047
v 0.237566 -0.015738 0.149306
v 0.237566 -0.221877 0.082327
v 0.237566 0.111664 -0.026047
v 0.237566 -0.221877 -0.134422
v 0.237566 -0.013180 -0.214970
v -0.012743 -0.013180 -0.214970
v -0.012743 -0.236676 -0.147011
v -0.012743 0.126463 -0.029019
v -0.067483 -0.169763 -0.098396
v -0.067483 0.043754 -0.029019
v -0.067483 -0.038180 -0.138026
v -0.067483 -0.073857 -0.028223
v -0.067483 -0.037802 0.083234
v -0.067483 -0.169763 0.040357
v -0.012743 -0.012244 0.161895
v -0.012743 -0.236676 0.088972
vn 1.0000 -0.0015 -0.0000
vn 0.2443 0.9697 0.0058
vn 0.2432 0.3014 0.9220
vn 0.2493 -0.7805 0.5733
vn 0.2509 -0.7868 -0.5640
vn 0.2393 0.3012 -0.9230
vn -0.1272 0.3075 -0.9430
vn -0.1257 0.9921 -0.0020
vn -0.1135 -0.8059 -0.5811
vn -0.8821 -0.3792 -0.2796
vn -0.8815 0.4722 -0.0020
vn -0.8785 0.1492 -0.4538
vn -1.0000 -0.0000 -0.0000
vn -0.8822 0.1455 0.4478
vn -0.8820 -0.3813 0.2770
vn -0.1196 0.3052 0.9448
vn -0.1115 -0.8062 0.5810
vt 0.658691 0.185059
vt 0.657227 0.188965
vt 0.657227 0.186523
vt 0.657227 0.182129
vt 0.650391 0.186523
vt 0.650391 0.189453
vt 0.650391 0.181641
vt 0.649414 0.183105
vt 0.649414 0.187500
vt 0.649414 0.186035
vt 0.649414 0.185059
s 1
usemtl BodyMT
f 28/27/28 31/28/29 29/29/30
f 28/27/28 29/29/30 30/30/31
f 28/27/28 30/30/31 32/30/32
f 28/27/28 33/29/33 31/28/29
f 28/27/28 32/30/32 33/29/33
f 33/29/33 34/31/34 31/28/29
f 32/30/32 34/31/34 33/29/33
f 31/28/29 34/31/34 36/32/35
f 32/30/32 35/33/36 34/31/34
f 34/31/34 35/33/36 37/34/37
f 34/31/34 38/35/38 36/32/35
f 34/31/34 37/34/37 39/36/39
f 34/31/34 39/36/39 38/35/38
f 39/36/39 40/37/40 38/35/38
f 37/34/37 40/37/40 39/36/39
f 38/35/38 40/37/40 41/36/41
f 42/34/42 41/36/41 40/37/40
f 37/34/37 42/34/42 40/37/40
f 43/31/43 41/36/41 42/34/42
f 44/33/44 43/31/43 42/34/42
f 44/33/44 42/34/42 37/34/37
f 30/30/31 43/31/43 44/33/44
f 32/30/32 30/30/31 44/33/44
f 32/30/32 44/33/44 35/33/36
f 35/33/36 44/33/44 37/34/37
f 29/29/30 31/28/29 43/31/43
f 30/30/31 29/29/30 43/31/43
f 31/28/29 36/32/35 43/31/43
f 43/31/43 36/32/35 41/36/41
f 36/32/35 38/35/38 41/36/41
