# Blender 5.0.1
# www.blender.org
mtllib Mario64PieIzq.mtl
o Mario__BodyMT.016
v -0.257426 -0.253551 0.390034
v -0.124130 -0.253551 0.622613
v -0.221174 0.093220 0.268690
v -0.192909 -0.253550 -0.231472
v 0.077854 -0.253551 0.390034
v 0.245494 -0.253551 0.622613
v -0.037655 -0.253550 -0.446375
v 0.182387 -0.253551 -0.446375
v 0.368770 -0.253551 -0.233593
v 0.413134 -0.253551 0.390034
v 0.375810 0.093220 0.268690
v 0.051142 0.087360 0.516760
v 0.068314 0.251909 0.195577
v 0.306287 0.085675 -0.280792
v 0.061392 0.104500 -0.412627
v -0.127692 0.059840 -0.265550
vn -0.0000 -1.0000 0.0003
vn -0.4560 -0.1680 0.8740
vn -0.5951 -0.7996 0.0806
vn -0.8473 0.5203 0.1066
vn -0.4107 -0.9044 -0.1152
vn 0.4380 -0.1281 0.8898
vn -0.1877 -0.9177 -0.3502
vn 0.5721 -0.8115 0.1187
vn 0.1777 -0.9128 -0.3676
vn 0.4283 -0.8956 -0.1200
vn 0.8236 0.5422 0.1665
vn -0.0117 0.6572 0.7536
vn -0.0039 0.9986 0.0532
vn 0.7062 0.6089 -0.3613
vn -0.0471 0.7484 -0.6615
vn -0.7590 0.5580 -0.3355
vt 0.929688 0.051758
vt 0.923340 0.051758
vt 0.918945 0.051758
vt 0.920410 0.062988
vt 0.920898 0.051758
vt 0.935547 0.051758
vt 0.926270 0.051758
vt 0.940918 0.051758
vt 0.933105 0.051758
vt 0.939453 0.051758
vt 0.939453 0.062988
vt 0.929199 0.062500
vt 0.929688 0.067871
vt 0.937500 0.062500
vt 0.929199 0.063477
vt 0.923340 0.062012
s 1
usemtl BodyMT
f 5/1/1 2/2/2 1/3/3
f 1/3/3 2/2/2 3/4/4
f 1/3/3 3/4/4 4/5/5
f 5/1/1 1/3/3 4/5/5
f 5/1/1 6/6/6 2/2/2
f 5/1/1 4/5/5 7/7/7
f 5/1/1 10/8/8 6/6/6
f 5/1/1 7/7/7 8/9/9
f 5/1/1 8/9/9 9/10/10
f 5/1/1 9/10/10 10/8/8
f 10/8/8 9/10/10 11/11/11
f 6/6/6 10/8/8 11/11/11
f 6/6/6 11/11/11 12/12/12
f 12/12/12 11/11/11 13/13/13
f 14/14/14 13/13/13 11/11/11
f 9/10/10 14/14/14 11/11/11
f 15/15/15 13/13/13 14/14/14
f 8/9/9 15/15/15 14/14/14
f 8/9/9 14/14/14 9/10/10
f 7/7/7 16/16/16 15/15/15
f 15/15/15 16/16/16 13/13/13
f 7/7/7 15/15/15 8/9/9
f 16/16/16 3/4/4 13/13/13
f 4/5/5 3/4/4 16/16/16
f 7/7/7 4/5/5 16/16/16
f 3/4/4 12/12/12 13/13/13
f 2/2/2 6/6/6 12/12/12
f 2/2/2 12/12/12 3/4/4
