# Blender 5.0.1
# www.blender.org
mtllib Mario64MusloDer.mtl
o Mario__BodyMT.011
v -0.061984 -0.022793 -0.067849
v 0.099913 -0.073551 -0.308098
v -0.240277 -0.073553 -0.296218
v 0.216336 -0.073551 0.011772
v -0.334104 -0.073553 0.030993
v -0.051901 -0.073552 0.221342
v -0.051044 -0.471587 0.253851
v 0.250135 -0.471586 0.018544
v -0.062390 -0.521724 -0.071071
v -0.367903 -0.471588 0.040127
v -0.262555 -0.471588 -0.327269
v 0.119414 -0.471586 -0.340608
vn 0.8730 0.4173 0.2525
vn 0.5046 0.4363 -0.7450
vn -0.0000 1.0000 0.0002
vn -0.5421 0.4291 -0.7225
vn -0.8532 0.4171 0.3131
vn 0.0315 0.4291 0.9027
vn 0.0313 -0.3875 0.9214
vn 0.8946 -0.3663 0.2558
vn -0.8755 -0.3662 0.3152
vn -0.0000 -1.0000 -0.0000
vn -0.5574 -0.3699 -0.7433
vn 0.5167 -0.3798 -0.7673
vt 0.790527 0.693848
vt 0.809570 0.693848
vt 0.836426 0.702148
vt 0.866211 0.693848
vt 0.881836 0.693848
vt 0.834961 0.693848
vt 0.834961 0.627930
vt 0.784668 0.627930
vt 0.887207 0.627930
vt 0.836426 0.619629
vt 0.869629 0.627930
vt 0.806641 0.627930
s 1
usemtl BodyMT
f 4/1/1 2/2/2 1/3/3
f 1/3/3 2/2/2 3/4/4
f 1/3/3 3/4/4 5/5/5
f 6/6/6 4/1/1 1/3/3
f 6/6/6 1/3/3 5/5/5
f 6/6/6 7/7/7 4/1/1
f 6/6/6 5/5/5 7/7/7
f 4/1/1 7/7/7 8/8/8
f 5/5/5 10/9/9 7/7/7
f 7/7/7 9/10/10 8/8/8
f 7/7/7 10/9/9 9/10/10
f 5/5/5 11/11/11 10/9/9
f 10/9/9 11/11/11 9/10/10
f 12/12/12 9/10/10 11/11/11
f 12/12/12 11/11/11 3/4/4
f 5/5/5 3/4/4 11/11/11
f 12/12/12 3/4/4 2/2/2
f 4/1/1 12/12/12 2/2/2
f 4/1/1 8/8/8 12/12/12
f 12/12/12 8/8/8 9/10/10
