# Blender 5.0.1
# www.blender.org
mtllib Mario64AntebrazoDer.mtl
o Mario64HandR__BodyMT
v -0.830783 0.013415 -0.391285
v -0.998795 -0.109395 -0.038746
v -0.863482 0.262247 -0.031067
v -0.858961 0.035535 0.366417
v -0.500730 0.245009 -0.033670
v -0.787285 -0.288388 -0.220498
v -0.473739 -0.062097 -0.390464
v -0.877710 -0.309005 0.092066
v -0.890957 -0.301027 0.256760
v -0.547365 -0.272103 0.011408
v -0.706649 -0.392957 0.334921
v -0.512129 0.034307 0.335909
v -0.466034 -0.280631 -0.015698
v -0.406504 -0.251276 0.172267
v -0.392993 -0.244529 0.164706
v -0.395664 -0.245849 0.158108
v -0.392048 -0.245075 0.150990
v -0.369197 -0.258285 -0.180791
v -0.395029 -0.035876 -0.325984
v -0.285036 -0.298571 -0.236359
v -0.306972 -0.281467 0.216864
v -0.382198 -0.005126 0.279238
v -0.164700 -0.075605 -0.026047
v -0.376477 0.139634 -0.032685
v -0.289846 0.013557 0.329879
v -0.286576 0.184081 -0.051165
v -0.284897 -0.044546 -0.391007
vn -0.3974 0.3371 -0.8535
vn -0.9953 0.0136 -0.0959
vn -0.4731 0.8806 -0.0255
vn -0.4560 0.4514 0.7670
vn 0.1979 0.9774 -0.0743
vn -0.1840 -0.8313 -0.5244
vn 0.2423 0.0884 -0.9662
vn -0.3548 -0.9316 -0.0783
vn -0.7706 -0.5090 0.3835
vn 0.0956 -0.9443 -0.3148
vn 0.0797 -0.6869 0.7224
vn 0.2621 0.4310 0.8634
vn 0.0744 -0.9758 -0.2054
vn 0.5847 -0.5387 0.6065
vn 0.1664 -0.6022 0.7808
vn 0.4130 -0.9106 0.0137
vn -0.1369 -0.9900 0.0333
vn -0.4754 -0.8036 -0.3579
vn 0.0408 0.4812 -0.8756
vn 0.7434 -0.5950 -0.3053
vn 0.6929 -0.6029 0.3955
vn 0.0583 0.4676 0.8820
vn 0.9997 -0.0114 0.0215
vn 0.2773 0.9598 -0.0430
vn 0.7529 0.2556 0.6064
vn 0.6966 0.7145 -0.0645
vn 0.7024 0.1786 -0.6890
vt 0.152954 2.023438
vt 0.158325 2.019531
vt 0.153931 2.031250
vt 0.153809 2.024414
vt 0.142334 2.031250
vt 0.151489 2.013672
vt 0.141479 2.021484
vt 0.154419 2.012695
vt 0.154907 2.013672
vt 0.143799 2.014648
vt 0.148926 2.010742
vt 0.142700 2.024414
vt 0.141235 2.013672
vt 0.139282 2.014648
vt 0.138916 2.015625
vt 0.139038 2.015625
vt 0.138184 2.014648
vt 0.138916 2.021484
vt 0.135498 2.013672
vt 0.136108 2.013672
vt 0.138550 2.022461
vt 0.131592 2.020508
vt 0.138428 2.027344
vt 0.135620 2.023438
vt 0.135498 2.029297
vt 0.135376 2.021484
s 1
usemtl HandMT
f 1/1/1 2/2/2 3/3/3
f 3/3/3 2/2/2 4/4/4
f 5/5/5 1/1/1 3/3/3
f 5/5/5 3/3/3 4/4/4
f 1/1/1 6/6/6 2/2/2
f 5/5/5 7/7/7 1/1/1
f 1/1/1 7/7/7 6/6/6
f 2/2/2 6/6/6 8/8/8
f 2/2/2 8/8/8 9/9/9
f 4/4/4 2/2/2 9/9/9
f 6/6/6 10/10/10 8/8/8
f 9/9/9 8/8/8 10/10/10
f 7/7/7 10/10/10 6/6/6
f 4/4/4 9/9/9 11/11/11
f 9/9/9 10/10/10 11/11/11
f 4/4/4 11/11/11 12/12/12
f 5/5/5 4/4/4 12/12/12
f 11/11/11 10/10/10 13/13/13
f 7/7/7 13/13/13 10/10/10
f 12/12/12 11/11/11 14/14/14
f 11/11/11 13/13/13 14/14/14
f 12/12/12 14/14/14 15/15/15
f 14/14/14 13/13/13 16/16/16
f 15/15/15 14/14/14 16/16/16
f 13/13/13 17/15/17 16/16/16
f 15/15/15 16/16/16 17/15/17
f 7/7/7 18/17/18 13/13/13
f 18/17/18 17/15/17 13/13/13
f 7/7/7 19/18/19 18/17/18
f 5/5/5 19/18/19 7/7/7
f 18/17/18 20/19/20 17/15/17
f 18/17/18 19/18/19 20/19/20
f 15/15/15 17/15/17 21/20/21
f 21/20/21 17/15/17 20/19/20
f 12/12/12 15/15/15 22/21/22
f 15/15/15 21/20/21 22/21/22
f 5/5/5 12/12/12 22/21/22
f 21/20/21 20/19/20 23/22/23
f 5/5/5 22/21/22 24/23/24
f 5/5/5 24/23/24 19/18/19
f 21/20/21 25/24/25 22/21/22
f 21/20/21 23/22/23 25/24/25
f 24/23/24 22/21/22 26/25/26
f 22/21/22 25/24/25 26/25/26
f 24/23/24 26/25/26 19/18/19
f 23/22/23 26/25/26 25/24/25
f 19/18/19 27/26/27 20/19/20
f 20/19/20 27/26/27 23/22/23
f 19/18/19 26/25/26 27/26/27
f 23/22/23 27/26/27 26/25/26
o Mario__BodyMT.013
v -0.308535 -0.075605 -0.026047
v -0.238299 -0.221877 0.082327
v -0.238298 -0.015738 0.149306
v -0.238299 0.111664 -0.026047
v -0.238298 -0.221877 -0.134422
v -0.238299 -0.013180 -0.214970
v 0.012011 -0.013180 -0.214970
v 0.012011 -0.236677 -0.147011
v 0.066751 -0.169764 -0.098396
v 0.012011 0.126463 -0.029019
v 0.066751 0.043754 -0.029019
v 0.066751 -0.038180 -0.138026
v 0.066751 -0.073857 -0.028223
v 0.066751 -0.169764 0.040357
v 0.066751 -0.037803 0.083234
v 0.012011 -0.012244 0.161895
v 0.012011 -0.236677 0.088972
vn -1.0000 -0.0015 -0.0000
vn -0.2507 -0.7871 -0.5636
vn -0.2484 -0.7809 0.5731
vn -0.2432 0.3014 0.9220
vn -0.2443 0.9697 0.0059
vn -0.2386 0.3014 -0.9232
vn 0.1276 0.3062 -0.9434
vn 0.1253 0.9921 -0.0019
vn 0.1139 -0.8058 -0.5811
vn 0.8821 -0.3792 -0.2796
vn 0.8785 0.1488 -0.4539
vn 0.8815 0.4722 -0.0020
vn 1.0000 -0.0000 -0.0000
vn 0.8820 -0.3808 0.2777
vn 0.8822 0.1455 0.4478
vn 0.1196 0.3069 0.9442
vn 0.1119 -0.8062 0.5809
vt 0.658691 0.185059
vt 0.657227 0.182129
vt 0.657227 0.186523
vt 0.657227 0.188965
vt 0.650391 0.186523
vt 0.650391 0.189453
vt 0.650391 0.181641
vt 0.649414 0.183105
vt 0.649414 0.186035
vt 0.649414 0.187500
vt 0.649414 0.185059
s 1
usemtl BodyMT
f 28/27/28 32/28/29 29/28/30
f 28/27/28 29/28/30 30/29/31
f 28/27/28 30/29/31 31/30/32
f 28/27/28 31/30/32 33/29/33
f 28/27/28 33/29/33 32/28/29
f 33/29/33 31/30/32 34/31/34
f 33/29/33 34/31/34 32/28/29
f 31/30/32 37/32/35 34/31/34
f 32/28/29 34/31/34 35/33/36
f 34/31/34 36/34/37 35/33/36
f 34/31/34 39/35/38 36/34/37
f 34/31/34 37/32/35 38/36/39
f 34/31/34 38/36/39 39/35/38
f 39/35/38 38/36/39 40/37/40
f 39/35/38 40/37/40 36/34/37
f 36/34/37 40/37/40 41/34/41
f 41/34/41 40/37/40 42/35/42
f 38/36/39 42/35/42 40/37/40
f 43/31/43 41/34/41 42/35/42
f 43/31/43 42/35/42 37/32/35
f 37/32/35 42/35/42 38/36/39
f 29/28/30 44/33/44 43/31/43
f 29/28/30 43/31/43 30/29/31
f 30/29/31 43/31/43 31/30/32
f 31/30/32 43/31/43 37/32/35
f 44/33/44 41/34/41 43/31/43
f 32/28/29 35/33/36 44/33/44
f 32/28/29 44/33/44 29/28/30
f 35/33/36 36/34/37 44/33/44
f 44/33/44 36/34/37 41/34/41
