# Blender 5.0.1
# www.blender.org
mtllib Goomba.mtl
o skinned
v 0.054148 1.443816 -0.732338 1.0000 1.0000 1.0000
v 0.004885 0.047565 -0.664295 1.0000 1.0000 1.0000
v 0.019655 1.513095 0.664295 1.0000 1.0000 1.0000
v -0.029609 0.116845 0.732338 1.0000 1.0000 1.0000
v 0.552258 1.030355 1.180000 1.0000 1.0000 1.0000
v 1.092258 1.030380 0.750000 1.0000 1.0000 1.0000
v 0.012248 1.250330 1.410000 1.0000 1.0000 1.0000
v -0.477729 0.750308 0.530000 1.0000 1.0000 1.0000
v -0.537742 1.030305 1.180000 1.0000 1.0000 1.0000
v -1.287752 1.250271 -0.000000 1.0000 1.0000 1.0000
v -1.077742 1.030280 0.590000 1.0000 1.0000 1.0000
v -1.077742 1.030280 -0.580000 1.0000 1.0000 1.0000
v 0.300000 -0.019363 0.740003 1.0000 1.0000 1.0000
v 0.250000 0.160637 0.739999 1.0000 1.0000 1.0000
v -0.560000 0.240636 0.709997 1.0000 1.0000 1.0000
v 0.012248 1.250330 -1.400000 1.0000 1.0000 1.0000
v -0.537742 1.030305 -1.170000 1.0000 1.0000 1.0000
v -0.600000 0.010641 0.900003 1.0000 1.0000 1.0000
v -0.600000 0.010597 -0.899997 1.0000 1.0000 1.0000
v 0.552258 1.030355 -1.170000 1.0000 1.0000 1.0000
v 0.000000 -0.019404 -0.959997 1.0000 1.0000 1.0000
v 0.000000 0.240640 0.889997 1.0000 1.0000 1.0000
v 0.492271 0.750352 -0.520000 1.0000 1.0000 1.0000
v 0.000000 -0.019379 0.080003 1.0000 1.0000 1.0000
v 0.000000 0.240623 0.149997 1.0000 1.0000 1.0000
v -0.580000 0.180624 0.199999 1.0000 1.0000 1.0000
v -0.600000 0.010615 -0.149997 1.0000 1.0000 1.0000
v 1.092258 1.030380 -0.740000 1.0000 1.0000 1.0000
v 0.060000 0.290637 0.739996 1.0000 1.0000 1.0000
v 0.000000 -0.019383 -0.079997 1.0000 1.0000 1.0000
v 1.302248 1.250389 0.000000 1.0000 1.0000 1.0000
v 0.250000 0.160611 -0.310001 1.0000 1.0000 1.0000
v 0.250000 0.160601 -0.740001 1.0000 1.0000 1.0000
v 0.250000 0.160626 0.309999 1.0000 1.0000 1.0000
v -0.580000 0.180639 0.839998 1.0000 1.0000 1.0000
v 0.300000 -0.019399 -0.739997 1.0000 1.0000 1.0000
v 0.492271 0.750352 0.530000 1.0000 1.0000 1.0000
v -1.087790 2.080280 -0.000000 1.0000 1.0000 1.0000
v -0.637818 2.690301 0.690000 1.0000 1.0000 1.0000
v -0.967789 2.060285 0.620000 1.0000 1.0000 1.0000
v -0.567789 2.060304 1.050000 1.0000 1.0000 1.0000
v -0.900000 -0.019397 -0.659997 1.0000 1.0000 1.0000
v 0.652182 2.690360 0.690000 1.0000 1.0000 1.0000
v 0.012210 2.080330 1.200000 1.0000 1.0000 1.0000
v -0.600000 0.010623 0.150003 1.0000 1.0000 1.0000
v -0.850000 0.120629 0.410000 1.0000 1.0000 1.0000
v 0.582211 2.060356 1.050000 1.0000 1.0000 1.0000
v 0.982211 2.060374 0.520000 1.0000 1.0000 1.0000
v -0.560000 0.240602 -0.710003 1.0000 1.0000 1.0000
v -0.850000 0.120634 0.640000 1.0000 1.0000 1.0000
v -0.560000 0.240627 0.339997 1.0000 1.0000 1.0000
v 0.682177 2.820361 0.000000 1.0000 1.0000 1.0000
v -0.580000 0.180614 -0.200001 1.0000 1.0000 1.0000
v 0.982211 2.060374 -0.510000 1.0000 1.0000 1.0000
v 0.012176 2.820330 0.740000 1.0000 1.0000 1.0000
v -0.560000 0.240611 -0.340003 1.0000 1.0000 1.0000
v -0.900000 -0.019365 0.660003 1.0000 1.0000 1.0000
v 0.000000 0.240597 -0.890003 1.0000 1.0000 1.0000
v 0.060000 0.290601 -0.740004 1.0000 1.0000 1.0000
v -0.580000 0.180599 -0.840002 1.0000 1.0000 1.0000
v 0.012167 3.030330 0.000000 1.0000 1.0000 1.0000
v -0.667823 2.820299 -0.000000 1.0000 1.0000 1.0000
v 0.012177 2.820330 -0.730000 1.0000 1.0000 1.0000
v 0.582211 2.060356 -1.040000 1.0000 1.0000 1.0000
v 0.012210 2.080330 -1.190000 1.0000 1.0000 1.0000
v -0.567789 2.060304 -1.040000 1.0000 1.0000 1.0000
v 0.060000 0.290626 0.309996 1.0000 1.0000 1.0000
v -0.850000 0.120604 -0.640000 1.0000 1.0000 1.0000
v 0.000000 0.240615 -0.150003 1.0000 1.0000 1.0000
v 0.300000 -0.019374 0.310003 1.0000 1.0000 1.0000
v 1.102210 2.080380 0.000000 1.0000 1.0000 1.0000
v 0.652183 2.690360 -0.680000 1.0000 1.0000 1.0000
v -0.900000 -0.019372 0.380003 1.0000 1.0000 1.0000
v -0.477729 0.750308 -0.520000 1.0000 1.0000 1.0000
v 0.060000 0.290611 -0.310004 1.0000 1.0000 1.0000
v -0.850000 0.120609 -0.410000 1.0000 1.0000 1.0000
v -0.900000 -0.019390 -0.379997 1.0000 1.0000 1.0000
v 0.000000 -0.019358 0.960003 1.0000 1.0000 1.0000
v -0.967789 2.060286 -0.610000 1.0000 1.0000 1.0000
v -0.637817 2.690301 -0.680000 1.0000 1.0000 1.0000
v 0.300000 -0.019389 -0.309997 1.0000 1.0000 1.0000
vn -0.9991 0.0340 -0.0264
vn -0.4799 0.2576 0.8386
vn -0.8583 0.2509 0.4476
vn -0.7762 -0.4979 0.3867
vn -0.4214 -0.4912 0.7623
vn 0.1847 -0.9675 0.1727
vn 0.4015 -0.4984 0.7684
vn 0.7687 -0.4287 0.4746
vn -0.0292 -0.1763 0.9839
vn 0.8805 0.2465 0.4049
vn 0.5433 0.2541 0.8002
vn -0.0242 0.3581 0.9334
vn -0.1972 -0.9632 0.1826
vn -0.7889 -0.4842 -0.3785
vn -0.9843 -0.1728 -0.0355
vn -0.9432 0.3314 -0.0213
vn -0.8710 0.2336 -0.4321
vn -0.4206 -0.4917 -0.7624
vn 0.3653 -0.5011 -0.7845
vn -0.1972 -0.9632 -0.1826
vn 0.0029 -0.1527 -0.9883
vn 0.0088 0.3374 -0.9413
vn -0.4868 0.2462 -0.8381
vn -0.5337 0.6836 -0.4979
vn -0.5966 0.8026 -0.0013
vn 0.1847 -0.9675 -0.1727
vn 0.7677 -0.4592 -0.4470
vn 0.4949 0.2800 -0.8226
vn 0.9840 -0.1777 0.0112
vn 0.8755 0.2797 -0.3940
vn 0.9427 0.3334 0.0089
vn -0.5272 0.6819 0.5070
vn -0.0050 0.8136 0.5814
vn 0.5463 0.6714 0.5008
vn 0.5982 0.8014 -0.0013
vn 0.5393 0.6683 -0.5124
vn 0.0020 1.0000 -0.0017
vn 0.0080 0.8126 -0.5828
vn 0.7743 -0.5251 0.3532
vn 0.7696 -0.5204 -0.3700
vn 0.7712 0.4971 -0.3976
vn 0.7783 0.5058 0.3720
vn -0.7645 -0.5230 -0.3768
vn -0.7647 -0.5156 0.3866
vn -0.7148 0.6423 0.2765
vn -0.7156 0.6304 -0.3009
vn 0.2711 0.9440 0.1881
vn 0.2661 0.9425 -0.2021
vn -0.2417 0.9503 -0.1964
vn -0.2490 0.9522 0.1769
vn 0.1895 -0.5441 -0.8173
vn -0.3298 -0.4893 -0.8074
vn -0.3249 0.6428 -0.6937
vn 0.1817 0.6540 -0.7344
vn -0.3305 -0.5140 0.7916
vn 0.1930 -0.5460 0.8153
vn 0.1968 0.6550 0.7296
vn -0.3391 0.6325 0.6964
vn -0.3377 -0.5090 -0.7918
vn 0.1965 -0.5428 -0.8165
vn 0.1896 -0.5495 0.8137
vn -0.3414 -0.4932 0.8001
vn 0.7727 -0.5222 -0.3610
vn 0.7716 -0.5239 0.3608
vn -0.7643 -0.5228 0.3776
vn -0.7615 -0.5115 -0.3980
vn 0.1912 0.6585 -0.7279
vn 0.7762 0.4996 -0.3846
vn 0.2713 0.9417 0.1989
vn 0.7741 0.5045 0.3824
vn 0.2660 0.9448 -0.1913
vn 0.1901 0.6523 0.7338
vn -0.3406 0.6411 0.6878
vn -0.7154 0.6301 0.3018
vn -0.2416 0.9527 -0.1842
vn -0.7130 0.6384 -0.2899
vn -0.2494 0.9498 0.1889
vn -0.3362 0.6323 -0.6979
vt 0.913399 0.888388
vt 0.599692 0.888388
vt 0.599692 0.602521
vt 0.913399 0.602521
vt 0.424464 0.795318
vt 0.349689 0.790820
vt 0.345191 0.604163
vt 0.214844 0.375000
vt 0.445266 0.610910
vt 0.142792 0.602476
vt 0.243991 0.640707
vt 0.243991 0.793069
vt 0.138856 0.788571
vt 0.043279 0.607536
vt 0.125925 0.905513
vt 0.244553 0.929688
vt 0.363182 0.907762
vt 0.064643 0.791382
vt 0.355469 0.300781
s 1
usemtl Material.002
f 3/1/1 1/2/1 2/3/1
f 3/1/1 2/3/1 4/4/1
f 41/5/2 40/6/3 11/7/4
f 9/8/5 37/8/6 5/8/7
f 6/8/8 5/8/7 37/8/6
f 5/8/7 7/8/9 9/8/5
f 5/8/7 6/8/8 48/8/10
f 5/8/7 48/8/10 47/8/11
f 7/8/9 5/8/7 47/8/11
f 9/8/5 7/8/9 44/8/12
f 7/8/9 47/8/11 44/8/12
f 9/8/5 8/8/13 37/8/6
f 9/8/5 44/8/12 41/8/2
f 9/8/5 11/8/4 8/8/13
f 41/5/2 11/7/4 9/9/5
f 12/10/14 10/11/15 38/12/16
f 11/7/4 10/11/15 12/10/14
f 10/11/15 11/7/4 40/6/3
f 10/11/15 40/6/3 38/12/16
f 12/10/14 38/12/16 79/13/17
f 17/14/18 12/10/14 79/13/17
f 20/8/19 74/8/20 17/8/18
f 12/8/14 17/8/18 74/8/20
f 17/8/18 16/8/21 20/8/19
f 65/8/22 17/8/18 66/8/23
f 65/8/22 16/8/21 17/8/18
f 20/8/19 16/8/21 65/8/22
f 80/15/24 38/12/16 62/16/25
f 20/8/19 23/8/26 74/8/20
f 20/8/19 28/8/27 23/8/26
f 20/8/19 65/8/22 64/8/28
f 64/8/28 28/8/27 20/8/19
f 28/8/27 31/8/29 6/8/8
f 23/8/26 28/8/27 6/8/8
f 64/8/28 54/8/30 28/8/27
f 31/8/29 28/8/27 54/8/30
f 6/8/8 31/8/29 71/8/31
f 31/8/29 54/8/30 71/8/31
f 6/8/8 71/8/31 48/8/10
f 23/8/26 6/8/8 37/8/6
f 38/12/16 40/6/3 39/17/32
f 38/12/16 39/17/32 62/16/25
f 39/17/32 40/6/3 41/5/2
f 55/8/33 41/8/2 44/8/12
f 44/8/12 47/8/11 43/8/34
f 44/8/12 43/8/34 55/8/33
f 47/8/11 48/8/10 43/8/34
f 52/8/35 55/8/33 43/8/34
f 43/8/34 71/8/31 52/8/35
f 43/8/34 48/8/10 71/8/31
f 72/8/36 54/8/30 64/8/28
f 55/8/33 39/8/32 41/8/2
f 52/8/35 61/8/37 55/8/33
f 55/8/33 62/8/25 39/8/32
f 55/8/33 61/8/37 62/8/25
f 63/8/38 64/8/28 65/8/22
f 65/8/22 66/8/23 80/8/24
f 65/8/22 80/8/24 63/8/38
f 62/8/25 63/8/38 80/8/24
f 63/8/38 72/8/36 64/8/28
f 63/8/38 52/8/35 72/8/36
f 62/8/25 61/8/37 63/8/38
f 63/8/38 61/8/37 52/8/35
f 71/8/31 72/8/36 52/8/35
f 71/8/31 54/8/30 72/8/36
f 8/8/13 12/8/14 74/8/20
f 80/15/24 79/13/17 38/12/16
f 8/8/13 23/8/26 37/8/6
f 8/8/13 74/8/20 23/8/26
f 17/14/18 79/13/17 66/18/23
f 66/18/23 79/13/17 80/15/24
f 8/8/13 11/8/4 12/8/14
f 81/19/39 36/19/40 33/19/41
f 81/19/39 33/19/41 32/19/42
f 42/19/43 77/19/44 76/19/45
f 42/19/43 76/19/45 68/19/46
f 75/19/47 59/19/48 49/19/49
f 75/19/47 49/19/49 56/19/50
f 21/19/51 19/19/52 60/19/53
f 21/19/51 60/19/53 58/19/54
f 27/19/55 30/19/56 69/19/57
f 27/19/55 69/19/57 53/19/58
f 56/19/50 76/19/45 53/19/58
f 60/19/53 68/19/46 49/19/49
f 59/19/48 33/19/41 58/19/54
f 69/19/57 32/19/42 75/19/47
f 60/19/53 49/19/49 59/19/48
f 60/19/53 59/19/48 58/19/54
f 69/19/57 75/19/47 56/19/50
f 69/19/57 56/19/50 53/19/58
f 53/19/58 76/19/45 77/19/44
f 53/19/58 77/19/44 27/19/55
f 49/19/49 68/19/46 76/19/45
f 49/19/49 76/19/45 56/19/50
f 19/19/52 42/19/43 68/19/46
f 19/19/52 68/19/46 60/19/53
f 58/19/54 33/19/41 36/19/40
f 58/19/54 36/19/40 21/19/51
f 75/19/47 32/19/42 33/19/41
f 75/19/47 33/19/41 59/19/48
f 30/19/56 81/19/39 32/19/42
f 30/19/56 32/19/42 69/19/57
f 77/19/44 42/19/43 19/19/52
f 77/19/44 19/19/52 27/19/55
f 21/19/51 36/19/40 81/19/39
f 21/19/51 81/19/39 30/19/56
f 19/19/52 21/19/51 30/19/56
f 19/19/52 30/19/56 27/19/55
f 45/19/59 24/19/60 78/19/61
f 45/19/59 78/19/61 18/19/62
f 24/19/60 70/19/63 13/19/64
f 24/19/60 13/19/64 78/19/61
f 45/19/59 18/19/62 57/19/65
f 45/19/59 57/19/65 73/19/66
f 25/19/67 34/19/68 70/19/63
f 25/19/67 70/19/63 24/19/60
f 29/19/69 14/19/70 34/19/68
f 29/19/69 34/19/68 67/19/71
f 78/19/61 13/19/64 14/19/70
f 78/19/61 14/19/70 22/19/72
f 35/19/73 50/19/74 57/19/65
f 35/19/73 57/19/65 18/19/62
f 51/19/75 46/19/76 50/19/74
f 51/19/75 50/19/74 15/19/77
f 45/19/59 73/19/66 46/19/76
f 45/19/59 46/19/76 26/19/78
f 26/19/78 51/19/75 67/19/71
f 26/19/78 67/19/71 25/19/67
f 22/19/72 29/19/69 15/19/77
f 22/19/72 15/19/77 35/19/73
f 67/19/71 34/19/68 25/19/67
f 22/19/72 14/19/70 29/19/69
f 15/19/77 50/19/74 35/19/73
f 26/19/78 46/19/76 51/19/75
f 26/19/78 25/19/67 24/19/60
f 26/19/78 24/19/60 45/19/59
f 22/19/72 35/19/73 18/19/62
f 22/19/72 18/19/62 78/19/61
f 51/19/75 15/19/77 29/19/69
f 51/19/75 29/19/69 67/19/71
f 50/19/74 46/19/76 73/19/66
f 50/19/74 73/19/66 57/19/65
f 34/19/68 14/19/70 13/19/64
f 34/19/68 13/19/64 70/19/63
