# Blender 5.0.1
# www.blender.org
mtllib Abeto.mtl
g birch-2_Malla
v 0.000000 -3.443237 -8.071678
v 0.000001 -3.443239 8.071678
v -0.000001 16.877069 -8.071675
v -0.000000 16.877069 8.071681
v -0.000000 6.729179 0.211498
v -0.183162 6.729179 0.105750
v -0.183162 6.729179 -0.105747
v -0.000000 6.729179 -0.211495
v 0.183162 6.729179 -0.105747
v 0.183162 6.729179 0.105750
v 0.000000 9.673589 0.000002
v -0.272344 2.874436 0.355813
v -0.580487 2.874436 0.177907
v -0.580487 2.874436 -0.177905
v -0.272344 2.874436 -0.355812
v 0.035798 2.874436 -0.177905
v 0.035798 2.874436 0.177907
v 0.000000 -0.938407 0.494702
v -0.428424 -0.938407 0.247351
v -0.428424 -0.938407 -0.247350
v 0.000000 -0.938407 -0.494701
v 0.428424 -0.938407 -0.247350
v 0.428424 -0.938407 0.247351
v -0.041899 -3.431420 0.810387
v -0.743715 -3.431420 0.405194
v -0.743715 -3.431420 -0.405194
v -0.041899 -3.431420 -0.810387
v 0.659917 -3.431420 -0.405194
v 0.659917 -3.431420 0.405194
v 8.071677 -3.443238 0.000000
v -8.071678 -3.443237 0.000000
v 8.071678 16.877068 0.000003
v -8.071677 16.877069 0.000003
v 5.707538 -3.443237 -5.707538
v -5.707538 -3.443239 5.707537
v 5.707538 16.877069 -5.707535
v -5.707538 16.877069 5.707540
v 5.707537 -3.443239 5.707537
v -5.707538 -3.443237 -5.707538
v 5.707538 16.877069 5.707540
v -5.707537 16.877069 -5.707534
vn -1.0000 -0.0000 -0.0000
vn 0.0116 0.0534 0.9985
vn -0.0000 1.0000 -0.0000
vn -0.8599 0.0851 0.5034
vn -0.8599 0.0851 -0.5034
vn 0.0116 0.0534 -0.9985
vn 0.8686 0.0234 -0.4950
vn -0.0225 0.0368 -0.9991
vn -0.8709 0.0357 -0.4902
vn 0.8686 0.0234 0.4950
vn 0.8595 0.0378 0.5097
vn 0.8645 0.1050 -0.4915
vn 0.8595 0.0378 -0.5097
vn -0.8709 0.0357 0.4902
vn -0.0225 0.0368 0.9991
vn 0.0137 0.0830 -0.9965
vn 0.7118 -0.5678 -0.4134
vn -0.0041 -0.5623 -0.8269
vn -0.8609 0.0591 -0.5053
vn -0.8609 0.0591 0.5053
vn 0.0137 0.0830 0.9965
vn 0.8645 0.1050 0.4915
vn -0.7203 -0.5569 0.4135
vn 0.7119 -0.5678 0.4134
vn -0.7203 -0.5569 -0.4135
vn -0.0041 -0.5623 0.8269
vn -0.0000 -0.0000 -1.0000
vn -0.7071 -0.0000 -0.7071
vn 0.7071 -0.0000 -0.7071
vt 1.000000 0.000000
vt 0.000000 1.000000
vt 0.000000 0.000000
vt 0.612226 2.077667
vt 0.457382 2.644496
vt 0.539146 2.065832
vt 0.465230 2.061892
vt 0.392120 2.065968
vt 0.319760 2.075684
vt 0.383061 1.311872
vt 0.477113 1.311931
vt 0.245904 2.089104
vt 0.685518 2.095489
vt 0.190910 1.320366
vt 0.247327 0.531055
vt 0.286936 1.314642
vt 0.570335 1.314959
vt 0.759961 1.328841
vt 0.664219 1.320424
vt 0.364933 0.525866
vt 0.179115 0.028391
vt 0.337531 0.011158
vt 0.485547 0.527622
vt 0.607499 0.531595
vt 0.727212 0.539806
vt 0.843420 0.554528
vt 1.258202 0.154262
vt 0.977416 0.185571
vt 1.090695 -0.073252
vt 0.495272 0.005716
vt 0.653060 0.014259
vt 0.132797 0.545609
vt 0.809000 0.036251
vt 0.964599 0.070623
vt 1.000000 1.000000
vt 1.240126 -0.007850
vt 1.126847 0.250973
vt 0.959340 0.023458
vt 0.019365 0.057396
s 1
g off
g birch-2_Leaf
usemtl Leaf
f 2/1/1 3/2/1 1/3/1
s 3
f 31/1/27 32/2/27 30/3/27
s 4
f 35/1/28 36/2/28 34/3/28
s 5
f 39/1/29 40/2/29 38/3/29
s 1
f 2/1/1 4/35/1 3/2/1
s 3
f 31/1/27 33/35/27 32/2/27
s 4
f 35/1/28 37/35/28 36/2/28
s 5
f 39/1/29 41/35/29 40/2/29
s 2
g birch-2_Bark
usemtl Bark
f 5/4/2 11/5/3 6/6/4
f 6/6/4 11/5/3 7/7/5
f 7/7/5 11/5/3 8/8/6
f 8/8/6 11/5/3 9/9/7
f 7/7/5 15/10/8 14/11/9
f 9/9/7 11/5/3 10/12/10
f 10/13/10 11/5/3 5/4/2
f 17/14/11 22/15/12 16/16/13
f 7/7/5 13/17/14 6/6/4
f 5/4/2 17/18/11 10/13/10
f 6/6/4 12/19/15 5/4/2
f 9/9/7 17/14/11 16/16/13
f 8/8/6 16/16/13 15/10/8
f 21/20/16 28/21/17 27/22/18
f 15/10/8 20/23/19 14/11/9
f 12/19/15 19/24/20 18/25/21
f 17/18/11 18/25/21 23/26/22
f 16/16/13 21/20/16 15/10/8
f 14/11/9 19/24/20 13/17/14
f 25/27/23 27/28/18 29/29/24
f 19/24/20 26/30/25 25/31/23
f 23/32/22 28/21/17 22/15/12
f 20/23/19 27/22/18 26/30/25
f 19/24/20 24/33/26 18/25/21
f 18/25/21 29/34/24 23/26/22
f 7/7/5 8/8/6 15/10/8
f 17/14/11 23/32/22 22/15/12
f 7/7/5 14/11/9 13/17/14
f 5/4/2 12/19/15 17/18/11
f 6/6/4 13/17/14 12/19/15
f 9/9/7 10/12/10 17/14/11
f 8/8/6 9/9/7 16/16/13
f 21/20/16 22/15/12 28/21/17
f 15/10/8 21/20/16 20/23/19
f 12/19/15 13/17/14 19/24/20
f 17/18/11 12/19/15 18/25/21
f 16/16/13 22/15/12 21/20/16
f 14/11/9 20/23/19 19/24/20
f 29/29/24 24/36/26 25/27/23
f 25/27/23 26/37/25 27/28/18
f 27/28/18 28/38/17 29/29/24
f 19/24/20 20/23/19 26/30/25
f 23/32/22 29/39/24 28/21/17
f 20/23/19 21/20/16 27/22/18
f 19/24/20 25/31/23 24/33/26
f 18/25/21 24/33/26 29/34/24
