# Blender 5.0.1
# www.blender.org
mtllib AspaDirigible.mtl
g aspaDer_Malla
v -0.050707 0.059917 0.022759
v -0.084707 0.205918 0.022759
v 0.065293 0.205918 0.022759
v 0.033293 0.059917 0.022759
v -0.116707 0.351918 0.004759
v 0.095293 0.351918 0.040759
v -0.138707 0.495918 -0.011241
v 0.115293 0.495918 0.056759
v -0.124707 0.699918 -0.019241
v 0.099293 0.699918 0.062759
v -0.052707 0.787918 0.008759
v 0.027293 0.787918 0.036759
v -0.050707 0.059917 0.002759
v 0.033293 0.059917 0.002759
v 0.065293 0.205918 0.002759
v -0.084707 0.205918 0.002759
v 0.099293 0.351918 0.022759
v -0.114707 0.351918 -0.015241
v 0.121293 0.495918 0.036759
v -0.134707 0.495918 -0.031241
v 0.107293 0.699918 0.044759
v -0.118707 0.699918 -0.037241
v 0.033293 0.787918 0.018759
v -0.044707 0.787918 -0.011241
v 0.051293 0.029918 0.022759
v 0.193293 -0.014082 0.022759
v 0.117293 -0.144082 0.022759
v 0.007293 -0.042082 0.022759
v 0.335293 -0.058082 0.004759
v 0.229293 -0.242083 0.040759
v 0.471293 -0.112082 -0.011241
v 0.345293 -0.332082 0.056759
v 0.639293 -0.224083 -0.019241
v 0.527293 -0.420082 0.062759
v 0.681293 -0.332082 0.008759
v 0.641293 -0.400083 0.036759
v 0.051293 0.029918 0.002759
v 0.007293 -0.042082 0.002759
v 0.117293 -0.144082 0.002759
v 0.193293 -0.014082 0.002759
v 0.227293 -0.244082 0.022759
v 0.333293 -0.060082 -0.015241
v 0.341293 -0.336082 0.036759
v 0.469293 -0.116083 -0.031241
v 0.523293 -0.426082 0.044759
v 0.637293 -0.230082 -0.037241
v 0.637293 -0.406082 0.018759
v 0.677293 -0.338082 -0.011241
v -0.026707 -0.042082 0.022759
v -0.136707 -0.144082 0.022759
v -0.210707 -0.014082 0.022759
v -0.068707 0.029918 0.022759
v -0.244707 -0.244082 0.004759
v -0.352707 -0.060082 0.040759
v -0.360707 -0.336082 -0.011241
v -0.488707 -0.116083 0.056759
v -0.542707 -0.426082 -0.019241
v -0.654707 -0.230082 0.062759
v -0.656707 -0.406082 0.008759
v -0.694707 -0.338082 0.036759
v -0.026707 -0.042082 0.002759
v -0.068707 0.029918 0.002759
v -0.210707 -0.014082 0.002759
v -0.136707 -0.144082 0.002759
v -0.352707 -0.058082 0.022759
v -0.246707 -0.242083 -0.015241
v -0.490707 -0.112082 0.036759
v -0.362707 -0.332082 -0.031241
v -0.658707 -0.224083 0.044759
v -0.546707 -0.420082 -0.037241
v -0.698707 -0.332082 0.018759
v -0.658707 -0.400083 -0.011241
v -0.012707 0.015918 -0.101241
v -0.012707 0.081918 -0.079241
v -0.050707 0.069918 -0.079241
v -0.074707 0.035918 -0.079241
v -0.074707 -0.004082 -0.079241
v -0.050707 -0.038082 -0.079241
v -0.012707 -0.050082 -0.079241
v 0.027293 -0.038082 -0.079241
v 0.051293 -0.004082 -0.079241
v 0.051293 0.035918 -0.079241
v 0.027293 0.069918 -0.079241
v -0.074707 0.101918 -0.023241
v -0.012707 0.123918 -0.023241
v -0.114707 0.049918 -0.023241
v -0.114707 -0.018082 -0.023241
v -0.074707 -0.070082 -0.023241
v -0.012707 -0.092082 -0.023241
v 0.051293 -0.070082 -0.023241
v 0.089293 -0.018082 -0.023241
v 0.089293 0.049918 -0.023241
v 0.051293 0.101918 -0.023241
v -0.074707 0.101918 0.046759
v -0.012707 0.123918 0.046759
v -0.114707 0.049918 0.046759
v -0.114707 -0.018082 0.046759
v -0.074707 -0.070082 0.046759
v -0.012707 -0.092082 0.046759
v 0.051293 -0.070082 0.046759
v 0.089293 -0.018082 0.046759
v 0.089293 0.049918 0.046759
v 0.051293 0.101918 0.046759
vn -0.0000 -0.0408 0.9992
vn -0.0560 -0.0127 0.9984
vn -0.0000 -0.0000 1.0000
vn -0.1120 -0.0416 0.9928
vn -0.1980 0.0222 0.9800
vn -0.2284 -0.0224 0.9733
vn -0.2871 0.0265 0.9575
vn -0.3157 0.0026 0.9489
vn -0.3393 0.0088 0.9406
vn -0.3370 -0.0169 0.9413
vn -0.3302 -0.0300 0.9434
vn -0.0000 0.0454 -0.9990
vn -0.0000 -0.0000 -1.0000
vn 0.0587 0.0170 -0.9981
vn 0.1171 0.0401 -0.9923
vn 0.2022 -0.0294 -0.9789
vn 0.2295 0.0177 -0.9731
vn 0.2850 -0.0235 -0.9582
vn 0.3132 0.0034 -0.9497
vn 0.3470 -0.0238 -0.9376
vn 0.3500 -0.0085 -0.9367
vn 0.3589 -0.0261 -0.9330
vn -0.0000 -1.0000 -0.0000
vn 0.9759 -0.2184 -0.0000
vn 0.9725 -0.2220 0.0709
vn 0.9768 -0.2141 -0.0000
vn 0.9680 -0.2066 0.1426
vn 0.9540 -0.1843 0.2365
vn 0.9603 -0.0926 0.2630
vn 0.9447 -0.0164 0.3276
vn 0.8961 0.2733 0.3498
vn 0.8099 0.4835 0.3321
vn 0.7054 0.6592 0.2604
vn -0.0000 1.0000 -0.0000
vn -0.8240 0.4863 -0.2908
vn -0.9249 0.2748 -0.2626
vn -0.7002 0.6633 -0.2642
vn -0.9715 -0.0106 -0.2367
vn -0.9827 -0.0864 -0.1636
vn -0.9757 -0.1765 -0.1299
vn -0.9785 -0.1959 -0.0653
vn -0.9755 -0.2178 -0.0324
vn -0.9749 -0.2225 -0.0000
vn -0.9739 -0.2268 -0.0000
vn -0.0352 0.0206 0.9992
vn 0.0171 0.0552 0.9983
vn 0.0202 0.1178 0.9928
vn 0.1186 0.1602 0.9799
vn 0.0957 0.2088 0.9733
vn 0.1665 0.2350 0.9576
vn 0.1574 0.2720 0.9493
vn 0.1769 0.2895 0.9407
vn 0.1519 0.3013 0.9414
vn 0.0393 -0.0230 -0.9990
vn -0.0149 -0.0599 -0.9981
vn -0.0248 -0.1223 -0.9922
vn -0.1277 -0.1612 -0.9786
vn -0.1009 -0.2086 -0.9728
vn -0.1628 -0.2357 -0.9581
vn -0.1532 -0.2730 -0.9497
vn -0.1909 -0.2882 -0.9383
vn -0.1843 -0.2980 -0.9366
vn -0.8533 0.5214 -0.0000
vn -0.6774 -0.7356 -0.0000
vn -0.6742 -0.7367 0.0518
vn -0.6799 -0.7333 -0.0000
vn -0.6583 -0.7456 0.1035
vn -0.6377 -0.7455 0.1939
vn -0.5645 -0.7928 0.2300
vn -0.4914 -0.8169 0.3020
vn -0.2200 -0.9239 0.3132
vn 0.0122 -0.9494 0.3137
vn 0.2246 -0.9383 0.2629
vn 0.8583 -0.5128 -0.0187
vn 0.8583 -0.5129 -0.0188
vn 0.8582 -0.5130 -0.0190
vn 0.8582 -0.5130 -0.0189
vn 0.8314 0.4810 -0.2782
vn 0.6955 0.6697 -0.2603
vn 0.9253 0.2876 -0.2472
vn 0.9253 0.2877 -0.2472
vn 0.4722 0.8443 -0.2533
vn 0.4148 0.8902 -0.1885
vn 0.3331 0.9298 -0.1567
vn 0.3154 0.9452 -0.0842
vn 0.2963 0.9542 -0.0415
vn 0.2960 0.9552 -0.0000
vn 0.0355 0.0202 0.9992
vn 0.0387 -0.0424 0.9983
vn 0.0914 -0.0760 0.9929
vn 0.0792 -0.1820 0.9801
vn 0.1333 -0.1858 0.9735
vn 0.1206 -0.2605 0.9579
vn 0.1562 -0.2722 0.9495
vn 0.1592 -0.3011 0.9402
vn 0.1797 -0.2882 0.9406
vn 0.1796 -0.2883 0.9405
vn -0.0396 -0.0226 -0.9990
vn -0.0444 0.0430 -0.9981
vn -0.0934 0.0827 -0.9922
vn -0.0759 0.1913 -0.9786
vn -0.1305 0.1917 -0.9728
vn -0.1227 0.2594 -0.9579
vn -0.1593 0.2704 -0.9495
vn -0.1536 0.3108 -0.9380
vn -0.1659 0.3094 -0.9364
vn 0.8638 0.5039 -0.0000
vn -0.2960 0.9552 -0.0000
vn -0.2958 0.9546 0.0352
vn -0.3151 0.9465 0.0698
vn -0.3331 0.9321 0.1423
vn -0.4151 0.8917 0.1803
vn -0.4705 0.8398 0.2708
vn -0.6915 0.6525 0.3100
vn -0.8228 0.4585 0.3357
vn -0.9173 0.2691 0.2935
vn -0.8703 -0.4923 -0.0167
vn -0.8702 -0.4923 -0.0167
vn -0.0160 -0.9500 -0.3119
vn 0.2187 -0.9290 -0.2986
vn -0.2280 -0.9384 -0.2597
vn -0.2281 -0.9383 -0.2598
vn 0.4933 -0.8272 -0.2690
vn 0.5647 -0.8028 -0.1914
vn 0.6391 -0.7513 -0.1643
vn 0.6610 -0.7446 -0.0933
vn 0.6784 -0.7332 -0.0467
vn 0.6797 -0.7335 -0.0000
vn 0.6799 -0.7333 -0.0000
vn -0.4140 0.4849 -0.7704
vn -0.0629 0.6340 -0.7708
vn -0.0034 -0.0000 -1.0000
vn -0.6167 0.1403 -0.7746
vn -0.5854 -0.2488 -0.7717
vn -0.3359 -0.5434 -0.7694
vn 0.0543 -0.6351 -0.7705
vn 0.4157 -0.4849 -0.7695
vn 0.6245 -0.1415 -0.7681
vn 0.5908 0.2463 -0.7683
vn 0.3298 0.5445 -0.7712
vn -0.5621 0.7671 -0.3092
vn -0.0211 0.9483 -0.3166
vn -0.9026 0.2896 -0.3186
vn -0.8930 -0.3153 -0.3211
vn -0.5555 -0.7714 -0.3105
vn 0.0110 -0.9484 -0.3168
vn 0.5676 -0.7627 -0.3101
vn 0.9076 -0.2830 -0.3100
vn 0.9010 0.3040 -0.3094
vn 0.5585 0.7698 -0.3089
vn -0.6016 0.7983 -0.0263
vn -0.0153 0.9990 -0.0423
vn -0.9535 0.2998 -0.0315
vn -0.9368 -0.3484 -0.0331
vn -0.5685 -0.8222 -0.0295
vn 0.0265 -0.9989 -0.0376
vn 0.6164 -0.7867 -0.0346
vn 0.9582 -0.2838 -0.0356
vn 0.9406 0.3376 -0.0354
vn 0.5758 0.8170 -0.0310
vt 0.317277 0.272988
vt 0.313642 0.272988
vt 0.314466 0.269451
vt 0.316501 0.269451
vt 0.318003 0.276524
vt 0.312867 0.276524
vt 0.318488 0.280013
vt 0.312334 0.280013
vt 0.318100 0.284955
vt 0.312674 0.284955
vt 0.316356 0.287086
vt 0.314418 0.287086
vt 0.326556 0.150610
vt 0.327332 0.154146
vt 0.329366 0.154146
vt 0.330190 0.150610
vt 0.325733 0.147073
vt 0.330917 0.147073
vt 0.325200 0.143584
vt 0.331401 0.143584
vt 0.325539 0.138642
vt 0.331013 0.138642
vt 0.327332 0.136511
vt 0.329221 0.136511
vt 0.167014 0.023583
vt 0.166529 0.023583
vt 0.166529 0.025618
vt 0.167014 0.025618
vt 0.128611 0.206554
vt 0.128611 0.207039
vt 0.125075 0.207039
vt 0.125075 0.206554
vt 0.132149 0.207039
vt 0.132149 0.207475
vt 0.135637 0.207378
vt 0.135637 0.207862
vt 0.140579 0.207572
vt 0.140579 0.208008
vt 0.142710 0.206942
vt 0.142710 0.207378
vt 0.016436 0.193883
vt 0.016921 0.193689
vt 0.017599 0.195627
vt 0.017162 0.195772
vt 0.204398 0.045049
vt 0.204398 0.044613
vt 0.202266 0.043935
vt 0.202266 0.044419
vt 0.209340 0.044903
vt 0.209340 0.044419
vt 0.212828 0.044516
vt 0.212828 0.044031
vt 0.216365 0.044080
vt 0.216365 0.043595
vt 0.219901 0.044080
vt 0.219901 0.043595
vt 0.024818 0.223246
vt 0.026660 0.226396
vt 0.023220 0.227462
vt 0.022154 0.225717
vt 0.027531 0.220872
vt 0.030099 0.225330
vt 0.030342 0.218692
vt 0.033394 0.224022
vt 0.034751 0.216560
vt 0.037464 0.221309
vt 0.037512 0.217045
vt 0.038481 0.218692
vt 0.057162 0.220776
vt 0.059826 0.218305
vt 0.058760 0.216560
vt 0.055320 0.217626
vt 0.054497 0.223198
vt 0.051929 0.218741
vt 0.051735 0.225427
vt 0.048634 0.220097
vt 0.047326 0.227607
vt 0.044564 0.222859
vt 0.044564 0.227122
vt 0.043595 0.225475
vt 0.175421 0.124130
vt 0.175421 0.123645
vt 0.173677 0.123645
vt 0.173677 0.124130
vt 0.016460 0.243549
vt 0.015975 0.243549
vt 0.015975 0.246213
vt 0.016460 0.246213
vt 0.015975 0.240884
vt 0.015539 0.240836
vt 0.015636 0.238122
vt 0.015152 0.238026
vt 0.015442 0.233714
vt 0.015006 0.233617
vt 0.016072 0.230952
vt 0.015636 0.230855
vt 0.203913 0.052802
vt 0.204058 0.053287
vt 0.202411 0.053965
vt 0.202266 0.053529
vt 0.206530 0.052172
vt 0.206675 0.052608
vt 0.065183 0.249558
vt 0.065668 0.249606
vt 0.065473 0.253676
vt 0.065037 0.253628
vt 0.065570 0.246263
vt 0.066055 0.246312
vt 0.066006 0.242872
vt 0.066491 0.242872
vt 0.066006 0.239432
vt 0.066491 0.239432
vt 0.229715 0.490992
vt 0.231508 0.487843
vt 0.234172 0.490313
vt 0.233155 0.492057
vt 0.226275 0.489877
vt 0.228891 0.485420
vt 0.222980 0.488521
vt 0.226081 0.483191
vt 0.218959 0.485759
vt 0.221672 0.481011
vt 0.217990 0.483143
vt 0.218911 0.481495
vt 0.482609 0.397739
vt 0.479170 0.396673
vt 0.478152 0.398417
vt 0.480817 0.400888
vt 0.486050 0.398805
vt 0.483482 0.403262
vt 0.489393 0.400113
vt 0.486292 0.405442
vt 0.493462 0.402826
vt 0.490749 0.407574
vt 0.494431 0.405442
vt 0.493462 0.407089
vt 0.143973 0.473864
vt 0.143973 0.474348
vt 0.142228 0.474348
vt 0.142228 0.473864
vt 0.481011 0.140216
vt 0.481496 0.140216
vt 0.481496 0.143656
vt 0.481011 0.143656
vt 0.481496 0.136776
vt 0.481932 0.136776
vt 0.481835 0.133433
vt 0.482319 0.133481
vt 0.482029 0.129363
vt 0.482465 0.129460
vt 0.477909 0.323407
vt 0.478055 0.322970
vt 0.475438 0.322341
vt 0.475293 0.322776
vt 0.479557 0.324133
vt 0.479702 0.323649
vt 0.483894 0.476454
vt 0.483458 0.476358
vt 0.482780 0.479119
vt 0.483264 0.479168
vt 0.483749 0.471997
vt 0.483264 0.471948
vt 0.483361 0.469187
vt 0.482876 0.469139
vt 0.482925 0.466522
vt 0.482440 0.466522
vt 0.482925 0.463857
vt 0.482440 0.463857
vt 0.712196 0.465577
vt 0.711276 0.465287
vt 0.711276 0.466886
vt 0.712777 0.466401
vt 0.712777 0.467370
vt 0.712196 0.468194
vt 0.711276 0.468485
vt 0.710306 0.468194
vt 0.709725 0.467370
vt 0.709725 0.466401
vt 0.710306 0.465577
vt 0.338065 0.715515
vt 0.338065 0.714595
vt 0.339421 0.714013
vt 0.339421 0.715515
vt 0.714789 0.399725
vt 0.715612 0.399725
vt 0.715274 0.398368
vt 0.714013 0.398368
vt 0.716582 0.399725
vt 0.716921 0.398368
vt 0.717405 0.399725
vt 0.718179 0.398368
vt 0.226760 0.717914
vt 0.226760 0.716993
vt 0.225403 0.716993
vt 0.225403 0.718495
vt 0.226760 0.716024
vt 0.225403 0.715443
vt 0.303104 0.716872
vt 0.303927 0.716872
vt 0.303588 0.718229
vt 0.302328 0.718229
vt 0.304897 0.716872
vt 0.305235 0.718229
vt 0.305720 0.716872
vt 0.306494 0.718229
vt 0.338065 0.716484
vt 0.339421 0.717066
vt 0.341117 0.714013
vt 0.341117 0.715515
vt 0.715274 0.396673
vt 0.714013 0.396673
vt 0.716921 0.396673
vt 0.718179 0.396673
vt 0.223708 0.716993
vt 0.223708 0.718495
vt 0.223708 0.715443
vt 0.303588 0.719924
vt 0.302328 0.719924
vt 0.305235 0.719924
vt 0.306494 0.719924
vt 0.341117 0.717066
s 1
g off
g aspaDer_wire_028149177
usemtl wire_028149177
f 3/1/1 2/2/2 1/3/3
f 1/3/3 4/4/3 3/1/1
f 6/5/4 5/6/5 2/2/2
f 2/2/2 3/1/1 6/5/4
f 8/7/6 7/8/7 5/6/5
f 5/6/5 6/5/4 8/7/6
f 10/9/8 9/10/9 7/8/7
f 7/8/7 8/7/6 10/9/8
f 12/11/10 11/12/11 9/10/9
f 9/10/9 10/9/8 12/11/10
s 2
f 15/13/12 14/14/13 13/15/13
f 13/15/13 16/16/14 15/13/12
f 17/17/15 15/13/12 16/16/14
f 16/16/14 18/18/16 17/17/15
f 19/19/17 17/17/15 18/18/16
f 18/18/16 20/20/18 19/19/17
f 21/21/19 19/19/17 20/20/18
f 20/20/18 22/22/20 21/21/19
f 23/23/21 21/21/19 22/22/20
f 22/22/20 24/24/22 23/23/21
s 3
f 14/25/23 4/26/23 1/27/23
f 1/27/23 13/28/23 14/25/23
s 4
f 15/29/24 3/30/25 4/31/26
f 4/31/26 14/32/26 15/29/24
f 17/33/27 6/34/28 3/30/25
f 3/30/25 15/29/24 17/33/27
f 19/35/29 8/36/30 6/34/28
f 6/34/28 17/33/27 19/35/29
f 21/37/31 10/38/32 8/36/30
f 8/36/30 19/35/29 21/37/31
f 23/39/33 12/40/33 10/38/32
f 10/38/32 21/37/31 23/39/33
s 5
f 24/41/34 11/42/34 12/43/34
f 12/43/34 23/44/34 24/41/34
s 6
f 22/45/35 9/46/36 11/47/37
f 11/47/37 24/48/37 22/45/35
f 20/49/38 7/50/39 9/46/36
f 9/46/36 22/45/35 20/49/38
f 18/51/40 5/52/41 7/50/39
f 7/50/39 20/49/38 18/51/40
f 16/53/42 2/54/43 5/52/41
f 5/52/41 18/51/40 16/53/42
f 13/55/44 1/56/44 2/54/43
f 2/54/43 16/53/42 13/55/44
s 7
f 27/57/45 26/58/46 25/59/3
f 25/59/3 28/60/3 27/57/45
f 30/61/47 29/62/48 26/58/46
f 26/58/46 27/57/45 30/61/47
f 32/63/49 31/64/50 29/62/48
f 29/62/48 30/61/47 32/63/49
f 34/65/51 33/66/52 31/64/50
f 31/64/50 32/63/49 34/65/51
f 36/67/53 35/68/53 33/66/52
f 33/66/52 34/65/51 36/67/53
s 8
f 39/69/54 38/70/13 37/71/13
f 37/71/13 40/72/55 39/69/54
f 41/73/56 39/69/54 40/72/55
f 40/72/55 42/74/57 41/73/56
f 43/75/58 41/73/56 42/74/57
f 42/74/57 44/76/59 43/75/58
f 45/77/60 43/75/58 44/76/59
f 44/76/59 46/78/61 45/77/60
f 47/79/62 45/77/60 46/78/61
f 46/78/61 48/80/62 47/79/62
s 9
f 38/81/63 28/82/63 25/83/63
f 25/83/63 37/84/63 38/81/63
s 10
f 39/85/64 27/86/65 28/87/66
f 28/87/66 38/88/66 39/85/64
f 41/89/67 30/90/68 27/86/65
f 27/86/65 39/85/64 41/89/67
f 43/91/69 32/92/70 30/90/68
f 30/90/68 41/89/67 43/91/69
f 45/93/71 34/94/72 32/92/70
f 32/92/70 43/91/69 45/93/71
f 47/95/73 36/96/73 34/94/72
f 34/94/72 45/93/71 47/95/73
s 11
f 48/97/74 35/98/75 36/99/76
f 36/99/76 47/100/77 48/97/74
s 12
f 46/101/78 33/102/79 35/98/80
f 35/98/80 48/97/81 46/101/78
f 44/103/82 31/104/83 33/105/79
f 33/105/79 46/106/78 44/103/82
f 42/107/84 29/108/85 31/104/83
f 31/104/83 44/103/82 42/107/84
f 40/109/86 26/110/87 29/108/85
f 29/108/85 42/107/84 40/109/86
f 37/111/87 25/112/87 26/110/87
f 26/110/87 40/109/86 37/111/87
s 13
f 51/113/88 50/114/89 49/115/3
f 49/115/3 52/116/3 51/113/88
f 54/117/90 53/118/91 50/114/89
f 50/114/89 51/113/88 54/117/90
f 56/119/92 55/120/93 53/118/91
f 53/118/91 54/117/90 56/119/92
f 58/121/94 57/122/95 55/120/93
f 55/120/93 56/119/92 58/121/94
f 60/123/96 59/124/97 57/122/95
f 57/122/95 58/121/94 60/123/96
s 14
f 63/125/98 62/126/13 61/127/13
f 61/127/13 64/128/99 63/125/98
f 65/129/100 63/125/98 64/128/99
f 64/128/99 66/130/101 65/129/100
f 67/131/102 65/129/100 66/130/101
f 66/130/101 68/132/103 67/131/102
f 69/133/104 67/131/102 68/132/103
f 68/132/103 70/134/105 69/133/104
f 71/135/106 69/133/104 70/134/105
f 70/134/105 72/136/106 71/135/106
s 15
f 62/137/107 52/138/107 49/139/107
f 49/139/107 61/140/107 62/137/107
s 16
f 63/141/108 51/142/109 52/143/108
f 52/143/108 62/144/108 63/141/108
f 65/145/110 54/146/111 51/142/109
f 51/142/109 63/141/108 65/145/110
f 67/147/112 56/148/113 54/146/111
f 54/146/111 65/145/110 67/147/112
f 69/149/114 58/150/115 56/148/113
f 56/148/113 67/147/112 69/149/114
f 71/151/116 60/152/116 58/153/115
f 58/153/115 69/154/114 71/151/116
s 17
f 72/155/117 59/156/117 60/152/118
f 60/152/118 71/151/118 72/155/117
s 18
f 70/157/119 57/158/120 59/159/121
f 59/159/121 72/160/122 70/157/119
f 68/161/123 55/162/124 57/158/120
f 57/158/120 70/157/119 68/161/123
f 66/163/125 53/164/126 55/162/124
f 55/162/124 68/161/123 66/163/125
f 64/165/127 50/166/128 53/164/126
f 53/164/126 66/163/125 64/165/127
f 61/167/129 49/168/129 50/166/128
f 50/166/128 64/165/127 61/167/129
s 19
g aspaDer_wire_057008136
usemtl wire_057008136
f 75/169/130 74/170/131 73/171/132
f 76/172/133 75/169/130 73/171/132
f 77/173/134 76/172/133 73/171/132
f 78/174/135 77/173/134 73/171/132
f 79/175/136 78/174/135 73/171/132
f 80/176/137 79/175/136 73/171/132
f 81/177/138 80/176/137 73/171/132
f 82/178/139 81/177/138 73/171/132
f 83/179/140 82/178/139 73/171/132
f 74/170/131 83/179/140 73/171/132
f 74/180/131 75/181/130 84/182/141
f 84/182/141 85/183/142 74/180/131
f 75/184/130 76/185/133 86/186/143
f 86/186/143 84/187/141 75/184/130
f 76/185/133 77/188/134 87/189/144
f 87/189/144 86/186/143 76/185/133
f 77/188/134 78/190/135 88/191/145
f 88/191/145 87/189/144 77/188/134
f 78/192/135 79/193/136 89/194/146
f 89/194/146 88/195/145 78/192/135
f 79/193/136 80/196/137 90/197/147
f 90/197/147 89/194/146 79/193/136
f 80/198/137 81/199/138 91/200/148
f 91/200/148 90/201/147 80/198/137
f 81/199/138 82/202/139 92/203/149
f 92/203/149 91/200/148 81/199/138
f 82/202/139 83/204/140 93/205/150
f 93/205/150 92/203/149 82/202/139
f 83/206/140 74/180/131 85/183/142
f 85/183/142 93/207/150 83/206/140
f 85/183/142 84/182/141 94/208/151
f 94/208/151 95/209/152 85/183/142
f 84/187/141 86/186/143 96/210/153
f 96/210/153 94/211/151 84/187/141
f 86/186/143 87/189/144 97/212/154
f 97/212/154 96/210/153 86/186/143
f 87/189/144 88/191/145 98/213/155
f 98/213/155 97/212/154 87/189/144
f 88/195/145 89/194/146 99/214/156
f 99/214/156 98/215/155 88/195/145
f 89/194/146 90/197/147 100/216/157
f 100/216/157 99/214/156 89/194/146
f 90/201/147 91/200/148 101/217/158
f 101/217/158 100/218/157 90/201/147
f 91/200/148 92/203/149 102/219/159
f 102/219/159 101/217/158 91/200/148
f 92/203/149 93/205/150 103/220/160
f 103/220/160 102/219/159 92/203/149
f 93/207/150 85/183/142 95/209/152
f 95/209/152 103/221/160 93/207/150
