# Blender 5.0.1
# www.blender.org
mtllib AspaMolino.mtl
g windmill_Malla
v 0.110886 -0.020908 0.390373
v 0.110886 -0.279746 0.276035
v 0.110886 -0.386960 -0.000000
v 0.110886 -0.279746 -0.276035
v 0.110886 -0.020908 -0.390373
v 0.110886 0.237930 -0.276035
v 0.110886 0.345144 0.000000
v 0.110886 0.237930 0.276035
v 0.620065 -0.020908 0.458356
v 0.620065 -0.324823 0.324107
v 0.620065 -0.450708 -0.000000
v 0.620065 -0.324823 -0.324107
v 0.620065 -0.020908 -0.458356
v 0.620065 0.283006 -0.324107
v 0.620065 0.408891 -0.000000
v 0.620065 0.283006 0.324107
v 0.110886 -0.238630 0.232189
v 0.110886 -0.020908 0.328364
v 0.110886 0.196814 0.232189
v 0.110886 0.286998 0.000000
v 0.110886 0.196814 -0.232188
v 0.110886 -0.020908 -0.328364
v 0.110886 -0.238630 -0.232189
v 0.110886 -0.328814 -0.000000
v -0.074614 -0.238630 0.232189
v -0.074614 -0.020908 0.328364
v -0.074614 0.196814 0.232189
v -0.074614 0.286998 0.000000
v -0.074614 0.196814 -0.232188
v -0.074614 -0.020908 -0.328364
v -0.074615 -0.238630 -0.232189
v -0.074615 -0.328814 -0.000000
v -0.740553 -0.084417 0.067729
v -0.740553 -0.020908 0.095783
v -0.740553 0.042601 0.067729
v -0.740553 0.068908 0.000000
v -0.740553 0.042601 -0.067729
v -0.740553 -0.020908 -0.095783
v -0.740553 -0.084417 -0.067729
v -0.740553 -0.110724 0.000000
v -0.074614 -0.296191 0.293574
v -0.074614 -0.020904 0.415174
v -0.074614 0.254378 0.293573
v -0.074614 0.368401 0.000000
v -0.074614 0.254377 -0.293573
v -0.074614 -0.020904 -0.415178
v -0.074615 -0.296193 -0.293574
v -0.074615 -0.410219 -0.000001
v -0.465730 -0.020912 0.356537
v -0.465730 -0.257309 0.252109
v -0.465730 -0.355231 -0.000001
v -0.465730 -0.257311 -0.252108
v -0.465730 -0.020912 -0.356534
v -0.465730 0.215495 -0.252108
v -0.465730 0.313415 0.000000
v -0.465730 0.215495 0.252108
v -0.644562 -0.174237 0.163516
v -0.644562 -0.020910 0.231247
v -0.644562 0.132421 0.163515
v -0.644562 0.195931 0.000000
v -0.644562 0.132421 -0.163515
v -0.644562 -0.020910 -0.231245
v -0.644562 -0.174237 -0.163515
v -0.644562 -0.237747 -0.000000
v 0.085960 0.059129 -0.036274
v 0.085960 -0.125560 0.035414
v 0.085960 2.678483 7.638494
v 0.085960 2.493793 7.710182
v -0.068606 0.059129 -0.036274
v -0.068606 -0.125560 0.035414
v -0.068606 2.678483 7.638494
v -0.068606 2.493793 7.710182
v 0.085960 2.586805 7.369878
v 0.085960 2.402116 7.441566
v -0.068606 2.402116 7.441566
v -0.068606 2.586805 7.369878
v 0.070736 0.857599 8.061165
v 0.070736 0.937168 8.294301
v -0.053382 0.937168 8.294301
v -0.053382 0.857599 8.061165
v 0.085960 0.655847 1.712121
v 0.085960 0.768918 2.043423
v -0.068606 0.471156 1.783809
v -0.068606 0.584228 2.115111
v 0.085960 0.584228 2.115111
v 0.085960 0.471156 1.783809
v -0.068606 0.768918 2.043423
v -0.068606 0.655847 1.712121
v 0.085960 1.774540 5.602753
v 0.085960 1.693220 5.364483
v -0.068606 1.959230 5.531065
v -0.068606 1.877909 5.292795
v 0.085960 1.877909 5.292794
v 0.085960 1.959230 5.531064
v -0.068606 1.693220 5.364482
v -0.068606 1.774539 5.602752
v 0.070736 0.148703 5.984082
v 0.070736 0.217914 6.186871
v -0.053382 0.217914 6.186871
v -0.053382 0.148703 5.984081
v -0.053382 -0.972398 2.699229
v -0.053382 -1.073359 2.403408
v 0.070736 -1.073359 2.403408
v 0.070736 -0.972398 2.699229
v 0.046792 1.787663 5.581612
v 0.046792 0.322427 6.150348
v 0.046792 2.128178 6.579332
v 0.046792 0.903830 7.029562
v 0.046792 2.468694 7.577052
v 0.046792 1.003459 8.145787
v -0.038307 1.787663 5.581612
v -0.038307 0.322427 6.150348
v -0.038307 2.128178 6.579332
v -0.038307 0.903830 7.029562
v -0.038307 2.468694 7.577052
v -0.038307 1.003459 8.145787
v 0.046791 0.511384 1.884562
v 0.046791 -0.953852 2.453297
v 0.046791 1.136001 3.714706
v 0.046791 -0.079659 4.224789
v 0.046791 1.760619 5.544851
v 0.046791 0.295383 6.113586
v -0.038307 0.511384 1.884562
v -0.038307 -0.953852 2.453297
v -0.038307 1.136001 3.714706
v -0.038307 -0.079659 4.224789
v -0.038307 1.760619 5.544851
v -0.038307 0.295383 6.113586
v 0.085960 -0.037794 -0.105993
v 0.085960 -0.030935 0.103480
v 0.085960 7.616018 -0.391029
v 0.085960 7.622877 -0.181555
v -0.068606 -0.037794 -0.105993
v -0.068606 -0.030935 0.103480
v -0.068606 7.616018 -0.391029
v -0.068606 7.622877 -0.181555
v 0.085960 7.348134 -0.381053
v 0.085960 7.354993 -0.171580
v -0.068606 7.354993 -0.171580
v -0.068606 7.348134 -0.381053
v 0.070736 7.430273 1.586407
v 0.070736 7.662772 1.577749
v -0.053382 7.662772 1.577749
v -0.053382 7.430273 1.586407
v 0.085960 1.705827 -0.170928
v 0.085960 2.036224 -0.183232
v -0.068606 1.712685 0.038546
v -0.068606 2.043083 0.026242
v 0.085960 2.043084 0.026241
v 0.085960 1.712687 0.038546
v -0.068606 2.036224 -0.183232
v -0.068606 1.705827 -0.170928
v 0.085960 5.521202 -0.103287
v 0.085960 5.283582 -0.094438
v -0.068606 5.514343 -0.312761
v -0.068606 5.276722 -0.303912
v 0.085960 5.276722 -0.303911
v 0.085960 5.514342 -0.312761
v -0.068606 5.283581 -0.094438
v -0.068606 5.521201 -0.103287
v 0.070736 5.358860 1.663549
v 0.070736 5.561097 1.656017
v -0.053382 5.561097 1.656017
v -0.053382 5.358860 1.663549
v -0.053382 2.082978 1.785546
v -0.053382 1.787965 1.796532
v 0.070736 1.787965 1.796532
v 0.070736 2.082979 1.785546
v 0.046792 5.506403 -0.123130
v 0.046791 5.560821 1.538729
v 0.046791 6.501399 -0.160184
v 0.046791 6.524571 1.220736
v 0.046791 7.496395 -0.197239
v 0.046791 7.550811 1.464620
v -0.038307 5.506403 -0.123130
v -0.038307 5.560821 1.538729
v -0.038307 6.501399 -0.160184
v -0.038307 6.524571 1.220736
v -0.038307 7.496395 -0.197239
v -0.038307 7.550811 1.464620
v 0.046791 1.814969 0.028880
v 0.046791 1.869387 1.690739
v 0.046791 3.640116 -0.039090
v 0.046791 3.719350 1.351513
v 0.046791 5.465264 -0.107060
v 0.046791 5.519681 1.554798
v -0.038307 1.814969 0.028880
v -0.038307 1.869387 1.690739
v -0.038307 3.640116 -0.039090
v -0.038307 3.719350 1.351513
v -0.038307 5.465264 -0.107060
v -0.038307 5.519681 1.554798
v 0.085960 -0.129921 -0.029233
v 0.085960 0.059008 0.028540
v 0.085960 1.981041 -7.880163
v 0.085960 2.169969 -7.822389
v -0.068606 -0.129921 -0.029233
v -0.068606 0.059008 0.028540
v -0.068606 1.981041 -7.880163
v -0.068606 2.169969 -7.822389
v 0.085960 1.907157 -7.605381
v 0.085960 2.096086 -7.547606
v -0.068606 2.096086 -7.547606
v -0.068606 1.907157 -7.605381
v 0.070736 3.687127 -7.080710
v 0.070736 3.751251 -7.319198
v -0.053382 3.751251 -7.319198
v -0.053382 3.687127 -7.080710
v 0.085960 0.350978 -1.817760
v 0.085960 0.442103 -2.156666
v -0.068606 0.539908 -1.759986
v -0.068606 0.631033 -2.098892
v 0.085960 0.631033 -2.098892
v 0.085960 0.539907 -1.759986
v -0.068606 0.442103 -2.156667
v -0.068606 0.350978 -1.817760
v 0.085960 1.590316 -5.666587
v 0.085960 1.524779 -5.422848
v -0.068606 1.401388 -5.724361
v -0.068606 1.335850 -5.480622
v 0.085960 1.335850 -5.480621
v 0.085960 1.401388 -5.724361
v -0.068606 1.524779 -5.422847
v -0.068606 1.590316 -5.666587
v 0.070736 3.115821 -4.955952
v 0.070736 3.171599 -5.163396
v -0.053382 3.171598 -5.163395
v -0.053382 3.115821 -4.955952
v -0.053382 2.212315 -1.595701
v -0.053382 2.130949 -1.293090
v 0.070736 2.130949 -1.293090
v 0.070736 2.212315 -1.595701
v 0.046792 1.568048 -5.657710
v 0.046791 3.066916 -5.199361
v 0.046791 1.842474 -6.678331
v 0.046791 3.081143 -6.275106
v 0.046791 2.116898 -7.698952
v 0.046791 3.615766 -7.240602
v -0.038307 1.568048 -5.657710
v -0.038307 3.066916 -5.199361
v -0.038307 1.842474 -6.678331
v -0.038307 3.081143 -6.275106
v -0.038307 2.116898 -7.698952
v -0.038307 3.615766 -7.240602
v 0.046791 0.562894 -1.866712
v 0.046791 2.061762 -1.408363
v 0.046791 1.066280 -3.738866
v 0.046791 2.330911 -3.389508
v 0.046791 1.569666 -5.611018
v 0.046791 3.068533 -5.152669
v -0.038307 0.562894 -1.866712
v -0.038307 2.061762 -1.408363
v -0.038307 1.066280 -3.738866
v -0.038307 2.330911 -3.389508
v -0.038307 1.569666 -5.611018
v -0.038307 3.068533 -5.152669
v 0.085960 -0.089935 0.087926
v 0.085960 0.019970 -0.085841
v 0.085960 -6.439101 -4.479179
v 0.085960 -6.329197 -4.652947
v -0.068606 -0.089935 0.087926
v -0.068606 0.019970 -0.085841
v -0.068606 -6.439101 -4.479179
v -0.068606 -6.329197 -4.652947
v 0.085960 -6.216880 -4.319330
v 0.085960 -6.106975 -4.493098
v -0.068606 -6.106975 -4.493098
v -0.068606 -6.216880 -4.319330
v 0.070736 -5.198937 -5.962527
v 0.070736 -5.391805 -6.101263
v -0.053382 -5.391805 -6.101263
v -0.053382 -5.198937 -5.962527
v 0.085960 -1.536344 -0.952509
v 0.085960 -1.810423 -1.149661
v -0.068606 -1.426438 -1.126277
v -0.068606 -1.700517 -1.323429
v 0.085960 -1.700517 -1.323429
v 0.085960 -1.426438 -1.126277
v -0.068606 -1.810423 -1.149661
v -0.068606 -1.536344 -0.952509
v 0.085960 -4.585766 -3.398856
v 0.085960 -4.388650 -3.257067
v -0.068606 -4.695672 -3.225089
v -0.068606 -4.498555 -3.083299
v 0.085960 -4.498555 -3.083298
v 0.085960 -4.695671 -3.225089
v -0.068606 -4.388650 -3.257065
v -0.068606 -4.585765 -3.398855
v 0.070736 -3.480612 -4.726495
v 0.070736 -3.648376 -4.847171
v -0.053382 -3.648375 -4.847171
v -0.053382 -3.480612 -4.726495
v -0.053382 -0.763126 -2.771744
v -0.053382 -0.518400 -2.595706
v 0.070736 -0.518400 -2.595706
v 0.070736 -0.763126 -2.771744
v 0.046792 -4.584731 -3.373527
v 0.046792 -3.712797 -4.752110
v 0.046792 -5.410122 -3.967251
v 0.046792 -4.667755 -5.098964
v 0.046792 -6.235514 -4.560975
v 0.046791 -5.363581 -5.939557
v -0.038307 -4.584731 -3.373527
v -0.038307 -3.712797 -4.752110
v -0.038307 -5.410122 -3.967251
v -0.038307 -4.667755 -5.098964
v -0.038307 -6.235514 -4.560975
v -0.038307 -5.363581 -5.939557
v 0.046791 -1.514514 -1.182572
v 0.046791 -0.642581 -2.561155
v 0.046791 -3.028553 -2.271656
v 0.046791 -2.326202 -3.446345
v 0.046791 -4.542591 -3.360739
v 0.046791 -3.670658 -4.739322
v -0.038307 -1.514514 -1.182572
v -0.038307 -0.642581 -2.561155
v -0.038307 -3.028553 -2.271656
v -0.038307 -2.326202 -3.446345
v -0.038307 -4.542591 -3.360739
v -0.038307 -3.670658 -4.739322
v 0.085960 0.026904 0.083575
v 0.085960 -0.094099 -0.081593
v 0.085960 -6.008058 5.111879
v 0.085960 -6.129062 4.946711
v -0.068606 0.026904 0.083575
v -0.068606 -0.094099 -0.081593
v -0.068606 -6.008058 5.111879
v -0.068606 -6.129062 4.946711
v 0.085960 -5.796834 4.935888
v 0.085960 -5.917837 4.770720
v -0.068606 -5.917837 4.770720
v -0.068606 -5.796834 4.935888
v 0.070736 -6.947680 3.395667
v 0.070736 -7.131005 3.548412
v -0.053382 -7.131005 3.548412
v -0.053382 -6.947680 3.395667
v 0.085960 -1.347925 1.229077
v 0.085960 -1.608440 1.446137
v -0.068606 -1.468929 1.063909
v -0.068606 -1.729444 1.280969
v 0.085960 -1.729444 1.280969
v 0.085960 -1.468929 1.063909
v -0.068606 -1.608441 1.446137
v -0.068606 -1.347925 1.229077
v 0.085960 -4.471909 3.565979
v 0.085960 -4.284549 3.409871
v -0.068606 -4.350906 3.731147
v -0.068606 -4.163545 3.575039
v 0.085960 -4.163544 3.575038
v 0.085960 -4.350905 3.731147
v -0.068606 -4.284548 3.409870
v -0.068606 -4.471909 3.565979
v 0.070736 -5.314391 2.034818
v 0.070736 -5.473852 2.167680
v -0.053382 -5.473852 2.167680
v -0.053382 -5.314391 2.034818
v -0.053382 -2.731387 -0.117330
v -0.053382 -2.498771 -0.311144
v 0.070736 -2.498771 -0.311144
v 0.070736 -2.731387 -0.117330
v 0.046792 -4.449001 3.572756
v 0.046792 -5.408984 2.262395
v 0.046792 -5.233546 4.226436
v 0.046792 -6.013408 3.123773
v 0.046792 -6.018091 4.880115
v 0.046792 -6.978074 3.569755
v -0.038307 -4.449001 3.572756
v -0.038307 -5.408984 2.262395
v -0.038307 -5.233546 4.226436
v -0.038307 -6.013408 3.123773
v -0.038307 -6.018091 4.880115
v -0.038307 -6.978074 3.569755
v 0.046791 -1.546350 1.135843
v 0.046791 -2.506333 -0.174518
v 0.046791 -2.985462 2.334905
v 0.046791 -3.816016 1.259551
v 0.046791 -4.424575 3.533967
v 0.046791 -5.384558 2.223607
v -0.038307 -1.546350 1.135843
v -0.038307 -2.506333 -0.174518
v -0.038307 -2.985462 2.334905
v -0.038307 -3.816016 1.259551
v -0.038307 -4.424575 3.533967
v -0.038307 -5.384558 2.223607
v 0.572755 -9.352030 0.478975
v 0.731078 -9.352030 0.906234
vn -0.9274 0.3742 -0.0000
vn -0.9313 0.2657 -0.2491
vn -0.9353 -0.0000 -0.3539
vn -0.9313 -0.2657 -0.2491
vn -0.9274 -0.3742 -0.0000
vn -0.9313 -0.2657 0.2491
vn -0.9353 -0.0000 0.3538
vn -0.9313 0.2657 0.2491
vn -0.1323 -0.0000 0.9912
vn -0.1281 -0.7235 0.6784
vn -0.1242 -0.9923 -0.0000
vn -0.1281 -0.7235 -0.6784
vn -0.1281 -0.7234 -0.6784
vn -0.1323 -0.0000 -0.9912
vn -0.1281 0.7235 -0.6784
vn -0.1242 0.9923 -0.0000
vn -0.1281 0.7235 0.6784
vn -0.1281 0.7234 0.6784
vn 1.0000 -0.0000 -0.0000
vn -1.0000 -0.0000 -0.0000
vn -0.0000 -0.7295 0.6840
vn -0.0000 -0.0000 1.0000
vn -0.0000 0.7295 0.6840
vn -0.0000 1.0000 -0.0000
vn -0.0000 0.7295 -0.6840
vn -0.0000 -0.0000 -1.0000
vn -0.0000 -0.7295 -0.6840
vn -0.0000 -1.0000 -0.0000
vn -0.1435 -0.7219 0.6769
vn -0.1483 -0.0000 0.9889
vn -0.3618 -0.0000 0.9322
vn -0.3515 -0.6829 0.6404
vn -0.1435 0.7219 0.6769
vn -0.3515 0.6829 0.6404
vn -0.1392 0.9903 -0.0000
vn -0.3420 0.9397 -0.0000
vn -0.1435 0.7219 -0.6769
vn -0.3515 0.6829 -0.6404
vn -0.1483 -0.0000 -0.9889
vn -0.3618 -0.0000 -0.9322
vn -0.1435 -0.7219 -0.6769
vn -0.3515 -0.6829 -0.6404
vn -0.1392 -0.9903 -0.0000
vn -0.3420 -0.9397 -0.0000
vn -0.6794 -0.5353 0.5019
vn -0.6915 -0.0000 0.7224
vn -0.6679 -0.7442 -0.0000
vn -0.6794 -0.5353 -0.5019
vn -0.6915 -0.0000 -0.7224
vn -0.6794 0.5353 -0.5019
vn -0.6679 0.7442 -0.0000
vn -0.6794 0.5353 0.5019
vn 1.0000 -0.0072 0.0024
vn 1.0000 0.0009 -0.0003
vn -1.0000 0.0010 -0.0003
vn -1.0000 -0.0071 0.0025
vn -0.0000 -0.3618 -0.9322
vn -0.0000 -0.9464 0.3230
vn -0.0000 0.3618 0.9322
vn -0.0000 0.3566 0.9343
vn -0.0000 0.9464 -0.3230
vn 1.0000 -0.0086 0.0029
vn 1.0000 0.0008 -0.0003
vn 1.0000 -0.0087 0.0030
vn -0.0000 0.3513 0.9363
vn -1.0000 -0.0087 0.0030
vn -0.0000 -0.3723 -0.9281
vn -0.0000 -0.3619 -0.9322
vn -0.0000 -0.9447 0.3279
vn -0.0000 -0.8341 0.5516
vn -0.0000 -0.9960 0.0889
vn -0.0000 0.3619 0.9322
vn -0.0000 -0.9472 0.3207
vn -0.0000 -0.8968 0.4425
vn -0.0000 -0.9809 0.1948
vn 1.0000 0.0002 0.0071
vn 1.0000 -0.0000 -0.0009
vn -1.0000 -0.0000 -0.0010
vn -1.0000 0.0003 0.0071
vn -0.0000 -0.9995 0.0327
vn -0.0000 0.0372 0.9993
vn -0.0000 0.9995 -0.0327
vn -0.0000 0.9996 -0.0277
vn -0.0000 -0.0372 -0.9993
vn 1.0000 0.0003 0.0086
vn 1.0000 -0.0000 -0.0008
vn -0.0000 0.9997 -0.0227
vn -1.0000 0.0003 0.0086
vn -0.0000 -0.9991 0.0428
vn 1.0000 -0.0000 -0.0010
vn -0.0000 0.0431 0.9991
vn -0.0000 0.3133 0.9496
vn -0.0000 -0.2312 0.9729
vn -0.0000 0.0345 0.9994
vn -0.0000 0.1804 0.9836
vn -0.0000 -0.1122 0.9937
vn 1.0000 0.0073 0.0020
vn 1.0000 -0.0010 -0.0003
vn -1.0000 -0.0010 -0.0003
vn -1.0000 0.0073 0.0019
vn -0.0000 -0.2924 0.9563
vn -0.0000 0.9657 0.2597
vn -0.0000 0.2924 -0.9563
vn -0.0000 0.2978 -0.9546
vn -0.0000 -0.9657 -0.2597
vn 1.0000 0.0088 0.0024
vn 1.0000 0.0089 0.0024
vn -0.0000 0.3032 -0.9529
vn -1.0000 0.0089 0.0024
vn -0.0000 -0.2816 0.9595
vn -0.0000 0.9670 0.2546
vn -0.0000 0.9999 0.0132
vn -0.0000 0.8748 0.4844
vn -0.0000 0.9651 0.2620
vn -0.0000 0.9909 0.1346
vn -0.0000 0.9225 0.3859
vn 1.0000 0.0043 -0.0059
vn 1.0000 -0.0006 0.0008
vn -1.0000 -0.0006 0.0008
vn -1.0000 0.0042 -0.0059
vn -0.0000 0.8451 0.5345
vn -0.0000 0.5839 -0.8118
vn -0.0000 -0.8451 -0.5345
vn -0.0000 -0.8423 -0.5389
vn -0.0000 -0.5839 0.8118
vn 1.0000 0.0052 -0.0071
vn 1.0000 -0.0005 0.0007
vn 1.0000 0.0052 -0.0072
vn -0.0000 -0.8395 -0.5434
vn -1.0000 0.0052 -0.0072
vn -0.0000 0.8507 0.5257
vn -0.0000 0.5794 -0.8151
vn -0.0000 0.3414 -0.9399
vn -0.0000 0.7703 -0.6377
vn -0.0000 0.5860 -0.8103
vn -0.0000 0.4654 -0.8851
vn -0.0000 0.6932 -0.7208
vn 1.0000 -0.0046 -0.0056
vn 1.0000 0.0006 0.0007
vn -1.0000 0.0006 0.0008
vn -1.0000 -0.0047 -0.0055
vn -0.0000 0.8067 -0.5910
vn -0.0000 -0.6401 -0.7683
vn -0.0000 -0.8067 0.5910
vn -0.0000 -0.8098 0.5867
vn -0.0000 0.6401 0.7683
vn 1.0000 -0.0056 -0.0068
vn -1.0000 -0.0047 -0.0056
vn 1.0000 -0.0057 -0.0068
vn -0.0000 -0.8129 0.5825
vn -1.0000 -0.0057 -0.0068
vn -0.0000 0.8004 -0.5995
vn -1.0000 0.0006 0.0007
vn -0.0000 -0.6444 -0.7647
vn -0.0000 -0.8186 -0.5744
vn -0.0000 -0.4196 -0.9077
vn -0.0000 -0.6382 -0.7699
vn -0.0000 -0.7384 -0.6744
vn -0.0000 -0.5236 -0.8519
vt 0.309496 0.082986
vt 0.309496 0.087092
vt 0.309496 0.097004
vt 0.309496 0.106916
vt 0.309496 0.111022
vt 0.321489 0.097004
vt 0.321489 0.137401
vt 0.328661 0.144437
vt 0.328661 0.097004
vt 0.321489 0.154135
vt 0.328661 0.164084
vt 0.321489 0.056606
vt 0.328661 0.049571
vt 0.321489 0.039873
vt 0.328661 0.029924
vt 0.321489 0.130984
vt 0.321489 0.063023
vt 0.321489 0.048948
vt 0.321489 0.145060
vt 0.318876 0.097004
vt 0.318876 0.130984
vt 0.318876 0.063023
vt 0.318876 0.048948
vt 0.318876 0.145060
vt 0.318876 0.139968
vt 0.318876 0.097003
vt 0.313367 0.097004
vt 0.313367 0.133900
vt 0.318876 0.054039
vt 0.313367 0.060108
vt 0.318876 0.036243
vt 0.313367 0.044825
vt 0.318876 0.054039
vt 0.318876 0.139968
vt 0.313367 0.133900
vt 0.318876 0.157765
vt 0.313367 0.149183
vt 0.310848 0.120934
vt 0.310848 0.097004
vt 0.310848 0.130847
vt 0.310848 0.073073
vt 0.310848 0.063161
vt 0.645836 0.046905
vt 0.646878 0.043511
vt 0.646819 0.036758
vt 0.645776 0.040152
vt 0.646819 0.036758
vt 0.646504 0.001123
vt 0.645462 0.004517
vt 0.655626 0.014654
vt 0.655572 0.008625
vt 0.655572 0.008625
vt 0.646844 0.160942
vt 0.647887 0.157548
vt 0.646796 0.155467
vt 0.647838 0.152073
vt 0.656634 0.128691
vt 0.656592 0.123940
vt 0.646465 0.117989
vt 0.647507 0.114595
vt 0.647464 0.109738
vt 0.646422 0.113133
vt 0.647507 0.114595
vt 0.646422 0.113133
vt 0.656254 0.085738
vt 0.656218 0.081605
vt 0.995868 0.567392
vt 0.994681 0.545129
vt 0.978090 0.556650
vt 0.975858 0.580673
vt 0.993494 0.522865
vt 0.973484 0.536146
vt 1.000097 0.650116
vt 0.997920 0.609278
vt 0.981121 0.619647
vt 0.980088 0.663396
vt 0.995743 0.568439
vt 0.975733 0.581720
vt 0.644712 0.053970
vt 0.647021 0.054105
vt 0.647156 0.047597
vt 0.644847 0.047462
vt 0.647021 0.054105
vt 0.647156 0.047597
vt 0.647872 0.013253
vt 0.645563 0.013118
vt 0.666413 0.054891
vt 0.666534 0.049080
vt 0.642421 0.163875
vt 0.644730 0.164010
vt 0.642531 0.158598
vt 0.644840 0.158734
vt 0.664122 0.164796
vt 0.664218 0.160216
vt 0.643284 0.122478
vt 0.645593 0.122613
vt 0.645690 0.117933
vt 0.643381 0.117798
vt 0.645593 0.122613
vt 0.645690 0.117933
vt 0.664985 0.123399
vt 0.665068 0.119416
vt 0.999719 0.574681
vt 1.000237 0.553390
vt 0.980925 0.552895
vt 0.976478 0.573517
vt 1.000756 0.532099
vt 0.977514 0.530935
vt 0.997593 0.653671
vt 0.998544 0.614616
vt 0.979096 0.612921
vt 0.974352 0.652506
vt 0.999494 0.575562
vt 0.976253 0.574397
vt 0.646258 0.039471
vt 0.647751 0.041711
vt 0.647786 0.035636
vt 0.646294 0.033396
vt 0.647786 0.035636
vt 0.647974 0.003574
vt 0.646482 0.001334
vt 0.660280 0.060194
vt 0.660312 0.054769
vt 0.645657 0.142073
vt 0.647149 0.144313
vt 0.645686 0.137147
vt 0.647178 0.139387
vt 0.659679 0.162795
vt 0.659704 0.158520
vt 0.645884 0.103427
vt 0.647376 0.105667
vt 0.647401 0.101298
vt 0.645909 0.099058
vt 0.645909 0.099058
vt 0.647401 0.101298
vt 0.659905 0.124149
vt 0.659905 0.124149
vt 0.659927 0.120431
vt 0.996743 0.585124
vt 0.996171 0.564084
vt 0.978668 0.551192
vt 0.975651 0.569039
vt 0.995599 0.543044
vt 0.974507 0.526959
vt 0.998344 0.663366
vt 0.997295 0.624772
vt 0.979610 0.610589
vt 0.977252 0.647282
vt 0.996583 0.585864
vt 0.975490 0.569779
vt 0.998681 0.663052
vt 0.977589 0.646967
vt 0.979947 0.610275
vt 0.997632 0.624458
vt 0.646372 0.046907
vt 0.647553 0.047167
vt 0.647489 0.040795
vt 0.646309 0.040535
vt 0.646309 0.040535
vt 0.647156 0.007169
vt 0.647156 0.007169
vt 0.645975 0.006908
vt 0.657460 0.049010
vt 0.657404 0.043321
vt 0.657404 0.043321
vt 0.647440 0.154516
vt 0.648621 0.154776
vt 0.647389 0.149350
vt 0.648569 0.149610
vt 0.658528 0.156619
vt 0.658483 0.152135
vt 0.647038 0.113984
vt 0.648218 0.114244
vt 0.648173 0.109662
vt 0.646992 0.109401
vt 0.648218 0.114244
vt 0.646992 0.109402
vt 0.658126 0.116087
vt 0.658087 0.112187
vt 0.992873 0.599474
vt 0.991965 0.582916
vt 0.977976 0.580530
vt 0.976004 0.596161
vt 0.991057 0.566357
vt 0.974187 0.563043
vt 0.996095 0.660887
vt 0.994429 0.630512
vt 0.980270 0.627177
vt 0.979226 0.657573
vt 0.992764 0.600138
vt 0.975894 0.596824
vt 0.658063 0.121621
vt 0.656755 0.122815
vt 0.656655 0.129550
vt 0.657963 0.128356
vt 0.656755 0.122815
vt 0.656126 0.165094
vt 0.657434 0.163899
vt 0.645774 0.133203
vt 0.645685 0.139217
vt 0.659755 0.007878
vt 0.658448 0.009072
vt 0.659674 0.013339
vt 0.658367 0.014533
vt 0.647466 0.019460
vt 0.647396 0.024199
vt 0.659118 0.050720
vt 0.657810 0.051914
vt 0.657738 0.056758
vt 0.659046 0.055564
vt 0.659046 0.055564
vt 0.657738 0.056758
vt 0.646829 0.062302
vt 0.646768 0.066425
vt 0.995356 0.568169
vt 0.995753 0.544729
vt 0.979190 0.548387
vt 0.975422 0.571949
vt 0.996151 0.521289
vt 0.976217 0.525069
vt 0.993707 0.655176
vt 0.994436 0.612179
vt 0.977754 0.614552
vt 0.973773 0.658956
vt 0.995165 0.569183
vt 0.975231 0.572963
s 1
g off
g windmill_Windmill
usemtl Windmill
f 36/1/1 37/2/2 38/3/3
f 38/3/3 39/4/4 40/5/5
f 40/5/5 33/4/6 34/3/7
f 38/3/3 40/5/5 34/3/7
f 36/1/1 38/3/3 34/3/7
f 35/2/8 36/1/1 34/3/7
s 2
f 1/6/9 2/7/10 10/8/10
f 10/8/10 9/9/9 1/6/9
f 2/7/10 3/10/11 11/11/11
f 11/11/11 10/8/10 2/7/10
f 3/10/11 4/7/12 12/8/13
f 12/8/13 11/11/11 3/10/11
f 4/7/12 5/6/14 13/9/14
f 13/9/14 12/8/13 4/7/12
f 5/6/14 6/12/15 14/13/15
f 14/13/15 13/9/14 5/6/14
f 6/12/15 7/14/16 15/15/16
f 15/15/16 14/13/15 6/12/15
f 7/14/16 8/12/17 16/13/18
f 16/13/18 15/15/16 7/14/16
f 8/12/17 1/6/9 9/9/9
f 9/9/9 16/13/18 8/12/17
s 3
f 9/9/19 10/8/19 11/11/19
f 11/11/19 12/8/19 13/9/19
f 13/9/19 14/13/19 15/15/19
f 11/11/19 13/9/19 15/15/19
f 9/9/19 11/11/19 15/15/19
f 16/13/19 9/9/19 15/15/19
s 4
f 2/7/20 1/6/20 18/6/20
f 18/6/20 17/16/20 2/7/20
f 1/6/20 8/12/20 19/17/20
f 19/17/20 18/6/20 1/6/20
f 8/12/20 7/14/20 20/18/20
f 20/18/20 19/17/20 8/12/20
f 7/14/20 6/12/20 21/17/20
f 21/17/20 20/18/20 7/14/20
f 6/12/20 5/6/20 22/6/20
f 22/6/20 21/17/20 6/12/20
f 5/6/20 4/7/20 23/16/20
f 23/16/20 22/6/20 5/6/20
f 4/7/20 3/10/20 24/19/20
f 24/19/20 23/16/20 4/7/20
f 3/10/20 2/7/20 17/16/20
f 17/16/20 24/19/20 3/10/20
s 5
f 17/16/21 18/6/22 26/20/22
f 26/20/22 25/21/21 17/16/21
f 18/6/22 19/17/23 27/22/23
f 27/22/23 26/20/22 18/6/22
f 19/17/23 20/18/24 28/23/24
f 28/23/24 27/22/23 19/17/23
f 20/18/24 21/17/25 29/22/25
f 29/22/25 28/23/24 20/18/24
f 21/17/25 22/6/26 30/20/26
f 30/20/26 29/22/25 21/17/25
f 22/6/26 23/16/27 31/21/27
f 31/21/27 30/20/26 22/6/26
f 23/16/27 24/19/28 32/24/28
f 32/24/28 31/21/27 23/16/27
f 24/19/28 17/16/21 25/21/21
f 25/21/21 32/24/28 24/19/28
s 1
f 41/25/29 42/26/30 49/27/31
f 49/27/31 50/28/32 41/25/29
f 42/26/30 43/29/33 56/30/34
f 56/30/34 49/27/31 42/26/30
f 43/29/33 44/31/35 55/32/36
f 55/32/36 56/30/34 43/29/33
f 44/31/35 45/33/37 54/30/38
f 54/30/38 55/32/36 44/31/35
f 45/33/37 46/26/39 53/27/40
f 53/27/40 54/30/38 45/33/37
f 46/26/39 47/34/41 52/35/42
f 52/35/42 53/27/40 46/26/39
f 47/34/41 48/36/43 51/37/44
f 51/37/44 52/35/42 47/34/41
f 48/36/43 41/25/29 50/28/32
f 50/28/32 51/37/44 48/36/43
s 6
f 25/21/19 26/20/19 42/26/19
f 42/26/19 41/25/19 25/21/19
f 26/20/19 27/22/19 43/29/19
f 43/29/19 42/26/19 26/20/19
f 27/22/19 28/23/19 44/31/19
f 44/31/19 43/29/19 27/22/19
f 28/23/19 29/22/19 45/33/19
f 45/33/19 44/31/19 28/23/19
f 29/22/19 30/20/19 46/26/19
f 46/26/19 45/33/19 29/22/19
f 30/20/19 31/21/19 47/34/19
f 47/34/19 46/26/19 30/20/19
f 31/21/19 32/24/19 48/36/19
f 48/36/19 47/34/19 31/21/19
f 32/24/19 25/21/19 41/25/19
f 41/25/19 48/36/19 32/24/19
s 1
f 34/3/7 33/4/6 57/38/45
f 57/38/45 58/39/46 34/3/7
f 33/4/6 40/5/5 64/40/47
f 64/40/47 57/38/45 33/4/6
f 40/5/5 39/4/4 63/38/48
f 63/38/48 64/40/47 40/5/5
f 39/4/4 38/3/3 62/39/49
f 62/39/49 63/38/48 39/4/4
f 38/3/3 37/2/2 61/41/50
f 61/41/50 62/39/49 38/3/3
f 37/2/2 36/1/1 60/42/51
f 60/42/51 61/41/50 37/2/2
f 36/1/1 35/2/8 59/41/52
f 59/41/52 60/42/51 36/1/1
f 35/2/8 34/3/7 58/39/46
f 58/39/46 59/41/52 35/2/8
f 50/28/32 49/27/31 58/39/46
f 58/39/46 57/38/45 50/28/32
f 49/27/31 56/30/34 59/41/52
f 59/41/52 58/39/46 49/27/31
f 56/30/34 55/32/36 60/42/51
f 60/42/51 59/41/52 56/30/34
f 55/32/36 54/30/38 61/41/50
f 61/41/50 60/42/51 55/32/36
f 54/30/38 53/27/40 62/39/49
f 62/39/49 61/41/50 54/30/38
f 53/27/40 52/35/42 63/38/48
f 63/38/48 62/39/49 53/27/40
f 52/35/42 51/37/44 64/40/47
f 64/40/47 63/38/48 52/35/42
f 51/37/44 50/28/32 57/38/45
f 57/38/45 64/40/47 51/37/44
s 7
f 82/43/19 85/44/53 86/45/54
f 86/45/54 81/46/19 82/43/19
s 8
f 84/44/55 87/43/20 88/46/20
f 88/46/20 83/47/56 84/44/55
s 9
f 66/48/57 70/48/57 69/49/57
f 69/49/57 65/49/57 66/48/57
s 10
f 104/50/58 101/50/58 102/51/58
f 102/51/58 103/52/58 104/50/58
s 11
f 67/53/59 71/53/59 72/54/60
f 72/54/60 68/54/60 67/53/59
s 12
f 73/55/61 76/55/61 71/53/61
f 71/53/61 67/53/61 73/55/61
s 7
f 67/53/19 68/54/62 74/56/63
f 74/56/63 73/55/19 67/53/19
s 8
f 72/54/20 71/53/20 76/55/20
f 76/55/20 75/56/56 72/54/20
s 13
f 78/57/58 79/57/58 80/58/58
f 80/58/58 77/58/58 78/57/58
s 12
f 81/46/61 88/46/61 87/43/61
f 87/43/61 82/43/61 81/46/61
s 7
f 68/54/62 78/57/64 77/58/64
f 77/58/64 74/56/63 68/54/62
s 11
f 72/54/60 79/57/65 78/57/65
f 78/57/65 68/54/60 72/54/60
s 8
f 75/56/56 80/58/66 79/57/66
f 79/57/66 72/54/20 75/56/56
s 14
f 74/56/67 77/58/67 80/58/67
f 80/58/67 75/56/67 74/56/67
s 7
f 94/59/19 89/60/53 90/61/63
f 90/61/63 93/62/19 94/59/19
f 66/48/19 65/49/19 81/46/19
f 81/46/19 86/45/54 66/48/19
s 8
f 96/63/55 91/59/20 92/64/20
f 92/64/20 95/61/56 96/63/55
f 69/49/20 70/48/20 83/47/56
f 83/47/56 88/46/20 69/49/20
s 15
f 98/65/58 99/65/58 100/66/58
f 100/66/58 97/66/58 98/65/58
s 16
f 70/48/58 66/48/58 86/45/58
f 86/45/58 83/47/58 70/48/58
s 12
f 65/49/61 69/49/61 88/46/61
f 88/46/61 81/46/61 65/49/61
f 91/59/61 94/59/61 93/62/61
f 93/62/61 92/64/61 91/59/61
s 7
f 73/55/19 74/56/63 89/60/53
f 89/60/53 94/59/19 73/55/19
f 85/44/53 82/43/19 93/62/19
f 93/62/19 90/61/63 85/44/53
s 8
f 75/56/56 76/55/20 91/59/20
f 91/59/20 96/63/55 75/56/56
f 87/43/20 84/44/55 95/61/56
f 95/61/56 92/64/20 87/43/20
s 17
f 74/56/58 75/56/58 96/63/58
f 96/63/58 89/60/58 74/56/58
s 18
f 84/44/58 85/44/58 90/61/58
f 90/61/58 95/61/58 84/44/58
s 12
f 76/55/61 73/55/61 94/59/61
f 94/59/61 91/59/61 76/55/61
f 82/43/61 87/43/61 92/64/61
f 92/64/61 93/62/61 82/43/61
s 7
f 89/60/53 98/65/64 97/66/64
f 97/66/64 90/61/63 89/60/53
s 19
f 96/63/65 99/65/65 98/65/65
f 98/65/65 89/60/65 96/63/65
s 8
f 95/61/56 100/66/66 99/65/66
f 99/65/66 96/63/55 95/61/56
s 20
f 90/61/67 97/66/67 100/66/67
f 100/66/67 95/61/67 90/61/67
s 8
f 83/47/56 102/51/66 101/50/66
f 101/50/66 84/44/55 83/47/56
s 21
f 86/45/67 103/52/67 102/51/67
f 102/51/67 83/47/67 86/45/67
s 7
f 85/44/53 104/50/64 103/52/64
f 103/52/64 86/45/54 85/44/53
s 22
f 84/44/65 101/50/65 104/50/65
f 104/50/65 85/44/65 84/44/65
s 23
f 105/67/19 107/68/19 108/69/19
f 108/69/19 106/70/19 105/67/19
f 109/71/19 110/72/19 108/69/19
f 108/69/19 107/68/19 109/71/19
s 24
f 111/67/20 112/70/20 114/69/20
f 114/69/20 113/68/20 111/67/20
f 114/69/20 116/72/20 115/71/20
f 115/71/20 113/68/20 114/69/20
s 25
f 106/70/68 112/70/68 111/67/68
f 111/67/68 105/67/68 106/70/68
s 26
f 108/69/69 114/69/69 112/70/70
f 112/70/70 106/70/70 108/69/69
f 110/72/71 116/72/71 114/69/69
f 114/69/69 108/69/69 110/72/71
s 27
f 109/71/72 115/71/72 116/72/72
f 116/72/72 110/72/72 109/71/72
s 28
f 107/68/61 113/68/61 115/71/61
f 115/71/61 109/71/61 107/68/61
f 105/67/61 111/67/61 113/68/61
f 113/68/61 107/68/61 105/67/61
s 29
f 117/73/19 119/74/19 120/75/19
f 120/75/19 118/76/19 117/73/19
f 121/77/19 122/78/19 120/75/19
f 120/75/19 119/74/19 121/77/19
s 30
f 123/73/20 124/76/20 126/75/20
f 126/75/20 125/74/20 123/73/20
f 126/75/20 128/78/20 127/77/20
f 127/77/20 125/74/20 126/75/20
s 31
f 118/76/68 124/76/68 123/73/68
f 123/73/68 117/73/68 118/76/68
s 32
f 120/75/73 126/75/73 124/76/74
f 124/76/74 118/76/74 120/75/73
f 122/78/75 128/78/75 126/75/73
f 126/75/73 120/75/73 122/78/75
s 33
f 121/77/59 127/77/59 128/78/59
f 128/78/59 122/78/59 121/77/59
s 34
f 119/74/61 125/74/61 127/77/61
f 127/77/61 121/77/61 119/74/61
f 117/73/61 123/73/61 125/74/61
f 125/74/61 119/74/61 117/73/61
s 35
f 146/79/19 149/80/76 150/81/77
f 150/81/77 145/82/19 146/79/19
s 36
f 148/83/78 151/79/20 152/82/20
f 152/82/20 147/84/79 148/83/78
s 37
f 130/85/80 134/85/80 133/86/80
f 133/86/80 129/86/80 130/85/80
s 38
f 168/87/81 165/87/81 166/88/81
f 166/88/81 167/88/81 168/87/81
s 39
f 131/89/82 135/89/82 136/90/83
f 136/90/83 132/90/83 131/89/82
s 40
f 137/91/84 140/91/84 135/89/84
f 135/89/84 131/89/84 137/91/84
s 35
f 131/89/19 132/90/85 138/92/86
f 138/92/86 137/91/19 131/89/19
s 36
f 136/90/20 135/89/20 140/91/20
f 140/91/20 139/92/79 136/90/20
s 41
f 142/93/81 143/93/81 144/94/81
f 144/94/81 141/94/81 142/93/81
s 40
f 145/82/84 152/82/84 151/79/84
f 151/79/84 146/79/84 145/82/84
s 35
f 132/90/85 142/93/85 141/94/85
f 141/94/85 138/92/86 132/90/85
s 39
f 136/90/83 143/93/87 142/93/87
f 142/93/87 132/90/83 136/90/83
s 36
f 139/92/79 144/94/88 143/93/88
f 143/93/88 136/90/20 139/92/79
s 42
f 138/92/89 141/94/89 144/94/89
f 144/94/89 139/92/89 138/92/89
s 35
f 158/95/19 153/96/76 154/97/90
f 154/97/90 157/98/19 158/95/19
f 130/85/19 129/86/19 145/82/19
f 145/82/19 150/81/77 130/85/19
s 36
f 160/99/78 155/95/20 156/98/20
f 156/98/20 159/100/79 160/99/78
f 133/86/20 134/85/20 147/84/79
f 147/84/79 152/82/20 133/86/20
s 43
f 162/101/81 163/101/81 164/102/81
f 164/102/81 161/102/81 162/101/81
s 44
f 134/85/81 130/85/81 150/81/81
f 150/81/81 147/84/81 134/85/81
s 40
f 129/86/84 133/86/84 152/82/84
f 152/82/84 145/82/84 129/86/84
f 155/95/84 158/95/84 157/98/84
f 157/98/84 156/98/84 155/95/84
s 35
f 137/91/19 138/92/86 153/96/76
f 153/96/76 158/95/19 137/91/19
f 149/80/76 146/79/19 157/98/19
f 157/98/19 154/97/90 149/80/76
s 36
f 139/92/79 140/91/20 155/95/20
f 155/95/20 160/99/78 139/92/79
f 151/79/20 148/83/78 159/100/79
f 159/100/79 156/98/20 151/79/20
s 45
f 138/92/81 139/92/81 160/99/81
f 160/99/81 153/96/81 138/92/81
s 46
f 148/83/81 149/80/81 154/97/81
f 154/97/81 159/100/81 148/83/81
s 40
f 140/91/84 137/91/84 158/95/84
f 158/95/84 155/95/84 140/91/84
f 146/79/84 151/79/84 156/98/84
f 156/98/84 157/98/84 146/79/84
s 35
f 153/96/76 162/101/85 161/102/85
f 161/102/85 154/97/90 153/96/76
s 47
f 160/99/87 163/101/87 162/101/87
f 162/101/87 153/96/87 160/99/87
s 36
f 159/100/79 164/102/88 163/101/88
f 163/101/88 160/99/78 159/100/79
s 48
f 154/97/89 161/102/89 164/102/89
f 164/102/89 159/100/89 154/97/89
s 36
f 147/84/79 166/88/88 165/87/88
f 165/87/88 148/83/78 147/84/79
s 49
f 150/81/89 167/88/89 166/88/89
f 166/88/89 147/84/89 150/81/89
s 35
f 149/80/76 168/87/85 167/88/85
f 167/88/85 150/81/77 149/80/76
s 50
f 148/83/87 165/87/87 168/87/87
f 168/87/87 149/80/87 148/83/87
s 51
f 169/103/19 171/104/19 172/105/19
f 172/105/19 170/106/19 169/103/19
f 173/107/19 174/108/19 172/105/19
f 172/105/19 171/104/19 173/107/19
s 52
f 175/103/20 176/106/20 178/105/20
f 178/105/20 177/104/20 175/103/20
f 178/105/20 180/108/20 179/107/20
f 179/107/20 177/104/20 178/105/20
s 53
f 170/106/80 176/106/80 175/103/80
f 175/103/80 169/103/80 170/106/80
s 54
f 172/105/91 178/105/91 176/106/92
f 176/106/92 170/106/92 172/105/91
f 174/108/93 180/108/93 178/105/91
f 178/105/91 172/105/91 174/108/93
s 55
f 173/107/82 179/107/82 180/108/82
f 180/108/82 174/108/82 173/107/82
s 56
f 171/104/84 177/104/84 179/107/84
f 179/107/84 173/107/84 171/104/84
f 169/103/84 175/103/84 177/104/84
f 177/104/84 171/104/84 169/103/84
s 57
f 181/109/19 183/110/19 184/111/19
f 184/111/19 182/112/19 181/109/19
f 185/113/19 186/114/19 184/111/19
f 184/111/19 183/110/19 185/113/19
s 58
f 187/109/20 188/112/20 190/111/20
f 190/111/20 189/110/20 187/109/20
f 190/111/20 192/114/20 191/113/20
f 191/113/20 189/110/20 190/111/20
s 59
f 182/112/80 188/112/80 187/109/80
f 187/109/80 181/109/80 182/112/80
s 60
f 184/111/94 190/111/94 188/112/95
f 188/112/95 182/112/95 184/111/94
f 186/114/96 192/114/96 190/111/94
f 190/111/94 184/111/94 186/114/96
s 61
f 185/113/82 191/113/82 192/114/82
f 192/114/82 186/114/82 185/113/82
s 62
f 183/110/84 189/110/84 191/113/84
f 191/113/84 185/113/84 183/110/84
f 181/109/84 187/109/84 189/110/84
f 189/110/84 183/110/84 181/109/84
s 63
f 210/115/19 213/116/97 214/117/98
f 214/117/98 209/118/19 210/115/19
s 64
f 212/116/99 215/115/20 216/118/20
f 216/118/20 211/119/100 212/116/99
s 65
f 194/120/101 198/120/101 197/121/101
f 197/121/101 193/121/101 194/120/101
s 66
f 232/122/102 229/122/102 230/123/102
f 230/123/102 231/123/102 232/122/102
s 67
f 195/124/103 199/124/103 200/125/104
f 200/125/104 196/125/104 195/124/103
s 68
f 201/126/105 204/126/105 199/124/105
f 199/124/105 195/124/105 201/126/105
s 63
f 195/124/19 196/125/106 202/127/98
f 202/127/98 201/126/19 195/124/19
s 64
f 200/125/20 199/124/20 204/126/20
f 204/126/20 203/127/100 200/125/20
s 69
f 206/128/102 207/128/102 208/129/102
f 208/129/102 205/129/102 206/128/102
s 68
f 209/118/105 216/118/105 215/115/105
f 215/115/105 210/115/105 209/118/105
s 63
f 196/125/106 206/128/107 205/129/107
f 205/129/107 202/127/98 196/125/106
s 67
f 200/125/104 207/128/108 206/128/108
f 206/128/108 196/125/104 200/125/104
s 64
f 203/127/100 208/129/109 207/128/109
f 207/128/109 200/125/20 203/127/100
s 70
f 202/127/110 205/129/110 208/129/110
f 208/129/110 203/127/110 202/127/110
s 63
f 222/130/19 217/131/97 218/132/98
f 218/132/98 221/133/19 222/130/19
f 194/120/19 193/121/19 209/118/19
f 209/118/19 214/117/98 194/120/19
s 64
f 224/131/99 219/130/20 220/134/20
f 220/134/20 223/135/100 224/131/99
f 197/121/20 198/120/20 211/119/100
f 211/119/100 216/118/20 197/121/20
s 71
f 226/136/102 227/137/102 228/138/102
f 228/138/102 225/138/102 226/136/102
s 72
f 198/120/102 194/120/102 214/117/102
f 214/117/102 211/119/102 198/120/102
s 68
f 193/121/105 197/121/105 216/118/105
f 216/118/105 209/118/105 193/121/105
f 219/130/105 222/130/105 221/133/105
f 221/133/105 220/134/105 219/130/105
s 63
f 201/126/19 202/127/98 217/131/97
f 217/131/97 222/130/19 201/126/19
f 213/116/97 210/115/19 221/133/19
f 221/133/19 218/132/98 213/116/97
s 64
f 203/127/100 204/126/20 219/130/20
f 219/130/20 224/131/99 203/127/100
f 215/115/20 212/116/99 223/135/100
f 223/135/100 220/134/20 215/115/20
s 73
f 202/127/102 203/127/102 224/131/102
f 224/131/102 217/131/102 202/127/102
s 74
f 212/116/102 213/116/102 218/132/102
f 218/132/102 223/135/102 212/116/102
s 68
f 204/126/105 201/126/105 222/130/105
f 222/130/105 219/130/105 204/126/105
f 210/115/105 215/115/105 220/134/105
f 220/134/105 221/133/105 210/115/105
s 63
f 217/131/97 226/136/107 225/138/107
f 225/138/107 218/132/98 217/131/97
s 75
f 224/131/108 227/137/108 226/136/108
f 226/136/108 217/131/108 224/131/108
s 64
f 223/135/100 228/138/109 227/137/109
f 227/137/109 224/131/99 223/135/100
s 76
f 218/132/110 225/138/110 228/138/110
f 228/138/110 223/135/110 218/132/110
s 64
f 211/119/100 230/123/109 229/122/109
f 229/122/109 212/116/99 211/119/100
s 77
f 214/117/110 231/123/110 230/123/110
f 230/123/110 211/119/110 214/117/110
s 63
f 213/116/97 232/122/107 231/123/107
f 231/123/107 214/117/98 213/116/97
s 78
f 212/116/108 229/122/108 232/122/108
f 232/122/108 213/116/108 212/116/108
s 79
f 233/139/19 235/140/19 236/141/19
f 236/141/19 234/142/19 233/139/19
f 237/143/19 238/144/19 236/141/19
f 236/141/19 235/140/19 237/143/19
s 80
f 239/139/20 240/142/20 242/141/20
f 242/141/20 241/140/20 239/139/20
f 242/141/20 244/144/20 243/143/20
f 243/143/20 241/140/20 242/141/20
s 81
f 234/142/101 240/142/101 239/139/101
f 239/139/101 233/139/101 234/142/101
s 82
f 236/141/111 242/141/111 240/142/112
f 240/142/112 234/142/112 236/141/111
f 238/144/113 244/144/113 242/141/111
f 242/141/111 236/141/111 238/144/113
s 83
f 237/143/103 243/143/103 244/144/103
f 244/144/103 238/144/103 237/143/103
s 84
f 235/140/105 241/140/105 243/143/105
f 243/143/105 237/143/105 235/140/105
f 233/139/105 239/139/105 241/140/105
f 241/140/105 235/140/105 233/139/105
s 85
f 245/145/19 247/146/19 248/147/19
f 248/147/19 246/148/19 245/145/19
f 249/149/19 250/150/19 248/147/19
f 248/147/19 247/146/19 249/149/19
s 86
f 251/151/20 252/152/20 254/153/20
f 254/153/20 253/154/20 251/151/20
f 254/153/20 256/150/20 255/149/20
f 255/149/20 253/154/20 254/153/20
s 87
f 246/148/101 252/152/101 251/151/101
f 251/151/101 245/145/101 246/148/101
s 88
f 248/147/114 254/153/114 252/152/115
f 252/152/115 246/148/115 248/147/114
f 250/150/116 256/150/116 254/153/114
f 254/153/114 248/147/114 250/150/116
s 89
f 249/149/103 255/149/103 256/150/103
f 256/150/103 250/150/103 249/149/103
s 90
f 247/146/105 253/154/105 255/149/105
f 255/149/105 249/149/105 247/146/105
f 245/145/105 251/151/105 253/154/105
f 253/154/105 247/146/105 245/145/105
s 91
f 274/155/19 277/156/117 278/157/118
f 278/157/118 273/158/19 274/155/19
s 92
f 276/156/119 279/155/20 280/159/20
f 280/159/20 275/157/120 276/156/119
s 93
f 258/160/121 262/161/121 261/162/121
f 261/162/121 257/162/121 258/160/121
s 94
f 296/163/122 293/163/122 294/164/122
f 294/164/122 295/165/122 296/163/122
s 95
f 259/166/123 263/166/123 264/167/124
f 264/167/124 260/167/124 259/166/123
s 96
f 265/168/125 268/168/125 263/166/125
f 263/166/125 259/166/125 265/168/125
s 91
f 259/166/19 260/167/126 266/169/127
f 266/169/127 265/168/19 259/166/19
s 92
f 264/167/20 263/166/20 268/168/20
f 268/168/20 267/169/120 264/167/20
s 97
f 270/170/122 271/170/122 272/171/122
f 272/171/122 269/171/122 270/170/122
s 96
f 273/158/125 280/159/125 279/155/125
f 279/155/125 274/155/125 273/158/125
s 91
f 260/167/126 270/170/128 269/171/128
f 269/171/128 266/169/127 260/167/126
s 95
f 264/167/124 271/170/129 270/170/129
f 270/170/129 260/167/124 264/167/124
s 92
f 267/169/120 272/171/130 271/170/130
f 271/170/130 264/167/20 267/169/120
s 98
f 266/169/131 269/171/131 272/171/131
f 272/171/131 267/169/131 266/169/131
s 91
f 286/172/19 281/173/117 282/174/127
f 282/174/127 285/175/19 286/172/19
f 258/160/19 257/162/19 273/158/19
f 273/158/19 278/157/118 258/160/19
s 92
f 288/176/119 283/172/20 284/177/20
f 284/177/20 287/174/120 288/176/119
f 261/162/20 262/161/20 275/157/120
f 275/157/120 280/159/20 261/162/20
s 99
f 290/178/122 291/178/122 292/179/122
f 292/179/122 289/179/122 290/178/122
s 100
f 262/161/122 258/160/122 278/157/122
f 278/157/122 275/157/122 262/161/122
s 96
f 257/162/125 261/162/125 280/159/125
f 280/159/125 273/158/125 257/162/125
f 283/172/125 286/172/125 285/175/125
f 285/175/125 284/177/125 283/172/125
s 91
f 265/168/19 266/169/127 281/173/117
f 281/173/117 286/172/19 265/168/19
f 277/156/117 274/155/19 285/175/19
f 285/175/19 282/174/127 277/156/117
s 92
f 267/169/120 268/168/20 283/172/20
f 283/172/20 288/176/119 267/169/120
f 279/155/20 276/156/119 287/174/120
f 287/174/120 284/177/20 279/155/20
s 101
f 266/169/122 267/169/122 288/176/122
f 288/176/122 281/173/122 266/169/122
s 102
f 276/156/122 277/156/122 282/174/122
f 282/174/122 287/174/122 276/156/122
s 96
f 268/168/125 265/168/125 286/172/125
f 286/172/125 283/172/125 268/168/125
f 274/155/125 279/155/125 284/177/125
f 284/177/125 285/175/125 274/155/125
s 91
f 281/173/117 290/178/128 289/179/128
f 289/179/128 282/174/127 281/173/117
s 103
f 288/176/129 291/178/129 290/178/129
f 290/178/129 281/173/129 288/176/129
s 92
f 287/174/120 292/179/130 291/178/130
f 291/178/130 288/176/119 287/174/120
s 104
f 282/174/131 289/179/131 292/179/131
f 292/179/131 287/174/131 282/174/131
s 92
f 275/157/120 294/164/130 293/163/130
f 293/163/130 276/156/119 275/157/120
s 105
f 278/157/131 295/165/131 294/164/131
f 294/164/131 275/157/131 278/157/131
s 91
f 277/156/117 296/163/128 295/165/128
f 295/165/128 278/157/118 277/156/117
s 106
f 276/156/129 293/163/129 296/163/129
f 296/163/129 277/156/129 276/156/129
s 107
f 297/180/19 299/181/19 300/182/19
f 300/182/19 298/183/19 297/180/19
f 301/184/19 302/185/19 300/182/19
f 300/182/19 299/181/19 301/184/19
s 108
f 303/180/20 304/183/20 306/182/20
f 306/182/20 305/181/20 303/180/20
f 306/182/20 308/185/20 307/184/20
f 307/184/20 305/181/20 306/182/20
s 109
f 298/183/121 304/183/121 303/180/121
f 303/180/121 297/180/121 298/183/121
s 110
f 300/182/132 306/182/132 304/183/133
f 304/183/133 298/183/133 300/182/132
f 302/185/134 308/185/134 306/182/132
f 306/182/132 300/182/132 302/185/134
s 111
f 301/184/123 307/184/123 308/185/123
f 308/185/123 302/185/123 301/184/123
s 112
f 299/181/125 305/181/125 307/184/125
f 307/184/125 301/184/125 299/181/125
f 297/180/125 303/180/125 305/181/125
f 305/181/125 299/181/125 297/180/125
s 113
f 309/186/19 311/187/19 312/188/19
f 312/188/19 310/189/19 309/186/19
f 313/190/19 314/191/19 312/188/19
f 312/188/19 311/187/19 313/190/19
s 114
f 315/186/20 316/189/20 318/188/20
f 318/188/20 317/187/20 315/186/20
f 318/188/20 320/191/20 319/190/20
f 319/190/20 317/187/20 318/188/20
s 115
f 310/189/121 316/189/121 315/186/121
f 315/186/121 309/186/121 310/189/121
s 116
f 312/188/135 318/188/135 316/189/136
f 316/189/136 310/189/136 312/188/135
f 314/191/137 320/191/137 318/188/135
f 318/188/135 312/188/135 314/191/137
s 117
f 313/190/123 319/190/123 320/191/123
f 320/191/123 314/191/123 313/190/123
s 118
f 311/187/125 317/187/125 319/190/125
f 319/190/125 313/190/125 311/187/125
f 309/186/125 315/186/125 317/187/125
f 317/187/125 311/187/125 309/186/125
s 119
f 338/192/19 341/193/138 342/194/139
f 342/194/139 337/195/19 338/192/19
s 120
f 340/196/140 343/192/20 344/195/20
f 344/195/20 339/194/141 340/196/140
s 121
f 322/197/142 326/197/142 325/198/142
f 325/198/142 321/198/142 322/197/142
s 122
f 360/199/143 357/199/143 358/200/143
f 358/200/143 359/200/143 360/199/143
s 123
f 323/201/144 327/201/144 328/202/145
f 328/202/145 324/202/145 323/201/144
s 124
f 329/203/146 332/203/146 327/201/146
f 327/201/146 323/201/146 329/203/146
s 119
f 323/201/19 324/202/147 330/204/139
f 330/204/139 329/203/19 323/201/19
s 120
f 328/202/20 327/201/20 332/203/20
f 332/203/20 331/204/148 328/202/20
s 125
f 334/205/143 335/205/143 336/206/143
f 336/206/143 333/206/143 334/205/143
s 124
f 337/195/146 344/195/146 343/192/146
f 343/192/146 338/192/146 337/195/146
s 119
f 324/202/147 334/205/149 333/206/149
f 333/206/149 330/204/139 324/202/147
s 123
f 328/202/145 335/205/150 334/205/150
f 334/205/150 324/202/145 328/202/145
s 120
f 331/204/148 336/206/151 335/205/151
f 335/205/151 328/202/20 331/204/148
s 126
f 330/204/152 333/206/152 336/206/152
f 336/206/152 331/204/152 330/204/152
s 119
f 350/207/19 345/208/138 346/209/139
f 346/209/139 349/210/19 350/207/19
f 322/197/19 321/198/19 337/195/19
f 337/195/19 342/194/139 322/197/19
s 120
f 352/208/153 347/207/20 348/211/20
f 348/211/20 351/212/148 352/208/153
f 325/198/20 326/197/20 339/194/141
f 339/194/141 344/195/20 325/198/20
s 127
f 354/213/143 355/213/143 356/214/143
f 356/214/143 353/214/143 354/213/143
s 128
f 326/197/143 322/197/143 342/194/143
f 342/194/143 339/194/143 326/197/143
s 124
f 321/198/146 325/198/146 344/195/146
f 344/195/146 337/195/146 321/198/146
f 347/207/146 350/207/146 349/210/146
f 349/210/146 348/211/146 347/207/146
s 119
f 329/203/19 330/204/139 345/208/138
f 345/208/138 350/207/19 329/203/19
f 341/193/138 338/192/19 349/210/19
f 349/210/19 346/209/139 341/193/138
s 120
f 331/204/148 332/203/20 347/207/20
f 347/207/20 352/208/153 331/204/148
f 343/192/20 340/196/140 351/212/148
f 351/212/148 348/211/20 343/192/20
s 129
f 330/204/143 331/204/143 352/208/143
f 352/208/143 345/208/143 330/204/143
s 130
f 340/196/143 341/193/143 346/209/143
f 346/209/143 351/212/143 340/196/143
s 124
f 332/203/146 329/203/146 350/207/146
f 350/207/146 347/207/146 332/203/146
f 338/192/146 343/192/146 348/211/146
f 348/211/146 349/210/146 338/192/146
s 119
f 345/208/138 354/213/149 353/214/149
f 353/214/149 346/209/139 345/208/138
s 131
f 352/208/150 355/213/150 354/213/150
f 354/213/150 345/208/150 352/208/150
s 120
f 351/212/148 356/214/151 355/213/151
f 355/213/151 352/208/153 351/212/148
s 132
f 346/209/152 353/214/152 356/214/152
f 356/214/152 351/212/152 346/209/152
s 120
f 339/194/141 358/200/151 357/199/151
f 357/199/151 340/196/140 339/194/141
s 133
f 342/194/152 359/200/152 358/200/152
f 358/200/152 339/194/152 342/194/152
s 119
f 341/193/138 360/199/149 359/200/149
f 359/200/149 342/194/139 341/193/138
s 134
f 340/196/150 357/199/150 360/199/150
f 360/199/150 341/193/150 340/196/150
s 135
f 361/215/19 363/216/19 364/217/19
f 364/217/19 362/218/19 361/215/19
f 365/219/19 366/220/19 364/217/19
f 364/217/19 363/216/19 365/219/19
s 136
f 367/215/20 368/218/20 370/217/20
f 370/217/20 369/216/20 367/215/20
f 370/217/20 372/220/20 371/219/20
f 371/219/20 369/216/20 370/217/20
s 137
f 362/218/142 368/218/142 367/215/142
f 367/215/142 361/215/142 362/218/142
s 138
f 364/217/154 370/217/154 368/218/155
f 368/218/155 362/218/155 364/217/154
f 366/220/156 372/220/156 370/217/154
f 370/217/154 364/217/154 366/220/156
s 139
f 365/219/144 371/219/144 372/220/144
f 372/220/144 366/220/144 365/219/144
s 140
f 363/216/146 369/216/146 371/219/146
f 371/219/146 365/219/146 363/216/146
f 361/215/146 367/215/146 369/216/146
f 369/216/146 363/216/146 361/215/146
s 141
f 373/221/19 375/222/19 376/223/19
f 376/223/19 374/224/19 373/221/19
f 377/225/19 378/226/19 376/223/19
f 376/223/19 375/222/19 377/225/19
s 142
f 379/221/20 380/224/20 382/223/20
f 382/223/20 381/222/20 379/221/20
f 382/223/20 384/226/20 383/225/20
f 383/225/20 381/222/20 382/223/20
s 143
f 374/224/142 380/224/142 379/221/142
f 379/221/142 373/221/142 374/224/142
s 144
f 376/223/157 382/223/157 380/224/158
f 380/224/158 374/224/158 376/223/157
f 378/226/159 384/226/159 382/223/157
f 382/223/157 376/223/157 378/226/159
s 145
f 377/225/144 383/225/144 384/226/144
f 384/226/144 378/226/144 377/225/144
s 146
f 375/222/146 381/222/146 383/225/146
f 383/225/146 377/225/146 375/222/146
f 373/221/146 379/221/146 381/222/146
f 381/222/146 375/222/146 373/221/146
l 385 386
