# Blender 5.0.1
# www.blender.org
mtllib fabrica.mtl
g Mesh_metal_0_Malla
v -31.200001 -1.035645 -31.252691
v -31.200001 -1.056910 -30.352007
v -29.952000 -1.045720 -30.261034
v 29.952000 -1.045720 -30.261034
v 31.200001 -1.056910 -30.352007
v 31.200001 -1.035645 -31.252691
v -31.200001 7.959385 29.694227
v -31.200001 7.871165 31.307323
v -29.952000 7.969973 29.794779
v 31.200001 7.959385 29.694227
v 29.952000 7.969973 29.794779
v 31.200001 7.871165 31.307323
v -30.000002 -3.377598 -30.137651
v -30.000002 5.622405 -10.137645
v -31.200001 5.622405 -10.137645
v -31.200001 -3.377598 -30.137651
v -30.000002 5.622405 -10.137645
v -30.000002 -3.377598 -10.137645
v -31.200001 -3.377598 -10.137645
v -31.200001 5.622405 -10.137645
v -30.000002 -3.377598 -10.137645
v -30.000002 5.622405 9.862360
v -31.200001 5.622405 9.862360
v -31.200001 -3.377598 -10.137645
v -30.000002 5.622405 9.862360
v -30.000002 -3.377598 9.862360
v -31.200001 -3.377598 9.862360
v -31.200001 5.622405 9.862360
v -30.000002 -3.377598 9.862360
v -30.000002 5.622405 29.862364
v -31.200001 5.622405 29.862364
v -31.200001 -3.377598 9.862360
v 31.200001 -1.056910 -30.352007
v 31.200001 8.087193 -8.539807
v 31.200001 5.622405 -10.137645
v 31.200001 -3.377598 -30.137651
v 31.200001 -0.915407 -8.545630
v 31.200001 -3.377598 -10.137645
v 31.200001 8.084593 11.454376
v 31.200001 5.622405 9.862360
v 31.200001 -0.918090 11.448461
v 31.200001 -3.377598 9.862360
v 31.200001 7.959385 29.694227
v 31.200001 5.622405 29.862364
v 30.000002 -3.377598 -30.137651
v 31.200001 -3.377598 -30.137651
v 31.200001 5.622405 -10.137645
v 30.000002 5.622405 -10.137645
v 30.000002 5.622405 -10.137645
v 31.200001 5.622405 -10.137645
v 31.200001 -3.377598 -10.137645
v 30.000002 -3.377598 -10.137645
v 30.000002 -3.377598 -10.137645
v 31.200001 -3.377598 -10.137645
v 31.200001 5.622405 9.862360
v 30.000002 5.622405 9.862360
v 30.000002 5.622405 9.862360
v 31.200001 5.622405 9.862360
v 31.200001 -3.377598 9.862360
v 30.000002 -3.377598 9.862360
v 30.000002 -3.377598 9.862360
v 31.200001 -3.377598 9.862360
v 31.200001 5.622405 29.862364
v 30.000002 5.622405 29.862364
v -31.200001 -1.056910 -30.352007
v -31.200001 8.087193 -8.539807
v -29.952000 8.087193 -8.539807
v -29.952000 -1.045720 -30.261034
v 31.200001 -1.056910 -30.352007
v 29.952000 -1.045720 -30.261034
v 29.952000 8.087193 -8.539807
v 31.200001 8.087193 -8.539807
v -29.952000 8.087193 -8.539807
v -31.200001 8.087193 -8.539807
v -31.200001 -0.915407 -8.545630
v -29.952000 -0.915407 -8.545630
v 31.200001 8.087193 -8.539807
v 29.952000 8.087193 -8.539807
v 29.952000 -0.915407 -8.545630
v 31.200001 -0.915407 -8.545630
v -29.952000 -0.915407 -8.545630
v -31.200001 -0.915407 -8.545630
v -31.200001 8.084593 11.454376
v -29.952000 8.084593 11.454376
v 31.200001 -0.915407 -8.545630
v 29.952000 -0.915407 -8.545630
v 29.952000 8.084593 11.454376
v 31.200001 8.084593 11.454376
v -29.952000 8.084593 11.454376
v -31.200001 8.084593 11.454376
v -31.200001 -0.918090 11.448461
v -29.952000 -0.918090 11.448461
v 31.200001 8.084593 11.454376
v 29.952000 8.084593 11.454376
v 29.952000 -0.918090 11.448461
v 31.200001 -0.918090 11.448461
v -29.952000 -0.918090 11.448461
v -31.200001 -0.918090 11.448461
v -31.200001 7.959385 29.694227
v -29.952000 7.969973 29.794779
v 29.952000 -0.918090 11.448461
v 29.952000 7.969973 29.794779
v 31.200001 7.959385 29.694227
v 31.200001 -0.918090 11.448461
v -31.200001 -1.056910 -30.352007
v -31.200001 -3.377598 -30.137651
v -31.200001 5.622405 -10.137645
v -31.200001 8.087193 -8.539807
v -31.200001 -3.377598 -10.137645
v -31.200001 -0.915407 -8.545630
v -31.200001 5.622405 9.862360
v -31.200001 8.084593 11.454376
v -31.200001 -3.377598 9.862360
v -31.200001 -0.918090 11.448461
v -31.200001 7.959385 29.694227
v -31.200001 5.622405 29.862364
v 29.952000 6.745039 29.923761
v -29.952000 6.745039 29.923761
v -29.952000 7.969973 29.794779
v 29.952000 7.969973 29.794779
v -29.952000 6.745039 29.923761
v -29.952000 -2.009713 10.746814
v -29.952000 -0.918090 11.448461
v -29.952000 7.969973 29.794779
v -29.952000 6.990287 10.746814
v -29.952000 8.084593 11.454376
v -29.952000 -2.009713 -9.253191
v -29.952000 -0.915407 -8.545630
v -29.952000 6.990287 -9.253191
v -29.952000 8.087193 -8.539807
v -29.952000 -2.262924 -30.111338
v -29.952000 -1.045720 -30.261034
v -29.952000 -2.262924 -30.111338
v 29.952000 -2.262924 -30.111338
v 29.952000 -1.045720 -30.261034
v -29.952000 -1.045720 -30.261034
v 29.952000 -2.262924 -30.111338
v 29.952000 6.990287 -9.253191
v 29.952000 8.087193 -8.539807
v 29.952000 -1.045720 -30.261034
v 29.952000 -2.009713 -9.253191
v 29.952000 -0.915407 -8.545630
v 29.952000 6.990287 10.746814
v 29.952000 8.084593 11.454376
v 29.952000 -2.009713 10.746814
v 29.952000 -0.918090 11.448461
v 29.952000 6.745039 29.923761
v 29.952000 7.969973 29.794779
v -31.200001 -3.377598 -30.137651
v -31.200001 -1.056910 -30.352007
v -31.200001 -1.035645 -31.252691
v -31.200001 -3.349984 -31.307323
v 31.200001 -3.377598 -30.137651
v 31.200001 -3.349984 -31.307323
v 31.200001 -1.035645 -31.252691
v 31.200001 -1.056910 -30.352007
v -31.200001 -1.035645 -31.252691
v 31.200001 -1.035645 -31.252691
v 31.200001 -3.349984 -31.307323
v -31.200001 -3.349984 -31.307323
v -31.200001 7.871165 31.307323
v -31.200001 7.959385 29.694227
v -31.200001 5.622405 29.862364
v -31.200001 5.550321 31.180395
v 31.200001 7.871165 31.307323
v 31.200001 5.550321 31.180395
v 31.200001 5.622405 29.862364
v 31.200001 7.959385 29.694227
v 31.200001 7.871165 31.307323
v -31.200001 7.871165 31.307323
v -31.200001 5.550321 31.180395
v 31.200001 5.550321 31.180395
v -30.300001 -12.737602 27.762363
v -30.300001 -4.757600 27.762363
v -30.300001 -5.123599 27.396366
v -30.300001 -12.371602 27.396366
v -30.300001 -12.737600 11.962361
v -30.300001 -12.371600 12.328362
v -30.300001 -4.757597 11.962361
v -30.300001 -12.737600 11.962361
v -30.300001 -12.371600 12.328362
v -30.300001 -5.123598 12.328362
v -30.300001 -4.757597 -8.037644
v -30.300001 -12.737600 -8.037644
v -30.300001 -12.371600 -7.671644
v -30.300001 -5.123598 -7.671644
v -30.300001 -4.757597 7.762361
v -30.300001 -5.123598 7.396360
v -30.300001 -12.737600 7.762361
v -30.300001 -12.371600 7.396360
v -30.300001 -12.737600 -8.037644
v -30.300001 -12.371600 -7.671644
v -30.300001 -4.757597 -28.037649
v -30.300001 -12.737600 -28.037649
v -30.300001 -12.371600 -27.671648
v -30.300001 -5.123598 -27.671648
v -30.300001 -4.757597 -12.237645
v -30.300001 -5.123598 -12.603644
v -30.300001 -12.737600 -12.237645
v -30.300001 -12.371600 -12.603644
v -30.300001 -12.737600 -28.037649
v -30.300001 -12.371600 -27.671648
v -30.000002 -12.737600 -28.037649
v -30.000002 -12.737600 -12.237645
v -30.300001 -12.737600 -12.237645
v -30.300001 -12.737600 -28.037649
v -30.000002 -12.737600 -12.237645
v -30.000002 -4.757597 -12.237645
v -30.300001 -4.757597 -12.237645
v -30.300001 -12.737600 -12.237645
v -30.000002 -4.757597 -12.237645
v -30.000002 -4.757597 -28.037649
v -30.300001 -4.757597 -28.037649
v -30.300001 -4.757597 -12.237645
v -30.000002 -4.757597 -28.037649
v -30.000002 -12.737600 -28.037649
v -30.300001 -12.737600 -28.037649
v -30.300001 -4.757597 -28.037649
v -30.000002 -12.737600 -8.037644
v -30.000002 -12.737600 7.762361
v -30.300001 -12.737600 7.762361
v -30.300001 -12.737600 -8.037644
v -30.000002 -12.737600 7.762361
v -30.000002 -4.757597 7.762361
v -30.300001 -4.757597 7.762361
v -30.300001 -12.737600 7.762361
v -30.000002 -4.757597 7.762361
v -30.000002 -4.757597 -8.037644
v -30.300001 -4.757597 -8.037644
v -30.300001 -4.757597 7.762361
v -30.000002 -4.757597 -8.037644
v -30.000002 -12.737600 -8.037644
v -30.300001 -12.737600 -8.037644
v -30.300001 -4.757597 -8.037644
v -30.000002 -4.757600 27.762363
v -30.000002 -4.757597 11.962361
v -30.300001 -4.757597 11.962361
v -30.300001 -4.757600 27.762363
v -30.000002 -4.757597 11.962361
v -30.000002 -12.737600 11.962361
v -30.300001 -12.737600 11.962361
v -30.300001 -4.757597 11.962361
v -30.000002 -12.737600 11.962361
v -30.000002 -12.737602 27.762363
v -30.300001 -12.737602 27.762363
v -30.300001 -12.737600 11.962361
v -30.000002 -12.737602 27.762363
v -30.000002 -4.757600 27.762363
v -30.300001 -4.757600 27.762363
v -30.300001 -12.737602 27.762363
v -30.000002 -5.123598 12.328362
v -30.000002 -5.123599 27.396366
v -30.300001 -5.123599 27.396366
v -30.300001 -5.123598 12.328362
v -30.000002 -5.123599 27.396366
v -30.000002 -12.371602 27.396366
v -30.300001 -12.371602 27.396366
v -30.300001 -5.123599 27.396366
v -30.000002 -12.371602 27.396366
v -30.000002 -12.371600 12.328362
v -30.300001 -12.371600 12.328362
v -30.300001 -12.371602 27.396366
v -30.000002 -12.371600 12.328362
v -30.000002 -5.123598 12.328362
v -30.300001 -5.123598 12.328362
v -30.300001 -12.371600 12.328362
v -30.000002 -5.123598 -7.671644
v -30.000002 -5.123598 7.396360
v -30.300001 -5.123598 7.396360
v -30.300001 -5.123598 -7.671644
v -30.000002 -5.123598 7.396360
v -30.000002 -12.371600 7.396360
v -30.300001 -12.371600 7.396360
v -30.300001 -5.123598 7.396360
v -30.000002 -12.371600 7.396360
v -30.000002 -12.371600 -7.671644
v -30.300001 -12.371600 -7.671644
v -30.300001 -12.371600 7.396360
v -30.000002 -12.371600 -7.671644
v -30.000002 -5.123598 -7.671644
v -30.300001 -5.123598 -7.671644
v -30.300001 -12.371600 -7.671644
v -30.000002 -12.371600 -12.603644
v -30.000002 -12.371600 -27.671648
v -30.300001 -12.371600 -27.671648
v -30.300001 -12.371600 -12.603644
v -30.000002 -12.371600 -27.671648
v -30.000002 -5.123598 -27.671648
v -30.300001 -5.123598 -27.671648
v -30.300001 -12.371600 -27.671648
v -30.000002 -5.123598 -27.671648
v -30.000002 -5.123598 -12.603644
v -30.300001 -5.123598 -12.603644
v -30.300001 -5.123598 -27.671648
v -30.000002 -5.123598 -12.603644
v -30.000002 -12.371600 -12.603644
v -30.300001 -12.371600 -12.603644
v -30.300001 -5.123598 -12.603644
v -31.200001 -3.349984 -31.307323
v -30.000002 -3.377598 -30.137651
v -31.200001 -3.377598 -30.137651
v 30.000002 -3.377598 -30.137651
v 31.200001 -3.377598 -30.137651
v 31.200001 -3.349984 -31.307323
v -31.200001 5.622405 29.862364
v 31.200001 5.550321 31.180395
v -31.200001 5.550321 31.180395
v 31.200001 5.622405 29.862364
v 30.000002 5.622405 9.862360
v 30.000002 -3.377598 9.862360
v 30.000002 -3.377598 -10.137645
v 30.000002 5.622405 29.862364
v 30.000002 -3.377599 29.862364
v 30.000002 5.622405 -10.137645
v 30.000002 -3.377598 -30.137651
v -30.000002 5.622405 29.862364
v -30.000002 -3.377598 9.862360
v -30.000002 -3.377599 29.862364
v -30.000002 5.622405 9.862360
v -30.000002 -3.377598 -10.137645
v -30.000002 5.622405 -10.137645
v -30.000002 -3.377598 -30.137651
v 30.000002 -15.557600 9.862360
v 30.000002 -15.557600 -10.137645
v -30.000002 -15.557600 -30.137651
v -30.000002 -15.557600 -10.137645
v -30.000002 -12.737600 -12.237645
v -30.000002 -12.737600 -28.037649
v -30.000002 -15.557600 9.862360
v -30.000002 -12.737600 7.762361
v -30.000002 -12.737600 -8.037644
v 30.000002 -15.557602 29.862364
v 30.000002 -15.557600 -30.137651
v -30.000002 5.622405 29.862364
v -30.000002 -3.377599 29.862364
v 30.000002 -3.377599 29.862364
v 30.000002 5.622405 29.862364
v 30.000002 -3.377598 -30.137651
v 30.000002 -15.557600 -30.137651
v -30.000002 -15.557600 -30.137651
v -30.000002 -3.377598 -30.137651
v -30.000002 -15.557602 29.862364
v 30.000002 -15.557602 29.862364
v -30.000002 -4.757597 -28.037649
v -30.000002 -4.757597 -12.237645
v -30.000002 -4.757597 -8.037644
v -30.000002 -4.757597 7.762361
v -30.000002 -4.757597 11.962361
v -30.000002 -4.757600 27.762363
v -30.000002 -12.737600 11.962361
v -30.000002 -15.557602 29.862364
v -30.000002 -12.737602 27.762363
v -30.000002 -5.123599 27.396366
v -30.000002 -5.123598 12.328362
v -30.000002 -12.371600 12.328362
v -30.000002 -12.371602 27.396366
v -30.000002 -5.123598 7.396360
v -30.000002 -5.123598 -7.671644
v -30.000002 -12.371600 -7.671644
v -30.000002 -12.371600 7.396360
v -30.000002 -12.371600 -27.671648
v -30.000002 -12.371600 -12.603644
v -30.000002 -5.123598 -12.603644
v -30.000002 -5.123598 -27.671648
v 23.126015 41.022419 25.123068
v 21.300001 41.022419 25.427401
v 21.300001 26.022415 26.202595
v 23.436096 26.022415 25.846584
v 24.647696 41.022419 24.210058
v 25.216173 26.022415 24.778536
v 19.473984 41.022419 25.123068
v 17.952305 41.022419 24.210058
v 17.383827 26.022415 24.778536
v 19.163908 26.022415 25.846584
v 18.853830 11.022406 26.570103
v 21.300001 11.022406 26.977798
v 16.815351 11.022406 25.347015
v 16.246876 -3.977597 25.915491
v 18.543753 -3.977597 27.293619
v 21.300001 -3.977597 27.752985
v 23.746174 11.022406 26.570103
v 25.784651 11.022406 25.347015
v 24.056252 -3.977597 27.293619
v 26.353127 -3.977597 25.915491
v 17.039297 41.022419 22.688379
v 16.734961 41.022419 20.862368
v 15.959766 26.022415 20.862368
v 16.315783 26.022415 22.998457
v 17.039297 41.022419 19.036354
v 17.952305 41.022419 17.514675
v 17.383827 26.022415 16.946198
v 16.315783 26.022415 18.726276
v 15.592267 11.022406 18.416191
v 15.184571 11.022406 20.862368
v 16.815351 11.022406 16.377720
v 16.246876 -3.977597 15.809240
v 14.868751 -3.977597 18.106113
v 14.409375 -3.977597 20.862368
v 15.592267 11.022406 23.308542
v 14.868751 -3.977597 23.618620
v 19.473984 41.022419 16.601665
v 21.300001 41.022419 16.297331
v 21.300001 26.022415 15.522137
v 19.163908 26.022415 15.878148
v 23.126015 41.022419 16.601665
v 24.647696 41.022419 17.514668
v 25.216173 26.022415 16.946198
v 23.436096 26.022415 15.878148
v 23.746174 11.022406 15.154632
v 21.300001 11.022406 14.746936
v 25.784651 11.022406 16.377720
v 26.353127 -3.977597 15.809240
v 24.056252 -3.977597 14.431114
v 21.300001 -3.977597 13.971742
v 18.853830 11.022406 15.154632
v 18.543753 -3.977597 14.431114
v 25.560703 41.022419 19.036346
v 25.865040 41.022419 20.862368
v 26.640236 26.022415 20.862368
v 26.284222 26.022415 18.726269
v 25.560703 41.022419 22.688379
v 26.284222 26.022415 22.998457
v 25.865040 41.022419 20.862368
v 26.640236 26.022415 20.862368
v 27.007734 11.022406 23.308542
v 27.415430 11.022406 20.862368
v 27.731251 -3.977597 23.618620
v 28.190626 -3.977597 20.862368
v 27.007734 11.022406 18.416191
v 27.415430 11.022406 20.862368
v 28.190626 -3.977597 20.862368
v 27.731251 -3.977597 18.106113
v 24.235550 51.897415 23.797913
v 22.901211 51.897415 24.598520
v 25.780142 51.938969 22.737495
v 25.667995 54.263973 22.689430
v 24.715092 54.265442 24.277449
v 24.803207 51.940445 24.365568
v 24.147438 54.222424 23.709793
v 24.079220 56.022423 23.641579
v 22.815937 56.022423 24.399549
v 22.853148 54.222424 24.486376
v 21.300001 51.897415 24.865381
v 26.092699 51.938232 20.862368
v 25.972546 54.263226 20.862368
v 21.300001 56.022423 24.652206
v 21.300001 54.222424 24.745234
v 19.698792 51.897415 24.598520
v 25.780142 51.938969 18.987230
v 25.667995 54.263973 19.035295
v 25.972546 54.263226 20.862368
v 26.092699 51.938232 20.862368
v 19.784063 56.022423 24.399549
v 19.746855 54.222424 24.486376
v 18.364452 51.897415 23.797913
v 24.803205 51.940445 17.359158
v 24.715092 54.265442 17.447277
v 18.520781 56.022423 23.641579
v 18.452566 54.222424 23.709793
v 17.563847 51.897415 22.463573
v 23.175131 51.938969 16.382225
v 23.127068 54.263966 16.494370
v 17.762814 56.022423 22.378302
v 17.675991 54.222424 22.415508
v 17.296978 51.897415 20.862368
v 21.300001 51.938232 16.069664
v 21.300001 54.263226 16.189821
v 17.510157 56.022423 20.862368
v 17.417133 54.222424 20.862368
v 17.563847 51.897415 19.261160
v 19.424870 51.938969 16.382225
v 19.472931 54.263966 16.494370
v 17.762814 56.022423 19.346432
v 17.675991 54.222424 19.309225
v 18.364452 51.897415 17.926821
v 17.796797 51.940445 17.359165
v 17.884911 54.265442 17.447285
v 18.520781 56.022423 18.083153
v 18.452566 54.222424 18.014940
v 19.698792 51.897415 17.126213
v 16.819862 51.938969 18.987238
v 16.932007 54.263973 19.035303
v 19.784063 56.022423 17.325182
v 19.746855 54.222424 17.238358
v 21.300001 51.897415 16.859344
v 16.507299 51.938232 20.862368
v 16.627457 54.263226 20.862368
v 21.300001 56.022423 17.072519
v 21.300001 54.222424 16.979500
v 22.901211 51.897415 17.126213
v 16.819862 51.938969 22.737495
v 16.932007 54.263973 22.689430
v 22.815937 56.022423 17.325182
v 22.853148 54.222424 17.238358
v 24.235550 51.897415 17.926813
v 17.796797 51.940445 24.365568
v 17.884911 54.265442 24.277449
v 24.079220 56.022423 18.083147
v 24.147438 54.222424 18.014933
v 25.036154 51.897415 19.261150
v 19.424870 51.938969 25.342508
v 19.472931 54.263966 25.230362
v 24.837189 56.022423 19.346424
v 24.924011 54.222424 19.309216
v 25.303022 51.897415 20.862368
v 21.300001 51.938221 25.655060
v 21.300001 54.263226 25.534910
v 25.089846 56.022423 20.862368
v 25.182867 54.222424 20.862368
v 25.303022 51.897415 20.862368
v 25.036154 51.897415 22.463573
v 23.175131 51.938969 25.342508
v 23.127071 54.263966 25.230362
v 25.182867 54.222424 20.862368
v 25.089846 56.022423 20.862368
v 24.837189 56.022423 22.378302
v 24.924011 54.222424 22.415508
v 22.901211 51.897415 24.598520
v 24.235550 51.897415 23.797913
v 24.803207 51.940445 24.365568
v 23.175131 51.938969 25.342508
v 25.036154 51.897415 22.463573
v 25.780142 51.938969 22.737495
v 25.303022 51.897415 20.862368
v 26.092699 51.938232 20.862368
v 25.303022 51.897415 20.862368
v 25.036154 51.897415 19.261150
v 25.780142 51.938969 18.987230
v 26.092699 51.938232 20.862368
v 24.235550 51.897415 17.926813
v 24.803205 51.940445 17.359158
v 22.901211 51.897415 17.126213
v 23.175131 51.938969 16.382225
v 21.300001 51.897415 16.859344
v 21.300001 51.938232 16.069664
v 19.698792 51.897415 17.126213
v 19.424870 51.938969 16.382225
v 18.364452 51.897415 17.926821
v 17.796797 51.940445 17.359165
v 17.563847 51.897415 19.261160
v 16.819862 51.938969 18.987238
v 17.296978 51.897415 20.862368
v 16.507299 51.938232 20.862368
v 17.563847 51.897415 22.463573
v 16.819862 51.938969 22.737495
v 18.364452 51.897415 23.797913
v 17.796797 51.940445 24.365568
v 19.698792 51.897415 24.598520
v 19.424870 51.938969 25.342508
v 21.300001 51.897415 24.865381
v 21.300001 51.938221 25.655060
v 24.147438 54.222424 23.709793
v 22.853148 54.222424 24.486376
v 23.127071 54.263966 25.230362
v 24.715092 54.265442 24.277449
v 21.300001 54.222424 24.745234
v 21.300001 54.263226 25.534910
v 19.746855 54.222424 24.486376
v 19.472931 54.263966 25.230362
v 18.452566 54.222424 23.709793
v 17.884911 54.265442 24.277449
v 17.675991 54.222424 22.415508
v 16.932007 54.263973 22.689430
v 17.417133 54.222424 20.862368
v 16.627457 54.263226 20.862368
v 17.675991 54.222424 19.309225
v 16.932007 54.263973 19.035303
v 18.452566 54.222424 18.014940
v 17.884911 54.265442 17.447285
v 19.746855 54.222424 17.238358
v 19.472931 54.263966 16.494370
v 21.300001 54.222424 16.979500
v 21.300001 54.263226 16.189821
v 22.853148 54.222424 17.238358
v 23.127068 54.263966 16.494370
v 24.147438 54.222424 18.014933
v 24.715092 54.265442 17.447277
v 24.924011 54.222424 19.309216
v 25.667995 54.263973 19.035295
v 25.182867 54.222424 20.862368
v 25.972546 54.263226 20.862368
v 25.182867 54.222424 20.862368
v 24.924011 54.222424 22.415508
v 25.667995 54.263973 22.689430
v 25.972546 54.263226 20.862368
v 23.126015 41.022419 4.740705
v 21.300001 41.022419 5.045039
v 21.300001 26.022415 5.820233
v 23.436096 26.022415 5.464221
v 24.647696 41.022419 3.827695
v 25.216173 26.022415 4.396173
v 19.473984 41.022419 4.740705
v 17.952305 41.022419 3.827695
v 17.383827 26.022415 4.396173
v 19.163908 26.022415 5.464221
v 18.853830 11.022406 6.187739
v 21.300001 11.022406 6.595435
v 16.815351 11.022406 4.964651
v 16.246876 -3.977597 5.533129
v 18.543753 -3.977597 6.911256
v 21.300001 -3.977597 7.370622
v 23.746174 11.022406 6.187739
v 25.784651 11.022406 4.964651
v 24.056252 -3.977597 6.911256
v 26.353127 -3.977597 5.533129
v 17.039297 41.022419 2.306016
v 16.734961 41.022419 0.480004
v 15.959766 26.022415 0.480004
v 16.315783 26.022415 2.616094
v 17.039297 41.022419 -1.346009
v 17.952305 41.022419 -2.867687
v 17.383827 26.022415 -3.436166
v 16.315783 26.022415 -1.656087
v 15.592267 11.022406 -1.966171
v 15.184571 11.022406 0.480004
v 16.815351 11.022406 -4.004644
v 16.246876 -3.977597 -4.573122
v 14.868751 -3.977597 -2.276249
v 14.409375 -3.977597 0.480004
v 15.592267 11.022406 2.926179
v 14.868751 -3.977597 3.236257
v 19.473984 41.022419 -3.780697
v 21.300001 41.022419 -4.085032
v 21.300001 26.022415 -4.860226
v 19.163908 26.022415 -4.504214
v 23.126015 41.022419 -3.780697
v 24.647696 41.022419 -2.867694
v 25.216173 26.022415 -3.436166
v 23.436096 26.022415 -4.504214
v 23.746174 11.022406 -5.227731
v 21.300001 11.022406 -5.635427
v 25.784651 11.022406 -4.004644
v 26.353127 -3.977597 -4.573122
v 24.056252 -3.977597 -5.951249
v 21.300001 -3.977597 -6.410621
v 18.853830 11.022406 -5.227731
v 18.543753 -3.977597 -5.951249
v 25.560703 41.022419 -1.346016
v 25.865040 41.022419 0.480004
v 26.640236 26.022415 0.480004
v 26.284222 26.022415 -1.656094
v 25.560703 41.022419 2.306016
v 26.284222 26.022415 2.616094
v 25.865040 41.022419 0.480004
v 26.640236 26.022415 0.480004
v 27.007734 11.022406 2.926179
v 27.415430 11.022406 0.480004
v 27.731251 -3.977597 3.236257
v 28.190626 -3.977597 0.480004
v 27.007734 11.022406 -1.966171
v 27.415430 11.022406 0.480004
v 28.190626 -3.977597 0.480004
v 27.731251 -3.977597 -2.276249
v 24.235550 51.897415 3.415550
v 22.901211 51.897415 4.216157
v 25.780142 51.938969 2.355133
v 25.667995 54.263973 2.307068
v 24.715092 54.265442 3.895086
v 24.803207 51.940445 3.983206
v 24.147438 54.222424 3.327430
v 24.079220 56.022423 3.259216
v 22.815937 56.022423 4.017187
v 22.853148 54.222424 4.104012
v 21.300001 51.897415 4.483019
v 26.092699 51.938232 0.480004
v 25.972546 54.263226 0.480004
v 21.300001 56.022423 4.269845
v 21.300001 54.222424 4.362871
v 19.698792 51.897415 4.216157
v 25.780142 51.938969 -1.395133
v 25.667995 54.263973 -1.347067
v 25.972546 54.263226 0.480004
v 26.092699 51.938232 0.480004
v 19.784063 56.022423 4.017187
v 19.746855 54.222424 4.104012
v 18.364452 51.897415 3.415550
v 24.803205 51.940445 -3.023205
v 24.715092 54.265442 -2.935086
v 18.520781 56.022423 3.259216
v 18.452566 54.222424 3.327430
v 17.563847 51.897415 2.081211
v 23.175131 51.938969 -4.000138
v 23.127068 54.263966 -3.887993
v 17.762814 56.022423 1.995939
v 17.675991 54.222424 2.033146
v 17.296978 51.897415 0.480004
v 21.300001 51.938232 -4.312697
v 21.300001 54.263226 -4.192542
v 17.510157 56.022423 0.480004
v 17.417133 54.222424 0.480004
v 17.563847 51.897415 -1.121204
v 19.424870 51.938969 -4.000138
v 19.472931 54.263966 -3.887993
v 17.762814 56.022423 -1.035931
v 17.675991 54.222424 -1.073139
v 18.364452 51.897415 -2.455543
v 17.796797 51.940445 -3.023198
v 17.884911 54.265442 -2.935079
v 18.520781 56.022423 -2.299209
v 18.452566 54.222424 -2.367423
v 19.698792 51.897415 -3.256150
v 16.819862 51.938969 -1.395126
v 16.932007 54.263973 -1.347060
v 19.784063 56.022423 -3.057180
v 19.746855 54.222424 -3.144005
v 21.300001 51.897415 -3.523019
v 16.507299 51.938232 0.480004
v 16.627457 54.263226 0.480004
v 21.300001 56.022423 -3.309844
v 21.300001 54.222424 -3.402863
v 22.901211 51.897415 -3.256150
v 16.819862 51.938969 2.355133
v 16.932007 54.263973 2.307068
v 22.815937 56.022423 -3.057180
v 22.853148 54.222424 -3.144005
v 24.235550 51.897415 -2.455550
v 17.796797 51.940445 3.983206
v 17.884911 54.265442 3.895086
v 24.079220 56.022423 -2.299216
v 24.147438 54.222424 -2.367430
v 25.036154 51.897415 -1.121211
v 19.424870 51.938969 4.960145
v 19.472931 54.263966 4.848000
v 24.837189 56.022423 -1.035938
v 24.924011 54.222424 -1.073146
v 25.303022 51.897415 0.480004
v 21.300001 51.938221 5.272698
v 21.300001 54.263226 5.152549
v 25.089846 56.022423 0.480004
v 25.182867 54.222424 0.480004
v 25.303022 51.897415 0.480004
v 25.036154 51.897415 2.081211
v 23.175131 51.938969 4.960145
v 23.127071 54.263966 4.848000
v 25.182867 54.222424 0.480004
v 25.089846 56.022423 0.480004
v 24.837189 56.022423 1.995939
v 24.924011 54.222424 2.033146
v 22.901211 51.897415 4.216157
v 24.235550 51.897415 3.415550
v 24.803207 51.940445 3.983206
v 23.175131 51.938969 4.960145
v 25.036154 51.897415 2.081211
v 25.780142 51.938969 2.355133
v 25.303022 51.897415 0.480004
v 26.092699 51.938232 0.480004
v 25.303022 51.897415 0.480004
v 25.036154 51.897415 -1.121211
v 25.780142 51.938969 -1.395133
v 26.092699 51.938232 0.480004
v 24.235550 51.897415 -2.455550
v 24.803205 51.940445 -3.023205
v 22.901211 51.897415 -3.256150
v 23.175131 51.938969 -4.000138
v 21.300001 51.897415 -3.523019
v 21.300001 51.938232 -4.312697
v 19.698792 51.897415 -3.256150
v 19.424870 51.938969 -4.000138
v 18.364452 51.897415 -2.455543
v 17.796797 51.940445 -3.023198
v 17.563847 51.897415 -1.121204
v 16.819862 51.938969 -1.395126
v 17.296978 51.897415 0.480004
v 16.507299 51.938232 0.480004
v 17.563847 51.897415 2.081211
v 16.819862 51.938969 2.355133
v 18.364452 51.897415 3.415550
v 17.796797 51.940445 3.983206
v 19.698792 51.897415 4.216157
v 19.424870 51.938969 4.960145
v 21.300001 51.897415 4.483019
v 21.300001 51.938221 5.272698
v 24.147438 54.222424 3.327430
v 22.853148 54.222424 4.104012
v 23.127071 54.263966 4.848000
v 24.715092 54.265442 3.895086
v 21.300001 54.222424 4.362871
v 21.300001 54.263226 5.152549
v 19.746855 54.222424 4.104012
v 19.472931 54.263966 4.848000
v 18.452566 54.222424 3.327430
v 17.884911 54.265442 3.895086
v 17.675991 54.222424 2.033146
v 16.932007 54.263973 2.307068
v 17.417133 54.222424 0.480004
v 16.627457 54.263226 0.480004
v 17.675991 54.222424 -1.073139
v 16.932007 54.263973 -1.347060
v 18.452566 54.222424 -2.367423
v 17.884911 54.265442 -2.935079
v 19.746855 54.222424 -3.144005
v 19.472931 54.263966 -3.887993
v 21.300001 54.222424 -3.402863
v 21.300001 54.263226 -4.192542
v 22.853148 54.222424 -3.144005
v 23.127068 54.263966 -3.887993
v 24.147438 54.222424 -2.367430
v 24.715092 54.265442 -2.935086
v 24.924011 54.222424 -1.073146
v 25.667995 54.263973 -1.347067
v 25.182867 54.222424 0.480004
v 25.972546 54.263226 0.480004
v 25.182867 54.222424 0.480004
v 24.924011 54.222424 2.033146
v 25.667995 54.263973 2.307068
v 25.972546 54.263226 0.480004
v 23.126015 41.022419 -15.059300
v 21.300001 41.022419 -14.754966
v 21.300001 26.022415 -13.979772
v 23.436096 26.022415 -14.335783
v 24.647696 41.022419 -15.972310
v 25.216173 26.022415 -15.403831
v 19.473984 41.022419 -15.059300
v 17.952305 41.022419 -15.972310
v 17.383827 26.022415 -15.403831
v 19.163908 26.022415 -14.335783
v 18.853830 11.022406 -13.612267
v 21.300001 11.022406 -13.204571
v 16.815351 11.022406 -14.835354
v 16.246876 -3.977597 -14.266875
v 18.543753 -3.977597 -12.888749
v 21.300001 -3.977597 -12.429383
v 23.746174 11.022406 -13.612267
v 25.784651 11.022406 -14.835354
v 24.056252 -3.977597 -12.888749
v 26.353127 -3.977597 -14.266875
v 17.039297 41.022419 -17.493988
v 16.734961 41.022419 -19.320000
v 15.959766 26.022415 -19.320000
v 16.315783 26.022415 -17.183910
v 17.039297 41.022419 -21.146013
v 17.952305 41.022419 -22.667690
v 17.383827 26.022415 -23.236170
v 16.315783 26.022415 -21.456091
v 15.592267 11.022406 -21.766176
v 15.184571 11.022406 -19.320000
v 16.815351 11.022406 -23.804647
v 16.246876 -3.977597 -24.373127
v 14.868751 -3.977597 -22.076254
v 14.409375 -3.977597 -19.320000
v 15.592267 11.022406 -16.873825
v 14.868751 -3.977597 -16.563747
v 19.473984 41.022419 -23.580702
v 21.300001 41.022419 -23.885036
v 21.300001 26.022415 -24.660229
v 19.163908 26.022415 -24.304220
v 23.126015 41.022419 -23.580702
v 24.647696 41.022419 -22.667698
v 25.216173 26.022415 -23.236170
v 23.436096 26.022415 -24.304220
v 23.746174 11.022406 -25.027737
v 21.300001 11.022406 -25.435432
v 25.784651 11.022406 -23.804647
v 26.353127 -3.977597 -24.373127
v 24.056252 -3.977597 -25.751251
v 21.300001 -3.977597 -26.210627
v 18.853830 11.022406 -25.027737
v 18.543753 -3.977597 -25.751251
v 25.560703 41.022419 -21.146021
v 25.865040 41.022419 -19.320000
v 26.640236 26.022415 -19.320000
v 26.284222 26.022415 -21.456099
v 25.560703 41.022419 -17.493988
v 26.284222 26.022415 -17.183910
v 25.865040 41.022419 -19.320000
v 26.640236 26.022415 -19.320000
v 27.007734 11.022406 -16.873825
v 27.415430 11.022406 -19.320000
v 27.731251 -3.977597 -16.563747
v 28.190626 -3.977597 -19.320000
v 27.007734 11.022406 -21.766176
v 27.415430 11.022406 -19.320000
v 28.190626 -3.977597 -19.320000
v 27.731251 -3.977597 -22.076254
v 24.235550 51.897415 -16.384455
v 22.901211 51.897415 -15.583847
v 25.780142 51.938969 -17.444872
v 25.667995 54.263973 -17.492937
v 24.715092 54.265442 -15.904919
v 24.803207 51.940445 -15.816799
v 24.147438 54.222424 -16.472574
v 24.079220 56.022423 -16.540789
v 22.815937 56.022423 -15.782818
v 22.853148 54.222424 -15.695992
v 21.300001 51.897415 -15.316985
v 26.092699 51.938232 -19.320000
v 25.972546 54.263226 -19.320000
v 21.300001 56.022423 -15.530160
v 21.300001 54.222424 -15.437134
v 19.698792 51.897415 -15.583847
v 25.780142 51.938969 -21.195139
v 25.667995 54.263973 -21.147074
v 25.972546 54.263226 -19.320000
v 26.092699 51.938232 -19.320000
v 19.784063 56.022423 -15.782818
v 19.746855 54.222424 -15.695992
v 18.364452 51.897415 -16.384455
v 24.803205 51.940445 -22.823210
v 24.715092 54.265442 -22.735090
v 18.520781 56.022423 -16.540789
v 18.452566 54.222424 -16.472574
v 17.563847 51.897415 -17.718794
v 23.175131 51.938969 -23.800142
v 23.127068 54.263966 -23.687996
v 17.762814 56.022423 -17.804066
v 17.675991 54.222424 -17.766859
v 17.296978 51.897415 -19.320000
v 21.300001 51.938232 -24.112703
v 21.300001 54.263226 -23.992546
v 17.510157 56.022423 -19.320000
v 17.417133 54.222424 -19.320000
v 17.563847 51.897415 -20.921207
v 19.424870 51.938969 -23.800142
v 19.472931 54.263966 -23.687996
v 17.762814 56.022423 -20.835936
v 17.675991 54.222424 -20.873142
v 18.364452 51.897415 -22.255548
v 17.796797 51.940445 -22.823202
v 17.884911 54.265442 -22.735083
v 18.520781 56.022423 -22.099213
v 18.452566 54.222424 -22.167429
v 19.698792 51.897415 -23.056154
v 16.819862 51.938969 -21.195129
v 16.932007 54.263973 -21.147064
v 19.784063 56.022423 -22.857185
v 19.746855 54.222424 -22.944008
v 21.300001 51.897415 -23.323023
v 16.507299 51.938232 -19.320000
v 16.627457 54.263226 -19.320000
v 21.300001 56.022423 -23.109850
v 21.300001 54.222424 -23.202868
v 22.901211 51.897415 -23.056154
v 16.819862 51.938969 -17.444872
v 16.932007 54.263973 -17.492937
v 22.815937 56.022423 -22.857185
v 22.853148 54.222424 -22.944008
v 24.235550 51.897415 -22.255554
v 17.796797 51.940445 -15.816799
v 17.884911 54.265442 -15.904919
v 24.079220 56.022423 -22.099222
v 24.147438 54.222424 -22.167435
v 25.036154 51.897415 -20.921215
v 19.424870 51.938969 -14.839860
v 19.472931 54.263966 -14.952004
v 24.837189 56.022423 -20.835943
v 24.924011 54.222424 -20.873150
v 25.303022 51.897415 -19.320000
v 21.300001 51.938221 -14.527308
v 21.300001 54.263226 -14.647455
v 25.089846 56.022423 -19.320000
v 25.182867 54.222424 -19.320000
v 25.303022 51.897415 -19.320000
v 25.036154 51.897415 -17.718794
v 23.175131 51.938969 -14.839860
v 23.127071 54.263966 -14.952004
v 25.182867 54.222424 -19.320000
v 25.089846 56.022423 -19.320000
v 24.837189 56.022423 -17.804066
v 24.924011 54.222424 -17.766859
v 22.901211 51.897415 -15.583847
v 24.235550 51.897415 -16.384455
v 24.803207 51.940445 -15.816799
v 23.175131 51.938969 -14.839860
v 25.036154 51.897415 -17.718794
v 25.780142 51.938969 -17.444872
v 25.303022 51.897415 -19.320000
v 26.092699 51.938232 -19.320000
v 25.303022 51.897415 -19.320000
v 25.036154 51.897415 -20.921215
v 25.780142 51.938969 -21.195139
v 26.092699 51.938232 -19.320000
v 24.235550 51.897415 -22.255554
v 24.803205 51.940445 -22.823210
v 22.901211 51.897415 -23.056154
v 23.175131 51.938969 -23.800142
v 21.300001 51.897415 -23.323023
v 21.300001 51.938232 -24.112703
v 19.698792 51.897415 -23.056154
v 19.424870 51.938969 -23.800142
v 18.364452 51.897415 -22.255548
v 17.796797 51.940445 -22.823202
v 17.563847 51.897415 -20.921207
v 16.819862 51.938969 -21.195129
v 17.296978 51.897415 -19.320000
v 16.507299 51.938232 -19.320000
v 17.563847 51.897415 -17.718794
v 16.819862 51.938969 -17.444872
v 18.364452 51.897415 -16.384455
v 17.796797 51.940445 -15.816799
v 19.698792 51.897415 -15.583847
v 19.424870 51.938969 -14.839860
v 21.300001 51.897415 -15.316985
v 21.300001 51.938221 -14.527308
v 24.147438 54.222424 -16.472574
v 22.853148 54.222424 -15.695992
v 23.127071 54.263966 -14.952004
v 24.715092 54.265442 -15.904919
v 21.300001 54.222424 -15.437134
v 21.300001 54.263226 -14.647455
v 19.746855 54.222424 -15.695992
v 19.472931 54.263966 -14.952004
v 18.452566 54.222424 -16.472574
v 17.884911 54.265442 -15.904919
v 17.675991 54.222424 -17.766859
v 16.932007 54.263973 -17.492937
v 17.417133 54.222424 -19.320000
v 16.627457 54.263226 -19.320000
v 17.675991 54.222424 -20.873142
v 16.932007 54.263973 -21.147064
v 18.452566 54.222424 -22.167429
v 17.884911 54.265442 -22.735083
v 19.746855 54.222424 -22.944008
v 19.472931 54.263966 -23.687996
v 21.300001 54.222424 -23.202868
v 21.300001 54.263226 -23.992546
v 22.853148 54.222424 -22.944008
v 23.127068 54.263966 -23.687996
v 24.147438 54.222424 -22.167435
v 24.715092 54.265442 -22.735090
v 24.924011 54.222424 -20.873150
v 25.667995 54.263973 -21.147074
v 25.182867 54.222424 -19.320000
v 25.972546 54.263226 -19.320000
v 25.182867 54.222424 -19.320000
v 24.924011 54.222424 -17.766859
v 25.667995 54.263973 -17.492937
v 25.972546 54.263226 -19.320000
v -29.952000 -2.009713 10.746814
v -29.952000 6.745039 29.923761
v 29.952000 6.745039 29.923761
v 29.952000 -2.009713 10.746814
v -29.952000 6.990287 10.746814
v -29.952000 -2.009713 10.746814
v 29.952000 -2.009713 10.746814
v 29.952000 6.990287 10.746814
v -29.952000 -2.009713 -9.253191
v -29.952000 6.990287 10.746814
v 29.952000 6.990287 10.746814
v 29.952000 -2.009713 -9.253191
v -29.952000 6.990287 -9.253191
v -29.952000 -2.009713 -9.253191
v 29.952000 -2.009713 -9.253191
v 29.952000 6.990287 -9.253191
v -29.952000 -2.262924 -30.111338
v -29.952000 6.990287 -9.253191
v 29.952000 6.990287 -9.253191
v 29.952000 -2.262924 -30.111338
vn -0.0053 0.9998 0.0169
vn 0.0047 0.9826 -0.1855
vn 0.0031 0.9928 -0.1199
vn -0.0031 0.9928 -0.1198
vn -0.0047 0.9826 -0.1855
vn 0.0054 0.9998 0.0169
vn -0.0066 0.9804 -0.1969
vn -0.0064 0.9982 0.0599
vn -0.0044 0.9941 -0.1085
vn 0.0066 0.9804 -0.1969
vn 0.0044 0.9941 -0.1085
vn 0.0065 0.9982 0.0599
vn -0.0000 -0.9801 0.1983
vn -0.0000 -0.9119 0.4104
vn -0.0000 -0.0000 -1.0000
vn -0.0000 -0.9831 0.1831
vn 1.0000 -0.0000 -0.0000
vn -0.0001 -0.9801 0.1983
vn 0.0047 0.9826 -0.1856
vn 0.0199 0.9221 -0.3865
vn -0.0047 0.9826 -0.1856
vn -0.0031 0.9928 -0.1199
vn -0.0199 0.9221 -0.3865
vn -0.0000 -0.0006 1.0000
vn -0.0000 0.9119 -0.4104
vn -0.0000 -0.0007 1.0000
vn -0.0000 0.9000 -0.4360
vn -0.0000 0.8999 -0.4360
vn -0.0066 0.9804 -0.1970
vn -0.0044 0.9941 -0.1086
vn 0.0044 0.9941 -0.1086
vn 0.0066 0.9804 -0.1970
vn -1.0000 -0.0000 -0.0000
vn -0.0000 -0.1047 -0.9945
vn -0.0000 0.1221 0.9925
vn -0.0000 0.0236 -0.9997
vn -0.0000 -0.0546 0.9985
vn -0.0000 -1.0000 -0.0000
vn -0.0000 -0.0000 1.0000
vn -0.0000 1.0000 -0.0000
vn -0.0000 -0.9997 -0.0236
vn -0.0000 -0.9831 0.1830
vn -0.0000 -0.9985 -0.0546
vn 0.3450 0.0523 0.9371
vn -0.0000 0.0516 0.9987
vn 0.7061 0.0535 0.7061
vn -0.3450 0.0523 0.9371
vn -0.7061 0.0535 0.7061
vn 0.3453 0.0523 0.9370
vn -0.9371 0.0523 0.3450
vn -0.9987 0.0516 -0.0000
vn -0.9371 0.0523 -0.3450
vn -0.7061 0.0535 -0.7061
vn -0.9370 0.0523 -0.3453
vn -0.9370 0.0523 0.3453
vn -0.3450 0.0523 -0.9371
vn -0.0000 0.0516 -0.9987
vn 0.3450 0.0523 -0.9371
vn 0.7061 0.0535 -0.7061
vn -0.3453 0.0523 -0.9370
vn 0.9371 0.0523 -0.3450
vn 0.9987 0.0516 -0.0000
vn 0.9371 0.0523 0.3450
vn 0.9370 0.0523 0.3453
vn 0.9370 0.0523 -0.3453
vn 0.3447 0.0523 0.9372
vn 0.9371 0.0523 0.3451
vn -0.3451 0.0523 0.9371
vn 0.9372 0.0523 -0.3448
vn -0.3449 0.0523 0.9372
vn -0.9372 0.0523 0.3447
vn 0.3453 0.0523 -0.9370
vn 0.3448 0.0523 -0.9372
vn -0.9372 0.0523 -0.3447
vn -0.3448 0.0523 -0.9372
vn -0.3452 0.0523 -0.9371
vn -0.9372 0.0523 -0.3448
vn -0.3451 0.0523 -0.9371
vn 0.3447 0.0523 -0.9372
vn -0.9371 0.0523 0.3451
vn 0.3451 0.0523 -0.9371
vn 0.9372 0.0523 -0.3447
vn -0.3453 0.0523 0.9370
vn -0.3448 0.0523 0.9372
vn 0.9371 0.0523 -0.3451
vn 0.9372 0.0523 -0.3449
vn 0.9372 0.0523 0.3447
vn 0.3448 0.0523 0.9372
vn 0.0181 -0.9986 0.0488
vn 0.0374 -0.9986 0.0370
vn 0.0374 -0.9986 0.0372
vn 0.0182 -0.9986 0.0487
vn 0.0499 -0.9986 0.0186
vn 0.0521 -0.9986 0.0001
vn 0.0486 -0.9987 -0.0180
vn 0.0370 -0.9986 -0.0374
vn 0.0370 -0.9986 -0.0373
vn 0.0186 -0.9986 -0.0499
vn 0.0001 -0.9986 -0.0521
vn 0.0002 -0.9986 -0.0522
vn -0.0180 -0.9987 -0.0486
vn -0.0180 -0.9987 -0.0487
vn -0.0374 -0.9986 -0.0370
vn -0.0373 -0.9986 -0.0370
vn -0.0499 -0.9986 -0.0185
vn -0.0499 -0.9986 -0.0186
vn -0.0521 -0.9986 -0.0001
vn -0.0522 -0.9986 -0.0002
vn -0.0486 -0.9987 0.0180
vn -0.0487 -0.9987 0.0180
vn -0.0370 -0.9986 0.0374
vn -0.0370 -0.9986 0.0373
vn -0.0186 -0.9986 0.0499
vn -0.0186 -0.9986 0.0500
vn -0.0001 -0.9986 0.0521
vn -0.0371 0.9986 -0.0374
vn -0.0186 0.9986 -0.0500
vn -0.0001 0.9986 -0.0521
vn -0.0002 0.9986 -0.0523
vn 0.0180 0.9987 -0.0486
vn 0.0182 0.9986 -0.0487
vn 0.0374 0.9986 -0.0371
vn 0.0374 0.9986 -0.0372
vn 0.0500 0.9986 -0.0186
vn 0.0521 0.9986 -0.0001
vn 0.0487 0.9986 0.0181
vn 0.0488 0.9986 0.0185
vn 0.0371 0.9986 0.0374
vn 0.0372 0.9986 0.0374
vn 0.0186 0.9986 0.0500
vn 0.0186 0.9986 0.0499
vn 0.0001 0.9986 0.0521
vn 0.0002 0.9986 0.0523
vn -0.0180 0.9987 0.0486
vn -0.0180 0.9987 0.0487
vn -0.0374 0.9986 0.0371
vn -0.0500 0.9986 0.0186
vn -0.0501 0.9986 0.0186
vn -0.0521 0.9986 0.0001
vn -0.0487 0.9986 -0.0181
vn -0.0488 0.9986 -0.0185
vn 0.3452 0.0523 0.9371
vn 0.9372 0.0523 0.3448
vn -0.3447 0.0523 0.9372
vn -0.9371 0.0523 -0.3452
vn -0.3447 0.0523 -0.9372
vn -0.3449 0.0523 -0.9372
vn -0.9372 0.0523 0.3449
vn 0.0180 -0.9987 0.0487
vn 0.0374 -0.9986 0.0371
vn 0.0500 -0.9986 0.0186
vn 0.0487 -0.9987 -0.0180
vn 0.0371 -0.9986 -0.0374
vn -0.0179 -0.9987 -0.0485
vn -0.0374 -0.9986 -0.0371
vn -0.0500 -0.9986 -0.0186
vn -0.0002 -0.9986 0.0522
vn -0.0186 0.9986 -0.0499
vn -0.0372 0.9986 -0.0374
vn -0.0000 0.9986 -0.0520
vn 0.0180 0.9987 -0.0487
vn 0.0374 0.9986 -0.0370
vn 0.0499 0.9986 -0.0186
vn 0.0523 0.9986 -0.0002
vn 0.0488 0.9986 0.0182
vn 0.0370 0.9986 0.0374
vn -0.0374 0.9986 0.0372
vn -0.0499 0.9986 0.0186
vn -0.0487 0.9987 -0.0181
vn -0.0487 0.9986 -0.0182
vn 0.3451 0.0523 0.9371
vn -0.9372 0.0523 -0.3449
vn -0.9371 0.0523 -0.3451
vn 0.0499 -0.9986 0.0185
vn 0.0487 -0.9986 -0.0182
vn -0.0370 0.9986 -0.0374
vn -0.0370 0.9986 -0.0373
vn 0.0487 0.9986 0.0182
vn -0.0374 0.9986 0.0370
vn -0.0000 0.9097 -0.4153
vn -0.0000 0.9141 -0.4055
vt 0.979932 0.553845
vt 0.986139 0.553770
vt 0.986675 0.543777
vt 0.987035 0.092005
vt 0.986137 0.082314
vt 0.980098 0.082557
vt 0.947318 0.075822
vt 0.936827 0.075816
vt 0.946669 0.085311
vt 0.947260 0.550239
vt 0.946614 0.540749
vt 0.936769 0.550231
vt 0.867889 0.562510
vt 0.867889 0.418826
vt 0.860183 0.418826
vt 0.860183 0.562510
vt 0.867889 0.361032
vt 0.860183 0.361032
vt 0.867889 0.220195
vt 0.860183 0.220195
vt 0.867889 0.162401
vt 0.860183 0.162401
vt 0.867889 0.024296
vt 0.860183 0.024296
vt 0.893889 0.562510
vt 0.893889 0.418826
vt 0.878883 0.418826
vt 0.878883 0.562510
vt 0.893889 0.361032
vt 0.878883 0.361032
vt 0.893889 0.220196
vt 0.878883 0.220196
vt 0.893889 0.162401
vt 0.878883 0.162401
vt 0.893889 0.024297
vt 0.878883 0.024297
vt 0.871177 0.562510
vt 0.871177 0.418826
vt 0.871177 0.361032
vt 0.871177 0.220196
vt 0.871177 0.162401
vt 0.871177 0.024297
vt 0.845177 0.562510
vt 0.845177 0.418826
vt 0.837139 0.418826
vt 0.837139 0.562510
vt 0.901927 0.562510
vt 0.901927 0.418826
vt 0.845177 0.361032
vt 0.837139 0.361032
vt 0.901927 0.361032
vt 0.845177 0.220195
vt 0.837139 0.220195
vt 0.901927 0.220196
vt 0.845177 0.162401
vt 0.837139 0.162401
vt 0.901927 0.162401
vt 0.845177 0.024296
vt 0.837139 0.024296
vt 0.901927 0.024297
vt 0.954613 0.540754
vt 0.954668 0.085316
vt 0.829246 0.024296
vt 0.829246 0.162401
vt 0.829246 0.220195
vt 0.829246 0.361032
vt 0.829246 0.418826
vt 0.829246 0.562510
vt 0.994439 0.543851
vt 0.995000 0.092019
vt 0.909820 0.562510
vt 0.909820 0.418826
vt 0.909820 0.361032
vt 0.909820 0.220196
vt 0.909820 0.162401
vt 0.909820 0.024297
vt 0.965052 0.562510
vt 0.979914 0.560559
vt 0.965075 0.553791
vt 0.965052 0.073704
vt 0.965044 0.082540
vt 0.980104 0.075753
vt 0.936767 0.063596
vt 0.921771 0.065861
vt 0.921784 0.075822
vt 0.921679 0.550220
vt 0.921677 0.560253
vt 0.936767 0.562510
vt 0.237568 0.147230
vt 0.287287 0.147230
vt 0.287287 0.143850
vt 0.237568 0.143850
vt 0.136784 0.147230
vt 0.136784 0.143850
vt 0.388071 0.147230
vt 0.437791 0.147230
vt 0.437791 0.143850
vt 0.388071 0.143850
vt 0.388073 0.158012
vt 0.437792 0.158012
vt 0.437792 0.154633
vt 0.388073 0.154633
vt 0.287288 0.158012
vt 0.287288 0.154633
vt 0.237568 0.158012
vt 0.237568 0.154633
vt 0.136784 0.158012
vt 0.136784 0.154633
vt 0.186503 0.133068
vt 0.136784 0.133068
vt 0.136784 0.136448
vt 0.186503 0.136448
vt 0.287288 0.133068
vt 0.287288 0.136448
vt 0.337008 0.133068
vt 0.337008 0.136448
vt 0.437792 0.133068
vt 0.437792 0.136448
vt 0.437792 0.131109
vt 0.337008 0.131109
vt 0.287288 0.131109
vt 0.186503 0.131109
vt 0.136784 0.131109
vt 0.136784 0.159972
vt 0.237568 0.159972
vt 0.287288 0.159972
vt 0.388073 0.159972
vt 0.437792 0.159972
vt 0.287287 0.149189
vt 0.388071 0.149189
vt 0.437791 0.149189
vt 0.136784 0.149189
vt 0.237568 0.149189
vt 0.388071 0.141891
vt 0.287287 0.141891
vt 0.237568 0.141891
vt 0.136784 0.141891
vt 0.437791 0.141891
vt 0.388073 0.152674
vt 0.287288 0.152674
vt 0.237568 0.152674
vt 0.136784 0.152674
vt 0.437792 0.152674
vt 0.337008 0.138407
vt 0.437792 0.138407
vt 0.136784 0.138407
vt 0.186503 0.138407
vt 0.287288 0.138407
vt 0.957466 0.544728
vt 0.957466 0.553791
vt 0.957436 0.091603
vt 0.957436 0.082540
vt 0.913212 0.075815
vt 0.913108 0.550212
vt 0.966535 0.707635
vt 0.904125 0.708824
vt 0.904125 0.851107
vt 0.966535 0.565350
vt 0.904124 0.566539
vt 0.966535 0.849918
vt 0.904126 0.993391
vt 0.667521 0.573568
vt 0.730727 0.714045
vt 0.730734 0.573571
vt 0.667514 0.714045
vt 0.730728 0.854520
vt 0.667512 0.854521
vt 0.730731 0.995000
vt 0.819662 0.710432
vt 0.819663 0.852716
vt 0.816282 0.994996
vt 0.816278 0.854519
vt 0.796471 0.869270
vt 0.796474 0.980247
vt 0.816276 0.714047
vt 0.796470 0.728796
vt 0.796471 0.839770
vt 0.819662 0.568148
vt 0.819664 0.995000
vt 0.826074 0.125306
vt 0.764805 0.125306
vt 0.764805 0.560114
vt 0.826074 0.560114
vt 0.005000 0.038527
vt 0.006044 0.122833
vt 0.433692 0.122833
vt 0.432649 0.038528
vt 0.681888 0.125306
vt 0.681889 0.560114
vt 0.740424 0.980249
vt 0.740421 0.869270
vt 0.740421 0.839770
vt 0.740420 0.728795
vt 0.740421 0.699295
vt 0.740426 0.588321
vt 0.796470 0.699297
vt 0.816282 0.573575
vt 0.796475 0.588323
vt 0.546511 0.122833
vt 0.652611 0.122833
vt 0.652815 0.072052
vt 0.546714 0.072052
vt 0.655532 0.122833
vt 0.761825 0.122833
vt 0.762175 0.072144
vt 0.655881 0.072144
vt 0.542935 0.072144
vt 0.436641 0.072144
vt 0.436292 0.122833
vt 0.542585 0.122833
vt 0.121628 0.206781
vt 0.121628 0.221994
vt 0.227146 0.221994
vt 0.227146 0.206781
vt 0.121628 0.192197
vt 0.227146 0.192197
vt 0.121628 0.237207
vt 0.121628 0.251791
vt 0.227146 0.251791
vt 0.227146 0.237207
vt 0.332664 0.237207
vt 0.332664 0.221994
vt 0.332664 0.251791
vt 0.438182 0.251791
vt 0.438182 0.237207
vt 0.438182 0.221994
vt 0.332664 0.206781
vt 0.332664 0.192197
vt 0.438182 0.206781
vt 0.438182 0.192197
vt 0.121628 0.266375
vt 0.121628 0.281588
vt 0.227146 0.281588
vt 0.227146 0.266375
vt 0.121628 0.296801
vt 0.121628 0.311385
vt 0.227146 0.311385
vt 0.227146 0.296801
vt 0.332664 0.296801
vt 0.332664 0.281588
vt 0.332664 0.311385
vt 0.438182 0.311385
vt 0.438182 0.296801
vt 0.438182 0.281588
vt 0.332664 0.266375
vt 0.438182 0.266375
vt 0.121628 0.325969
vt 0.121628 0.341182
vt 0.227146 0.341182
vt 0.227146 0.325969
vt 0.121628 0.356395
vt 0.121628 0.370979
vt 0.227146 0.370979
vt 0.227146 0.356395
vt 0.332664 0.356395
vt 0.332664 0.341182
vt 0.332664 0.370979
vt 0.438182 0.370979
vt 0.438182 0.356395
vt 0.438182 0.341182
vt 0.332664 0.325969
vt 0.438182 0.325969
vt 0.121628 0.385563
vt 0.121628 0.400776
vt 0.227146 0.400776
vt 0.227146 0.385563
vt 0.121628 0.177613
vt 0.227146 0.177613
vt 0.121628 0.162400
vt 0.227146 0.162400
vt 0.332664 0.177613
vt 0.332664 0.162400
vt 0.438182 0.177613
vt 0.438182 0.162400
vt 0.332664 0.385563
vt 0.332664 0.400776
vt 0.438182 0.400776
vt 0.438182 0.385563
vt 0.045128 0.192197
vt 0.045128 0.206781
vt 0.039572 0.177613
vt 0.023217 0.177613
vt 0.023217 0.192197
vt 0.039572 0.192197
vt 0.017662 0.192197
vt 0.005000 0.192197
vt 0.005000 0.206781
vt 0.017662 0.206781
vt 0.045128 0.221994
vt 0.039572 0.162400
vt 0.023217 0.162400
vt 0.005000 0.221994
vt 0.017662 0.221994
vt 0.045128 0.237207
vt 0.039572 0.385563
vt 0.023217 0.385563
vt 0.023217 0.400776
vt 0.039572 0.400776
vt 0.005000 0.237207
vt 0.017662 0.237207
vt 0.045128 0.251791
vt 0.039572 0.370979
vt 0.023217 0.370979
vt 0.005000 0.251791
vt 0.017662 0.251791
vt 0.045128 0.266375
vt 0.039572 0.356395
vt 0.023217 0.356395
vt 0.005000 0.266375
vt 0.017662 0.266375
vt 0.045128 0.281588
vt 0.039572 0.341182
vt 0.023217 0.341182
vt 0.005000 0.281588
vt 0.017662 0.281588
vt 0.045128 0.296801
vt 0.039572 0.325969
vt 0.023217 0.325969
vt 0.005000 0.296801
vt 0.017662 0.296801
vt 0.045128 0.311385
vt 0.039572 0.311385
vt 0.023217 0.311385
vt 0.005000 0.311385
vt 0.017662 0.311385
vt 0.045128 0.325969
vt 0.039572 0.296801
vt 0.023217 0.296801
vt 0.005000 0.325969
vt 0.017662 0.325969
vt 0.045128 0.341182
vt 0.039572 0.281588
vt 0.023217 0.281588
vt 0.005000 0.341182
vt 0.017662 0.341182
vt 0.045128 0.356395
vt 0.039572 0.266375
vt 0.023217 0.266375
vt 0.005000 0.356395
vt 0.017662 0.356395
vt 0.045128 0.370979
vt 0.039572 0.251791
vt 0.023217 0.251791
vt 0.005000 0.370979
vt 0.017662 0.370979
vt 0.045128 0.385563
vt 0.039572 0.237207
vt 0.023217 0.237207
vt 0.005000 0.385563
vt 0.017662 0.385563
vt 0.045128 0.400776
vt 0.039572 0.221994
vt 0.023217 0.221994
vt 0.005000 0.400776
vt 0.017662 0.400776
vt 0.045128 0.162400
vt 0.045128 0.177613
vt 0.039572 0.206781
vt 0.023217 0.206781
vt 0.017662 0.162400
vt 0.005000 0.162400
vt 0.005000 0.177613
vt 0.017662 0.177613
vt 0.635079 0.242362
vt 0.619866 0.242362
vt 0.619866 0.347880
vt 0.635079 0.347880
vt 0.649663 0.242362
vt 0.649663 0.347880
vt 0.604652 0.242362
vt 0.590069 0.242362
vt 0.590069 0.347880
vt 0.604652 0.347880
vt 0.604652 0.453398
vt 0.619866 0.453398
vt 0.590069 0.453398
vt 0.590069 0.558916
vt 0.604652 0.558916
vt 0.619866 0.558916
vt 0.635079 0.453398
vt 0.649663 0.453398
vt 0.635079 0.558916
vt 0.649663 0.558916
vt 0.575485 0.242362
vt 0.560272 0.242362
vt 0.560272 0.347880
vt 0.575485 0.347880
vt 0.545058 0.242362
vt 0.530475 0.242362
vt 0.530475 0.347880
vt 0.545058 0.347880
vt 0.545058 0.453398
vt 0.560272 0.453398
vt 0.530475 0.453398
vt 0.530475 0.558916
vt 0.545058 0.558916
vt 0.560272 0.558916
vt 0.575485 0.453398
vt 0.575485 0.558916
vt 0.515891 0.242362
vt 0.500678 0.242362
vt 0.500678 0.347880
vt 0.515891 0.347880
vt 0.485464 0.242362
vt 0.470881 0.242362
vt 0.470881 0.347880
vt 0.485464 0.347880
vt 0.485464 0.453398
vt 0.500678 0.453398
vt 0.470881 0.453398
vt 0.470881 0.558916
vt 0.485464 0.558916
vt 0.500678 0.558916
vt 0.515891 0.453398
vt 0.515891 0.558916
vt 0.456297 0.242362
vt 0.441084 0.242362
vt 0.441084 0.347880
vt 0.456297 0.347880
vt 0.664246 0.242362
vt 0.664246 0.347880
vt 0.679460 0.242362
vt 0.679460 0.347880
vt 0.664246 0.453398
vt 0.679460 0.453398
vt 0.664246 0.558916
vt 0.679460 0.558916
vt 0.456297 0.453398
vt 0.441084 0.453398
vt 0.441084 0.558916
vt 0.456297 0.558916
vt 0.649663 0.165861
vt 0.635079 0.165861
vt 0.664246 0.160306
vt 0.664246 0.143951
vt 0.649663 0.143951
vt 0.649663 0.160306
vt 0.649663 0.138396
vt 0.649663 0.125734
vt 0.635079 0.125734
vt 0.635079 0.138396
vt 0.619866 0.165861
vt 0.679460 0.160306
vt 0.679460 0.143951
vt 0.619866 0.125734
vt 0.619866 0.138396
vt 0.604652 0.165861
vt 0.456297 0.160306
vt 0.456297 0.143951
vt 0.441084 0.143951
vt 0.441084 0.160306
vt 0.604652 0.125734
vt 0.604652 0.138396
vt 0.590069 0.165861
vt 0.470881 0.160306
vt 0.470881 0.143951
vt 0.590069 0.125734
vt 0.590069 0.138396
vt 0.575485 0.165861
vt 0.485464 0.160306
vt 0.485464 0.143951
vt 0.575485 0.125734
vt 0.575485 0.138396
vt 0.560272 0.165861
vt 0.500678 0.160306
vt 0.500678 0.143951
vt 0.560272 0.125734
vt 0.560272 0.138396
vt 0.545058 0.165861
vt 0.515891 0.160306
vt 0.515891 0.143951
vt 0.545058 0.125734
vt 0.545058 0.138396
vt 0.530475 0.165861
vt 0.530475 0.160306
vt 0.530475 0.143951
vt 0.530475 0.125734
vt 0.530475 0.138396
vt 0.515891 0.165861
vt 0.545058 0.160306
vt 0.545058 0.143951
vt 0.515891 0.125734
vt 0.515891 0.138396
vt 0.500678 0.165861
vt 0.560272 0.160306
vt 0.560272 0.143951
vt 0.500678 0.125734
vt 0.500678 0.138396
vt 0.485464 0.165861
vt 0.575485 0.160306
vt 0.575485 0.143951
vt 0.485464 0.125734
vt 0.485464 0.138396
vt 0.470881 0.165861
vt 0.590069 0.160306
vt 0.590069 0.143951
vt 0.470881 0.125734
vt 0.470881 0.138396
vt 0.456297 0.165861
vt 0.604652 0.160306
vt 0.604652 0.143951
vt 0.456297 0.125734
vt 0.456297 0.138396
vt 0.441084 0.165861
vt 0.619866 0.160306
vt 0.619866 0.143951
vt 0.441084 0.125734
vt 0.441084 0.138396
vt 0.679460 0.165861
vt 0.664246 0.165861
vt 0.635079 0.160306
vt 0.635079 0.143951
vt 0.679460 0.138396
vt 0.679460 0.125734
vt 0.664246 0.125734
vt 0.664246 0.138396
vt 0.620703 0.678446
vt 0.605489 0.678446
vt 0.605489 0.783964
vt 0.620703 0.783964
vt 0.635286 0.678446
vt 0.635286 0.783964
vt 0.590276 0.678446
vt 0.575692 0.678446
vt 0.575692 0.783964
vt 0.590276 0.783964
vt 0.590276 0.889482
vt 0.605489 0.889482
vt 0.575692 0.889482
vt 0.575692 0.995000
vt 0.590276 0.995000
vt 0.605489 0.995000
vt 0.620703 0.889482
vt 0.635286 0.889482
vt 0.620703 0.995000
vt 0.635286 0.995000
vt 0.561109 0.678446
vt 0.545895 0.678446
vt 0.545895 0.783964
vt 0.561109 0.783964
vt 0.530682 0.678446
vt 0.516098 0.678446
vt 0.516098 0.783964
vt 0.530682 0.783964
vt 0.530682 0.889482
vt 0.545895 0.889482
vt 0.516098 0.889482
vt 0.516098 0.995000
vt 0.530682 0.995000
vt 0.545895 0.995000
vt 0.561109 0.889482
vt 0.561109 0.995000
vt 0.501515 0.678446
vt 0.486301 0.678446
vt 0.486301 0.783964
vt 0.501515 0.783964
vt 0.471088 0.678446
vt 0.456504 0.678446
vt 0.456504 0.783964
vt 0.471088 0.783964
vt 0.471088 0.889482
vt 0.486301 0.889482
vt 0.456504 0.889482
vt 0.456504 0.995000
vt 0.471088 0.995000
vt 0.486301 0.995000
vt 0.501515 0.889482
vt 0.501515 0.995000
vt 0.441921 0.678446
vt 0.426707 0.678446
vt 0.426707 0.783964
vt 0.441921 0.783964
vt 0.649870 0.678446
vt 0.649870 0.783964
vt 0.665083 0.678446
vt 0.665083 0.783964
vt 0.649870 0.889482
vt 0.665083 0.889482
vt 0.649870 0.995000
vt 0.665083 0.995000
vt 0.441921 0.889482
vt 0.426707 0.889482
vt 0.426707 0.995000
vt 0.441921 0.995000
vt 0.635286 0.601945
vt 0.620703 0.601945
vt 0.649870 0.596390
vt 0.649870 0.580035
vt 0.635286 0.580035
vt 0.635286 0.596390
vt 0.635286 0.574480
vt 0.635286 0.561818
vt 0.620703 0.561818
vt 0.620703 0.574480
vt 0.605489 0.601945
vt 0.665083 0.596390
vt 0.665083 0.580035
vt 0.605489 0.561818
vt 0.605489 0.574480
vt 0.590276 0.601945
vt 0.441921 0.596390
vt 0.441921 0.580035
vt 0.426707 0.580035
vt 0.426707 0.596390
vt 0.590276 0.561818
vt 0.590276 0.574480
vt 0.575692 0.601945
vt 0.456504 0.596390
vt 0.456504 0.580035
vt 0.575692 0.561818
vt 0.575692 0.574480
vt 0.561109 0.601945
vt 0.471088 0.596390
vt 0.471088 0.580035
vt 0.561109 0.561818
vt 0.561109 0.574480
vt 0.545895 0.601945
vt 0.486301 0.596390
vt 0.486301 0.580035
vt 0.545895 0.561818
vt 0.545895 0.574480
vt 0.530682 0.601945
vt 0.501515 0.596390
vt 0.501515 0.580035
vt 0.530682 0.561818
vt 0.530682 0.574480
vt 0.516098 0.601945
vt 0.516098 0.596390
vt 0.516098 0.580035
vt 0.516098 0.561818
vt 0.516098 0.574480
vt 0.501515 0.601945
vt 0.530682 0.596390
vt 0.530682 0.580035
vt 0.501515 0.561818
vt 0.501515 0.574480
vt 0.486301 0.601945
vt 0.545895 0.596390
vt 0.545895 0.580035
vt 0.486301 0.561818
vt 0.486301 0.574480
vt 0.471088 0.601945
vt 0.561109 0.596390
vt 0.561109 0.580035
vt 0.471088 0.561818
vt 0.471088 0.574480
vt 0.456504 0.601945
vt 0.575692 0.596390
vt 0.575692 0.580035
vt 0.456504 0.561818
vt 0.456504 0.574480
vt 0.441921 0.601945
vt 0.590276 0.596390
vt 0.590276 0.580035
vt 0.441921 0.561818
vt 0.441921 0.574480
vt 0.426707 0.601945
vt 0.605489 0.596390
vt 0.605489 0.580035
vt 0.426707 0.561818
vt 0.426707 0.574480
vt 0.665083 0.601945
vt 0.649870 0.601945
vt 0.620703 0.596390
vt 0.620703 0.580035
vt 0.665083 0.574480
vt 0.665083 0.561818
vt 0.649870 0.561818
vt 0.649870 0.574480
vt 0.005001 0.846333
vt 0.005001 0.995000
vt 0.424053 0.995000
vt 0.424053 0.846332
vt 0.005001 0.782862
vt 0.424053 0.782862
vt 0.005001 0.628194
vt 0.424053 0.628193
vt 0.005001 0.564723
vt 0.424053 0.564723
vt 0.005000 0.403800
vt 0.424053 0.403800
s 1
g off
g Mesh_metal_0_metal
usemtl metal
f 1/1/1 2/2/2 3/3/3
f 4/4/4 5/5/5 6/6/6
s 2
f 7/7/7 8/8/8 9/9/9
f 10/10/10 11/11/11 12/12/12
s 3
f 13/13/13 14/14/14 15/15/14
f 13/13/13 15/15/14 16/16/13
s 0
f 17/14/15 18/17/15 19/18/15
f 17/14/15 19/18/15 20/15/15
f 21/17/14 22/19/14 23/20/14
f 21/17/14 23/20/14 24/18/14
f 25/19/15 26/21/15 27/22/15
f 25/19/15 27/22/15 28/20/15
s 10
f 29/21/14 30/23/16 31/24/16
f 29/21/14 31/24/16 32/22/14
s 0
f 33/25/17 34/26/17 35/27/17
f 33/25/17 35/27/17 36/28/17
f 35/27/17 34/26/17 37/29/17
f 35/27/17 37/29/17 38/30/17
f 38/30/17 37/29/17 39/31/17
f 38/30/17 39/31/17 40/32/17
f 40/32/17 39/31/17 41/33/17
f 40/32/17 41/33/17 42/34/17
f 43/35/17 44/36/17 42/34/17
f 43/35/17 42/34/17 41/33/17
s 21
f 45/37/13 46/28/18 47/27/14
f 45/37/13 47/27/14 48/38/14
s 0
f 49/38/15 50/27/15 51/30/15
f 49/38/15 51/30/15 52/39/15
f 53/39/14 54/30/14 55/32/14
f 53/39/14 55/32/14 56/40/14
f 57/40/15 58/32/15 59/34/15
f 57/40/15 59/34/15 60/41/15
s 28
f 61/41/14 62/34/14 63/36/16
f 61/41/14 63/36/16 64/42/16
s 29
f 65/43/19 66/44/20 67/45/20
f 65/43/19 67/45/20 68/46/3
s 30
f 69/25/21 70/47/22 71/48/23
f 69/25/21 71/48/23 72/26/23
s 0
f 73/45/24 74/44/24 75/49/24
f 73/45/24 75/49/24 76/50/24
f 77/26/24 78/48/24 79/51/24
f 77/26/24 79/51/24 80/29/24
f 81/50/25 82/49/25 83/52/25
f 81/50/25 83/52/25 84/53/25
f 85/29/25 86/51/25 87/54/25
f 85/29/25 87/54/25 88/31/25
f 89/53/26 90/52/26 91/55/26
f 89/53/26 91/55/26 92/56/26
f 93/31/26 94/54/26 95/57/26
f 93/31/26 95/57/26 96/33/26
s 43
f 97/56/27 98/55/28 99/58/29
f 97/56/27 99/58/29 100/59/30
s 44
f 101/57/27 102/60/31 103/35/32
f 101/57/27 103/35/32 104/33/28
s 0
f 105/43/33 106/16/33 107/15/33
f 105/43/33 107/15/33 108/44/33
f 107/15/33 109/18/33 110/49/33
f 107/15/33 110/49/33 108/44/33
f 109/18/33 111/20/33 112/52/33
f 109/18/33 112/52/33 110/49/33
f 111/20/33 113/22/33 114/55/33
f 111/20/33 114/55/33 112/52/33
f 115/58/33 114/55/33 113/22/33
f 115/58/33 113/22/33 116/24/33
f 117/61/34 118/62/34 119/9/34
f 117/61/34 119/9/34 120/11/34
f 121/63/17 122/64/17 123/56/17
f 121/63/17 123/56/17 124/59/17
f 122/64/17 125/65/17 126/53/17
f 122/64/17 126/53/17 123/56/17
f 125/65/17 127/66/17 128/50/17
f 125/65/17 128/50/17 126/53/17
f 127/66/17 129/67/17 130/45/17
f 127/66/17 130/45/17 128/50/17
f 129/67/17 131/68/17 132/46/17
f 129/67/17 132/46/17 130/45/17
f 133/69/35 134/70/35 135/4/35
f 133/69/35 135/4/35 136/3/35
f 137/71/33 138/72/33 139/48/33
f 137/71/33 139/48/33 140/47/33
f 138/72/33 141/73/33 142/51/33
f 138/72/33 142/51/33 139/48/33
f 141/73/33 143/74/33 144/54/33
f 141/73/33 144/54/33 142/51/33
f 143/74/33 145/75/33 146/57/33
f 143/74/33 146/57/33 144/54/33
f 145/75/33 147/76/33 148/60/33
f 145/75/33 148/60/33 146/57/33
f 149/77/33 150/78/33 151/1/33
f 149/77/33 151/1/33 152/79/33
f 153/80/17 154/81/17 155/6/17
f 153/80/17 155/6/17 156/82/17
f 157/1/36 158/6/36 159/81/36
f 157/1/36 159/81/36 160/79/36
s 1
f 6/6/6 1/1/1 3/3/3
f 6/6/6 3/3/3 4/4/4
s 0
f 161/8/33 162/83/33 163/84/33
f 161/8/33 163/84/33 164/85/33
f 165/12/17 166/86/17 167/87/17
f 165/12/17 167/87/17 168/88/17
f 169/12/37 170/8/37 171/85/37
f 169/12/37 171/85/37 172/86/37
s 2
f 11/11/11 9/9/9 8/8/8
f 11/11/11 8/8/8 12/12/12
s 0
f 173/89/33 174/90/33 175/91/33
f 173/89/33 175/91/33 176/92/33
f 177/93/33 173/89/33 176/92/33
f 177/93/33 176/92/33 178/94/33
f 179/95/33 180/96/33 181/97/33
f 179/95/33 181/97/33 182/98/33
f 174/90/33 179/95/33 182/98/33
f 174/90/33 182/98/33 175/91/33
f 183/99/33 184/100/33 185/101/33
f 183/99/33 185/101/33 186/102/33
f 187/103/33 183/99/33 186/102/33
f 187/103/33 186/102/33 188/104/33
f 189/105/33 187/103/33 188/104/33
f 189/105/33 188/104/33 190/106/33
f 191/107/33 189/105/33 190/106/33
f 191/107/33 190/106/33 192/108/33
f 193/109/33 194/110/33 195/111/33
f 193/109/33 195/111/33 196/112/33
f 197/113/33 193/109/33 196/112/33
f 197/113/33 196/112/33 198/114/33
f 199/115/33 197/113/33 198/114/33
f 199/115/33 198/114/33 200/116/33
f 201/117/33 199/115/33 200/116/33
f 201/117/33 200/116/33 202/118/33
f 203/119/38 204/120/38 205/115/38
f 203/119/38 205/115/38 206/117/38
f 207/120/39 208/121/39 209/113/39
f 207/120/39 209/113/39 210/115/39
f 211/121/40 212/122/40 213/109/40
f 211/121/40 213/109/40 214/113/40
f 215/122/15 216/123/15 217/110/15
f 215/122/15 217/110/15 218/109/15
f 219/124/38 220/125/38 221/105/38
f 219/124/38 221/105/38 222/107/38
f 223/125/39 224/126/39 225/103/39
f 223/125/39 225/103/39 226/105/39
f 227/126/40 228/127/40 229/99/40
f 227/126/40 229/99/40 230/103/40
f 231/127/15 232/128/15 233/100/15
f 231/127/15 233/100/15 234/99/15
f 235/129/40 236/130/40 237/95/40
f 235/129/40 237/95/40 238/90/40
f 239/130/15 240/131/15 241/96/15
f 239/130/15 241/96/15 242/95/15
f 243/132/38 244/133/38 245/89/38
f 243/132/38 245/89/38 246/93/38
f 247/133/39 248/129/39 249/90/39
f 247/133/39 249/90/39 250/89/39
f 251/134/38 252/135/38 253/91/38
f 251/134/38 253/91/38 254/98/38
f 255/135/15 256/136/15 257/92/15
f 255/135/15 257/92/15 258/91/15
f 259/136/40 260/137/40 261/94/40
f 259/136/40 261/94/40 262/92/40
f 263/138/39 264/134/39 265/98/39
f 263/138/39 265/98/39 266/97/39
f 267/139/38 268/140/38 269/104/38
f 267/139/38 269/104/38 270/102/38
f 271/140/15 272/141/15 273/106/15
f 271/140/15 273/106/15 274/104/15
f 275/141/40 276/142/40 277/108/40
f 275/141/40 277/108/40 278/106/40
f 279/143/39 280/139/39 281/102/39
f 279/143/39 281/102/39 282/101/39
f 283/144/40 284/145/40 285/118/40
f 283/144/40 285/118/40 286/116/40
f 287/146/39 288/147/39 289/112/39
f 287/146/39 289/112/39 290/111/39
f 291/147/38 292/148/38 293/114/38
f 291/147/38 293/114/38 294/112/38
f 295/148/15 296/144/15 297/116/15
f 295/148/15 297/116/15 298/114/15
s 163
f 299/79/41 300/149/13 301/150/13
f 300/149/13 299/79/41 302/151/13
f 302/151/13 299/79/41 303/152/13
f 303/152/13 299/79/41 304/81/41
s 164
f 305/153/42 306/86/43 307/85/43
f 306/86/43 305/153/42 308/154/42
s 0
g Mesh_metal_0_paredes
usemtl paredes
f 309/155/17 310/156/17 311/157/17
f 312/158/17 313/159/17 310/156/17
f 314/160/17 311/157/17 315/161/17
f 316/162/33 317/163/33 318/164/33
f 319/165/33 320/166/33 317/163/33
f 321/167/33 322/168/33 320/166/33
f 310/156/17 323/169/17 324/170/17
f 310/156/17 324/170/17 311/157/17
f 325/171/33 326/172/33 327/173/33
f 325/171/33 327/173/33 328/174/33
f 326/172/33 329/175/33 330/176/33
f 326/172/33 330/176/33 331/177/33
f 313/159/17 332/178/17 323/169/17
f 313/159/17 323/169/17 310/156/17
f 311/157/17 324/170/17 333/179/17
f 311/157/17 333/179/17 315/161/17
f 334/180/39 335/181/39 336/182/39
f 334/180/39 336/182/39 337/183/39
f 338/184/15 339/185/15 340/186/15
f 338/184/15 340/186/15 341/187/15
f 335/181/39 342/188/39 343/189/39
f 335/181/39 343/189/39 336/182/39
f 320/166/33 322/168/33 344/190/33
f 320/166/33 344/190/33 345/191/33
f 322/168/33 325/171/33 328/174/33
f 322/168/33 328/174/33 344/190/33
f 326/172/33 320/166/33 345/191/33
f 326/172/33 345/191/33 327/173/33
f 317/163/33 320/166/33 346/192/33
f 317/163/33 346/192/33 347/193/33
f 320/166/33 326/172/33 331/177/33
f 320/166/33 331/177/33 346/192/33
f 329/175/33 317/163/33 347/193/33
f 329/175/33 347/193/33 330/176/33
f 318/164/33 317/163/33 348/194/33
f 318/164/33 348/194/33 349/195/33
f 317/163/33 329/175/33 350/196/33
f 317/163/33 350/196/33 348/194/33
f 329/175/33 351/197/33 352/198/33
f 329/175/33 352/198/33 350/196/33
f 351/197/33 318/164/33 349/195/33
f 351/197/33 349/195/33 352/198/33
g Mesh_metal_0_ventanas
usemtl ventanas
f 353/199/33 354/200/33 355/201/33
f 353/199/33 355/201/33 356/202/33
f 357/203/33 358/204/33 359/205/33
f 357/203/33 359/205/33 360/206/33
f 361/207/33 362/208/33 363/209/33
f 361/207/33 363/209/33 364/210/33
s 213
g Mesh_metal_0_chimeneas
usemtl chimeneas
f 365/211/44 366/212/45 367/213/45
f 365/211/44 367/213/45 368/214/44
f 369/215/46 365/211/44 368/214/44
f 369/215/46 368/214/44 370/216/46
f 371/217/47 372/218/48 373/219/48
f 371/217/47 373/219/48 374/220/47
f 366/212/45 371/217/47 374/220/47
f 366/212/45 374/220/47 367/213/45
f 367/213/45 374/220/47 375/221/47
f 367/213/45 375/221/47 376/222/45
f 374/220/47 373/219/48 377/223/48
f 374/220/47 377/223/48 375/221/47
f 375/221/47 377/223/48 378/224/48
f 375/221/47 378/224/48 379/225/47
f 376/222/45 375/221/47 379/225/47
f 376/222/45 379/225/47 380/226/45
f 370/216/46 368/214/44 381/227/44
f 370/216/46 381/227/44 382/228/46
f 368/214/44 367/213/45 376/222/45
f 368/214/44 376/222/45 381/227/44
f 381/227/44 376/222/45 380/226/45
f 381/227/44 380/226/45 383/229/49
f 382/228/46 381/227/44 383/229/49
f 382/228/46 383/229/49 384/230/46
f 385/231/50 386/232/51 387/233/51
f 385/231/50 387/233/51 388/234/50
f 372/218/48 385/231/50 388/234/50
f 372/218/48 388/234/50 373/219/48
f 389/235/52 390/236/53 391/237/53
f 389/235/52 391/237/53 392/238/52
f 386/232/51 389/235/52 392/238/52
f 386/232/51 392/238/52 387/233/51
f 387/233/51 392/238/52 393/239/52
f 387/233/51 393/239/52 394/240/51
f 392/238/52 391/237/53 395/241/53
f 392/238/52 395/241/53 393/239/52
f 393/239/52 395/241/53 396/242/53
f 393/239/52 396/242/53 397/243/54
f 394/240/51 393/239/52 397/243/54
f 394/240/51 397/243/54 398/244/51
f 373/219/48 388/234/50 399/245/50
f 373/219/48 399/245/50 377/223/48
f 388/234/50 387/233/51 394/240/51
f 388/234/50 394/240/51 399/245/50
f 399/245/50 394/240/51 398/244/51
f 399/245/50 398/244/51 400/246/55
f 377/223/48 399/245/50 400/246/55
f 377/223/48 400/246/55 378/224/48
f 401/247/56 402/248/57 403/249/57
f 401/247/56 403/249/57 404/250/56
f 390/236/53 401/247/56 404/250/56
f 390/236/53 404/250/56 391/237/53
f 405/251/58 406/252/59 407/253/59
f 405/251/58 407/253/59 408/254/58
f 402/248/57 405/251/58 408/254/58
f 402/248/57 408/254/58 403/249/57
f 403/249/57 408/254/58 409/255/58
f 403/249/57 409/255/58 410/256/57
f 408/254/58 407/253/59 411/257/59
f 408/254/58 411/257/59 409/255/58
f 409/255/58 411/257/59 412/258/59
f 409/255/58 412/258/59 413/259/58
f 410/256/57 409/255/58 413/259/58
f 410/256/57 413/259/58 414/260/57
f 391/237/53 404/250/56 415/261/56
f 391/237/53 415/261/56 395/241/53
f 404/250/56 403/249/57 410/256/57
f 404/250/56 410/256/57 415/261/56
f 415/261/56 410/256/57 414/260/57
f 415/261/56 414/260/57 416/262/60
f 395/241/53 415/261/56 416/262/60
f 395/241/53 416/262/60 396/242/53
f 417/263/61 418/264/62 419/265/62
f 417/263/61 419/265/62 420/266/61
f 406/252/59 417/263/61 420/266/61
f 406/252/59 420/266/61 407/253/59
f 421/267/63 369/215/46 370/216/46
f 421/267/63 370/216/46 422/268/63
f 423/269/62 421/267/63 422/268/63
f 423/269/62 422/268/63 424/270/62
f 424/270/62 422/268/63 425/271/63
f 424/270/62 425/271/63 426/272/62
f 422/268/63 370/216/46 382/228/46
f 422/268/63 382/228/46 425/271/63
f 425/271/63 382/228/46 384/230/46
f 425/271/63 384/230/46 427/273/64
f 426/272/62 425/271/63 427/273/64
f 426/272/62 427/273/64 428/274/62
f 407/253/59 420/266/61 429/275/61
f 407/253/59 429/275/61 411/257/59
f 420/266/61 419/265/62 430/276/62
f 420/266/61 430/276/62 429/275/61
f 429/275/61 430/276/62 431/277/62
f 429/275/61 431/277/62 432/278/65
f 411/257/59 429/275/61 432/278/65
f 411/257/59 432/278/65 412/258/59
f 369/215/46 433/279/46 434/280/66
f 369/215/46 434/280/66 365/211/44
s 214
f 435/281/64 436/282/67 437/283/46
f 435/281/64 437/283/46 438/284/46
s 215
f 439/285/46 440/286/46 441/287/66
f 439/285/46 441/287/66 442/288/49
s 213
f 365/211/44 434/280/66 443/289/45
f 365/211/44 443/289/45 366/212/45
s 214
f 444/290/62 445/291/62 436/282/67
f 444/290/62 436/282/67 435/281/64
s 215
f 442/288/49 441/287/66 446/292/45
f 442/288/49 446/292/45 447/293/45
s 213
f 366/212/45 443/289/45 448/294/68
f 366/212/45 448/294/68 371/217/47
s 214
f 449/295/65 450/296/69 451/297/62
f 449/295/65 451/297/62 452/298/62
s 215
f 447/293/45 446/292/45 453/299/68
f 447/293/45 453/299/68 454/300/70
s 213
f 371/217/47 448/294/68 455/301/48
f 371/217/47 455/301/48 372/218/48
s 214
f 456/302/59 457/303/59 450/296/69
f 456/302/59 450/296/69 449/295/65
s 215
f 454/300/70 453/299/68 458/304/48
f 454/300/70 458/304/48 459/305/48
s 213
f 372/218/48 455/301/48 460/306/71
f 372/218/48 460/306/71 385/231/50
s 214
f 461/307/72 462/308/73 457/303/59
f 461/307/72 457/303/59 456/302/59
s 215
f 459/305/48 458/304/48 463/309/71
f 459/305/48 463/309/71 464/310/50
s 213
f 385/231/50 460/306/71 465/311/51
f 385/231/50 465/311/51 386/232/51
s 214
f 466/312/57 467/313/57 462/308/73
f 466/312/57 462/308/73 461/307/72
s 215
f 464/310/50 463/309/71 468/314/51
f 464/310/50 468/314/51 469/315/51
s 213
f 386/232/51 465/311/51 470/316/74
f 386/232/51 470/316/74 389/235/52
s 214
f 471/317/60 472/318/75 467/313/57
f 471/317/60 467/313/57 466/312/57
s 215
f 469/315/51 468/314/51 473/319/74
f 469/315/51 473/319/74 474/320/54
s 213
f 389/235/52 470/316/74 475/321/53
f 389/235/52 475/321/53 390/236/53
s 214
f 476/322/53 477/323/53 472/318/75
f 476/322/53 472/318/75 471/317/60
s 215
f 474/320/54 473/319/74 478/324/53
f 474/320/54 478/324/53 479/325/53
s 213
f 390/236/53 475/321/53 480/326/76
f 390/236/53 480/326/76 401/247/56
s 214
f 481/327/54 482/328/77 477/323/53
f 481/327/54 477/323/53 476/322/53
s 215
f 479/325/53 478/324/53 483/329/78
f 479/325/53 483/329/78 484/330/56
s 213
f 401/247/56 480/326/76 485/331/57
f 401/247/56 485/331/57 402/248/57
s 214
f 486/332/51 487/333/51 482/328/77
f 486/332/51 482/328/77 481/327/54
s 215
f 484/330/56 483/329/78 488/334/57
f 484/330/56 488/334/57 489/335/57
s 213
f 402/248/57 485/331/57 490/336/79
f 402/248/57 490/336/79 405/251/58
s 214
f 491/337/55 492/338/80 487/333/51
f 491/337/55 487/333/51 486/332/51
s 215
f 489/335/57 488/334/57 493/339/81
f 489/335/57 493/339/81 494/340/72
s 213
f 405/251/58 490/336/79 495/341/59
f 405/251/58 495/341/59 406/252/59
s 214
f 496/342/48 497/343/48 492/338/80
f 496/342/48 492/338/80 491/337/55
s 215
f 494/340/72 493/339/81 498/344/59
f 494/340/72 498/344/59 499/345/59
s 213
f 406/252/59 495/341/59 500/346/82
f 406/252/59 500/346/82 417/263/61
s 214
f 501/347/83 502/348/84 497/343/48
f 501/347/83 497/343/48 496/342/48
s 215
f 499/345/59 498/344/59 503/349/85
f 499/345/59 503/349/85 504/350/86
s 213
f 417/263/61 500/346/82 505/351/62
f 417/263/61 505/351/62 418/264/62
s 214
f 506/352/45 507/353/45 502/348/84
f 506/352/45 502/348/84 501/347/83
s 215
f 504/350/86 503/349/85 508/354/62
f 504/350/86 508/354/62 509/355/62
s 213
f 423/269/62 510/356/62 511/357/87
f 423/269/62 511/357/87 421/267/63
s 214
f 512/358/49 513/359/88 507/353/45
f 512/358/49 507/353/45 506/352/45
s 215
f 514/360/62 515/361/62 516/362/87
f 514/360/62 516/362/87 517/363/64
s 213
f 421/267/63 511/357/87 433/279/46
f 421/267/63 433/279/46 369/215/46
s 214
f 438/284/46 437/283/46 513/359/88
f 438/284/46 513/359/88 512/358/49
s 215
f 517/363/64 516/362/87 440/286/46
f 517/363/64 440/286/46 439/285/46
s 216
f 518/280/89 519/279/90 520/284/91
f 518/280/89 520/284/91 521/358/92
f 519/279/90 522/357/93 523/281/93
f 519/279/90 523/281/93 520/284/91
f 522/357/93 524/356/94 525/290/94
f 522/357/93 525/290/94 523/281/93
f 526/351/94 527/346/95 528/295/95
f 526/351/94 528/295/95 529/298/94
f 527/346/95 530/341/96 531/302/97
f 527/346/95 531/302/97 528/295/95
f 530/341/96 532/336/98 533/307/98
f 530/341/96 533/307/98 531/302/97
f 532/336/98 534/331/99 535/312/100
f 532/336/98 535/312/100 533/307/98
f 534/331/99 536/326/101 537/317/102
f 534/331/99 537/317/102 535/312/100
f 536/326/101 538/321/103 539/322/104
f 536/326/101 539/322/104 537/317/102
f 538/321/103 540/316/105 541/327/106
f 538/321/103 541/327/106 539/322/104
f 540/316/105 542/311/107 543/332/108
f 540/316/105 543/332/108 541/327/106
f 542/311/107 544/306/109 545/337/110
f 542/311/107 545/337/110 543/332/108
f 544/306/109 546/301/111 547/342/112
f 544/306/109 547/342/112 545/337/110
f 546/301/111 548/294/113 549/347/114
f 546/301/111 549/347/114 547/342/112
f 548/294/113 550/289/115 551/352/115
f 548/294/113 551/352/115 549/347/114
f 550/289/115 518/280/89 521/358/92
f 550/289/115 521/358/92 551/352/115
s 217
f 552/285/116 553/288/117 554/359/117
f 552/285/116 554/359/117 555/283/116
f 553/288/117 556/293/118 557/353/119
f 553/288/117 557/353/119 554/359/117
f 556/293/118 558/300/120 559/348/121
f 556/293/118 559/348/121 557/353/119
f 558/300/120 560/305/122 561/343/123
f 558/300/120 561/343/123 559/348/121
f 560/305/122 562/310/124 563/338/124
f 560/305/122 563/338/124 561/343/123
f 562/310/124 564/315/125 565/333/125
f 562/310/124 565/333/125 563/338/124
f 564/315/125 566/320/126 567/328/127
f 564/315/125 567/328/127 565/333/125
f 566/320/126 568/325/128 569/323/129
f 566/320/126 569/323/129 567/328/127
f 568/325/128 570/330/130 571/318/131
f 568/325/128 571/318/131 569/323/129
f 570/330/130 572/335/132 573/313/133
f 570/330/130 573/313/133 571/318/131
f 572/335/132 574/340/134 575/308/135
f 572/335/132 575/308/135 573/313/133
f 574/340/134 576/345/136 577/303/136
f 574/340/134 577/303/136 575/308/135
f 576/345/136 578/350/137 579/296/138
f 576/345/136 579/296/138 577/303/136
f 578/350/137 580/355/139 581/297/139
f 578/350/137 581/297/139 579/296/138
f 582/360/139 583/363/140 584/282/141
f 582/360/139 584/282/141 585/291/139
f 583/363/140 552/285/116 555/283/116
f 583/363/140 555/283/116 584/282/141
s 218
f 586/364/44 587/365/45 588/366/45
f 586/364/44 588/366/45 589/367/44
f 590/368/46 586/364/44 589/367/44
f 590/368/46 589/367/44 591/369/46
f 592/370/47 593/371/48 594/372/48
f 592/370/47 594/372/48 595/373/47
f 587/365/45 592/370/47 595/373/47
f 587/365/45 595/373/47 588/366/45
f 588/366/45 595/373/47 596/374/47
f 588/366/45 596/374/47 597/375/45
f 595/373/47 594/372/48 598/376/48
f 595/373/47 598/376/48 596/374/47
f 596/374/47 598/376/48 599/377/48
f 596/374/47 599/377/48 600/378/83
f 597/375/45 596/374/47 600/378/83
f 597/375/45 600/378/83 601/379/45
f 591/369/46 589/367/44 602/380/44
f 591/369/46 602/380/44 603/381/46
f 589/367/44 588/366/45 597/375/45
f 589/367/44 597/375/45 602/380/44
f 602/380/44 597/375/45 601/379/45
f 602/380/44 601/379/45 604/382/49
f 603/381/46 602/380/44 604/382/49
f 603/381/46 604/382/49 605/383/46
f 606/384/50 607/385/51 608/386/51
f 606/384/50 608/386/51 609/387/50
f 593/371/48 606/384/50 609/387/50
f 593/371/48 609/387/50 594/372/48
f 610/388/52 611/389/53 612/390/53
f 610/388/52 612/390/53 613/391/52
f 607/385/51 610/388/52 613/391/52
f 607/385/51 613/391/52 608/386/51
f 608/386/51 613/391/52 614/392/52
f 608/386/51 614/392/52 615/393/51
f 613/391/52 612/390/53 616/394/53
f 613/391/52 616/394/53 614/392/52
f 614/392/52 616/394/53 617/395/53
f 614/392/52 617/395/53 618/396/54
f 615/393/51 614/392/52 618/396/54
f 615/393/51 618/396/54 619/397/51
f 594/372/48 609/387/50 620/398/50
f 594/372/48 620/398/50 598/376/48
f 609/387/50 608/386/51 615/393/51
f 609/387/50 615/393/51 620/398/50
f 620/398/50 615/393/51 619/397/51
f 620/398/50 619/397/51 621/399/55
f 598/376/48 620/398/50 621/399/55
f 598/376/48 621/399/55 599/377/48
f 622/400/56 623/401/57 624/402/57
f 622/400/56 624/402/57 625/403/56
f 611/389/53 622/400/56 625/403/56
f 611/389/53 625/403/56 612/390/53
f 626/404/58 627/405/59 628/406/59
f 626/404/58 628/406/59 629/407/58
f 623/401/57 626/404/58 629/407/58
f 623/401/57 629/407/58 624/402/57
f 624/402/57 629/407/58 630/408/58
f 624/402/57 630/408/58 631/409/57
f 629/407/58 628/406/59 632/410/59
f 629/407/58 632/410/59 630/408/58
f 630/408/58 632/410/59 633/411/59
f 630/408/58 633/411/59 634/412/58
f 631/409/57 630/408/58 634/412/58
f 631/409/57 634/412/58 635/413/57
f 612/390/53 625/403/56 636/414/56
f 612/390/53 636/414/56 616/394/53
f 625/403/56 624/402/57 631/409/57
f 625/403/56 631/409/57 636/414/56
f 636/414/56 631/409/57 635/413/57
f 636/414/56 635/413/57 637/415/60
f 616/394/53 636/414/56 637/415/60
f 616/394/53 637/415/60 617/395/53
f 638/416/61 639/417/62 640/418/62
f 638/416/61 640/418/62 641/419/61
f 627/405/59 638/416/61 641/419/61
f 627/405/59 641/419/61 628/406/59
f 642/420/63 590/368/46 591/369/46
f 642/420/63 591/369/46 643/421/63
f 644/422/62 642/420/63 643/421/63
f 644/422/62 643/421/63 645/423/62
f 645/423/62 643/421/63 646/424/63
f 645/423/62 646/424/63 647/425/62
f 643/421/63 591/369/46 603/381/46
f 643/421/63 603/381/46 646/424/63
f 646/424/63 603/381/46 605/383/46
f 646/424/63 605/383/46 648/426/64
f 647/425/62 646/424/63 648/426/64
f 647/425/62 648/426/64 649/427/62
f 628/406/59 641/419/61 650/428/61
f 628/406/59 650/428/61 632/410/59
f 641/419/61 640/418/62 651/429/62
f 641/419/61 651/429/62 650/428/61
f 650/428/61 651/429/62 652/430/62
f 650/428/61 652/430/62 653/431/65
f 632/410/59 650/428/61 653/431/65
f 632/410/59 653/431/65 633/411/59
f 590/368/46 654/432/46 655/433/142
f 590/368/46 655/433/142 586/364/44
s 219
f 656/434/64 657/435/143 658/436/46
f 656/434/64 658/436/46 659/437/46
s 220
f 660/438/46 661/439/46 662/440/66
f 660/438/46 662/440/66 663/441/44
s 218
f 586/364/44 655/433/142 664/442/45
f 586/364/44 664/442/45 587/365/45
s 219
f 665/443/62 666/444/62 657/435/143
f 665/443/62 657/435/143 656/434/64
s 220
f 663/441/44 662/440/66 667/445/45
f 663/441/44 667/445/45 668/446/45
s 218
f 587/365/45 664/442/45 669/447/68
f 587/365/45 669/447/68 592/370/47
s 219
f 670/448/65 671/449/69 672/450/62
f 670/448/65 672/450/62 673/451/62
s 220
f 668/446/45 667/445/45 674/452/144
f 668/446/45 674/452/144 675/453/83
s 218
f 592/370/47 669/447/68 676/454/48
f 592/370/47 676/454/48 593/371/48
s 219
f 677/455/59 678/456/59 671/449/69
f 677/455/59 671/449/69 670/448/65
s 220
f 675/453/83 674/452/144 679/457/48
f 675/453/83 679/457/48 680/458/48
s 218
f 593/371/48 676/454/48 681/459/71
f 593/371/48 681/459/71 606/384/50
s 219
f 682/460/72 683/461/73 678/456/59
f 682/460/72 678/456/59 677/455/59
s 220
f 680/458/48 679/457/48 684/462/71
f 680/458/48 684/462/71 685/463/55
s 218
f 606/384/50 681/459/71 686/464/51
f 606/384/50 686/464/51 607/385/51
s 219
f 687/465/57 688/466/57 683/461/73
f 687/465/57 683/461/73 682/460/72
s 220
f 685/463/55 684/462/71 689/467/51
f 685/463/55 689/467/51 690/468/51
s 218
f 607/385/51 686/464/51 691/469/74
f 607/385/51 691/469/74 610/388/52
s 219
f 692/470/60 693/471/75 688/466/57
f 692/470/60 688/466/57 687/465/57
s 220
f 690/468/51 689/467/51 694/472/74
f 690/468/51 694/472/74 695/473/54
s 218
f 610/388/52 691/469/74 696/474/53
f 610/388/52 696/474/53 611/389/53
s 219
f 697/475/53 698/476/53 693/471/75
f 697/475/53 693/471/75 692/470/60
s 220
f 695/473/54 694/472/74 699/477/53
f 695/473/54 699/477/53 700/478/53
s 218
f 611/389/53 696/474/53 701/479/76
f 611/389/53 701/479/76 622/400/56
s 219
f 702/480/54 703/481/145 698/476/53
f 702/480/54 698/476/53 697/475/53
s 220
f 700/478/53 699/477/53 704/482/146
f 700/478/53 704/482/146 705/483/147
s 218
f 622/400/56 701/479/76 706/484/57
f 622/400/56 706/484/57 623/401/57
s 219
f 707/485/51 708/486/51 703/481/145
f 707/485/51 703/481/145 702/480/54
s 220
f 705/483/147 704/482/146 709/487/57
f 705/483/147 709/487/57 710/488/57
s 218
f 623/401/57 706/484/57 711/489/79
f 623/401/57 711/489/79 626/404/58
s 219
f 712/490/148 713/491/80 708/486/51
f 712/490/148 708/486/51 707/485/51
s 220
f 710/488/57 709/487/57 714/492/79
f 710/488/57 714/492/79 715/493/72
s 218
f 626/404/58 711/489/79 716/494/59
f 626/404/58 716/494/59 627/405/59
s 219
f 717/495/48 718/496/48 713/491/80
f 717/495/48 713/491/80 712/490/148
s 220
f 715/493/72 714/492/79 719/497/59
f 715/493/72 719/497/59 720/498/59
s 218
f 627/405/59 716/494/59 721/499/82
f 627/405/59 721/499/82 638/416/61
s 219
f 722/500/83 723/501/84 718/496/48
f 722/500/83 718/496/48 717/495/48
s 220
f 720/498/59 719/497/59 724/502/85
f 720/498/59 724/502/85 725/503/65
s 218
f 638/416/61 721/499/82 726/504/62
f 638/416/61 726/504/62 639/417/62
s 219
f 727/505/45 728/506/45 723/501/84
f 727/505/45 723/501/84 722/500/83
s 220
f 725/503/65 724/502/85 729/507/62
f 725/503/65 729/507/62 730/508/62
s 218
f 644/422/62 731/509/62 732/510/87
f 644/422/62 732/510/87 642/420/63
s 219
f 733/511/49 734/512/88 728/506/45
f 733/511/49 728/506/45 727/505/45
s 220
f 735/513/62 736/514/62 737/515/67
f 735/513/62 737/515/67 738/516/64
s 218
f 642/420/63 732/510/87 654/432/46
f 642/420/63 654/432/46 590/368/46
s 219
f 659/437/46 658/436/46 734/512/88
f 659/437/46 734/512/88 733/511/49
s 220
f 738/516/64 737/515/67 661/439/46
f 738/516/64 661/439/46 660/438/46
s 221
f 739/433/149 740/432/150 741/437/90
f 739/433/149 741/437/90 742/511/92
f 740/432/150 743/510/93 744/434/151
f 740/432/150 744/434/151 741/437/90
f 743/510/93 745/509/94 746/443/94
f 743/510/93 746/443/94 744/434/151
f 747/504/94 748/499/152 749/448/95
f 747/504/94 749/448/95 750/451/94
f 748/499/152 751/494/96 752/455/153
f 748/499/152 752/455/153 749/448/95
f 751/494/96 753/489/98 754/460/98
f 751/494/96 754/460/98 752/455/153
f 753/489/98 755/484/100 756/465/100
f 753/489/98 756/465/100 754/460/98
f 755/484/100 757/479/154 758/470/102
f 755/484/100 758/470/102 756/465/100
f 757/479/154 759/474/155 760/475/104
f 757/479/154 760/475/104 758/470/102
f 759/474/155 761/469/105 762/480/156
f 759/474/155 762/480/156 760/475/104
f 761/469/105 763/464/108 764/485/108
f 761/469/105 764/485/108 762/480/156
f 763/464/108 765/459/110 766/490/110
f 763/464/108 766/490/110 764/485/108
f 765/459/110 767/454/111 768/495/112
f 765/459/110 768/495/112 766/490/110
f 767/454/111 769/447/114 770/500/114
f 767/454/111 770/500/114 768/495/112
f 769/447/114 771/442/157 772/505/115
f 769/447/114 772/505/115 770/500/114
f 771/442/157 739/433/149 742/511/92
f 771/442/157 742/511/92 772/505/115
s 222
f 773/438/116 774/441/117 775/512/158
f 773/438/116 775/512/158 776/436/159
f 774/441/117 777/446/118 778/506/160
f 774/441/117 778/506/160 775/512/158
f 777/446/118 779/453/120 780/501/161
f 777/446/118 780/501/161 778/506/160
f 779/453/120 781/458/162 782/496/122
f 779/453/120 782/496/122 780/501/161
f 781/458/162 783/463/163 784/491/163
f 781/458/162 784/491/163 782/496/122
f 783/463/163 785/468/125 786/486/164
f 783/463/163 786/486/164 784/491/163
f 785/468/125 787/473/165 788/481/127
f 785/468/125 788/481/127 786/486/164
f 787/473/165 789/478/166 790/476/128
f 787/473/165 790/476/128 788/481/127
f 789/478/166 791/483/131 792/471/130
f 789/478/166 792/471/130 790/476/128
f 791/483/131 793/488/132 794/466/133
f 791/483/131 794/466/133 792/471/130
f 793/488/132 795/493/135 796/461/135
f 793/488/132 796/461/135 794/466/133
f 795/493/135 797/498/136 798/456/167
f 795/493/135 798/456/167 796/461/135
f 797/498/136 799/503/168 800/449/137
f 797/498/136 800/449/137 798/456/167
f 799/503/168 801/508/139 802/450/139
f 799/503/168 802/450/139 800/449/137
f 803/513/139 804/516/169 805/435/170
f 803/513/139 805/435/170 806/444/139
f 804/516/169 773/438/116 776/436/159
f 804/516/169 776/436/159 805/435/170
s 223
f 807/517/44 808/518/45 809/519/45
f 807/517/44 809/519/45 810/520/44
f 811/521/46 807/517/44 810/520/44
f 811/521/46 810/520/44 812/522/46
f 813/523/47 814/524/48 815/525/48
f 813/523/47 815/525/48 816/526/47
f 808/518/45 813/523/47 816/526/47
f 808/518/45 816/526/47 809/519/45
f 809/519/45 816/526/47 817/527/47
f 809/519/45 817/527/47 818/528/45
f 816/526/47 815/525/48 819/529/48
f 816/526/47 819/529/48 817/527/47
f 817/527/47 819/529/48 820/530/48
f 817/527/47 820/530/48 821/531/83
f 818/528/45 817/527/47 821/531/83
f 818/528/45 821/531/83 822/532/45
f 812/522/46 810/520/44 823/533/44
f 812/522/46 823/533/44 824/534/46
f 810/520/44 809/519/45 818/528/45
f 810/520/44 818/528/45 823/533/44
f 823/533/44 818/528/45 822/532/45
f 823/533/44 822/532/45 825/535/49
f 824/534/46 823/533/44 825/535/49
f 824/534/46 825/535/49 826/536/46
f 827/537/50 828/538/51 829/539/51
f 827/537/50 829/539/51 830/540/50
f 814/524/48 827/537/50 830/540/50
f 814/524/48 830/540/50 815/525/48
f 831/541/52 832/542/53 833/543/53
f 831/541/52 833/543/53 834/544/52
f 828/538/51 831/541/52 834/544/52
f 828/538/51 834/544/52 829/539/51
f 829/539/51 834/544/52 835/545/52
f 829/539/51 835/545/52 836/546/51
f 834/544/52 833/543/53 837/547/53
f 834/544/52 837/547/53 835/545/52
f 835/545/52 837/547/53 838/548/53
f 835/545/52 838/548/53 839/549/54
f 836/546/51 835/545/52 839/549/54
f 836/546/51 839/549/54 840/550/51
f 815/525/48 830/540/50 841/551/50
f 815/525/48 841/551/50 819/529/48
f 830/540/50 829/539/51 836/546/51
f 830/540/50 836/546/51 841/551/50
f 841/551/50 836/546/51 840/550/51
f 841/551/50 840/550/51 842/552/55
f 819/529/48 841/551/50 842/552/55
f 819/529/48 842/552/55 820/530/48
f 843/553/56 844/554/57 845/555/57
f 843/553/56 845/555/57 846/556/56
f 832/542/53 843/553/56 846/556/56
f 832/542/53 846/556/56 833/543/53
f 847/557/58 848/558/59 849/559/59
f 847/557/58 849/559/59 850/560/58
f 844/554/57 847/557/58 850/560/58
f 844/554/57 850/560/58 845/555/57
f 845/555/57 850/560/58 851/561/58
f 845/555/57 851/561/58 852/562/57
f 850/560/58 849/559/59 853/563/59
f 850/560/58 853/563/59 851/561/58
f 851/561/58 853/563/59 854/564/59
f 851/561/58 854/564/59 855/565/72
f 852/562/57 851/561/58 855/565/72
f 852/562/57 855/565/72 856/566/57
f 833/543/53 846/556/56 857/567/56
f 833/543/53 857/567/56 837/547/53
f 846/556/56 845/555/57 852/562/57
f 846/556/56 852/562/57 857/567/56
f 857/567/56 852/562/57 856/566/57
f 857/567/56 856/566/57 858/568/60
f 837/547/53 857/567/56 858/568/60
f 837/547/53 858/568/60 838/548/53
f 859/569/61 860/570/62 861/571/62
f 859/569/61 861/571/62 862/572/61
f 848/558/59 859/569/61 862/572/61
f 848/558/59 862/572/61 849/559/59
f 863/573/63 811/521/46 812/522/46
f 863/573/63 812/522/46 864/574/63
f 865/575/62 863/573/63 864/574/63
f 865/575/62 864/574/63 866/576/62
f 866/576/62 864/574/63 867/577/63
f 866/576/62 867/577/63 868/578/62
f 864/574/63 812/522/46 824/534/46
f 864/574/63 824/534/46 867/577/63
f 867/577/63 824/534/46 826/536/46
f 867/577/63 826/536/46 869/579/64
f 868/578/62 867/577/63 869/579/64
f 868/578/62 869/579/64 870/580/62
f 849/559/59 862/572/61 871/581/61
f 849/559/59 871/581/61 853/563/59
f 862/572/61 861/571/62 872/582/62
f 862/572/61 872/582/62 871/581/61
f 871/581/61 872/582/62 873/583/62
f 871/581/61 873/583/62 874/584/65
f 853/563/59 871/581/61 874/584/65
f 853/563/59 874/584/65 854/564/59
f 811/521/46 875/585/46 876/586/171
f 811/521/46 876/586/171 807/517/44
s 224
f 877/587/64 878/588/143 879/589/46
f 877/587/64 879/589/46 880/590/46
s 225
f 881/591/46 882/592/46 883/593/66
f 881/591/46 883/593/66 884/594/49
s 223
f 807/517/44 876/586/171 885/595/45
f 807/517/44 885/595/45 808/518/45
s 224
f 886/596/62 887/597/62 878/588/143
f 886/596/62 878/588/143 877/587/64
s 225
f 884/594/49 883/593/66 888/598/45
f 884/594/49 888/598/45 889/599/45
s 223
f 808/518/45 885/595/45 890/600/83
f 808/518/45 890/600/83 813/523/47
s 224
f 891/601/65 892/602/69 893/603/62
f 891/601/65 893/603/62 894/604/62
s 225
f 889/599/45 888/598/45 895/605/68
f 889/599/45 895/605/68 896/606/83
s 223
f 813/523/47 890/600/83 897/607/48
f 813/523/47 897/607/48 814/524/48
s 224
f 898/608/59 899/609/59 892/602/69
f 898/608/59 892/602/69 891/601/65
s 225
f 896/606/83 895/605/68 900/610/48
f 896/606/83 900/610/48 901/611/48
s 223
f 814/524/48 897/607/48 902/612/71
f 814/524/48 902/612/71 827/537/50
s 224
f 903/613/72 904/614/73 899/609/59
f 903/613/72 899/609/59 898/608/59
s 225
f 901/611/48 900/610/48 905/615/71
f 901/611/48 905/615/71 906/616/55
s 223
f 827/537/50 902/612/71 907/617/51
f 827/537/50 907/617/51 828/538/51
s 224
f 908/618/57 909/619/57 904/614/73
f 908/618/57 904/614/73 903/613/72
s 225
f 906/616/55 905/615/71 910/620/51
f 906/616/55 910/620/51 911/621/51
s 223
f 828/538/51 907/617/51 912/622/74
f 828/538/51 912/622/74 831/541/52
s 224
f 913/623/147 914/624/75 909/619/57
f 913/623/147 909/619/57 908/618/57
s 225
f 911/621/51 910/620/51 915/625/74
f 911/621/51 915/625/74 916/626/54
s 223
f 831/541/52 912/622/74 917/627/53
f 831/541/52 917/627/53 832/542/53
s 224
f 918/628/53 919/629/53 914/624/75
f 918/628/53 914/624/75 913/623/147
s 225
f 916/626/54 915/625/74 920/630/53
f 916/626/54 920/630/53 921/631/53
s 223
f 832/542/53 917/627/53 922/632/78
f 832/542/53 922/632/78 843/553/56
s 224
f 923/633/172 924/634/173 919/629/53
f 923/633/172 919/629/53 918/628/53
s 225
f 921/631/53 920/630/53 925/635/78
f 921/631/53 925/635/78 926/636/147
s 223
f 843/553/56 922/632/78 927/637/57
f 843/553/56 927/637/57 844/554/57
s 224
f 928/638/51 929/639/51 924/634/173
f 928/638/51 924/634/173 923/633/172
s 225
f 926/636/147 925/635/78 930/640/57
f 926/636/147 930/640/57 931/641/57
s 223
f 844/554/57 927/637/57 932/642/79
f 844/554/57 932/642/79 847/557/58
s 224
f 933/643/55 934/644/80 929/639/51
f 933/643/55 929/639/51 928/638/51
s 225
f 931/641/57 930/640/57 935/645/79
f 931/641/57 935/645/79 936/646/72
s 223
f 847/557/58 932/642/79 937/647/59
f 847/557/58 937/647/59 848/558/59
s 224
f 938/648/48 939/649/48 934/644/80
f 938/648/48 934/644/80 933/643/55
s 225
f 936/646/72 935/645/79 940/650/59
f 936/646/72 940/650/59 941/651/59
s 223
f 848/558/59 937/647/59 942/652/85
f 848/558/59 942/652/85 859/569/61
s 224
f 943/653/70 944/654/68 939/649/48
f 943/653/70 939/649/48 938/648/48
s 225
f 941/651/59 940/650/59 945/655/85
f 941/651/59 945/655/85 946/656/61
s 223
f 859/569/61 942/652/85 947/657/62
f 859/569/61 947/657/62 860/570/62
s 224
f 948/658/45 949/659/45 944/654/68
f 948/658/45 944/654/68 943/653/70
s 225
f 946/656/61 945/655/85 950/660/62
f 946/656/61 950/660/62 951/661/62
s 223
f 865/575/62 952/662/62 953/663/87
f 865/575/62 953/663/87 863/573/63
s 224
f 954/664/49 955/665/88 949/659/45
f 954/664/49 949/659/45 948/658/45
s 225
f 956/666/62 957/667/62 958/668/87
f 956/666/62 958/668/87 959/669/64
s 223
f 863/573/63 953/663/87 875/585/46
f 863/573/63 875/585/46 811/521/46
s 224
f 880/590/46 879/589/46 955/665/88
f 880/590/46 955/665/88 954/664/49
s 225
f 959/669/64 958/668/87 882/592/46
f 959/669/64 882/592/46 881/591/46
s 226
f 960/586/149 961/585/90 962/590/150
f 960/586/149 962/590/150 963/664/92
f 961/585/90 964/663/174 965/587/93
f 961/585/90 965/587/93 962/590/150
f 964/663/174 966/662/94 967/596/94
f 964/663/174 967/596/94 965/587/93
f 968/657/94 969/652/95 970/601/175
f 968/657/94 970/601/175 971/604/94
f 969/652/95 972/647/96 973/608/97
f 969/652/95 973/608/97 970/601/175
f 972/647/96 974/642/98 975/613/98
f 972/647/96 975/613/98 973/608/97
f 974/642/98 976/637/100 977/618/100
f 974/642/98 977/618/100 975/613/98
f 976/637/100 978/632/102 979/623/102
f 976/637/100 979/623/102 977/618/100
f 978/632/102 980/627/103 981/628/155
f 978/632/102 981/628/155 979/623/102
f 980/627/103 982/622/106 983/633/106
f 980/627/103 983/633/106 981/628/155
f 982/622/106 984/617/107 985/638/108
f 982/622/106 985/638/108 983/633/106
f 984/617/107 986/612/109 987/643/110
f 984/617/107 987/643/110 985/638/108
f 986/612/109 988/607/111 989/648/112
f 986/612/109 989/648/112 987/643/110
f 988/607/111 990/600/113 991/653/114
f 988/607/111 991/653/114 989/648/112
f 990/600/113 992/595/157 993/658/115
f 990/600/113 993/658/115 991/653/114
f 992/595/157 960/586/149 963/664/92
f 992/595/157 963/664/92 993/658/115
s 227
f 994/591/176 995/594/117 996/665/158
f 994/591/176 996/665/158 997/589/177
f 995/594/117 998/599/118 999/659/119
f 995/594/117 999/659/119 996/665/158
f 998/599/118 1000/606/120 1001/654/161
f 998/599/118 1001/654/161 999/659/119
f 1000/606/120 1002/611/122 1003/649/122
f 1000/606/120 1003/649/122 1001/654/161
f 1002/611/122 1004/616/124 1005/644/124
f 1002/611/122 1005/644/124 1003/649/122
f 1004/616/124 1006/621/125 1007/639/164
f 1004/616/124 1007/639/164 1005/644/124
f 1006/621/125 1008/626/126 1009/634/178
f 1006/621/125 1009/634/178 1007/639/164
f 1008/626/126 1010/631/166 1011/629/128
f 1008/626/126 1011/629/128 1009/634/178
f 1010/631/166 1012/636/130 1013/624/131
f 1010/631/166 1013/624/131 1011/629/128
f 1012/636/130 1014/641/132 1015/619/133
f 1012/636/130 1015/619/133 1013/624/131
f 1014/641/132 1016/646/135 1017/614/135
f 1014/641/132 1017/614/135 1015/619/133
f 1016/646/135 1018/651/179 1019/609/136
f 1016/646/135 1019/609/136 1017/614/135
f 1018/651/179 1020/656/137 1021/602/168
f 1018/651/179 1021/602/168 1019/609/136
f 1020/656/137 1022/661/139 1023/603/139
f 1020/656/137 1023/603/139 1021/602/168
f 1024/666/139 1025/669/140 1026/588/170
f 1024/666/139 1026/588/170 1027/597/139
f 1025/669/140 994/591/176 997/589/177
f 1025/669/140 997/589/177 1026/588/170
s 0
g Mesh_metal_0_tejado
usemtl tejado
f 1028/670/180 1029/671/180 1030/672/180
f 1028/670/180 1030/672/180 1031/673/180
f 1032/674/39 1033/670/39 1034/673/39
f 1032/674/39 1034/673/39 1035/675/39
f 1036/676/25 1037/674/25 1038/675/25
f 1036/676/25 1038/675/25 1039/677/25
f 1040/678/39 1041/676/39 1042/677/39
f 1040/678/39 1042/677/39 1043/679/39
f 1044/680/181 1045/678/181 1046/679/181
f 1044/680/181 1046/679/181 1047/681/181
