# Blender 5.0.1
# www.blender.org
mtllib Flag.mtl
o Object_3.001
v -5.646229 41.897373 -34.118340
v -4.903126 39.154743 -25.534386
v -5.809377 44.285629 -25.243763
v -1.848069 36.620300 -17.330860
v -4.775605 46.834694 -16.626282
v -0.653440 33.980736 -8.659610
v -1.945522 49.522026 -8.469522
v 0.000000 31.379889 0.000003
v 0.000000 52.129658 0.000005
vn 0.9559 0.2324 -0.1799
vn 0.9700 0.1805 -0.1627
vn 0.9841 0.1755 -0.0291
vn 0.9523 0.2625 -0.1556
vn 0.9548 0.1994 -0.2205
vn 0.9773 0.1351 -0.1631
vn 0.9761 0.0500 -0.2113
vn 0.9880 0.0360 -0.1499
vn 0.9746 -0.0000 -0.2239
vt 0.271201 0.763064
vt 0.263204 0.626491
vt 0.019376 0.669554
vt 0.494320 0.565789
vt 0.475249 0.827837
vt 0.735882 0.488864
vt 0.709971 0.903674
vt 0.930211 0.449684
vt 0.903142 0.963988
s 1
usemtl Bandera
f 3/1/1 2/2/2 1/3/3
f 4/4/4 2/2/2 3/1/1
f 5/5/5 4/4/4 3/1/1
f 6/6/6 4/4/4 5/5/5
f 7/7/7 6/6/6 5/5/5
f 8/8/8 6/6/6 7/7/7
f 9/9/9 8/8/8 7/7/7
