# Blender 5.0.1
# www.blender.org
mtllib Flagpole.mtl
o Object_3
v 0.000000 -0.000000 -1.125001
v 0.000000 53.851795 -1.124996
v -1.125000 0.000000 0.000000
v -1.125000 53.851795 0.000005
v 0.000000 0.000000 1.125001
v 0.000000 53.851795 1.125005
v 1.125000 0.000000 0.000000
v 1.125000 53.851795 0.000005
v 1.125000 53.851795 0.000005
v 1.125000 0.000000 0.000000
v -1.125000 0.000000 0.000000
v 0.000000 53.851795 1.125005
v 0.000000 53.851795 -1.124996
v 0.000000 -0.000000 -1.125001
v 0.000000 0.000000 1.125001
v -1.125000 53.851795 0.000005
vn -0.7071 -0.0000 -0.7071
vn -0.7071 -0.0000 0.7071
vn 0.7071 -0.0000 0.7071
vn 0.7071 -0.0000 -0.7071
vt 0.939419 0.919390
s 0
usemtl mat5
f 3/1/1 2/1/1 1/1/1
f 4/1/1 2/1/1 3/1/1
f 5/1/2 16/1/2 11/1/2
f 6/1/2 16/1/2 5/1/2
f 7/1/3 12/1/3 15/1/3
f 8/1/3 12/1/3 7/1/3
f 14/1/4 9/1/4 10/1/4
f 13/1/4 9/1/4 14/1/4
