# Blender 5.0.1
# www.blender.org
mtllib ManecillaSegundos.mtl
g segundero_Malla
v -0.002327 0.036223 -0.086241
v -0.008342 0.050718 -0.086241
v 0.000323 0.048974 -0.086241
v 0.008424 0.047343 -0.086241
v 0.002273 0.035297 -0.086241
v -0.004017 0.110044 -0.086241
v -0.001530 0.136418 -0.086241
v 0.002507 0.135605 -0.086241
v 0.004718 0.108285 -0.086241
v 0.000085 0.109218 -0.086241
v -0.000377 0.166984 -0.086241
v 0.001670 0.166572 -0.086241
v -0.000449 0.182026 -0.086241
v 0.001896 0.181554 -0.086241
v -0.005873 0.064633 -0.086241
v -0.010352 0.065535 -0.086241
v -0.006419 0.093349 -0.086241
v -0.002529 0.092566 -0.086241
v -0.005213 0.073586 -0.086241
v 0.006943 0.090659 -0.086241
v 0.002922 0.091469 -0.086241
v 0.010582 0.061320 -0.086241
v 0.006783 0.062085 -0.086241
v 0.005523 0.053595 -0.086241
v -0.004660 0.053856 -0.086241
v -0.005073 0.000304 -0.086241
v -0.003027 0.015552 -0.086241
v 0.002759 0.014387 -0.086241
v 0.004645 -0.001653 -0.086241
v -0.001723 0.184710 -0.086241
v 0.003194 0.183720 -0.086241
v -0.002727 0.190777 -0.086241
v 0.004259 0.189370 -0.086241
v -0.001624 0.196423 -0.086241
v 0.003216 0.195449 -0.086241
v 0.000808 0.198246 -0.086241
v -0.002327 0.036223 -0.078869
v -0.008342 0.050718 -0.078869
v 0.000323 0.048974 -0.078869
v 0.008424 0.047343 -0.078869
v 0.002273 0.035297 -0.078869
v -0.004017 0.110044 -0.078869
v -0.001530 0.136418 -0.078869
v 0.002507 0.135605 -0.078869
v 0.004717 0.108285 -0.078869
v 0.000085 0.109218 -0.078869
v -0.000378 0.166984 -0.078869
v 0.001669 0.166572 -0.078869
v -0.000449 0.182026 -0.078869
v 0.001896 0.181554 -0.078869
v -0.005873 0.064633 -0.078869
v -0.010352 0.065535 -0.078869
v -0.006419 0.093349 -0.078869
v -0.002529 0.092566 -0.078869
v -0.005214 0.073586 -0.078869
v 0.006943 0.090659 -0.078869
v 0.002922 0.091469 -0.078869
v 0.010582 0.061320 -0.078869
v 0.006783 0.062085 -0.078869
v 0.005523 0.053595 -0.078869
v -0.004660 0.053856 -0.078869
v -0.005073 0.000304 -0.078869
v -0.003027 0.015552 -0.078869
v 0.002759 0.014387 -0.078869
v 0.004645 -0.001653 -0.078869
v -0.001723 0.184710 -0.078869
v 0.003194 0.183720 -0.078869
v -0.002727 0.190777 -0.078869
v 0.004259 0.189370 -0.078869
v -0.001624 0.196423 -0.078869
v 0.003216 0.195449 -0.078869
v 0.000808 0.198246 -0.078869
vn -0.0000 -0.0000 -1.0000
vn -0.0000 -0.0000 1.0000
vn -0.9839 -0.1788 -0.0000
vn -0.9653 -0.2610 -0.0000
vn 0.9749 -0.2225 -0.0000
vn 0.9515 -0.3076 -0.0000
vn 0.9749 -0.2226 -0.0000
vn -0.9978 0.0658 -0.0000
vn -0.9930 0.1182 -0.0000
vn 0.9947 0.1030 -0.0000
vn 0.9985 0.0539 -0.0000
vn -0.9999 0.0165 -0.0000
vn 1.0000 0.0060 -0.0000
vn -0.9750 -0.2221 -0.0000
vn 0.9617 -0.2741 -0.0000
vn -1.0000 0.0028 -0.0000
vn -0.9900 0.1412 -0.0000
vn 0.9943 -0.1068 -0.0000
vn 0.9891 -0.1476 -0.0000
vn 0.9998 0.0193 -0.0000
vn 0.9879 -0.1551 -0.0000
vn 0.9923 0.1242 -0.0000
vn -0.9896 -0.1441 -0.0000
vn -0.9875 -0.1579 -0.0000
vn 0.9999 -0.0149 -0.0000
vn -1.0000 0.0083 -0.0000
vn -0.6642 0.7475 -0.0000
vn -0.8796 0.4758 -0.0000
vn 0.8988 0.4384 -0.0000
vn 0.6998 0.7143 -0.0000
vn -0.9965 0.0835 -0.0000
vn -0.9911 0.1330 -0.0000
vn 0.9975 0.0701 -0.0000
vn 0.9932 0.1168 -0.0000
vn -0.1974 -0.9803 -0.0000
vn -0.9543 -0.2990 -0.0000
vn 0.9348 -0.3553 -0.0000
vn -0.9999 0.0144 -0.0000
vn 1.0000 -0.0082 -0.0000
vn -0.8471 0.5314 -0.0000
vn 0.9046 0.4262 -0.0000
vn 1.0000 -0.0081 -0.0000
vn -0.5999 0.8001 -0.0000
vn 0.7579 0.6524 -0.0000
vt 0.800721 0.449823
vt 0.800119 0.448774
vt 0.799557 0.447792
vt 0.800174 0.448869
vt 0.800382 0.449232
vt 0.800382 0.449232
vt 0.799907 0.448403
vt 0.799768 0.448161
vt 0.799812 0.448237
vt 0.800428 0.449312
vt 0.800472 0.449389
vt 0.800721 0.449823
vt 0.800721 0.449823
vt 0.800721 0.449823
vt 0.800139 0.448808
s 0
g off
g segundero_Material_#3
usemtl Material_#3
f 2/1/1 3/2/1 5/3/1
f 9/3/1 10/4/1 7/1/1
f 7/1/1 12/3/1 8/3/1
f 11/1/1 14/3/1 12/3/1
f 18/5/1 19/6/1 16/1/1
f 17/1/1 10/4/1 18/5/1
f 9/3/1 21/7/1 10/4/1
f 20/3/1 23/8/1 21/7/1
f 4/3/1 3/2/1 24/9/1
f 25/10/1 16/1/1 15/11/1
f 25/10/1 3/2/1 2/1/1
f 22/3/1 24/9/1 23/8/1
f 26/1/1 28/3/1 29/3/1
f 27/12/1 5/3/1 28/3/1
f 13/1/1 31/3/1 14/3/1
f 30/13/1 33/3/1 31/3/1
f 32/13/1 35/3/1 33/3/1
f 34/14/1 36/15/1 35/3/1
f 41/3/2 39/2/2 38/1/2
f 43/1/2 46/4/2 45/3/2
f 48/3/2 43/1/2 44/3/2
f 50/3/2 47/1/2 48/3/2
f 52/1/2 55/6/2 54/5/2
f 53/1/2 46/4/2 42/1/2
f 57/7/2 45/3/2 46/4/2
f 59/8/2 56/3/2 57/7/2
f 60/9/2 39/2/2 40/3/2
f 52/1/2 61/10/2 51/11/2
f 38/1/2 39/2/2 61/10/2
f 58/3/2 60/9/2 40/3/2
f 64/3/2 62/1/2 65/3/2
f 41/3/2 63/12/2 64/3/2
f 67/3/2 49/1/2 50/3/2
f 69/3/2 66/13/2 67/3/2
f 71/3/2 68/13/2 69/3/2
f 71/3/2 72/15/2 70/14/2
s 37
f 1/1/3 38/1/4 2/1/4
s 38
f 5/3/5 40/3/6 41/3/7
s 37
f 7/1/8 42/1/9 43/1/8
s 38
f 9/3/10 44/3/11 45/3/10
s 37
f 7/1/8 47/1/12 11/1/12
s 38
f 12/3/13 44/3/11 8/3/11
s 37
f 13/1/14 47/1/12 49/1/14
s 38
f 12/3/13 50/3/15 48/3/13
s 37
f 16/1/16 53/1/17 17/1/17
s 39
f 19/6/18 54/5/19 55/6/18
f 19/6/18 51/11/20 15/11/20
s 37
f 6/1/9 53/1/17 42/1/9
s 39
f 10/4/21 54/5/19 18/5/19
s 38
f 20/3/22 45/3/10 56/3/22
s 40
f 21/7/23 46/4/24 10/4/24
s 38
f 22/3/25 56/3/22 58/3/25
s 40
f 23/8/26 57/7/23 21/7/23
f 3/2/27 60/9/28 24/9/28
s 37
f 16/1/16 38/1/4 52/1/16
s 39
f 15/11/20 61/10/29 25/10/29
f 3/2/30 61/10/29 39/2/30
s 38
f 22/3/25 40/3/6 4/3/6
s 40
f 23/8/26 60/9/28 59/8/26
s 37
f 27/12/31 62/1/32 63/12/31
s 38
f 28/3/33 65/3/34 29/3/34
s 41
f 29/3/35 62/1/35 26/1/35
s 37
f 27/12/31 37/1/3 1/1/3
s 38
f 28/3/33 41/3/7 64/3/33
s 37
f 30/13/36 49/1/14 66/13/36
s 38
f 31/3/37 50/3/15 14/3/15
s 37
f 30/13/36 68/13/38 32/13/38
s 38
f 33/3/39 67/3/37 31/3/37
s 37
f 34/14/40 68/13/38 70/14/40
s 38
f 35/3/41 69/3/42 33/3/39
s 37
f 36/15/43 70/14/40 72/15/43
s 38
f 36/15/44 71/3/41 35/3/41
s 0
f 5/3/1 1/1/1 2/1/1
f 3/2/1 4/3/1 5/3/1
f 7/1/1 8/3/1 9/3/1
f 10/4/1 6/1/1 7/1/1
f 7/1/1 11/1/1 12/3/1
f 11/1/1 13/1/1 14/3/1
f 16/1/1 17/1/1 18/5/1
f 19/6/1 15/11/1 16/1/1
f 17/1/1 6/1/1 10/4/1
f 9/3/1 20/3/1 21/7/1
f 20/3/1 22/3/1 23/8/1
f 25/10/1 2/1/1 16/1/1
f 22/3/1 4/3/1 24/9/1
f 26/1/1 27/12/1 28/3/1
f 27/12/1 1/1/1 5/3/1
f 13/1/1 30/13/1 31/3/1
f 30/13/1 32/13/1 33/3/1
f 32/13/1 34/14/1 35/3/1
f 38/1/2 37/1/2 41/3/2
f 41/3/2 40/3/2 39/2/2
f 45/3/2 44/3/2 43/1/2
f 43/1/2 42/1/2 46/4/2
f 48/3/2 47/1/2 43/1/2
f 50/3/2 49/1/2 47/1/2
f 54/5/2 53/1/2 52/1/2
f 52/1/2 51/11/2 55/6/2
f 53/1/2 54/5/2 46/4/2
f 57/7/2 56/3/2 45/3/2
f 59/8/2 58/3/2 56/3/2
f 52/1/2 38/1/2 61/10/2
f 58/3/2 59/8/2 60/9/2
f 64/3/2 63/12/2 62/1/2
f 41/3/2 37/1/2 63/12/2
f 67/3/2 66/13/2 49/1/2
f 69/3/2 68/13/2 66/13/2
f 71/3/2 70/14/2 68/13/2
s 37
f 1/1/3 37/1/3 38/1/4
s 38
f 5/3/5 4/3/6 40/3/6
s 37
f 7/1/8 6/1/9 42/1/9
s 38
f 9/3/10 8/3/11 44/3/11
s 37
f 7/1/8 43/1/8 47/1/12
s 38
f 12/3/13 48/3/13 44/3/11
s 37
f 13/1/14 11/1/12 47/1/12
s 38
f 12/3/13 14/3/15 50/3/15
s 37
f 16/1/16 52/1/16 53/1/17
s 39
f 19/6/18 18/5/19 54/5/19
f 19/6/18 55/6/18 51/11/20
s 37
f 6/1/9 17/1/17 53/1/17
s 39
f 10/4/21 46/4/21 54/5/19
s 38
f 20/3/22 9/3/10 45/3/10
s 40
f 21/7/23 57/7/23 46/4/24
s 38
f 22/3/25 20/3/22 56/3/22
s 40
f 23/8/26 59/8/26 57/7/23
f 3/2/27 39/2/27 60/9/28
s 37
f 16/1/16 2/1/4 38/1/4
s 39
f 15/11/20 51/11/20 61/10/29
f 3/2/30 25/10/29 61/10/29
s 38
f 22/3/25 58/3/25 40/3/6
s 40
f 23/8/26 24/9/28 60/9/28
s 37
f 27/12/31 26/1/32 62/1/32
s 38
f 28/3/33 64/3/33 65/3/34
s 41
f 29/3/35 65/3/35 62/1/35
s 37
f 27/12/31 63/12/31 37/1/3
s 38
f 28/3/33 5/3/5 41/3/7
s 37
f 30/13/36 13/1/14 49/1/14
s 38
f 31/3/37 67/3/37 50/3/15
s 37
f 30/13/36 66/13/36 68/13/38
s 38
f 33/3/39 69/3/42 67/3/37
s 37
f 34/14/40 32/13/38 68/13/38
s 38
f 35/3/41 71/3/41 69/3/42
s 37
f 36/15/43 34/14/40 70/14/40
s 38
f 36/15/44 72/15/44 71/3/41
