# Blender 5.0.1
# www.blender.org
mtllib piedra.mtl
g defaultMaterial.002_Malla
v 2.086362 -0.615334 -0.501232
v 1.725744 -0.615334 -0.516016
v 1.870124 0.924075 -0.510097
v 2.453125 0.924075 -0.486195
v 2.238258 1.075162 0.951837
v 0.561882 1.075162 0.883107
v 0.908253 1.196998 1.275033
v 2.253054 1.196998 1.330169
v 0.112079 -0.615334 1.509556
v 2.568186 -0.615334 1.610253
v 0.235597 -0.615334 0.869730
v 2.691702 -0.615334 0.970428
v 0.824484 0.924075 0.309573
v 0.438957 -0.615334 0.293767
v 2.425049 0.924075 0.375194
v 2.909422 -0.615334 0.395053
v 0.189034 -0.611039 -1.675186
v -0.819028 -0.611039 -1.399783
v -0.835856 0.156007 -1.238453
v 0.030840 0.053958 -1.450095
v -0.600760 0.156007 -1.058387
v 0.777377 0.053958 -1.461064
v 0.661333 0.053958 -1.154410
v -0.365663 0.156007 -0.878320
v -0.176934 -0.611039 -0.903085
v 0.951521 -0.611039 -1.289491
v -2.732690 -0.611039 0.835881
v -2.018075 -0.611039 1.227911
v -1.821543 0.327958 0.948532
v -2.265705 0.344407 0.535352
v 1.048786 -0.611039 -1.617505
v -0.996916 0.156007 -0.009828
v -0.910704 -0.611039 0.065599
v -1.435194 0.344407 -0.172895
v -1.873471 0.344407 -0.335962
v -2.050124 -0.611039 -0.391093
v -1.145451 0.344407 0.782488
v -1.099395 -0.611039 0.939228
v -0.014698 1.277359 1.129963
v 0.329679 -0.610155 1.284955
v 0.651224 -0.610155 1.036339
v 0.222898 1.194756 0.930491
v 0.861380 -0.610155 -1.231709
v -0.341262 -0.610155 -0.918831
v -0.532480 0.388131 -0.974637
v 0.674012 0.328884 -1.152878
v 1.380619 0.454652 -0.539320
v 1.844657 0.037005 -0.769208
v 1.579310 0.271046 -1.023642
v 1.147572 0.608370 -0.248895
v 0.365536 0.498250 -0.637084
v -0.301912 1.077360 0.226595
v 0.793260 1.077360 0.437040
v -1.559026 -0.610155 -0.067971
v -1.413326 1.077360 -0.038861
v 0.971540 -0.610155 0.434742
v 1.306050 -0.610155 -0.282018
v -0.156053 1.224222 0.991369
v -1.615752 -0.610155 1.081740
v -1.245071 1.215723 1.038931
v 1.756683 -0.610155 -1.222679
v 1.651608 0.287473 -1.156376
v 1.920515 -0.610155 -0.839362
v 1.838600 -0.610155 -1.031021
v 1.641970 -0.610155 -0.586709
vn 0.6699 0.4963 -0.5521
vn 0.6425 0.0233 -0.7659
vn -0.4534 0.0843 -0.8873
vn -0.3726 0.4571 -0.8076
vn 0.2285 0.3187 0.9199
vn 0.6588 0.7513 -0.0381
vn -0.7110 0.6713 -0.2093
vn -0.2228 0.3438 0.9122
vn 0.1711 0.1876 0.9672
vn -0.3032 0.2184 0.9276
vn -0.9561 0.2657 -0.1237
vn 0.9500 0.2481 0.1895
vn -0.7120 0.1438 -0.6873
vn -0.5587 0.5223 -0.6443
vn 0.7293 0.6625 -0.1712
vn 0.9826 0.1483 -0.1122
vn -0.1290 0.3649 -0.9221
vn -0.0865 0.2786 -0.9565
vn -0.4325 0.2093 -0.8770
vn -0.5176 0.2519 -0.8177
vn 0.3255 0.4738 -0.8183
vn 0.1283 0.9831 -0.1304
vn 0.5392 0.1500 0.8287
vn 0.3304 0.1325 0.9345
vn 0.6768 0.3388 0.6536
vn 0.5138 0.0799 0.8542
vn -0.8580 0.5024 -0.1067
vn -0.8616 0.4884 0.1383
vn -0.1352 0.3328 0.9333
vn -0.0593 0.4018 0.9138
vn 0.2164 0.3441 -0.9137
vn 0.9173 0.1364 0.3740
vn 0.7645 0.4245 0.4851
vn -0.6447 0.3075 -0.6999
vn 0.0545 0.9975 0.0445
vn -0.7515 0.1841 -0.6335
vn 0.5806 0.1839 0.7931
vn 0.7418 0.3384 0.5789
vn 0.7178 0.2976 0.6295
vn 0.0266 0.0550 0.9981
vn 0.0493 0.1132 0.9923
vn 0.7007 0.1794 0.6905
vn -0.1216 0.1814 -0.9759
vn -0.0894 0.0495 -0.9948
vn -0.4838 -0.0848 -0.8711
vn -0.4758 0.1055 -0.8732
vn 0.7283 0.3220 0.6049
vn 0.8243 0.2244 0.5198
vn 0.7746 0.4985 -0.3892
vn 0.8887 0.3154 0.3328
vn 0.8860 0.3906 0.2500
vn 0.1037 0.8549 -0.5083
vn 0.0618 0.9188 -0.3898
vn -0.8485 0.2388 -0.4723
vn -0.9259 0.0864 -0.3677
vn 0.8492 0.1054 0.5174
vn 0.8717 0.1069 0.4782
vn 0.0322 0.9990 -0.0318
vn -0.5554 0.1841 0.8110
vn -0.6534 0.1452 0.7429
vn 0.1225 0.1962 -0.9729
vn 0.1673 0.1149 -0.9792
vn 0.9671 0.1343 0.2160
vn 0.9277 0.2208 -0.3012
vn 0.6206 0.0894 0.7790
vt 0.138687 0.321160
vt 0.020454 0.450348
vt 0.052675 0.481638
vt 0.155399 0.345611
vt 0.226200 0.193025
vt 0.193012 0.219748
vt 0.282911 0.297192
vt 0.299260 0.238978
vt 0.254653 0.031710
vt 0.443853 0.226765
vt 0.407581 0.377409
vt 0.092654 0.079839
vt 0.307175 0.481638
vt 0.230186 0.354454
vt 0.130236 0.259967
vt 0.007694 0.204487
vt 0.843476 0.637379
vt 0.924018 0.714183
vt 0.966327 0.554706
vt 0.850431 0.529536
vt 0.806590 0.707240
vt 0.799749 0.537439
vt 0.734323 0.776171
vt 0.761923 0.678332
vt 0.747996 0.547961
vt 0.641568 0.614331
vt 0.704174 0.191679
vt 0.716559 0.033575
vt 0.561899 0.064669
vt 0.620122 0.175292
vt 0.817254 0.798492
vt 0.532949 0.413265
vt 0.649006 0.375342
vt 0.785657 0.331843
vt 0.721681 0.355908
vt 0.922755 0.267730
vt 0.467946 0.203892
vt 0.586898 0.244854
vt 0.421507 0.652822
vt 0.447279 0.663527
vt 0.559721 0.527758
vt 0.493146 0.493014
vt 0.146616 0.828020
vt 0.055382 0.868856
vt 0.191164 0.971460
vt 0.227657 0.874906
vt 0.185891 0.697234
vt 0.120985 0.698869
vt 0.120709 0.755119
vt 0.347330 0.645882
vt 0.235203 0.674299
vt 0.220186 0.776203
vt 0.356326 0.736241
vt 0.385168 0.830116
vt 0.457569 0.971460
vt 0.334469 0.483344
vt 0.167475 0.561475
vt 0.437207 0.672516
vt 0.484210 0.717904
vt 0.649310 0.745075
vt 0.107453 0.771154
vt 0.027553 0.765580
vt 0.059472 0.671275
vt 0.037334 0.715866
vt 0.103366 0.613329
s 1
g off
g defaultMaterial.002_standardSurface1
usemtl standardSurface1
f 4/1/1 1/2/2 2/3/3
f 2/3/3 3/4/4 4/1/1
f 8/5/5 5/6/6 6/7/7
f 6/7/7 7/8/8 8/5/5
f 10/9/9 8/5/5 7/8/8
f 7/8/8 9/10/10 10/9/9
f 6/7/7 11/11/11 9/10/10
f 9/10/10 7/8/8 6/7/7
f 8/5/5 10/9/9 12/12/12
f 12/12/12 5/6/6 8/5/5
f 14/13/13 11/11/11 6/7/7
f 6/7/7 13/14/14 14/13/13
f 13/14/14 6/7/7 5/6/6
f 5/6/6 15/15/15 13/14/14
f 15/15/15 5/6/6 12/12/12
f 12/12/12 16/16/16 15/15/15
f 2/3/3 14/13/13 13/14/14
f 13/14/14 3/4/4 2/3/3
f 3/4/4 13/14/14 15/15/15
f 15/15/15 4/1/1 3/4/4
f 4/1/1 15/15/15 16/16/16
f 16/16/16 1/2/2 4/1/1
s 2
f 20/17/17 17/18/18 18/19/19
f 18/19/19 19/20/20 20/17/17
f 22/21/21 20/17/17 19/20/20
f 19/20/20 21/22/22 22/21/21
f 26/23/23 23/24/24 24/25/25
f 24/25/25 25/26/26 26/23/23
f 30/27/27 27/28/28 28/29/29
f 28/29/29 29/30/30 30/27/27
f 20/17/17 22/21/21 31/31/31
f 31/31/31 17/18/18 20/17/17
f 33/32/32 25/26/26 24/25/25
f 24/25/25 32/33/33 33/32/32
f 35/34/34 34/35/35 21/22/22
f 21/22/22 19/20/20 35/34/34
f 35/34/34 19/20/20 18/19/19
f 18/19/19 36/36/36 35/34/34
f 38/37/37 33/32/32 32/33/33
f 32/33/33 37/38/38 38/37/37
f 30/27/27 29/30/30 34/35/35
f 34/35/35 35/34/34 30/27/27
f 30/27/27 35/34/34 36/36/36
f 36/36/36 27/28/28 30/27/27
f 23/24/24 26/23/23 31/31/31
f 31/31/31 22/21/21 23/24/24
f 37/38/38 29/30/30 28/29/29
f 28/29/29 38/37/37 37/38/38
f 37/38/38 32/33/33 34/35/35
f 34/35/35 29/30/30 37/38/38
f 32/33/33 24/25/25 21/22/22
f 21/22/22 34/35/35 32/33/33
f 23/24/24 22/21/21 21/22/22
f 21/22/22 24/25/25 23/24/24
s 3
f 42/39/39 39/40/40 40/41/41
f 40/41/41 41/42/42 42/39/39
f 46/43/43 43/44/44 44/45/45
f 44/45/45 45/46/46 46/43/43
f 47/47/47 48/48/48 49/49/49
f 53/50/50 50/51/51 51/52/52
f 51/52/52 52/53/53 53/50/50
f 55/54/54 45/46/46 44/45/45
f 44/45/45 54/55/55 55/54/54
f 50/51/51 53/50/50 56/56/56
f 56/56/56 57/57/57 50/51/51
f 42/39/39 53/50/50 52/53/53
f 52/53/53 58/58/58 42/39/39
f 60/59/59 55/54/54 54/55/55
f 54/55/55 59/60/60 60/59/59
f 53/50/50 42/39/39 41/42/42
f 41/42/42 56/56/56 53/50/50
f 62/61/61 61/62/62 43/44/44
f 43/44/44 46/43/43 62/61/61
f 45/46/46 51/52/52 62/61/61
f 62/61/61 46/43/43 45/46/46
f 55/54/54 52/53/53 51/52/52
f 51/52/52 45/46/46 55/54/54
f 55/54/54 60/59/59 58/58/58
f 58/58/58 52/53/53 55/54/54
f 39/40/40 60/59/59 59/60/60
f 59/60/60 40/41/41 39/40/40
f 39/40/40 58/58/58 60/59/59
f 42/39/39 58/58/58 39/40/40
f 48/48/48 63/63/63 64/64/64
f 64/64/64 49/49/49 48/48/48
f 47/47/47 51/52/52 50/51/51
f 47/47/47 50/51/51 57/57/57
f 57/57/57 65/65/65 47/47/47
f 62/61/61 49/49/49 64/64/64
f 64/64/64 61/62/62 62/61/61
f 48/48/48 47/47/47 65/65/65
f 65/65/65 63/63/63 48/48/48
f 51/52/52 49/49/49 62/61/61
f 47/47/47 49/49/49 51/52/52
