# Blender 5.0.1
# www.blender.org
mtllib Roca.mtl
g Roca_Malla
v 2.801738 -2.175789 -3.002319
v -2.286894 -1.980981 -2.711975
v 2.976231 -2.429075 2.125896
v -3.789030 -1.224036 2.184136
v 1.654020 2.455230 -2.369420
v -2.527504 1.651329 -2.767452
v 2.102556 2.777165 1.386739
v -2.846581 1.724866 2.731791
v 0.000000 -2.459948 -0.000000
v 0.000000 4.970084 0.000000
v -0.366787 -0.392175 -3.993066
v -4.909897 0.564406 0.000000
v 0.000000 0.604269 4.334580
v 5.144752 -0.299404 0.200415
v 3.666696 -2.040144 -0.059065
v 0.000000 -1.608860 2.799218
v -3.595360 -2.819409 -0.000000
v -0.333283 -2.465706 -2.983006
v -0.531611 2.503518 -1.984199
v -3.573493 2.010621 -0.039755
v 0.000000 3.360979 3.054981
v 3.633125 2.828638 0.097554
v -3.080144 -0.204990 -3.245047
v 3.648490 -0.517425 -3.356570
v -4.057175 0.510939 2.758713
v 3.328011 0.134286 2.906742
v 1.821985 -2.736760 -1.443327
v 1.866015 -2.452488 1.382296
v -1.892309 -2.966854 1.399833
v -1.794616 -2.091787 -1.427892
v 1.845480 3.387589 -1.276357
v -1.755647 3.502632 -1.527734
v -1.824366 3.462025 1.914277
v 1.702030 4.261395 1.357311
v 1.647101 -1.329164 -3.770353
v -1.707255 -1.335707 -3.635769
v -1.784758 1.101228 -3.395506
v -0.331706 0.753603 -3.451716
v -3.927620 -1.335005 -1.722565
v -4.672809 -0.578720 1.399833
v -4.284575 1.421555 1.399833
v -4.151848 1.333507 -1.602521
v -2.431556 -0.528444 3.277919
v 1.862321 -0.942398 3.405227
v 1.665338 1.715579 3.054104
v -1.831654 1.494125 3.933320
v 4.499315 -1.823908 1.233438
v 4.534015 -1.985470 -1.421758
v 4.603361 0.703787 -0.938581
v 3.681594 1.674187 1.042378
v 3.342446 -2.258422 -1.693292
v 1.962014 -2.530671 -0.000754
v -0.012658 -2.409072 -1.512594
v 1.588494 -2.288557 -2.878993
v 1.745346 -2.081098 2.545826
v 0.000000 -2.377199 1.504076
v 3.492151 -2.573355 1.199256
v -3.978169 -2.117452 1.295590
v -1.960224 -2.908905 -0.000000
v -2.082363 -1.932053 2.568842
v -1.625092 -1.877549 -2.769760
v -3.055772 -2.277818 -1.571126
v 0.092763 2.079889 -2.921709
v -0.226477 4.324501 -1.102508
v 2.072659 3.977222 0.044299
v 3.522792 2.230741 -1.008877
v -3.132029 1.956795 -1.688064
v -1.954432 4.182836 -0.006825
v -1.717971 2.000626 -2.539311
v -1.688509 2.511503 3.563778
v 0.000000 4.806399 1.516037
v -3.347907 2.021097 1.451806
v 2.825080 2.922513 0.905608
v 1.541256 3.294059 2.322323
v -0.568232 -2.120620 -3.896882
v -0.211207 -0.409898 -3.511009
v 3.287226 -1.513755 -3.677276
v -2.589739 -1.598524 -3.283933
v -1.816865 0.126429 -3.737447
v -0.881839 1.097864 -3.336660
v -2.997879 0.969480 -3.080741
v 2.943728 0.947800 -2.769817
v -4.578566 -1.122207 0.000000
v -4.396015 0.307910 -1.683054
v -4.168926 -0.407965 2.568842
v -4.704312 0.604270 1.504076
v -4.580324 1.368651 0.000000
v -3.648761 1.220072 2.653604
v 0.000000 -0.570853 3.889503
v -2.333647 0.485611 3.618325
v 3.508302 -1.699567 2.637438
v 1.941946 0.518813 3.659665
v 0.000000 1.804301 4.010492
v 2.385382 1.717493 1.643846
v 4.809511 -1.514940 0.090156
v 4.481276 0.133308 1.639148
v 5.142561 -1.632288 -0.837480
v 4.494972 1.588694 0.120427
vn 0.2609 -0.8473 -0.4626
vn 0.0658 -0.9952 -0.0718
vn 0.0239 -0.8722 -0.4885
vn 0.0815 -0.9960 0.0370
vn 0.2994 -0.9470 -0.1165
vn 0.3559 -0.9326 -0.0598
vn 0.0281 -0.9990 -0.0349
vn -0.1569 -0.9863 -0.0511
vn -0.1108 -0.9768 -0.1835
vn 0.1737 -0.8656 0.4697
vn -0.0660 -0.9853 0.1576
vn 0.3538 -0.9339 0.0507
vn 0.0697 -0.9489 0.3077
vn -0.0369 -0.7932 0.6078
vn -0.0518 -0.7523 0.6567
vn -0.6695 -0.6352 0.3850
vn -0.1474 -0.6441 0.7506
vn -0.5450 -0.5243 0.6543
vn -0.5102 -0.8545 -0.0970
vn -0.0032 -0.9340 0.3574
vn 0.0993 -0.9657 -0.2399
vn -0.1101 -0.9199 -0.3765
vn 0.0552 -0.9588 -0.2786
vn -0.2995 -0.8426 -0.4477
vn -0.1862 -0.9398 -0.2865
vn 0.2719 0.6195 -0.7364
vn 0.3561 0.7283 -0.5855
vn 0.6464 0.5844 -0.4905
vn -0.0387 0.6433 -0.7647
vn -0.0878 0.6229 -0.7774
vn 0.5556 0.8118 -0.1797
vn 0.0072 0.7404 -0.6721
vn 0.0281 0.9757 -0.2174
vn 0.7200 0.6903 0.0714
vn -0.5553 0.7220 -0.4127
vn -0.1072 0.6787 -0.7266
vn -0.3354 0.7209 -0.6065
vn -0.6570 0.7513 -0.0628
vn -0.3760 0.6601 -0.6503
vn -0.6006 0.7955 -0.0797
vn -0.5966 0.6434 0.4797
vn -0.5529 0.7170 0.4244
vn -0.6420 0.7186 0.2672
vn 0.0912 0.6558 0.7494
vn -0.4001 0.5725 0.7157
vn -0.0501 0.9073 0.4175
vn 0.7074 0.2686 0.6537
vn 0.5757 0.7263 0.3755
vn 0.6322 0.4542 0.6277
vn 0.5883 0.5060 0.6307
vn 0.0609 -0.1649 -0.9844
vn 0.4112 -0.3404 -0.8456
vn 0.5714 0.1401 -0.8086
vn -0.1073 -0.6080 -0.7866
vn 0.5052 0.0782 -0.8595
vn 0.5731 0.2433 -0.7826
vn -0.4092 -0.5783 -0.7058
vn -0.6033 -0.0387 -0.7966
vn -0.3200 -0.3905 -0.8632
vn -0.2094 0.1533 -0.9658
vn -0.0858 0.5020 -0.8606
vn -0.5219 0.3907 -0.7582
vn -0.0100 0.5082 -0.8612
vn 0.4143 0.4791 -0.7738
vn 0.1775 0.3034 -0.9362
vn -0.7812 -0.4299 -0.4527
vn -0.8819 0.0086 -0.4714
vn -0.9293 -0.3506 -0.1164
vn -0.9899 0.1096 -0.0902
vn -0.9295 -0.2575 0.2641
vn -0.9286 0.2162 0.3014
vn -0.6775 -0.2936 0.6744
vn -0.6708 0.1684 0.7222
vn -0.5801 0.5556 0.5956
vn -0.7010 0.6629 0.2630
vn -0.7789 0.6252 -0.0497
vn -0.7249 0.5521 -0.4121
vn -0.2952 -0.3989 0.8682
vn -0.4043 -0.1349 0.9046
vn -0.0244 -0.5085 0.8607
vn 0.0578 -0.0700 0.9959
vn 0.5153 -0.4216 0.7461
vn 0.5981 0.2442 0.7633
vn 0.1987 -0.3949 0.8970
vn 0.4304 0.1422 0.8914
vn 0.5963 0.4863 0.6387
vn 0.5990 0.5205 0.6085
vn 0.1801 0.3972 0.8999
vn -0.3906 0.1883 0.9011
vn 0.7878 -0.5521 0.2730
vn 0.9885 0.0912 0.1204
vn 0.7488 -0.6345 0.1915
vn 0.8105 0.2266 0.5401
vn 0.5678 -0.7816 -0.2583
vn 0.8719 -0.4813 -0.0905
vn 0.8554 0.5098 0.0913
vn 0.8491 0.3654 -0.3814
vn 0.5639 0.5368 0.6276
vt 0.810825 0.049339
vt 0.832255 0.135979
vt 0.773392 0.094608
vt 0.888081 0.177505
vt 0.874508 0.072415
vt 0.944875 0.113059
vt 0.823314 0.244604
vt 0.767866 0.196586
vt 0.706536 0.159012
vt 0.866575 0.530134
vt 0.834174 0.582289
vt 0.823968 0.507260
vt 0.843514 0.669692
vt 0.893531 0.587170
vt 0.918051 0.671285
vt 0.768344 0.671073
vt 0.767326 0.577820
vt 0.762496 0.492056
vt 0.841848 0.859754
vt 0.900133 0.771828
vt 0.900176 0.864302
vt 0.780312 0.834821
vt 0.832500 0.758487
vt 0.772603 0.763599
vt 0.646614 0.244939
vt 0.709211 0.260057
vt 0.668510 0.308166
vt 0.663544 0.214572
vt 0.761364 0.313462
vt 0.716832 0.369577
vt 0.526816 0.494195
vt 0.451147 0.504309
vt 0.442082 0.411455
vt 0.513732 0.614643
vt 0.560779 0.573968
vt 0.382309 0.499620
vt 0.427755 0.605011
vt 0.383770 0.596999
vt 0.377319 0.419490
vt 0.496040 0.772313
vt 0.541417 0.681930
vt 0.552242 0.725626
vt 0.400594 0.798921
vt 0.462025 0.679173
vt 0.390147 0.682657
vt 0.237376 0.775363
vt 0.299421 0.695779
vt 0.315481 0.791033
vt 0.247455 0.609870
vt 0.213573 0.697300
vt 0.331552 0.600459
vt 0.277017 0.466035
vt 0.325947 0.525599
vt 0.264831 0.527037
vt 0.323659 0.446714
vt 0.733807 0.045923
vt 0.800903 0.000275
vt 0.677418 0.613831
vt 0.758474 0.652225
vt 0.680764 0.629867
vt 0.703047 0.429855
vt 0.736877 0.536010
vt 0.611817 0.238275
vt 0.638793 0.759957
vt 0.711098 0.706768
vt 0.709052 0.760058
vt 0.642418 0.693499
vt 0.664850 0.137199
vt 0.596487 0.684482
vt 0.585520 0.745973
vt 0.601535 0.636684
vt 0.619526 0.448055
vt 0.622023 0.611444
vt 0.616284 0.342494
vt 0.476060 0.899173
vt 0.388753 0.968949
vt 0.392009 0.888120
vt 0.666488 0.853096
vt 0.583118 0.844222
vt 0.870393 0.932723
vt 0.320117 0.881412
vt 0.257582 0.919832
vt 0.252906 0.872977
vt 0.318964 0.937502
vt 0.783144 0.923355
vt 0.254808 0.829116
vt 0.323940 0.839446
vt 0.395503 0.849990
vt 0.476600 0.842053
vt 0.969792 0.798859
vt 0.935574 0.894578
vt 0.134347 0.743600
vt 0.063575 0.632256
vt 0.120046 0.626056
vt 0.166107 0.832416
vt 0.087866 0.762358
vt 0.903504 0.498560
vt 0.099267 0.453000
vt 0.044468 0.530551
vt 0.009162 0.440937
vt 0.116143 0.528147
vt 0.961740 0.579546
vt 0.990576 0.673151
vt 0.182231 0.525884
vt 0.211344 0.454239
vt 0.171336 0.619599
vt 0.170542 0.709951
vt 0.206900 0.811447
vt 0.829358 0.449329
vt 0.395799 0.268632
vt 0.341762 0.194955
vt 0.403314 0.212590
vt 0.257068 0.201948
vt 0.321633 0.287810
vt 0.241354 0.292808
vt 0.572946 0.295802
vt 0.481736 0.191745
vt 0.603821 0.250214
vt 0.451460 0.212593
vt 0.923062 0.037468
vt 0.992782 0.074270
vt 0.545803 0.381985
vt 0.384979 0.357582
vt 0.442089 0.324830
vt 0.264394 0.403359
vt 0.327401 0.374507
vt 0.752247 0.455453
vt 0.620483 0.190039
vt 0.656670 0.434591
vt 0.479189 0.983680
vt 0.532787 0.821998
vt 0.122208 0.851025
vt 0.769358 0.430798
s 1
g off
g Roca_Material.001
usemtl Material.001
f 1/1/1 27/2/2 54/3/3
f 52/4/4 51/5/5 15/6/6
f 9/7/7 27/2/2 52/4/4
f 54/3/3 53/8/8 18/9/9
f 3/10/10 28/11/11 57/12/12
f 56/13/13 55/14/14 16/15/15
f 9/16/7 28/11/11 56/13/13
f 57/12/12 52/17/4 15/18/6
f 58/19/16 60/20/17 4/21/18
f 17/22/19 29/23/20 58/19/16
f 9/16/7 29/23/20 59/24/21
f 60/20/17 56/13/13 16/15/15
f 2/25/22 30/26/23 62/27/24
f 53/8/8 61/28/25 18/9/9
f 9/7/7 30/26/23 53/8/8
f 62/27/24 59/29/21 17/30/19
f 5/31/26 31/32/27 66/33/28
f 19/34/29 31/32/27 63/35/30
f 65/36/31 64/37/32 10/38/33
f 22/39/34 31/32/27 65/36/31
f 67/40/35 69/41/36 6/42/37
f 20/43/38 32/44/39 67/40/35
f 64/37/32 68/45/40 10/38/33
f 19/34/29 32/44/39 64/37/32
f 8/46/41 33/47/42 72/48/43
f 21/49/44 33/47/42 70/50/45
f 68/45/40 71/51/46 10/38/33
f 72/48/43 68/45/40 20/43/38
f 7/52/47 34/53/48 74/54/49
f 65/36/31 73/55/50 22/39/34
f 10/38/33 34/53/48 65/36/31
f 74/54/49 71/51/46 21/49/44
f 1/1/1 35/56/51 77/57/52
f 18/9/9 35/56/51 54/3/3
f 76/58/53 75/59/54 11/60/55
f 24/61/56 35/62/51 76/58/53
f 78/63/57 61/28/25 2/25/22
f 23/64/58 36/65/59 78/66/57
f 11/60/55 36/65/59 79/67/60
f 61/28/25 75/68/54 18/9/9
f 6/42/37 37/69/61 81/70/62
f 80/71/63 69/41/36 19/34/29
f 79/67/60 80/71/63 11/60/55
f 81/70/62 79/67/60 23/64/58
f 82/72/64 63/35/30 5/31/26
f 76/58/53 82/72/64 24/61/56
f 11/60/55 38/73/65 76/58/53
f 63/35/30 80/71/63 19/34/29
f 2/25/22 39/74/66 78/63/57
f 17/30/19 39/74/66 62/27/24
f 84/75/67 83/76/68 12/77/69
f 23/64/58 39/78/66 84/79/67
f 4/21/18 40/80/70 58/19/16
f 86/81/71 85/82/72 25/83/73
f 12/77/69 40/84/70 86/81/71
f 58/19/16 83/85/68 17/22/19
f 72/48/43 88/86/74 8/46/41
f 20/43/38 41/87/75 72/48/43
f 86/81/71 87/88/76 12/77/69
f 25/83/73 41/87/75 86/81/71
f 81/70/62 67/40/35 6/42/37
f 84/79/67 81/70/62 23/64/58
f 12/77/69 42/89/77 84/75/67
f 20/43/38 42/89/77 87/88/76
f 4/21/18 43/90/78 85/91/72
f 16/15/15 43/90/78 60/20/17
f 90/92/79 89/93/80 13/94/81
f 25/95/73 43/96/78 90/92/79
f 91/97/82 55/14/14 3/10/10
f 26/98/83 44/99/84 91/100/82
f 89/93/80 92/101/85 13/94/81
f 16/15/15 44/102/84 89/103/80
f 7/52/47 45/104/86 94/105/87
f 21/49/44 45/104/86 74/54/49
f 92/101/85 93/106/88 13/94/81
f 26/98/83 45/104/86 92/101/85
f 8/46/41 46/107/89 70/50/45
f 90/92/79 88/108/74 25/95/73
f 13/94/81 46/107/89 90/92/79
f 70/50/45 93/106/88 21/49/44
f 57/12/12 91/97/82 3/10/10
f 15/18/6 47/109/90 57/12/12
f 14/110/91 47/111/90 95/112/92
f 91/113/82 96/114/93 26/115/83
f 77/57/52 51/5/5 1/1/1
f 24/116/56 48/117/94 77/118/52
f 95/112/92 97/119/95 14/110/91
f 15/6/6 48/120/94 95/121/92
f 66/33/28 82/122/64 5/31/26
f 98/123/96 66/33/28 22/39/34
f 14/110/91 49/124/97 98/123/96
f 24/116/56 49/124/97 97/119/95
f 94/125/87 73/55/50 7/52/47
f 26/115/83 50/126/98 94/125/87
f 98/123/96 96/114/93 14/110/91
f 22/39/34 50/126/98 98/123/96
f 1/1/1 51/5/5 27/2/2
f 52/4/4 27/2/2 51/5/5
f 9/7/7 53/8/8 27/2/2
f 54/3/3 27/2/2 53/8/8
f 3/10/10 55/14/14 28/11/11
f 56/13/13 28/11/11 55/14/14
f 9/16/7 52/17/4 28/11/11
f 57/12/12 28/11/11 52/17/4
f 58/19/16 29/23/20 60/20/17
f 17/22/19 59/24/21 29/23/20
f 9/16/7 56/13/13 29/23/20
f 60/20/17 29/23/20 56/13/13
f 2/25/22 61/28/25 30/26/23
f 53/8/8 30/26/23 61/28/25
f 9/7/7 59/29/21 30/26/23
f 62/27/24 30/26/23 59/29/21
f 5/31/26 63/35/30 31/32/27
f 19/34/29 64/37/32 31/32/27
f 65/36/31 31/32/27 64/37/32
f 22/39/34 66/33/28 31/32/27
f 67/40/35 32/44/39 69/41/36
f 20/43/38 68/45/40 32/44/39
f 64/37/32 32/44/39 68/45/40
f 19/34/29 69/41/36 32/44/39
f 8/46/41 70/50/45 33/47/42
f 21/49/44 71/51/46 33/47/42
f 68/45/40 33/47/42 71/51/46
f 72/48/43 33/47/42 68/45/40
f 7/52/47 73/55/50 34/53/48
f 65/36/31 34/53/48 73/55/50
f 10/38/33 71/51/46 34/53/48
f 74/54/49 34/53/48 71/51/46
f 1/1/1 54/3/3 35/56/51
f 18/9/9 75/68/54 35/56/51
f 76/58/53 35/62/51 75/59/54
f 24/61/56 77/127/52 35/62/51
f 78/63/57 36/128/59 61/28/25
f 23/64/58 79/67/60 36/65/59
f 11/60/55 75/59/54 36/65/59
f 61/28/25 36/128/59 75/68/54
f 6/42/37 69/41/36 37/69/61
f 80/71/63 37/69/61 69/41/36
f 79/67/60 37/69/61 80/71/63
f 81/70/62 37/69/61 79/67/60
f 82/72/64 38/73/65 63/35/30
f 76/58/53 38/73/65 82/72/64
f 11/60/55 80/71/63 38/73/65
f 63/35/30 38/73/65 80/71/63
f 2/25/22 62/27/24 39/74/66
f 17/30/19 83/129/68 39/74/66
f 84/75/67 39/130/66 83/76/68
f 23/64/58 78/66/57 39/78/66
f 4/21/18 85/91/72 40/80/70
f 86/81/71 40/84/70 85/82/72
f 12/77/69 83/76/68 40/84/70
f 58/19/16 40/80/70 83/85/68
f 72/48/43 41/87/75 88/86/74
f 20/43/38 87/88/76 41/87/75
f 86/81/71 41/87/75 87/88/76
f 25/83/73 88/86/74 41/87/75
f 81/70/62 42/131/77 67/40/35
f 84/79/67 42/131/77 81/70/62
f 12/77/69 87/88/76 42/89/77
f 20/43/38 67/40/35 42/89/77
f 4/21/18 60/20/17 43/90/78
f 16/15/15 89/103/80 43/90/78
f 90/92/79 43/96/78 89/93/80
f 25/95/73 85/132/72 43/96/78
f 91/97/82 44/102/84 55/14/14
f 26/98/83 92/101/85 44/99/84
f 89/93/80 44/99/84 92/101/85
f 16/15/15 55/14/14 44/102/84
f 7/52/47 74/54/49 45/104/86
f 21/49/44 93/106/88 45/104/86
f 92/101/85 45/104/86 93/106/88
f 26/98/83 94/105/87 45/104/86
f 8/46/41 88/108/74 46/107/89
f 90/92/79 46/107/89 88/108/74
f 13/94/81 93/106/88 46/107/89
f 70/50/45 46/107/89 93/106/88
f 57/12/12 47/109/90 91/97/82
f 15/18/6 95/133/92 47/109/90
f 14/110/91 96/114/93 47/111/90
f 91/113/82 47/111/90 96/114/93
f 77/57/52 48/120/94 51/5/5
f 24/116/56 97/119/95 48/117/94
f 95/112/92 48/117/94 97/119/95
f 15/6/6 51/5/5 48/120/94
f 66/33/28 49/124/97 82/122/64
f 98/123/96 49/124/97 66/33/28
f 14/110/91 97/119/95 49/124/97
f 24/116/56 82/122/64 49/124/97
f 94/125/87 50/126/98 73/55/50
f 26/115/83 96/114/93 50/126/98
f 98/123/96 50/126/98 96/114/93
f 22/39/34 73/55/50 50/126/98
