# Blender 5.0.1
# www.blender.org
mtllib Star-Mario64.mtl
o node_id194
v 0.484915 -0.529894 -0.010606
v 0.006181 -0.363334 0.000817
v -0.004811 -0.024761 -0.217323
v 0.366973 -0.142939 -0.002695
v 0.003637 -0.031237 0.231600
v 0.638341 0.171150 -0.003100
v -0.462909 -0.549226 0.006834
v -0.360731 -0.157785 0.010705
v -0.644566 0.144959 0.020452
v 0.234976 0.199641 0.004855
v -0.012406 0.554573 0.014712
v -0.242678 0.189906 0.013620
vn 0.6803 -0.7325 -0.0244
vn 0.0211 -0.9996 -0.0179
vn -0.0201 0.0363 -0.9991
vn 0.9862 -0.1640 -0.0244
vn 0.0173 0.0069 0.9998
vn 0.9294 0.3689 -0.0132
vn -0.6491 -0.7607 0.0001
vn -0.9790 -0.2035 0.0120
vn -0.9435 0.3308 0.0212
vn 0.4093 0.9124 0.0021
vn -0.0219 0.9997 0.0135
vn -0.4499 0.8929 0.0179
vt 0.846500 -0.861000
vt 0.516100 -0.995900
vt 0.366700 -0.451700
vt 0.998100 -0.584400
vt 0.665500 -0.459200
vt 0.920400 -0.194400
vt 0.181800 -0.862600
vt 0.034100 -0.586600
vt 0.108000 -0.196300
vt 0.753300 -0.032200
vt 0.516100 0.028200
vt 0.279000 -0.033300
s 1
usemtl 313
f 1/1/1 2/2/2 3/3/3
f 4/4/4 1/1/1 3/3/3
f 1/1/1 5/5/5 2/2/2
f 4/4/4 5/5/5 1/1/1
f 4/4/4 3/3/3 6/6/6
f 4/4/4 6/6/6 5/5/5
f 7/7/7 5/5/5 8/8/8
f 2/2/2 5/5/5 7/7/7
f 8/8/8 5/5/5 9/9/9
f 5/5/5 10/10/10 11/11/11
f 12/12/12 5/5/5 11/11/11
f 6/6/6 10/10/10 5/5/5
f 9/9/9 5/5/5 12/12/12
f 2/2/2 7/7/7 3/3/3
f 7/7/7 8/8/8 3/3/3
f 8/8/8 9/9/9 3/3/3
f 9/9/9 12/12/12 3/3/3
f 12/12/12 11/11/11 3/3/3
f 6/6/6 3/3/3 10/10/10
f 3/3/3 11/11/11 10/10/10
o node_id197
v 0.005638 -0.117161 0.245350
v 0.172682 -0.118135 0.209592
v 0.166047 0.164072 0.163674
v -0.001041 0.167514 0.199491
v -0.159919 -0.124948 0.215687
v 0.005638 -0.117161 0.245350
v -0.001041 0.167514 0.199491
v -0.166554 0.157298 0.169810
vn 0.0139 0.1599 0.9870
vn 0.2075 0.1619 0.9648
vn 0.2092 0.1608 0.9646
vn -0.1820 0.1527 0.9714
vn 0.0138 0.1599 0.9870
vn -0.1836 0.1535 0.9709
vt 0.000000 0.933600
vt 0.966800 0.933600
vt 0.966800 0.036800
vt 0.000000 0.036800
s 1
usemtl 314
f 13/13/13 14/14/14 15/15/15
f 16/16/13 13/13/13 15/15/15
f 17/13/16 18/14/17 19/15/17
f 20/16/18 17/13/16 19/15/17
