# Blender 5.0.1
# www.blender.org
mtllib ViasTren.mtl
g Pirámide_9_Malla
v -15.431324 -1.442255 0.548942
v -14.999710 -0.838608 1.547942
v -14.999710 -0.838608 1.549942
v -15.431324 -1.442255 2.548942
v -14.567232 -1.442255 2.548942
v -14.998846 -0.838608 1.549942
v -14.998846 -0.838608 1.547942
v -14.567232 -1.442255 0.548942
v -15.431324 -1.442255 2.548942
v -14.999710 -0.838608 1.549942
v -14.998846 -0.838608 1.549942
v -14.567232 -1.442255 2.548942
v -14.567232 -1.442255 0.548942
v -14.998846 -0.838608 1.547942
v -14.999710 -0.838608 1.547942
v -15.431324 -1.442255 0.548942
v -14.998846 -0.838608 1.549942
v -14.999710 -0.838608 1.549942
v -14.999710 -0.838608 1.547942
v -14.998846 -0.838608 1.547942
v -14.567232 -1.442255 0.548942
v -15.431324 -1.442255 0.548942
v -15.431324 -1.442255 2.548942
v -14.567232 -1.442255 2.548942
v 31.135679 -1.132504 -1.763366
v 31.135679 -0.721484 -1.763366
v 31.135679 -0.721484 -2.011450
v 31.135679 -1.132504 -2.011450
v -32.144459 -1.132499 -2.011447
v -32.144459 -0.721479 -2.011447
v -32.144459 -0.721479 -1.763363
v -32.144459 -1.132499 -1.763363
v -32.144459 -1.132499 -1.763363
v -32.144459 -0.721479 -1.763363
v 31.135679 -0.721484 -1.763366
v 31.135679 -1.132504 -1.763366
v 31.135679 -1.132504 -2.011450
v 31.135679 -0.721484 -2.011450
v -32.144459 -0.721479 -2.011447
v -32.144459 -1.132499 -2.011447
v 31.135679 -0.721484 -1.763366
v -32.144459 -0.721479 -1.763363
v -32.144459 -0.721479 -2.011447
v 31.135679 -0.721484 -2.011450
v 31.135679 -1.132504 -2.011450
v -32.144459 -1.132499 -2.011447
v -32.144459 -1.132499 -1.763363
v 31.135679 -1.132504 -1.763366
v 31.338039 -1.322816 -1.633220
v 31.338039 -1.112821 -1.633220
v 31.338039 -1.112821 -2.072442
v 31.338039 -1.322816 -2.072442
v -32.346821 -1.322811 -2.072439
v -32.346821 -1.112816 -2.072439
v -32.346821 -1.112816 -1.633217
v -32.346821 -1.322811 -1.633217
v -32.346821 -1.322811 -1.633217
v -32.346821 -1.112816 -1.633217
v 31.338039 -1.112821 -1.633220
v 31.338039 -1.322816 -1.633220
v 31.338039 -1.322816 -2.072442
v 31.338039 -1.112821 -2.072442
v -32.346821 -1.112816 -2.072439
v -32.346821 -1.322811 -2.072439
v 31.338039 -1.112821 -1.633220
v -32.346821 -1.112816 -1.633217
v -32.346821 -1.112816 -2.072439
v 31.338039 -1.112821 -2.072442
v 31.338039 -1.322816 -2.072442
v -32.346821 -1.322811 -2.072439
v -32.346821 -1.322811 -1.633217
v 31.338039 -1.322816 -1.633220
v 31.338940 -0.831662 -1.633220
v 31.338940 -0.650769 -1.633220
v 31.338940 -0.650769 -2.072442
v 31.338940 -0.831662 -2.072442
v -32.347721 -0.831657 -2.072439
v -32.347721 -0.650764 -2.072439
v -32.347721 -0.650764 -1.633217
v -32.347721 -0.831657 -1.633217
v -32.347721 -0.831657 -1.633217
v -32.347721 -0.650764 -1.633217
v 31.338940 -0.650769 -1.633220
v 31.338940 -0.831662 -1.633220
v 31.338940 -0.831662 -2.072442
v 31.338940 -0.650769 -2.072442
v -32.347721 -0.650764 -2.072439
v -32.347721 -0.831657 -2.072439
v 31.338940 -0.650769 -1.633220
v -32.347721 -0.650764 -1.633217
v -32.347721 -0.650764 -2.072439
v 31.338940 -0.650769 -2.072442
v 31.338940 -0.831662 -2.072442
v -32.347721 -0.831657 -2.072439
v -32.347721 -0.831657 -1.633217
v 31.338940 -0.831662 -1.633220
v 31.338940 -0.831662 1.751760
v 31.338940 -0.650769 1.751760
v 31.338940 -0.650769 1.312538
v 31.338940 -0.831662 1.312538
v -32.347721 -0.831657 1.312541
v -32.347721 -0.650764 1.312541
v -32.347721 -0.650764 1.751763
v -32.347721 -0.831657 1.751763
v -32.347721 -0.831657 1.751763
v -32.347721 -0.650764 1.751763
v 31.338940 -0.650769 1.751760
v 31.338940 -0.831662 1.751760
v 31.338940 -0.831662 1.312538
v 31.338940 -0.650769 1.312538
v -32.347721 -0.650764 1.312541
v -32.347721 -0.831657 1.312541
v 31.338940 -0.650769 1.751760
v -32.347721 -0.650764 1.751763
v -32.347721 -0.650764 1.312541
v 31.338940 -0.650769 1.312538
v 31.338940 -0.831662 1.312538
v -32.347721 -0.831657 1.312541
v -32.347721 -0.831657 1.751763
v 31.338940 -0.831662 1.751760
v 31.338039 -1.322816 1.751760
v 31.338039 -1.112821 1.751760
v 31.338039 -1.112821 1.312538
v 31.338039 -1.322816 1.312538
v -32.346821 -1.322811 1.312541
v -32.346821 -1.112816 1.312541
v -32.346821 -1.112816 1.751763
v -32.346821 -1.322811 1.751763
v -32.346821 -1.322811 1.751763
v -32.346821 -1.112816 1.751763
v 31.338039 -1.112821 1.751760
v 31.338039 -1.322816 1.751760
v 31.338039 -1.322816 1.312538
v 31.338039 -1.112821 1.312538
v -32.346821 -1.112816 1.312541
v -32.346821 -1.322811 1.312541
v 31.338039 -1.112821 1.751760
v -32.346821 -1.112816 1.751763
v -32.346821 -1.112816 1.312541
v 31.338039 -1.112821 1.312538
v 31.338039 -1.322816 1.312538
v -32.346821 -1.322811 1.312541
v -32.346821 -1.322811 1.751763
v 31.338039 -1.322816 1.751760
v 31.135679 -1.132504 1.621614
v 31.135679 -0.721483 1.621614
v 31.135679 -0.721483 1.373530
v 31.135679 -1.132504 1.373530
v -32.144459 -1.132499 1.373533
v -32.144459 -0.721479 1.373533
v -32.144459 -0.721479 1.621617
v -32.144459 -1.132499 1.621617
v -32.144459 -1.132499 1.621617
v -32.144459 -0.721479 1.621617
v 31.135679 -0.721483 1.621614
v 31.135679 -1.132504 1.621614
v 31.135679 -1.132504 1.373530
v 31.135679 -0.721483 1.373530
v -32.144459 -0.721479 1.373533
v -32.144459 -1.132499 1.373533
v 31.135679 -0.721483 1.621614
v -32.144459 -0.721479 1.621617
v -32.144459 -0.721479 1.373533
v 31.135679 -0.721483 1.373530
v 31.135679 -1.132504 1.373530
v -32.144459 -1.132499 1.373533
v -32.144459 -1.132499 1.621617
v 31.135679 -1.132504 1.621614
v 1.584797 -2.059590 2.794725
v 1.584797 -1.359832 2.794725
v 1.584797 -1.359832 -3.139697
v 1.584797 -2.059590 -3.139697
v 1.584797 -2.059590 2.794725
v 1.584797 -1.359832 -3.139697
v 0.220676 -2.059590 -3.139697
v 0.220676 -1.359832 -3.139697
v 0.220676 -1.359832 2.794725
v 0.220676 -2.059590 2.794725
v 0.220676 -2.059590 -3.139697
v 0.220676 -1.359832 2.794725
v 0.220676 -2.059590 2.794725
v 0.220676 -1.359832 2.794725
v 1.584797 -1.359832 2.794725
v 1.584797 -2.059590 2.794725
v 0.220676 -2.059590 2.794725
v 1.584797 -1.359832 2.794725
v 1.584797 -2.059590 -3.139697
v 1.584797 -1.359832 -3.139697
v 0.220676 -1.359832 -3.139697
v 0.220676 -2.059590 -3.139697
v 1.584797 -2.059590 -3.139697
v 0.220676 -1.359832 -3.139697
v 1.584797 -1.359832 2.794725
v 0.220676 -1.359832 2.794725
v 0.220676 -1.359832 -3.139697
v 1.584797 -1.359832 -3.139697
v 1.584797 -1.359832 2.794725
v 0.220676 -1.359832 -3.139697
v 1.584797 -2.059590 -3.139697
v 0.220676 -2.059590 -3.139697
v 0.220676 -2.059590 2.794725
v 1.584797 -2.059590 2.794725
v 1.584797 -2.059590 -3.139697
v 0.220676 -2.059590 2.794725
v -6.257602 -2.059590 2.794726
v -6.257602 -1.359832 2.794726
v -6.257602 -1.359832 -3.139696
v -6.257602 -2.059590 -3.139696
v -6.257602 -2.059590 2.794726
v -6.257602 -1.359832 -3.139696
v -7.621722 -2.059590 -3.139696
v -7.621722 -1.359832 -3.139696
v -7.621722 -1.359832 2.794726
v -7.621722 -2.059590 2.794726
v -7.621722 -2.059590 -3.139696
v -7.621722 -1.359832 2.794726
v -7.621722 -2.059590 2.794726
v -7.621722 -1.359832 2.794726
v -6.257602 -1.359832 2.794726
v -6.257602 -2.059590 2.794726
v -7.621722 -2.059590 2.794726
v -6.257602 -1.359832 2.794726
v -6.257602 -2.059590 -3.139696
v -6.257602 -1.359832 -3.139696
v -7.621722 -1.359832 -3.139696
v -7.621722 -2.059590 -3.139696
v -6.257602 -2.059590 -3.139696
v -7.621722 -1.359832 -3.139696
v -6.257602 -1.359832 2.794726
v -7.621722 -1.359832 2.794726
v -7.621722 -1.359832 -3.139696
v -6.257602 -1.359832 -3.139696
v -6.257602 -1.359832 2.794726
v -7.621722 -1.359832 -3.139696
v -6.257602 -2.059590 -3.139696
v -7.621722 -2.059590 -3.139696
v -7.621722 -2.059590 2.794726
v -6.257602 -2.059590 2.794726
v -6.257602 -2.059590 -3.139696
v -7.621722 -2.059590 2.794726
v -2.312826 -2.059590 2.794725
v -2.312825 -1.359832 2.794725
v -2.312824 -1.359832 -3.139697
v -2.312824 -2.059590 -3.139697
v -2.312826 -2.059590 2.794725
v -2.312824 -1.359832 -3.139697
v -3.676948 -2.059590 -3.139696
v -3.676948 -1.359832 -3.139696
v -3.676948 -1.359832 2.794726
v -3.676948 -2.059590 2.794726
v -3.676948 -2.059590 -3.139696
v -3.676948 -1.359832 2.794726
v -3.676948 -2.059590 2.794726
v -3.676948 -1.359832 2.794726
v -2.312825 -1.359832 2.794725
v -2.312826 -2.059590 2.794725
v -3.676948 -2.059590 2.794726
v -2.312825 -1.359832 2.794725
v -2.312824 -2.059590 -3.139697
v -2.312824 -1.359832 -3.139697
v -3.676948 -1.359832 -3.139696
v -3.676948 -2.059590 -3.139696
v -2.312824 -2.059590 -3.139697
v -3.676948 -1.359832 -3.139696
v -2.312825 -1.359832 2.794725
v -3.676948 -1.359832 2.794726
v -3.676948 -1.359832 -3.139696
v -2.312824 -1.359832 -3.139697
v -2.312825 -1.359832 2.794725
v -3.676948 -1.359832 -3.139696
v -2.312824 -2.059590 -3.139697
v -3.676948 -2.059590 -3.139696
v -3.676948 -2.059590 2.794726
v -2.312826 -2.059590 2.794725
v -2.312824 -2.059590 -3.139697
v -3.676948 -2.059590 2.794726
v -10.278340 -2.059590 2.794726
v -10.278340 -1.359832 2.794726
v -10.278340 -1.359832 -3.139696
v -10.278340 -2.059590 -3.139696
v -10.278340 -2.059590 2.794726
v -10.278340 -1.359832 -3.139696
v -11.642458 -2.059590 -3.139696
v -11.642458 -1.359832 -3.139696
v -11.642460 -1.359832 2.794726
v -11.642460 -2.059590 2.794726
v -11.642458 -2.059590 -3.139696
v -11.642460 -1.359832 2.794726
v -11.642460 -2.059590 2.794726
v -11.642460 -1.359832 2.794726
v -10.278340 -1.359832 2.794726
v -10.278340 -2.059590 2.794726
v -11.642460 -2.059590 2.794726
v -10.278340 -1.359832 2.794726
v -10.278340 -2.059590 -3.139696
v -10.278340 -1.359832 -3.139696
v -11.642458 -1.359832 -3.139696
v -11.642458 -2.059590 -3.139696
v -10.278340 -2.059590 -3.139696
v -11.642458 -1.359832 -3.139696
v -10.278340 -1.359832 2.794726
v -11.642460 -1.359832 2.794726
v -11.642458 -1.359832 -3.139696
v -10.278340 -1.359832 -3.139696
v -10.278340 -1.359832 2.794726
v -11.642458 -1.359832 -3.139696
v -10.278340 -2.059590 -3.139696
v -11.642458 -2.059590 -3.139696
v -11.642460 -2.059590 2.794726
v -10.278340 -2.059590 2.794726
v -10.278340 -2.059590 -3.139696
v -11.642460 -2.059590 2.794726
v -14.284398 -2.059591 2.794724
v -14.284398 -1.359832 2.794724
v -14.284398 -1.359832 -3.139696
v -14.284398 -2.059591 -3.139696
v -14.284398 -2.059591 2.794724
v -14.284398 -1.359832 -3.139696
v -15.648516 -2.059591 -3.139696
v -15.648516 -1.359832 -3.139696
v -15.648518 -1.359832 2.794724
v -15.648518 -2.059591 2.794724
v -15.648516 -2.059591 -3.139696
v -15.648518 -1.359832 2.794724
v -15.648518 -2.059591 2.794724
v -15.648518 -1.359832 2.794724
v -14.284398 -1.359832 2.794724
v -14.284398 -2.059591 2.794724
v -15.648518 -2.059591 2.794724
v -14.284398 -1.359832 2.794724
v -14.284398 -2.059591 -3.139696
v -14.284398 -1.359832 -3.139696
v -15.648516 -1.359832 -3.139696
v -15.648516 -2.059591 -3.139696
v -14.284398 -2.059591 -3.139696
v -15.648516 -1.359832 -3.139696
v -14.284398 -1.359832 2.794724
v -15.648518 -1.359832 2.794724
v -15.648516 -1.359832 -3.139696
v -14.284398 -1.359832 -3.139696
v -14.284398 -1.359832 2.794724
v -15.648516 -1.359832 -3.139696
v -14.284398 -2.059591 -3.139696
v -15.648516 -2.059591 -3.139696
v -15.648518 -2.059591 2.794724
v -14.284398 -2.059591 2.794724
v -14.284398 -2.059591 -3.139696
v -15.648518 -2.059591 2.794724
v -18.323809 -2.059591 2.794724
v -18.323809 -1.359832 2.794724
v -18.323809 -1.359832 -3.139698
v -18.323809 -2.059591 -3.139698
v -18.323809 -2.059591 2.794724
v -18.323809 -1.359832 -3.139698
v -19.687929 -2.059591 -3.139698
v -19.687929 -1.359832 -3.139698
v -19.687929 -1.359832 2.794724
v -19.687929 -2.059591 2.794724
v -19.687929 -2.059591 -3.139698
v -19.687929 -1.359832 2.794724
v -19.687929 -2.059591 2.794724
v -19.687929 -1.359832 2.794724
v -18.323809 -1.359832 2.794724
v -18.323809 -2.059591 2.794724
v -19.687929 -2.059591 2.794724
v -18.323809 -1.359832 2.794724
v -18.323809 -2.059591 -3.139698
v -18.323809 -1.359832 -3.139698
v -19.687929 -1.359832 -3.139698
v -19.687929 -2.059591 -3.139698
v -18.323809 -2.059591 -3.139698
v -19.687929 -1.359832 -3.139698
v -18.323809 -1.359832 2.794724
v -19.687929 -1.359832 2.794724
v -19.687929 -1.359832 -3.139698
v -18.323809 -1.359832 -3.139698
v -18.323809 -1.359832 2.794724
v -19.687929 -1.359832 -3.139698
v -18.323809 -2.059591 -3.139698
v -19.687929 -2.059591 -3.139698
v -19.687929 -2.059591 2.794724
v -18.323809 -2.059591 2.794724
v -18.323809 -2.059591 -3.139698
v -19.687929 -2.059591 2.794724
v -22.332781 -2.059591 2.794724
v -22.332781 -1.359833 2.794724
v -22.332781 -1.359833 -3.139698
v -22.332781 -2.059591 -3.139698
v -22.332781 -2.059591 2.794724
v -22.332781 -1.359833 -3.139698
v -23.696899 -2.059591 -3.139698
v -23.696899 -1.359833 -3.139698
v -23.696899 -1.359833 2.794724
v -23.696899 -2.059591 2.794724
v -23.696899 -2.059591 -3.139698
v -23.696899 -1.359833 2.794724
v -23.696899 -2.059591 2.794724
v -23.696899 -1.359833 2.794724
v -22.332781 -1.359833 2.794724
v -22.332781 -2.059591 2.794724
v -23.696899 -2.059591 2.794724
v -22.332781 -1.359833 2.794724
v -22.332781 -2.059591 -3.139698
v -22.332781 -1.359833 -3.139698
v -23.696899 -1.359833 -3.139698
v -23.696899 -2.059591 -3.139698
v -22.332781 -2.059591 -3.139698
v -23.696899 -1.359833 -3.139698
v -22.332781 -1.359833 2.794724
v -23.696899 -1.359833 2.794724
v -23.696899 -1.359833 -3.139698
v -22.332781 -1.359833 -3.139698
v -22.332781 -1.359833 2.794724
v -23.696899 -1.359833 -3.139698
v -22.332781 -2.059591 -3.139698
v -23.696899 -2.059591 -3.139698
v -23.696899 -2.059591 2.794724
v -22.332781 -2.059591 2.794724
v -22.332781 -2.059591 -3.139698
v -23.696899 -2.059591 2.794724
v -26.327120 -2.059591 2.794724
v -26.327120 -1.359833 2.794724
v -26.327120 -1.359833 -3.139697
v -26.327120 -2.059591 -3.139697
v -26.327120 -2.059591 2.794724
v -26.327120 -1.359833 -3.139697
v -27.691240 -2.059591 -3.139699
v -27.691240 -1.359833 -3.139699
v -27.691240 -1.359833 2.794724
v -27.691240 -2.059591 2.794724
v -27.691240 -2.059591 -3.139699
v -27.691240 -1.359833 2.794724
v -27.691240 -2.059591 2.794724
v -27.691240 -1.359833 2.794724
v -26.327120 -1.359833 2.794724
v -26.327120 -2.059591 2.794724
v -27.691240 -2.059591 2.794724
v -26.327120 -1.359833 2.794724
v -26.327120 -2.059591 -3.139697
v -26.327120 -1.359833 -3.139697
v -27.691240 -1.359833 -3.139699
v -27.691240 -2.059591 -3.139699
v -26.327120 -2.059591 -3.139697
v -27.691240 -1.359833 -3.139699
v -26.327120 -1.359833 2.794724
v -27.691240 -1.359833 2.794724
v -27.691240 -1.359833 -3.139699
v -26.327120 -1.359833 -3.139697
v -26.327120 -1.359833 2.794724
v -27.691240 -1.359833 -3.139699
v -26.327120 -2.059591 -3.139697
v -27.691240 -2.059591 -3.139699
v -27.691240 -2.059591 2.794724
v -26.327120 -2.059591 2.794724
v -26.327120 -2.059591 -3.139697
v -27.691240 -2.059591 2.794724
v -30.363600 -2.059591 2.794723
v -30.363600 -1.359833 2.794723
v -30.363600 -1.359833 -3.139699
v -30.363600 -2.059591 -3.139699
v -30.363600 -2.059591 2.794723
v -30.363600 -1.359833 -3.139699
v -31.727720 -2.059591 -3.139699
v -31.727720 -1.359833 -3.139699
v -31.727720 -1.359833 2.794723
v -31.727720 -2.059591 2.794723
v -31.727720 -2.059591 -3.139699
v -31.727720 -1.359833 2.794723
v -31.727720 -2.059591 2.794723
v -31.727720 -1.359833 2.794723
v -30.363600 -1.359833 2.794723
v -30.363600 -2.059591 2.794723
v -31.727720 -2.059591 2.794723
v -30.363600 -1.359833 2.794723
v -30.363600 -2.059591 -3.139699
v -30.363600 -1.359833 -3.139699
v -31.727720 -1.359833 -3.139699
v -31.727720 -2.059591 -3.139699
v -30.363600 -2.059591 -3.139699
v -31.727720 -1.359833 -3.139699
v -30.363600 -1.359833 2.794723
v -31.727720 -1.359833 2.794723
v -31.727720 -1.359833 -3.139699
v -30.363600 -1.359833 -3.139699
v -30.363600 -1.359833 2.794723
v -31.727720 -1.359833 -3.139699
v -30.363600 -2.059591 -3.139699
v -31.727720 -2.059591 -3.139699
v -31.727720 -2.059591 2.794723
v -30.363600 -2.059591 2.794723
v -30.363600 -2.059591 -3.139699
v -31.727720 -2.059591 2.794723
v 5.645154 -2.059590 2.794725
v 5.645154 -1.359831 2.794725
v 5.645154 -1.359831 -3.139697
v 5.645154 -2.059590 -3.139697
v 5.645154 -2.059590 2.794725
v 5.645154 -1.359831 -3.139697
v 4.281034 -2.059590 -3.139697
v 4.281034 -1.359831 -3.139697
v 4.281034 -1.359831 2.794725
v 4.281034 -2.059590 2.794725
v 4.281034 -2.059590 -3.139697
v 4.281034 -1.359831 2.794725
v 4.281034 -2.059590 2.794725
v 4.281034 -1.359831 2.794725
v 5.645154 -1.359831 2.794725
v 5.645154 -2.059590 2.794725
v 4.281034 -2.059590 2.794725
v 5.645154 -1.359831 2.794725
v 5.645154 -2.059590 -3.139697
v 5.645154 -1.359831 -3.139697
v 4.281034 -1.359831 -3.139697
v 4.281034 -2.059590 -3.139697
v 5.645154 -2.059590 -3.139697
v 4.281034 -1.359831 -3.139697
v 5.645154 -1.359831 2.794725
v 4.281034 -1.359831 2.794725
v 4.281034 -1.359831 -3.139697
v 5.645154 -1.359831 -3.139697
v 5.645154 -1.359831 2.794725
v 4.281034 -1.359831 -3.139697
v 5.645154 -2.059590 -3.139697
v 4.281034 -2.059590 -3.139697
v 4.281034 -2.059590 2.794725
v 5.645154 -2.059590 2.794725
v 5.645154 -2.059590 -3.139697
v 4.281034 -2.059590 2.794725
v 9.690976 -2.059590 2.794725
v 9.690976 -1.359831 2.794725
v 9.690978 -1.359831 -3.139697
v 9.690978 -2.059590 -3.139697
v 9.690976 -2.059590 2.794725
v 9.690978 -1.359831 -3.139697
v 8.326854 -2.059590 -3.139697
v 8.326854 -1.359831 -3.139697
v 8.326854 -1.359831 2.794725
v 8.326854 -2.059590 2.794725
v 8.326854 -2.059590 -3.139697
v 8.326854 -1.359831 2.794725
v 8.326854 -2.059590 2.794725
v 8.326854 -1.359831 2.794725
v 9.690976 -1.359831 2.794725
v 9.690976 -2.059590 2.794725
v 8.326854 -2.059590 2.794725
v 9.690976 -1.359831 2.794725
v 9.690978 -2.059590 -3.139697
v 9.690978 -1.359831 -3.139697
v 8.326854 -1.359831 -3.139697
v 8.326854 -2.059590 -3.139697
v 9.690978 -2.059590 -3.139697
v 8.326854 -1.359831 -3.139697
v 9.690976 -1.359831 2.794725
v 8.326854 -1.359831 2.794725
v 8.326854 -1.359831 -3.139697
v 9.690978 -1.359831 -3.139697
v 9.690976 -1.359831 2.794725
v 8.326854 -1.359831 -3.139697
v 9.690978 -2.059590 -3.139697
v 8.326854 -2.059590 -3.139697
v 8.326854 -2.059590 2.794725
v 9.690976 -2.059590 2.794725
v 9.690978 -2.059590 -3.139697
v 8.326854 -2.059590 2.794725
v 13.634016 -2.059589 2.794725
v 13.634016 -1.359831 2.794725
v 13.634016 -1.359831 -3.139697
v 13.634016 -2.059589 -3.139697
v 13.634016 -2.059589 2.794725
v 13.634016 -1.359831 -3.139697
v 12.269896 -2.059589 -3.139697
v 12.269896 -1.359831 -3.139697
v 12.269896 -1.359831 2.794725
v 12.269896 -2.059589 2.794725
v 12.269896 -2.059589 -3.139697
v 12.269896 -1.359831 2.794725
v 12.269896 -2.059589 2.794725
v 12.269896 -1.359831 2.794725
v 13.634016 -1.359831 2.794725
v 13.634016 -2.059589 2.794725
v 12.269896 -2.059589 2.794725
v 13.634016 -1.359831 2.794725
v 13.634016 -2.059589 -3.139697
v 13.634016 -1.359831 -3.139697
v 12.269896 -1.359831 -3.139697
v 12.269896 -2.059589 -3.139697
v 13.634016 -2.059589 -3.139697
v 12.269896 -1.359831 -3.139697
v 13.634016 -1.359831 2.794725
v 12.269896 -1.359831 2.794725
v 12.269896 -1.359831 -3.139697
v 13.634016 -1.359831 -3.139697
v 13.634016 -1.359831 2.794725
v 12.269896 -1.359831 -3.139697
v 13.634016 -2.059589 -3.139697
v 12.269896 -2.059589 -3.139697
v 12.269896 -2.059589 2.794725
v 13.634016 -2.059589 2.794725
v 13.634016 -2.059589 -3.139697
v 12.269896 -2.059589 2.794725
v 17.623798 -2.059589 2.794727
v 17.623798 -1.359831 2.794727
v 17.623798 -1.359831 -3.139695
v 17.623798 -2.059589 -3.139695
v 17.623798 -2.059589 2.794727
v 17.623798 -1.359831 -3.139695
v 16.259678 -2.059589 -3.139697
v 16.259678 -1.359831 -3.139697
v 16.259678 -1.359831 2.794727
v 16.259678 -2.059589 2.794727
v 16.259678 -2.059589 -3.139697
v 16.259678 -1.359831 2.794727
v 16.259678 -2.059589 2.794727
v 16.259678 -1.359831 2.794727
v 17.623798 -1.359831 2.794727
v 17.623798 -2.059589 2.794727
v 16.259678 -2.059589 2.794727
v 17.623798 -1.359831 2.794727
v 17.623798 -2.059589 -3.139695
v 17.623798 -1.359831 -3.139695
v 16.259678 -1.359831 -3.139697
v 16.259678 -2.059589 -3.139697
v 17.623798 -2.059589 -3.139695
v 16.259678 -1.359831 -3.139697
v 17.623798 -1.359831 2.794727
v 16.259678 -1.359831 2.794727
v 16.259678 -1.359831 -3.139697
v 17.623798 -1.359831 -3.139695
v 17.623798 -1.359831 2.794727
v 16.259678 -1.359831 -3.139697
v 17.623798 -2.059589 -3.139695
v 16.259678 -2.059589 -3.139697
v 16.259678 -2.059589 2.794727
v 17.623798 -2.059589 2.794727
v 17.623798 -2.059589 -3.139695
v 16.259678 -2.059589 2.794727
v 21.669680 -2.059589 2.794726
v 21.669680 -1.359831 2.794726
v 21.669680 -1.359831 -3.139696
v 21.669680 -2.059589 -3.139696
v 21.669680 -2.059589 2.794726
v 21.669680 -1.359831 -3.139696
v 20.305559 -2.059589 -3.139696
v 20.305559 -1.359831 -3.139696
v 20.305559 -1.359831 2.794726
v 20.305559 -2.059589 2.794726
v 20.305559 -2.059589 -3.139696
v 20.305559 -1.359831 2.794726
v 20.305559 -2.059589 2.794726
v 20.305559 -1.359831 2.794726
v 21.669680 -1.359831 2.794726
v 21.669680 -2.059589 2.794726
v 20.305559 -2.059589 2.794726
v 21.669680 -1.359831 2.794726
v 21.669680 -2.059589 -3.139696
v 21.669680 -1.359831 -3.139696
v 20.305559 -1.359831 -3.139696
v 20.305559 -2.059589 -3.139696
v 21.669680 -2.059589 -3.139696
v 20.305559 -1.359831 -3.139696
v 21.669680 -1.359831 2.794726
v 20.305559 -1.359831 2.794726
v 20.305559 -1.359831 -3.139696
v 21.669680 -1.359831 -3.139696
v 21.669680 -1.359831 2.794726
v 20.305559 -1.359831 -3.139696
v 21.669680 -2.059589 -3.139696
v 20.305559 -2.059589 -3.139696
v 20.305559 -2.059589 2.794726
v 21.669680 -2.059589 2.794726
v 21.669680 -2.059589 -3.139696
v 20.305559 -2.059589 2.794726
v 25.666519 -2.059589 2.794726
v 25.666519 -1.359831 2.794726
v 25.666519 -1.359831 -3.139696
v 25.666519 -2.059589 -3.139696
v 25.666519 -2.059589 2.794726
v 25.666519 -1.359831 -3.139696
v 24.302401 -2.059589 -3.139696
v 24.302401 -1.359830 -3.139696
v 24.302401 -1.359830 2.794726
v 24.302401 -2.059589 2.794726
v 24.302401 -2.059589 -3.139696
v 24.302401 -1.359830 2.794726
v 24.302401 -2.059589 2.794726
v 24.302401 -1.359830 2.794726
v 25.666519 -1.359831 2.794726
v 25.666519 -2.059589 2.794726
v 24.302401 -2.059589 2.794726
v 25.666519 -1.359831 2.794726
v 25.666519 -2.059589 -3.139696
v 25.666519 -1.359831 -3.139696
v 24.302401 -1.359830 -3.139696
v 24.302401 -2.059589 -3.139696
v 25.666519 -2.059589 -3.139696
v 24.302401 -1.359830 -3.139696
v 25.666519 -1.359831 2.794726
v 24.302401 -1.359830 2.794726
v 24.302401 -1.359830 -3.139696
v 25.666519 -1.359831 -3.139696
v 25.666519 -1.359831 2.794726
v 24.302401 -1.359830 -3.139696
v 25.666519 -2.059589 -3.139696
v 24.302401 -2.059589 -3.139696
v 24.302401 -2.059589 2.794726
v 25.666519 -2.059589 2.794726
v 25.666519 -2.059589 -3.139696
v 24.302401 -2.059589 2.794726
v 29.703220 -2.059588 2.794726
v 29.703220 -1.359830 2.794726
v 29.703220 -1.359830 -3.139694
v 29.703220 -2.059588 -3.139694
v 29.703220 -2.059588 2.794726
v 29.703220 -1.359830 -3.139694
v 28.339100 -2.059588 -3.139694
v 28.339100 -1.359830 -3.139694
v 28.339100 -1.359830 2.794726
v 28.339100 -2.059588 2.794726
v 28.339100 -2.059588 -3.139694
v 28.339100 -1.359830 2.794726
v 28.339100 -2.059588 2.794726
v 28.339100 -1.359830 2.794726
v 29.703220 -1.359830 2.794726
v 29.703220 -2.059588 2.794726
v 28.339100 -2.059588 2.794726
v 29.703220 -1.359830 2.794726
v 29.703220 -2.059588 -3.139694
v 29.703220 -1.359830 -3.139694
v 28.339100 -1.359830 -3.139694
v 28.339100 -2.059588 -3.139694
v 29.703220 -2.059588 -3.139694
v 28.339100 -1.359830 -3.139694
v 29.703220 -1.359830 2.794726
v 28.339100 -1.359830 2.794726
v 28.339100 -1.359830 -3.139694
v 29.703220 -1.359830 -3.139694
v 29.703220 -1.359830 2.794726
v 28.339100 -1.359830 -3.139694
v 29.703220 -2.059588 -3.139694
v 28.339100 -2.059588 -3.139694
v 28.339100 -2.059588 2.794726
v 29.703220 -2.059588 2.794726
v 29.703220 -2.059588 -3.139694
v 28.339100 -2.059588 2.794726
v -10.278340 -2.059590 2.794726
v -10.278340 -1.359832 2.794726
v -10.278340 -1.359832 -3.139696
v -10.278340 -2.059590 -3.139696
v -10.278340 -2.059590 2.794726
v -10.278340 -1.359832 -3.139696
v -11.642458 -2.059590 -3.139696
v -11.642458 -1.359832 -3.139696
v -11.642460 -1.359832 2.794726
v -11.642460 -2.059590 2.794726
v -11.642458 -2.059590 -3.139696
v -11.642460 -1.359832 2.794726
v -11.642460 -2.059590 2.794726
v -11.642460 -1.359832 2.794726
v -10.278340 -1.359832 2.794726
v -10.278340 -2.059590 2.794726
v -11.642460 -2.059590 2.794726
v -10.278340 -1.359832 2.794726
v -10.278340 -2.059590 -3.139696
v -10.278340 -1.359832 -3.139696
v -11.642458 -1.359832 -3.139696
v -11.642458 -2.059590 -3.139696
v -10.278340 -2.059590 -3.139696
v -11.642458 -1.359832 -3.139696
v -10.278340 -1.359832 2.794726
v -11.642460 -1.359832 2.794726
v -11.642458 -1.359832 -3.139696
v -10.278340 -1.359832 -3.139696
v -10.278340 -1.359832 2.794726
v -11.642458 -1.359832 -3.139696
v -10.278340 -2.059590 -3.139696
v -11.642458 -2.059590 -3.139696
v -11.642460 -2.059590 2.794726
v -10.278340 -2.059590 2.794726
v -10.278340 -2.059590 -3.139696
v -11.642460 -2.059590 2.794726
v 0.449888 -1.442256 -2.850839
v 0.881502 -0.838608 -1.851839
v 0.881502 -0.838608 -1.849839
v 0.449888 -1.442256 -0.850839
v 1.313981 -1.442256 -0.850839
v 0.882366 -0.838608 -1.849839
v 0.882366 -0.838608 -1.851839
v 1.313981 -1.442256 -2.850839
v 0.449888 -1.442256 -0.850839
v 0.881502 -0.838608 -1.849839
v 0.882366 -0.838608 -1.849839
v 1.313981 -1.442256 -0.850839
v 1.313981 -1.442256 -2.850839
v 0.882366 -0.838608 -1.851839
v 0.881502 -0.838608 -1.851839
v 0.449888 -1.442256 -2.850839
v 0.882366 -0.838608 -1.849839
v 0.881502 -0.838608 -1.849839
v 0.881502 -0.838608 -1.851839
v 0.882366 -0.838608 -1.851839
v 1.313981 -1.442256 -2.850839
v 0.449888 -1.442256 -2.850839
v 0.449888 -1.442256 -0.850839
v 1.313981 -1.442256 -0.850839
v 0.449888 -1.442256 0.548941
v 0.881502 -0.838608 1.547941
v 0.881502 -0.838608 1.549941
v 0.449888 -1.442256 2.548941
v 1.313981 -1.442256 2.548941
v 0.882367 -0.838608 1.549941
v 0.882367 -0.838608 1.547941
v 1.313981 -1.442256 0.548941
v 0.449888 -1.442256 2.548941
v 0.881502 -0.838608 1.549941
v 0.882367 -0.838608 1.549941
v 1.313981 -1.442256 2.548941
v 1.313981 -1.442256 0.548941
v 0.882367 -0.838608 1.547941
v 0.881502 -0.838608 1.547941
v 0.449888 -1.442256 0.548941
v 0.882367 -0.838608 1.549941
v 0.881502 -0.838608 1.549941
v 0.881502 -0.838608 1.547941
v 0.882367 -0.838608 1.547941
v 1.313981 -1.442256 0.548941
v 0.449888 -1.442256 0.548941
v 0.449888 -1.442256 2.548941
v 1.313981 -1.442256 2.548941
v -19.408623 -1.442256 0.548942
v -18.977009 -0.838608 1.547942
v -18.977009 -0.838608 1.549942
v -19.408623 -1.442256 2.548942
v -18.544527 -1.442256 2.548942
v -18.976143 -0.838608 1.549942
v -18.976143 -0.838608 1.547942
v -18.544527 -1.442256 0.548942
v -19.408623 -1.442256 2.548942
v -18.977009 -0.838608 1.549942
v -18.976143 -0.838608 1.549942
v -18.544527 -1.442256 2.548942
v -18.544527 -1.442256 0.548942
v -18.976143 -0.838608 1.547942
v -18.977009 -0.838608 1.547942
v -19.408623 -1.442256 0.548942
v -18.976143 -0.838608 1.549942
v -18.977009 -0.838608 1.549942
v -18.977009 -0.838608 1.547942
v -18.976143 -0.838608 1.547942
v -18.544527 -1.442256 0.548942
v -19.408623 -1.442256 0.548942
v -19.408623 -1.442256 2.548942
v -18.544527 -1.442256 2.548942
v -19.382095 -1.442256 -2.850838
v -18.950481 -0.838609 -1.851838
v -18.950481 -0.838609 -1.849838
v -19.382095 -1.442256 -0.850838
v -18.518002 -1.442256 -0.850838
v -18.949615 -0.838609 -1.849838
v -18.949615 -0.838609 -1.851838
v -18.518002 -1.442256 -2.850838
v -19.382095 -1.442256 -0.850838
v -18.950481 -0.838609 -1.849838
v -18.949615 -0.838609 -1.849838
v -18.518002 -1.442256 -0.850838
v -18.518002 -1.442256 -2.850838
v -18.949615 -0.838609 -1.851838
v -18.950481 -0.838609 -1.851838
v -19.382095 -1.442256 -2.850838
v -18.949615 -0.838609 -1.849838
v -18.950481 -0.838609 -1.849838
v -18.950481 -0.838609 -1.851838
v -18.949615 -0.838609 -1.851838
v -18.518002 -1.442256 -2.850838
v -19.382095 -1.442256 -2.850838
v -19.382095 -1.442256 -0.850838
v -18.518002 -1.442256 -0.850838
v -23.421820 -1.442256 0.548942
v -22.990200 -0.838608 1.547942
v -22.990200 -0.838608 1.549942
v -23.421820 -1.442256 2.548942
v -22.557720 -1.442256 2.548942
v -22.989340 -0.838608 1.549942
v -22.989340 -0.838608 1.547942
v -22.557720 -1.442256 0.548942
v -23.421820 -1.442256 2.548942
v -22.990200 -0.838608 1.549942
v -22.989340 -0.838608 1.549942
v -22.557720 -1.442256 2.548942
v -22.557720 -1.442256 0.548942
v -22.989340 -0.838608 1.547942
v -22.990200 -0.838608 1.547942
v -23.421820 -1.442256 0.548942
v -22.989340 -0.838608 1.549942
v -22.990200 -0.838608 1.549942
v -22.990200 -0.838608 1.547942
v -22.989340 -0.838608 1.547942
v -22.557720 -1.442256 0.548942
v -23.421820 -1.442256 0.548942
v -23.421820 -1.442256 2.548942
v -22.557720 -1.442256 2.548942
v -23.432720 -1.442256 -2.850838
v -23.001101 -0.838609 -1.851838
v -23.001101 -0.838609 -1.849838
v -23.432720 -1.442256 -0.850838
v -22.568621 -1.442256 -0.850838
v -23.000240 -0.838609 -1.849838
v -23.000240 -0.838609 -1.851838
v -22.568621 -1.442256 -2.850838
v -23.432720 -1.442256 -0.850838
v -23.001101 -0.838609 -1.849838
v -23.000240 -0.838609 -1.849838
v -22.568621 -1.442256 -0.850838
v -22.568621 -1.442256 -2.850838
v -23.000240 -0.838609 -1.851838
v -23.001101 -0.838609 -1.851838
v -23.432720 -1.442256 -2.850838
v -23.000240 -0.838609 -1.849838
v -23.001101 -0.838609 -1.849838
v -23.001101 -0.838609 -1.851838
v -23.000240 -0.838609 -1.851838
v -22.568621 -1.442256 -2.850838
v -23.432720 -1.442256 -2.850838
v -23.432720 -1.442256 -0.850838
v -22.568621 -1.442256 -0.850838
v -27.432480 -1.442256 0.548942
v -27.000860 -0.838608 1.547942
v -27.000860 -0.838608 1.549942
v -27.432480 -1.442256 2.548942
v -26.568380 -1.442256 2.548942
v -27.000000 -0.838608 1.549942
v -27.000000 -0.838608 1.547942
v -26.568380 -1.442256 0.548942
v -27.432480 -1.442256 2.548942
v -27.000860 -0.838608 1.549942
v -27.000000 -0.838608 1.549942
v -26.568380 -1.442256 2.548942
v -26.568380 -1.442256 0.548942
v -27.000000 -0.838608 1.547942
v -27.000860 -0.838608 1.547942
v -27.432480 -1.442256 0.548942
v -27.000000 -0.838608 1.549942
v -27.000860 -0.838608 1.549942
v -27.000860 -0.838608 1.547942
v -27.000000 -0.838608 1.547942
v -26.568380 -1.442256 0.548942
v -27.432480 -1.442256 0.548942
v -27.432480 -1.442256 2.548942
v -26.568380 -1.442256 2.548942
v -27.438160 -1.442256 -2.850838
v -27.006540 -0.838609 -1.851838
v -27.006540 -0.838609 -1.849838
v -27.438160 -1.442256 -0.850837
v -26.574060 -1.442256 -0.850838
v -27.005680 -0.838609 -1.849838
v -27.005680 -0.838609 -1.851838
v -26.574060 -1.442256 -2.850838
v -27.438160 -1.442256 -0.850837
v -27.006540 -0.838609 -1.849838
v -27.005680 -0.838609 -1.849838
v -26.574060 -1.442256 -0.850838
v -26.574060 -1.442256 -2.850838
v -27.005680 -0.838609 -1.851838
v -27.006540 -0.838609 -1.851838
v -27.438160 -1.442256 -2.850838
v -27.005680 -0.838609 -1.849838
v -27.006540 -0.838609 -1.849838
v -27.006540 -0.838609 -1.851838
v -27.005680 -0.838609 -1.851838
v -26.574060 -1.442256 -2.850838
v -27.438160 -1.442256 -2.850838
v -27.438160 -1.442256 -0.850837
v -26.574060 -1.442256 -0.850838
v -31.502380 -1.442256 0.548943
v -31.070761 -0.838608 1.547943
v -31.070761 -0.838608 1.549942
v -31.502380 -1.442256 2.548943
v -30.638281 -1.442256 2.548943
v -31.069901 -0.838608 1.549942
v -31.069901 -0.838608 1.547943
v -30.638281 -1.442256 0.548942
v -31.502380 -1.442256 2.548943
v -31.070761 -0.838608 1.549942
v -31.069901 -0.838608 1.549942
v -30.638281 -1.442256 2.548943
v -30.638281 -1.442256 0.548942
v -31.069901 -0.838608 1.547943
v -31.070761 -0.838608 1.547943
v -31.502380 -1.442256 0.548943
v -31.069901 -0.838608 1.549942
v -31.070761 -0.838608 1.549942
v -31.070761 -0.838608 1.547943
v -31.069901 -0.838608 1.547943
v -30.638281 -1.442256 0.548942
v -31.502380 -1.442256 0.548943
v -31.502380 -1.442256 2.548943
v -30.638281 -1.442256 2.548943
v -31.501080 -1.442256 -2.850837
v -31.069460 -0.838609 -1.851838
v -31.069460 -0.838609 -1.849837
v -31.501080 -1.442256 -0.850837
v -30.636980 -1.442256 -0.850837
v -31.068600 -0.838609 -1.849837
v -31.068600 -0.838609 -1.851838
v -30.636980 -1.442256 -2.850837
v -31.501080 -1.442256 -0.850837
v -31.069460 -0.838609 -1.849837
v -31.068600 -0.838609 -1.849837
v -30.636980 -1.442256 -0.850837
v -30.636980 -1.442256 -2.850837
v -31.068600 -0.838609 -1.851838
v -31.069460 -0.838609 -1.851838
v -31.501080 -1.442256 -2.850837
v -31.068600 -0.838609 -1.849837
v -31.069460 -0.838609 -1.849837
v -31.069460 -0.838609 -1.851838
v -31.068600 -0.838609 -1.851838
v -30.636980 -1.442256 -2.850837
v -31.501080 -1.442256 -2.850837
v -31.501080 -1.442256 -0.850837
v -30.636980 -1.442256 -0.850837
v 4.528046 -1.442256 -2.850839
v 4.959660 -0.838608 -1.851839
v 4.959660 -0.838608 -1.849839
v 4.528046 -1.442256 -0.850839
v 5.392138 -1.442256 -0.850839
v 4.960524 -0.838608 -1.849839
v 4.960524 -0.838608 -1.851839
v 5.392138 -1.442256 -2.850839
v 4.528046 -1.442256 -0.850839
v 4.959660 -0.838608 -1.849839
v 4.960524 -0.838608 -1.849839
v 5.392138 -1.442256 -0.850839
v 5.392138 -1.442256 -2.850839
v 4.960524 -0.838608 -1.851839
v 4.959660 -0.838608 -1.851839
v 4.528046 -1.442256 -2.850839
v 4.960524 -0.838608 -1.849839
v 4.959660 -0.838608 -1.849839
v 4.959660 -0.838608 -1.851839
v 4.960524 -0.838608 -1.851839
v 5.392138 -1.442256 -2.850839
v 4.528046 -1.442256 -2.850839
v 4.528046 -1.442256 -0.850839
v 5.392138 -1.442256 -0.850839
v 4.485952 -1.442255 0.548941
v 4.917566 -0.838608 1.547941
v 4.917566 -0.838608 1.549941
v 4.485952 -1.442255 2.548941
v 5.350046 -1.442256 2.548941
v 4.918430 -0.838608 1.549941
v 4.918430 -0.838608 1.547941
v 5.350046 -1.442256 0.548941
v 4.485952 -1.442255 2.548941
v 4.917566 -0.838608 1.549941
v 4.918430 -0.838608 1.549941
v 5.350046 -1.442256 2.548941
v 5.350046 -1.442256 0.548941
v 4.918430 -0.838608 1.547941
v 4.917566 -0.838608 1.547941
v 4.485952 -1.442255 0.548941
v 4.918430 -0.838608 1.549941
v 4.917566 -0.838608 1.549941
v 4.917566 -0.838608 1.547941
v 4.918430 -0.838608 1.547941
v 5.350046 -1.442256 0.548941
v 4.485952 -1.442255 0.548941
v 4.485952 -1.442255 2.548941
v 5.350046 -1.442256 2.548941
v -3.401570 -1.442255 0.548941
v -2.969955 -0.838608 1.547941
v -2.969955 -0.838608 1.549941
v -3.401570 -1.442255 2.548941
v -2.537477 -1.442256 2.548941
v -2.969091 -0.838608 1.549941
v -2.969091 -0.838608 1.547941
v -2.537478 -1.442256 0.548941
v -3.401570 -1.442255 2.548941
v -2.969955 -0.838608 1.549941
v -2.969091 -0.838608 1.549941
v -2.537477 -1.442256 2.548941
v -2.537478 -1.442256 0.548941
v -2.969091 -0.838608 1.547941
v -2.969955 -0.838608 1.547941
v -3.401570 -1.442255 0.548941
v -2.969091 -0.838608 1.549941
v -2.969955 -0.838608 1.549941
v -2.969955 -0.838608 1.547941
v -2.969091 -0.838608 1.547941
v -2.537478 -1.442256 0.548941
v -3.401570 -1.442255 0.548941
v -3.401570 -1.442255 2.548941
v -2.537477 -1.442256 2.548941
v 8.528822 -1.442256 -2.850839
v 8.960436 -0.838608 -1.851839
v 8.960436 -0.838608 -1.849839
v 8.528822 -1.442256 -0.850839
v 9.392916 -1.442256 -0.850839
v 8.961300 -0.838608 -1.849839
v 8.961300 -0.838608 -1.851839
v 9.392916 -1.442256 -2.850839
v 8.528822 -1.442256 -0.850839
v 8.960436 -0.838608 -1.849839
v 8.961300 -0.838608 -1.849839
v 9.392916 -1.442256 -0.850839
v 9.392916 -1.442256 -2.850839
v 8.961300 -0.838608 -1.851839
v 8.960436 -0.838608 -1.851839
v 8.528822 -1.442256 -2.850839
v 8.961300 -0.838608 -1.849839
v 8.960436 -0.838608 -1.849839
v 8.960436 -0.838608 -1.851839
v 8.961300 -0.838608 -1.851839
v 9.392916 -1.442256 -2.850839
v 8.528822 -1.442256 -2.850839
v 8.528822 -1.442256 -0.850839
v 9.392916 -1.442256 -0.850839
v 8.582106 -1.442255 0.548941
v 9.013720 -0.838608 1.547941
v 9.013720 -0.838608 1.549941
v 8.582106 -1.442255 2.548941
v 9.446200 -1.442255 2.548941
v 9.014584 -0.838608 1.549941
v 9.014584 -0.838608 1.547941
v 9.446200 -1.442255 0.548941
v 8.582106 -1.442255 2.548941
v 9.013720 -0.838608 1.549941
v 9.014584 -0.838608 1.549941
v 9.446200 -1.442255 2.548941
v 9.446200 -1.442255 0.548941
v 9.014584 -0.838608 1.547941
v 9.013720 -0.838608 1.547941
v 8.582106 -1.442255 0.548941
v 9.014584 -0.838608 1.549941
v 9.013720 -0.838608 1.549941
v 9.013720 -0.838608 1.547941
v 9.014584 -0.838608 1.547941
v 9.446200 -1.442255 0.548941
v 8.582106 -1.442255 0.548941
v 8.582106 -1.442255 2.548941
v 9.446200 -1.442255 2.548941
v 12.533744 -1.442256 -2.850839
v 12.965360 -0.838608 -1.851839
v 12.965360 -0.838608 -1.849839
v 12.533744 -1.442256 -0.850839
v 13.397838 -1.442256 -0.850839
v 12.966224 -0.838608 -1.849839
v 12.966224 -0.838608 -1.851839
v 13.397838 -1.442256 -2.850839
v 12.533744 -1.442256 -0.850839
v 12.965360 -0.838608 -1.849839
v 12.966224 -0.838608 -1.849839
v 13.397838 -1.442256 -0.850839
v 13.397838 -1.442256 -2.850839
v 12.966224 -0.838608 -1.851839
v 12.965360 -0.838608 -1.851839
v 12.533744 -1.442256 -2.850839
v 12.966224 -0.838608 -1.849839
v 12.965360 -0.838608 -1.849839
v 12.965360 -0.838608 -1.851839
v 12.966224 -0.838608 -1.851839
v 13.397838 -1.442256 -2.850839
v 12.533744 -1.442256 -2.850839
v 12.533744 -1.442256 -0.850839
v 13.397838 -1.442256 -0.850839
v 12.514694 -1.442255 0.548941
v 12.946310 -0.838608 1.547941
v 12.946310 -0.838608 1.549940
v 12.514694 -1.442255 2.548941
v 13.378788 -1.442255 2.548941
v 12.947174 -0.838608 1.549940
v 12.947174 -0.838608 1.547941
v 13.378788 -1.442255 0.548941
v 12.514694 -1.442255 2.548941
v 12.946310 -0.838608 1.549940
v 12.947174 -0.838608 1.549940
v 13.378788 -1.442255 2.548941
v 13.378788 -1.442255 0.548941
v 12.947174 -0.838608 1.547941
v 12.946310 -0.838608 1.547941
v 12.514694 -1.442255 0.548941
v 12.947174 -0.838608 1.549940
v 12.946310 -0.838608 1.549940
v 12.946310 -0.838608 1.547941
v 12.947174 -0.838608 1.547941
v 13.378788 -1.442255 0.548941
v 12.514694 -1.442255 0.548941
v 12.514694 -1.442255 2.548941
v 13.378788 -1.442255 2.548941
v 16.486876 -1.442256 -2.850840
v 16.918489 -0.838608 -1.851840
v 16.918489 -0.838608 -1.849839
v 16.486876 -1.442256 -0.850839
v 17.350969 -1.442256 -0.850839
v 16.919355 -0.838608 -1.849839
v 16.919355 -0.838608 -1.851840
v 17.350969 -1.442256 -2.850840
v 16.486876 -1.442256 -0.850839
v 16.918489 -0.838608 -1.849839
v 16.919355 -0.838608 -1.849839
v 17.350969 -1.442256 -0.850839
v 17.350969 -1.442256 -2.850840
v 16.919355 -0.838608 -1.851840
v 16.918489 -0.838608 -1.851840
v 16.486876 -1.442256 -2.850840
v 16.919355 -0.838608 -1.849839
v 16.918489 -0.838608 -1.849839
v 16.918489 -0.838608 -1.851840
v 16.919355 -0.838608 -1.851840
v 17.350969 -1.442256 -2.850840
v 16.486876 -1.442256 -2.850840
v 16.486876 -1.442256 -0.850839
v 17.350969 -1.442256 -0.850839
v 16.490732 -1.442255 0.548940
v 16.922346 -0.838608 1.547940
v 16.922346 -0.838608 1.549940
v 16.490732 -1.442255 2.548940
v 17.354826 -1.442255 2.548940
v 16.923212 -0.838608 1.549940
v 16.923212 -0.838608 1.547940
v 17.354826 -1.442255 0.548940
v 16.490732 -1.442255 2.548940
v 16.922346 -0.838608 1.549940
v 16.923212 -0.838608 1.549940
v 17.354826 -1.442255 2.548940
v 17.354826 -1.442255 0.548940
v 16.923212 -0.838608 1.547940
v 16.922346 -0.838608 1.547940
v 16.490732 -1.442255 0.548940
v 16.923212 -0.838608 1.549940
v 16.922346 -0.838608 1.549940
v 16.922346 -0.838608 1.547940
v 16.923212 -0.838608 1.547940
v 17.354826 -1.442255 0.548940
v 16.490732 -1.442255 0.548940
v 16.490732 -1.442255 2.548940
v 17.354826 -1.442255 2.548940
v 20.531620 -1.442255 0.548940
v 20.963240 -0.838608 1.547940
v 20.963240 -0.838608 1.549940
v 20.531620 -1.442255 2.548940
v 21.395700 -1.442255 2.548940
v 20.964100 -0.838608 1.549940
v 20.964100 -0.838608 1.547940
v 21.395700 -1.442255 0.548940
v 20.531620 -1.442255 2.548940
v 20.963240 -0.838608 1.549940
v 20.964100 -0.838608 1.549940
v 21.395700 -1.442255 2.548940
v 21.395700 -1.442255 0.548940
v 20.964100 -0.838608 1.547940
v 20.963240 -0.838608 1.547940
v 20.531620 -1.442255 0.548940
v 20.964100 -0.838608 1.549940
v 20.963240 -0.838608 1.549940
v 20.963240 -0.838608 1.547940
v 20.964100 -0.838608 1.547940
v 21.395700 -1.442255 0.548940
v 20.531620 -1.442255 0.548940
v 20.531620 -1.442255 2.548940
v 21.395700 -1.442255 2.548940
v 20.551720 -1.442256 -2.850840
v 20.983339 -0.838608 -1.851840
v 20.983339 -0.838608 -1.849840
v 20.551720 -1.442256 -0.850840
v 21.415819 -1.442256 -0.850840
v 20.984200 -0.838608 -1.849840
v 20.984200 -0.838608 -1.851840
v 21.415819 -1.442256 -2.850840
v 20.551720 -1.442256 -0.850840
v 20.983339 -0.838608 -1.849840
v 20.984200 -0.838608 -1.849840
v 21.415819 -1.442256 -0.850840
v 21.415819 -1.442256 -2.850840
v 20.984200 -0.838608 -1.851840
v 20.983339 -0.838608 -1.851840
v 20.551720 -1.442256 -2.850840
v 20.984200 -0.838608 -1.849840
v 20.983339 -0.838608 -1.849840
v 20.983339 -0.838608 -1.851840
v 20.984200 -0.838608 -1.851840
v 21.415819 -1.442256 -2.850840
v 20.551720 -1.442256 -2.850840
v 20.551720 -1.442256 -0.850840
v 21.415819 -1.442256 -0.850840
v 24.567579 -1.442255 0.548940
v 24.999201 -0.838608 1.547940
v 24.999201 -0.838608 1.549940
v 24.567579 -1.442255 2.548940
v 25.431681 -1.442255 2.548940
v 25.000059 -0.838608 1.549940
v 25.000059 -0.838608 1.547940
v 25.431681 -1.442255 0.548940
v 24.567579 -1.442255 2.548940
v 24.999201 -0.838608 1.549940
v 25.000059 -0.838608 1.549940
v 25.431681 -1.442255 2.548940
v 25.431681 -1.442255 0.548940
v 25.000059 -0.838608 1.547940
v 24.999201 -0.838608 1.547940
v 24.567579 -1.442255 0.548940
v 25.000059 -0.838608 1.549940
v 24.999201 -0.838608 1.549940
v 24.999201 -0.838608 1.547940
v 25.000059 -0.838608 1.547940
v 25.431681 -1.442255 0.548940
v 24.567579 -1.442255 0.548940
v 24.567579 -1.442255 2.548940
v 25.431681 -1.442255 2.548940
v 28.562361 -1.442255 0.548940
v 28.993980 -0.838608 1.547940
v 28.993980 -0.838608 1.549940
v 28.562361 -1.442255 2.548940
v 29.426460 -1.442255 2.548940
v 28.994841 -0.838608 1.549940
v 28.994841 -0.838608 1.547940
v 29.426460 -1.442255 0.548940
v 28.562361 -1.442255 2.548940
v 28.993980 -0.838608 1.549940
v 28.994841 -0.838608 1.549940
v 29.426460 -1.442255 2.548940
v 29.426460 -1.442255 0.548940
v 28.994841 -0.838608 1.547940
v 28.993980 -0.838608 1.547940
v 28.562361 -1.442255 0.548940
v 28.994841 -0.838608 1.549940
v 28.993980 -0.838608 1.549940
v 28.993980 -0.838608 1.547940
v 28.994841 -0.838608 1.547940
v 29.426460 -1.442255 0.548940
v 28.562361 -1.442255 0.548940
v 28.562361 -1.442255 2.548940
v 29.426460 -1.442255 2.548940
v -3.462400 -1.442256 -2.850839
v -3.030784 -0.838609 -1.851839
v -3.030784 -0.838609 -1.849839
v -3.462400 -1.442256 -0.850838
v -2.598306 -1.442256 -0.850839
v -3.029920 -0.838609 -1.849839
v -3.029920 -0.838609 -1.851839
v -2.598306 -1.442256 -2.850839
v -3.462400 -1.442256 -0.850838
v -3.030784 -0.838609 -1.849839
v -3.029920 -0.838609 -1.849839
v -2.598306 -1.442256 -0.850839
v -2.598306 -1.442256 -2.850839
v -3.029920 -0.838609 -1.851839
v -3.030784 -0.838609 -1.851839
v -3.462400 -1.442256 -2.850839
v -3.029920 -0.838609 -1.849839
v -3.030784 -0.838609 -1.849839
v -3.030784 -0.838609 -1.851839
v -3.029920 -0.838609 -1.851839
v -2.598306 -1.442256 -2.850839
v -3.462400 -1.442256 -2.850839
v -3.462400 -1.442256 -0.850838
v -2.598306 -1.442256 -0.850839
v 24.554440 -1.442256 -2.850840
v 24.986059 -0.838608 -1.851840
v 24.986059 -0.838608 -1.849840
v 24.554440 -1.442256 -0.850840
v 25.418539 -1.442256 -0.850840
v 24.986919 -0.838608 -1.849840
v 24.986919 -0.838608 -1.851840
v 25.418539 -1.442256 -2.850840
v 24.554440 -1.442256 -0.850840
v 24.986059 -0.838608 -1.849840
v 24.986919 -0.838608 -1.849840
v 25.418539 -1.442256 -0.850840
v 25.418539 -1.442256 -2.850840
v 24.986919 -0.838608 -1.851840
v 24.986059 -0.838608 -1.851840
v 24.554440 -1.442256 -2.850840
v 24.986919 -0.838608 -1.849840
v 24.986059 -0.838608 -1.849840
v 24.986059 -0.838608 -1.851840
v 24.986919 -0.838608 -1.851840
v 25.418539 -1.442256 -2.850840
v 24.554440 -1.442256 -2.850840
v 24.554440 -1.442256 -0.850840
v 25.418539 -1.442256 -0.850840
v 28.599020 -1.442256 -2.850840
v 29.030621 -0.838608 -1.851840
v 29.030621 -0.838608 -1.849840
v 28.599020 -1.442256 -0.850840
v 29.463100 -1.442256 -0.850840
v 29.031500 -0.838608 -1.849840
v 29.031500 -0.838608 -1.851840
v 29.463100 -1.442256 -2.850840
v 28.599020 -1.442256 -0.850840
v 29.030621 -0.838608 -1.849840
v 29.031500 -0.838608 -1.849840
v 29.463100 -1.442256 -0.850840
v 29.463100 -1.442256 -2.850840
v 29.031500 -0.838608 -1.851840
v 29.030621 -0.838608 -1.851840
v 28.599020 -1.442256 -2.850840
v 29.031500 -0.838608 -1.849840
v 29.030621 -0.838608 -1.849840
v 29.030621 -0.838608 -1.851840
v 29.031500 -0.838608 -1.851840
v 29.463100 -1.442256 -2.850840
v 28.599020 -1.442256 -2.850840
v 28.599020 -1.442256 -0.850840
v 29.463100 -1.442256 -0.850840
v -7.333662 -1.442255 0.548941
v -6.902048 -0.838608 1.547942
v -6.902048 -0.838608 1.549941
v -7.333662 -1.442255 2.548941
v -6.469570 -1.442255 2.548941
v -6.901184 -0.838608 1.549941
v -6.901184 -0.838608 1.547942
v -6.469570 -1.442255 0.548941
v -7.333662 -1.442255 2.548941
v -6.902048 -0.838608 1.549941
v -6.901184 -0.838608 1.549941
v -6.469570 -1.442255 2.548941
v -6.469570 -1.442255 0.548941
v -6.901184 -0.838608 1.547942
v -6.902048 -0.838608 1.547942
v -7.333662 -1.442255 0.548941
v -6.901184 -0.838608 1.549941
v -6.902048 -0.838608 1.549941
v -6.902048 -0.838608 1.547942
v -6.901184 -0.838608 1.547942
v -6.469570 -1.442255 0.548941
v -7.333662 -1.442255 0.548941
v -7.333662 -1.442255 2.548941
v -6.469570 -1.442255 2.548941
v -7.414222 -1.442256 -2.850839
v -6.982606 -0.838609 -1.851838
v -6.982606 -0.838609 -1.849838
v -7.414222 -1.442256 -0.850838
v -6.550128 -1.442256 -0.850838
v -6.981742 -0.838609 -1.849838
v -6.981742 -0.838609 -1.851838
v -6.550128 -1.442256 -2.850839
v -7.414222 -1.442256 -0.850838
v -6.982606 -0.838609 -1.849838
v -6.981742 -0.838609 -1.849838
v -6.550128 -1.442256 -0.850838
v -6.550128 -1.442256 -2.850839
v -6.981742 -0.838609 -1.851838
v -6.982606 -0.838609 -1.851838
v -7.414222 -1.442256 -2.850839
v -6.981742 -0.838609 -1.849838
v -6.982606 -0.838609 -1.849838
v -6.982606 -0.838609 -1.851838
v -6.981742 -0.838609 -1.851838
v -6.550128 -1.442256 -2.850839
v -7.414222 -1.442256 -2.850839
v -7.414222 -1.442256 -0.850838
v -6.550128 -1.442256 -0.850838
v -11.427930 -1.442255 0.548942
v -10.996316 -0.838608 1.547942
v -10.996316 -0.838608 1.549942
v -11.427930 -1.442255 2.548942
v -10.563836 -1.442256 2.548942
v -10.995450 -0.838608 1.549942
v -10.995450 -0.838608 1.547942
v -10.563836 -1.442256 0.548942
v -11.427930 -1.442255 2.548942
v -10.996316 -0.838608 1.549942
v -10.995450 -0.838608 1.549942
v -10.563836 -1.442256 2.548942
v -10.563836 -1.442256 0.548942
v -10.995450 -0.838608 1.547942
v -10.996316 -0.838608 1.547942
v -11.427930 -1.442255 0.548942
v -10.995450 -0.838608 1.549942
v -10.996316 -0.838608 1.549942
v -10.996316 -0.838608 1.547942
v -10.995450 -0.838608 1.547942
v -10.563836 -1.442256 0.548942
v -11.427930 -1.442255 0.548942
v -11.427930 -1.442255 2.548942
v -10.563836 -1.442256 2.548942
v -11.397952 -1.442256 -2.850838
v -10.966336 -0.838609 -1.851838
v -10.966336 -0.838609 -1.849838
v -11.397952 -1.442256 -0.850838
v -10.533858 -1.442256 -0.850838
v -10.965472 -0.838609 -1.849838
v -10.965472 -0.838609 -1.851838
v -10.533858 -1.442256 -2.850838
v -11.397952 -1.442256 -0.850838
v -10.966336 -0.838609 -1.849838
v -10.965472 -0.838609 -1.849838
v -10.533858 -1.442256 -0.850838
v -10.533858 -1.442256 -2.850838
v -10.965472 -0.838609 -1.851838
v -10.966336 -0.838609 -1.851838
v -11.397952 -1.442256 -2.850838
v -10.965472 -0.838609 -1.849838
v -10.966336 -0.838609 -1.849838
v -10.966336 -0.838609 -1.851838
v -10.965472 -0.838609 -1.851838
v -10.533858 -1.442256 -2.850838
v -11.397952 -1.442256 -2.850838
v -11.397952 -1.442256 -0.850838
v -10.533858 -1.442256 -0.850838
v -15.426494 -1.442256 -2.850838
v -14.994880 -0.838609 -1.851838
v -14.994880 -0.838609 -1.849838
v -15.426494 -1.442256 -0.850838
v -14.562400 -1.442256 -0.850838
v -14.994016 -0.838609 -1.849838
v -14.994016 -0.838609 -1.851838
v -14.562400 -1.442256 -2.850838
v -15.426494 -1.442256 -0.850838
v -14.994880 -0.838609 -1.849838
v -14.994016 -0.838609 -1.849838
v -14.562400 -1.442256 -0.850838
v -14.562400 -1.442256 -2.850838
v -14.994016 -0.838609 -1.851838
v -14.994880 -0.838609 -1.851838
v -15.426494 -1.442256 -2.850838
v -14.994016 -0.838609 -1.849838
v -14.994880 -0.838609 -1.849838
v -14.994880 -0.838609 -1.851838
v -14.994016 -0.838609 -1.851838
v -14.562400 -1.442256 -2.850838
v -15.426494 -1.442256 -2.850838
v -15.426494 -1.442256 -0.850838
v -14.562400 -1.442256 -0.850838
vn -0.8946 0.4469 -0.0000
vn -0.8946 0.4470 -0.0000
vn 0.8946 0.4469 -0.0000
vn 0.8946 0.4470 -0.0000
vn -0.0000 0.4469 0.8946
vn -0.0000 0.4468 0.8946
vn -0.0000 0.4468 -0.8946
vn -0.0000 0.4469 -0.8946
vn -0.0000 1.0000 -0.0000
vn -0.0000 -1.0000 -0.0000
vn 1.0000 -0.0000 -0.0000
vn -1.0000 -0.0000 -0.0000
vn -0.0000 -0.0000 1.0000
vn -0.0000 -0.0000 -1.0000
vn -0.8947 0.4468 -0.0000
vn -0.0000 0.4467 0.8947
vn -0.8945 0.4471 -0.0000
vn 0.8945 0.4472 -0.0000
vn -0.0000 0.4467 -0.8947
vn 0.8945 0.4471 -0.0000
vn -0.0000 0.4468 -0.8947
vn -0.8945 0.4470 -0.0000
vn 0.8946 0.4468 -0.0000
vn -0.8945 0.4472 -0.0000
vn -0.0000 0.4468 0.8947
vn 0.8945 0.4470 -0.0000
vn -0.0000 0.4466 0.8947
vt 1.000000 0.000000
vt 0.000000 0.000000
vt 0.000000 -1.000000
vt 1.000000 -1.000000
vt 1.000000 1.000000
vt 0.000000 1.000000
s 1
g off
g Pirámide_9_Material.001
usemtl Material.001
f 3/1/1 2/2/2 1/3/1
f 3/1/1 1/3/1 4/4/1
s 2
f 7/1/3 6/2/4 5/3/3
f 7/1/3 5/3/3 8/4/3
s 3
f 11/1/5 10/2/5 9/3/6
f 11/1/5 9/3/6 12/4/6
s 4
f 15/1/7 14/2/8 13/3/7
f 15/1/7 13/3/7 16/4/7
s 5
f 19/5/9 18/6/9 17/2/9
f 19/5/9 17/2/9 20/1/9
s 6
f 23/5/10 22/6/10 21/2/10
f 23/5/10 21/2/10 24/1/10
s 7
f 27/5/11 26/6/11 25/2/11
f 27/5/11 25/2/11 28/1/11
s 8
f 31/5/12 30/6/12 29/2/12
f 31/5/12 29/2/12 32/1/12
s 9
f 35/5/13 34/6/13 33/2/13
f 35/5/13 33/2/13 36/1/13
s 10
f 39/5/14 38/6/14 37/2/14
f 39/5/14 37/2/14 40/1/14
s 11
f 43/5/9 42/6/9 41/2/9
f 43/5/9 41/2/9 44/1/9
s 12
f 47/5/10 46/6/10 45/2/10
f 47/5/10 45/2/10 48/1/10
s 37
f 147/5/11 146/6/11 145/2/11
f 147/5/11 145/2/11 148/1/11
s 38
f 151/5/12 150/6/12 149/2/12
f 151/5/12 149/2/12 152/1/12
s 39
f 155/5/13 154/6/13 153/2/13
f 155/5/13 153/2/13 156/1/13
s 40
f 159/5/14 158/6/14 157/2/14
f 159/5/14 157/2/14 160/1/14
s 41
f 163/5/9 162/6/9 161/2/9
f 163/5/9 161/2/9 164/1/9
s 42
f 167/5/10 166/6/10 165/2/10
f 167/5/10 165/2/10 168/1/10
s 247
f 783/1/1 782/2/15 781/3/1
f 783/1/1 781/3/1 784/4/1
s 248
f 787/1/3 786/2/3 785/3/3
f 787/1/3 785/3/3 788/4/3
s 249
f 791/1/6 790/2/16 789/3/6
f 791/1/6 789/3/6 792/4/6
s 250
f 795/1/8 794/2/8 793/3/7
f 795/1/8 793/3/7 796/4/7
s 251
f 799/5/9 798/6/9 797/2/9
f 799/5/9 797/2/9 800/1/9
s 252
f 803/5/10 802/6/10 801/2/10
f 803/5/10 801/2/10 804/1/10
s 253
f 807/1/1 806/2/17 805/3/1
f 807/1/1 805/3/1 808/4/1
s 254
f 811/1/3 810/2/18 809/3/3
f 811/1/3 809/3/3 812/4/3
s 255
f 815/1/5 814/2/5 813/3/6
f 815/1/5 813/3/6 816/4/6
s 256
f 819/1/19 818/2/19 817/3/7
f 819/1/19 817/3/7 820/4/7
s 257
f 823/5/9 822/6/9 821/2/9
f 823/5/9 821/2/9 824/1/9
s 258
f 827/5/10 826/6/10 825/2/10
f 827/5/10 825/2/10 828/1/10
s 259
f 831/1/1 830/2/2 829/3/1
f 831/1/1 829/3/1 832/4/1
s 260
f 835/1/3 834/2/20 833/3/3
f 835/1/3 833/3/3 836/4/3
s 261
f 839/1/6 838/2/5 837/3/6
f 839/1/6 837/3/6 840/4/6
s 262
f 843/1/21 842/2/19 841/3/7
f 843/1/21 841/3/7 844/4/7
s 263
f 847/5/9 846/6/9 845/2/9
f 847/5/9 845/2/9 848/1/9
s 264
f 851/5/10 850/6/10 849/2/10
f 851/5/10 849/2/10 852/1/10
s 265
f 855/1/1 854/2/22 853/3/1
f 855/1/1 853/3/1 856/4/1
s 266
f 859/1/3 858/2/23 857/3/3
f 859/1/3 857/3/3 860/4/3
s 267
f 863/1/6 862/2/6 861/3/6
f 863/1/6 861/3/6 864/4/6
s 268
f 867/1/7 866/2/8 865/3/7
f 867/1/7 865/3/7 868/4/7
s 269
f 871/5/9 870/6/9 869/2/9
f 871/5/9 869/2/9 872/1/9
s 270
f 875/5/10 874/6/10 873/2/10
f 875/5/10 873/2/10 876/1/10
s 271
f 879/1/2 878/2/24 877/3/1
f 879/1/2 877/3/1 880/4/1
s 272
f 883/1/4 882/2/18 881/3/3
f 883/1/4 881/3/3 884/4/3
s 273
f 887/1/16 886/2/16 885/3/6
f 887/1/16 885/3/6 888/4/6
s 274
f 891/1/8 890/2/8 889/3/7
f 891/1/8 889/3/7 892/4/7
s 275
f 895/5/9 894/6/9 893/2/9
f 895/5/9 893/2/9 896/1/9
s 276
f 899/5/10 898/6/10 897/2/10
f 899/5/10 897/2/10 900/1/10
s 277
f 903/1/1 902/2/1 901/3/1
f 903/1/1 901/3/1 904/4/1
s 278
f 907/1/3 906/2/3 905/3/3
f 907/1/3 905/3/3 908/4/3
s 279
f 911/1/6 910/2/6 909/3/6
f 911/1/6 909/3/6 912/4/6
s 280
f 915/1/7 914/2/7 913/3/7
f 915/1/7 913/3/7 916/4/8
s 281
f 919/5/9 918/6/9 917/2/9
f 919/5/9 917/2/9 920/1/9
s 282
f 923/5/10 922/6/10 921/2/10
f 923/5/10 921/2/10 924/1/10
s 283
f 927/1/2 926/2/24 925/3/1
f 927/1/2 925/3/1 928/4/1
s 284
f 931/1/4 930/2/18 929/3/3
f 931/1/4 929/3/3 932/4/3
s 285
f 935/1/16 934/2/16 933/3/6
f 935/1/16 933/3/6 936/4/6
s 286
f 939/1/8 938/2/8 937/3/7
f 939/1/8 937/3/7 940/4/7
s 287
f 943/5/9 942/6/9 941/2/9
f 943/5/9 941/2/9 944/1/9
s 288
f 947/5/10 946/6/10 945/2/10
f 947/5/10 945/2/10 948/1/10
s 289
f 951/1/1 950/2/1 949/3/1
f 951/1/1 949/3/1 952/4/1
s 290
f 955/1/3 954/2/3 953/3/3
f 955/1/3 953/3/3 956/4/3
s 291
f 959/1/6 958/2/6 957/3/6
f 959/1/6 957/3/6 960/4/6
s 292
f 963/1/8 962/2/7 961/3/7
f 963/1/8 961/3/7 964/4/7
s 293
f 967/5/9 966/6/9 965/2/9
f 967/5/9 965/2/9 968/1/9
s 294
f 971/5/10 970/6/10 969/2/10
f 971/5/10 969/2/10 972/1/10
s 295
f 975/1/2 974/2/24 973/3/1
f 975/1/2 973/3/1 976/4/1
s 296
f 979/1/4 978/2/18 977/3/3
f 979/1/4 977/3/3 980/4/3
s 297
f 983/1/16 982/2/16 981/3/6
f 983/1/16 981/3/6 984/4/6
s 298
f 987/1/8 986/2/8 985/3/7
f 987/1/8 985/3/7 988/4/7
s 299
f 991/5/9 990/6/9 989/2/9
f 991/5/9 989/2/9 992/1/9
s 300
f 995/5/10 994/6/10 993/2/10
f 995/5/10 993/2/10 996/1/10
s 301
f 999/1/1 998/2/1 997/3/1
f 999/1/1 997/3/1 1000/4/1
s 302
f 1003/1/3 1002/2/3 1001/3/3
f 1003/1/3 1001/3/3 1004/4/3
s 303
f 1007/1/6 1006/2/6 1005/3/6
f 1007/1/6 1005/3/6 1008/4/6
s 304
f 1011/1/8 1010/2/7 1009/3/7
f 1011/1/8 1009/3/7 1012/4/8
s 305
f 1015/5/9 1014/6/9 1013/2/9
f 1015/5/9 1013/2/9 1016/1/9
s 306
f 1019/5/10 1018/6/10 1017/2/10
f 1019/5/10 1017/2/10 1020/1/10
s 307
f 1023/1/1 1022/2/22 1021/3/1
f 1023/1/1 1021/3/1 1024/4/1
s 308
f 1027/1/3 1026/2/23 1025/3/3
f 1027/1/3 1025/3/3 1028/4/3
s 309
f 1031/1/6 1030/2/6 1029/3/6
f 1031/1/6 1029/3/6 1032/4/6
s 310
f 1035/1/7 1034/2/19 1033/3/7
f 1035/1/7 1033/3/7 1036/4/7
s 311
f 1039/5/9 1038/6/9 1037/2/9
f 1039/5/9 1037/2/9 1040/1/9
s 312
f 1043/5/10 1042/6/10 1041/2/10
f 1043/5/10 1041/2/10 1044/1/10
s 313
f 1047/1/1 1046/2/2 1045/3/1
f 1047/1/1 1045/3/1 1048/4/1
s 314
f 1051/1/3 1050/2/18 1049/3/3
f 1051/1/3 1049/3/3 1052/4/3
s 315
f 1055/1/5 1054/2/5 1053/3/6
f 1055/1/5 1053/3/6 1056/4/6
s 316
f 1059/1/8 1058/2/8 1057/3/7
f 1059/1/8 1057/3/7 1060/4/7
s 317
f 1063/5/9 1062/6/9 1061/2/9
f 1063/5/9 1061/2/9 1064/1/9
s 318
f 1067/5/10 1066/6/10 1065/2/10
f 1067/5/10 1065/2/10 1068/1/10
s 319
f 1071/1/1 1070/2/1 1069/3/1
f 1071/1/1 1069/3/1 1072/4/1
s 320
f 1075/1/3 1074/2/4 1073/3/3
f 1075/1/3 1073/3/3 1076/4/3
s 321
f 1079/1/5 1078/2/5 1077/3/6
f 1079/1/5 1077/3/6 1080/4/6
s 322
f 1083/1/8 1082/2/8 1081/3/7
f 1083/1/8 1081/3/7 1084/4/7
s 323
f 1087/5/9 1086/6/9 1085/2/9
f 1087/5/9 1085/2/9 1088/1/9
s 324
f 1091/5/10 1090/6/10 1089/2/10
f 1091/5/10 1089/2/10 1092/1/10
s 325
f 1095/1/1 1094/2/22 1093/3/1
f 1095/1/1 1093/3/1 1096/4/1
s 326
f 1099/1/3 1098/2/23 1097/3/3
f 1099/1/3 1097/3/3 1100/4/3
s 327
f 1103/1/6 1102/2/6 1101/3/6
f 1103/1/6 1101/3/6 1104/4/6
s 328
f 1107/1/7 1106/2/7 1105/3/7
f 1107/1/7 1105/3/7 1108/4/7
s 329
f 1111/5/9 1110/6/9 1109/2/9
f 1111/5/9 1109/2/9 1112/1/9
s 330
f 1115/5/10 1114/6/10 1113/2/10
f 1115/5/10 1113/2/10 1116/1/10
s 331
f 1119/1/1 1118/2/2 1117/3/1
f 1119/1/1 1117/3/1 1120/4/1
s 332
f 1123/1/3 1122/2/4 1121/3/3
f 1123/1/3 1121/3/3 1124/4/3
s 333
f 1127/1/5 1126/2/5 1125/3/6
f 1127/1/5 1125/3/6 1128/4/6
s 334
f 1131/1/8 1130/2/8 1129/3/7
f 1131/1/8 1129/3/7 1132/4/7
s 335
f 1135/5/9 1134/6/9 1133/2/9
f 1135/5/9 1133/2/9 1136/1/9
s 336
f 1139/5/10 1138/6/10 1137/2/10
f 1139/5/10 1137/2/10 1140/1/10
s 337
f 1143/1/1 1142/2/1 1141/3/1
f 1143/1/1 1141/3/1 1144/4/1
s 338
f 1147/1/3 1146/2/23 1145/3/3
f 1147/1/3 1145/3/3 1148/4/3
s 339
f 1151/1/6 1150/2/6 1149/3/6
f 1151/1/6 1149/3/6 1152/4/6
s 340
f 1155/1/7 1154/2/19 1153/3/7
f 1155/1/7 1153/3/7 1156/4/7
s 341
f 1159/5/9 1158/6/9 1157/2/9
f 1159/5/9 1157/2/9 1160/1/9
s 342
f 1163/5/10 1162/6/10 1161/2/10
f 1163/5/10 1161/2/10 1164/1/10
s 343
f 1167/1/1 1166/2/24 1165/3/1
f 1167/1/1 1165/3/1 1168/4/1
s 344
f 1171/1/3 1170/2/4 1169/3/3
f 1171/1/3 1169/3/3 1172/4/3
s 345
f 1175/1/25 1174/2/16 1173/3/6
f 1175/1/25 1173/3/6 1176/4/6
s 346
f 1179/1/8 1178/2/8 1177/3/7
f 1179/1/8 1177/3/7 1180/4/7
s 347
f 1183/5/9 1182/6/9 1181/2/9
f 1183/5/9 1181/2/9 1184/1/9
s 348
f 1187/5/10 1186/6/10 1185/2/10
f 1187/5/10 1185/2/10 1188/1/10
s 349
f 1191/1/1 1190/2/22 1189/3/1
f 1191/1/1 1189/3/1 1192/4/1
s 350
f 1195/1/3 1194/2/23 1193/3/3
f 1195/1/3 1193/3/3 1196/4/3
s 351
f 1199/1/6 1198/2/6 1197/3/6
f 1199/1/6 1197/3/6 1200/4/6
s 352
f 1203/1/7 1202/2/8 1201/3/7
f 1203/1/7 1201/3/7 1204/4/7
s 353
f 1207/5/9 1206/6/9 1205/2/9
f 1207/5/9 1205/2/9 1208/1/9
s 354
f 1211/5/10 1210/6/10 1209/2/10
f 1211/5/10 1209/2/10 1212/1/10
s 355
f 1215/1/1 1214/2/2 1213/3/1
f 1215/1/1 1213/3/1 1216/4/1
s 356
f 1219/1/3 1218/2/4 1217/3/3
f 1219/1/3 1217/3/3 1220/4/3
s 357
f 1223/1/6 1222/2/5 1221/3/6
f 1223/1/6 1221/3/6 1224/4/6
s 358
f 1227/1/8 1226/2/8 1225/3/7
f 1227/1/8 1225/3/7 1228/4/7
s 359
f 1231/5/9 1230/6/9 1229/2/9
f 1231/5/9 1229/2/9 1232/1/9
s 360
f 1235/5/10 1234/6/10 1233/2/10
f 1235/5/10 1233/2/10 1236/1/10
s 361
f 1239/1/2 1238/2/24 1237/3/1
f 1239/1/2 1237/3/1 1240/4/1
s 362
f 1243/1/26 1242/2/18 1241/3/3
f 1243/1/26 1241/3/3 1244/4/3
s 363
f 1247/1/16 1246/2/27 1245/3/6
f 1247/1/16 1245/3/6 1248/4/6
s 364
f 1251/1/7 1250/2/8 1249/3/7
f 1251/1/7 1249/3/7 1252/4/7
s 365
f 1255/5/9 1254/6/9 1253/2/9
f 1255/5/9 1253/2/9 1256/1/9
s 366
f 1259/5/10 1258/6/10 1257/2/10
f 1259/5/10 1257/2/10 1260/1/10
s 367
f 1263/1/1 1262/2/1 1261/3/1
f 1263/1/1 1261/3/1 1264/4/1
s 368
f 1267/1/3 1266/2/3 1265/3/3
f 1267/1/3 1265/3/3 1268/4/3
s 369
f 1271/1/6 1270/2/6 1269/3/6
f 1271/1/6 1269/3/6 1272/4/6
s 370
f 1275/1/8 1274/2/7 1273/3/7
f 1275/1/8 1273/3/7 1276/4/7
s 371
f 1279/5/9 1278/6/9 1277/2/9
f 1279/5/9 1277/2/9 1280/1/9
s 372
f 1283/5/10 1282/6/10 1281/2/10
f 1283/5/10 1281/2/10 1284/1/10
s 373
f 1287/1/1 1286/2/1 1285/3/1
f 1287/1/1 1285/3/1 1288/4/1
s 374
f 1291/1/3 1290/2/4 1289/3/3
f 1291/1/3 1289/3/3 1292/4/3
s 375
f 1295/1/5 1294/2/5 1293/3/6
f 1295/1/5 1293/3/6 1296/4/6
s 376
f 1299/1/8 1298/2/8 1297/3/7
f 1299/1/8 1297/3/7 1300/4/7
s 377
f 1303/5/9 1302/6/9 1301/2/9
f 1303/5/9 1301/2/9 1304/1/9
s 378
f 1307/5/10 1306/6/10 1305/2/10
f 1307/5/10 1305/2/10 1308/1/10
s 379
f 1311/1/2 1310/2/24 1309/3/1
f 1311/1/2 1309/3/1 1312/4/1
s 380
f 1315/1/4 1314/2/18 1313/3/3
f 1315/1/4 1313/3/3 1316/4/3
s 381
f 1319/1/16 1318/2/16 1317/3/6
f 1319/1/16 1317/3/6 1320/4/5
s 382
f 1323/1/8 1322/2/8 1321/3/7
f 1323/1/8 1321/3/7 1324/4/7
s 383
f 1327/5/9 1326/6/9 1325/2/9
f 1327/5/9 1325/2/9 1328/1/9
s 384
f 1331/5/10 1330/6/10 1329/2/10
f 1331/5/10 1329/2/10 1332/1/10
s 385
f 1335/1/1 1334/2/22 1333/3/1
f 1335/1/1 1333/3/1 1336/4/1
s 386
f 1339/1/3 1338/2/23 1337/3/3
f 1339/1/3 1337/3/3 1340/4/3
s 387
f 1343/1/5 1342/2/5 1341/3/6
f 1343/1/5 1341/3/6 1344/4/6
s 388
f 1347/1/8 1346/2/8 1345/3/7
f 1347/1/8 1345/3/7 1348/4/7
s 389
f 1351/5/9 1350/6/9 1349/2/9
f 1351/5/9 1349/2/9 1352/1/9
s 390
f 1355/5/10 1354/6/10 1353/2/10
f 1355/5/10 1353/2/10 1356/1/10
s 391
f 1359/1/1 1358/2/1 1357/3/1
f 1359/1/1 1357/3/1 1360/4/1
s 392
f 1363/1/3 1362/2/3 1361/3/3
f 1363/1/3 1361/3/3 1364/4/3
s 393
f 1367/1/6 1366/2/6 1365/3/6
f 1367/1/6 1365/3/6 1368/4/6
s 394
f 1371/1/8 1370/2/7 1369/3/7
f 1371/1/8 1369/3/7 1372/4/7
s 395
f 1375/5/9 1374/6/9 1373/2/9
f 1375/5/9 1373/2/9 1376/1/9
s 396
f 1379/5/10 1378/6/10 1377/2/10
f 1379/5/10 1377/2/10 1380/1/10
s 397
f 1383/1/1 1382/2/1 1381/3/1
f 1383/1/1 1381/3/1 1384/4/1
s 398
f 1387/1/3 1386/2/3 1385/3/3
f 1387/1/3 1385/3/3 1388/4/3
s 399
f 1391/1/6 1390/2/6 1389/3/6
f 1391/1/6 1389/3/6 1392/4/6
s 400
f 1395/1/7 1394/2/7 1393/3/7
f 1395/1/7 1393/3/7 1396/4/7
s 401
f 1399/5/9 1398/6/9 1397/2/9
f 1399/5/9 1397/2/9 1400/1/9
s 402
f 1403/5/10 1402/6/10 1401/2/10
f 1403/5/10 1401/2/10 1404/1/10
s 403
f 1407/1/1 1406/2/2 1405/3/1
f 1407/1/1 1405/3/1 1408/4/1
s 404
f 1411/1/3 1410/2/4 1409/3/3
f 1411/1/3 1409/3/3 1412/4/3
s 405
f 1415/1/5 1414/2/5 1413/3/6
f 1415/1/5 1413/3/6 1416/4/6
s 406
f 1419/1/8 1418/2/8 1417/3/7
f 1419/1/8 1417/3/7 1420/4/7
s 407
f 1423/5/9 1422/6/9 1421/2/9
f 1423/5/9 1421/2/9 1424/1/9
s 408
f 1427/5/10 1426/6/10 1425/2/10
f 1427/5/10 1425/2/10 1428/1/10
s 409
f 1431/1/1 1430/2/1 1429/3/1
f 1431/1/1 1429/3/1 1432/4/1
s 410
f 1435/1/3 1434/2/23 1433/3/3
f 1435/1/3 1433/3/3 1436/4/3
s 411
f 1439/1/6 1438/2/6 1437/3/6
f 1439/1/6 1437/3/6 1440/4/6
s 412
f 1443/1/7 1442/2/19 1441/3/7
f 1443/1/7 1441/3/7 1444/4/7
s 413
f 1447/5/9 1446/6/9 1445/2/9
f 1447/5/9 1445/2/9 1448/1/9
s 414
f 1451/5/10 1450/6/10 1449/2/10
f 1451/5/10 1449/2/10 1452/1/10
s 415
f 1455/1/1 1454/2/2 1453/3/1
f 1455/1/1 1453/3/1 1456/4/1
s 416
f 1459/1/3 1458/2/4 1457/3/3
f 1459/1/3 1457/3/3 1460/4/3
s 417
f 1463/1/6 1462/2/5 1461/3/6
f 1463/1/6 1461/3/6 1464/4/6
s 418
f 1467/1/8 1466/2/8 1465/3/7
f 1467/1/8 1465/3/7 1468/4/7
s 419
f 1471/5/9 1470/6/9 1469/2/9
f 1471/5/9 1469/2/9 1472/1/9
s 420
f 1475/5/10 1474/6/10 1473/2/10
f 1475/5/10 1473/2/10 1476/1/10
s 421
f 1479/1/1 1478/2/1 1477/3/1
f 1479/1/1 1477/3/1 1480/4/1
s 422
f 1483/1/3 1482/2/23 1481/3/3
f 1483/1/3 1481/3/3 1484/4/3
s 423
f 1487/1/6 1486/2/6 1485/3/6
f 1487/1/6 1485/3/6 1488/4/6
s 424
f 1491/1/7 1490/2/19 1489/3/7
f 1491/1/7 1489/3/7 1492/4/7
s 425
f 1495/5/9 1494/6/9 1493/2/9
f 1495/5/9 1493/2/9 1496/1/9
s 426
f 1499/5/10 1498/6/10 1497/2/10
f 1499/5/10 1497/2/10 1500/1/10
s 427
f 1503/1/1 1502/2/22 1501/3/1
f 1503/1/1 1501/3/1 1504/4/1
s 428
f 1507/1/3 1506/2/23 1505/3/3
f 1507/1/3 1505/3/3 1508/4/3
s 429
f 1511/1/6 1510/2/6 1509/3/6
f 1511/1/6 1509/3/6 1512/4/6
s 430
f 1515/1/7 1514/2/7 1513/3/7
f 1515/1/7 1513/3/7 1516/4/7
s 431
f 1519/5/9 1518/6/9 1517/2/9
f 1519/5/9 1517/2/9 1520/1/9
s 432
f 1523/5/10 1522/6/10 1521/2/10
f 1523/5/10 1521/2/10 1524/1/10
s 13
g Pirámide_9_Material_1
usemtl Material_1
f 51/5/11 50/6/11 49/2/11
f 51/5/11 49/2/11 52/1/11
s 14
f 55/5/12 54/6/12 53/2/12
f 55/5/12 53/2/12 56/1/12
s 15
f 59/5/13 58/6/13 57/2/13
f 59/5/13 57/2/13 60/1/13
s 16
f 63/5/14 62/6/14 61/2/14
f 63/5/14 61/2/14 64/1/14
s 17
f 67/5/9 66/6/9 65/2/9
f 67/5/9 65/2/9 68/1/9
s 18
f 71/5/10 70/6/10 69/2/10
f 71/5/10 69/2/10 72/1/10
s 19
f 75/5/11 74/6/11 73/2/11
f 75/5/11 73/2/11 76/1/11
s 20
f 79/5/12 78/6/12 77/2/12
f 79/5/12 77/2/12 80/1/12
s 21
f 83/5/13 82/6/13 81/2/13
f 83/5/13 81/2/13 84/1/13
s 22
f 87/5/14 86/6/14 85/2/14
f 87/5/14 85/2/14 88/1/14
s 23
f 91/5/9 90/6/9 89/2/9
f 91/5/9 89/2/9 92/1/9
s 24
f 95/5/10 94/6/10 93/2/10
f 95/5/10 93/2/10 96/1/10
s 25
f 99/5/11 98/6/11 97/2/11
f 99/5/11 97/2/11 100/1/11
s 26
f 103/5/12 102/6/12 101/2/12
f 103/5/12 101/2/12 104/1/12
s 27
f 107/5/13 106/6/13 105/2/13
f 107/5/13 105/2/13 108/1/13
s 28
f 111/5/14 110/6/14 109/2/14
f 111/5/14 109/2/14 112/1/14
s 29
f 115/5/9 114/6/9 113/2/9
f 115/5/9 113/2/9 116/1/9
s 30
f 119/5/10 118/6/10 117/2/10
f 119/5/10 117/2/10 120/1/10
s 31
f 123/5/11 122/6/11 121/2/11
f 123/5/11 121/2/11 124/1/11
s 32
f 127/5/12 126/6/12 125/2/12
f 127/5/12 125/2/12 128/1/12
s 33
f 131/5/13 130/6/13 129/2/13
f 131/5/13 129/2/13 132/1/13
s 34
f 135/5/14 134/6/14 133/2/14
f 135/5/14 133/2/14 136/1/14
s 35
f 139/5/9 138/6/9 137/2/9
f 139/5/9 137/2/9 140/1/9
s 36
f 143/5/10 142/6/10 141/2/10
f 143/5/10 141/2/10 144/1/10
s 43
g Pirámide_9_Material_2
usemtl Material_2
f 171/5/11 170/6/11 169/2/11
s 44
f 174/5/11 173/2/11 172/1/11
s 45
f 177/5/12 176/6/12 175/2/12
s 46
f 180/5/12 179/2/12 178/1/12
s 47
f 183/5/13 182/6/13 181/2/13
s 48
f 186/5/13 185/2/13 184/1/13
s 49
f 189/5/14 188/6/14 187/2/14
s 50
f 192/5/14 191/2/14 190/1/14
s 51
f 195/5/9 194/6/9 193/2/9
s 52
f 198/5/9 197/2/9 196/1/9
s 53
f 201/5/10 200/6/10 199/2/10
s 54
f 204/5/10 203/2/10 202/1/10
s 55
f 207/5/11 206/6/11 205/2/11
s 56
f 210/5/11 209/2/11 208/1/11
s 57
f 213/5/12 212/6/12 211/2/12
s 58
f 216/5/12 215/2/12 214/1/12
s 59
f 219/5/13 218/6/13 217/2/13
s 60
f 222/5/13 221/2/13 220/1/13
s 61
f 225/5/14 224/6/14 223/2/14
s 62
f 228/5/14 227/2/14 226/1/14
s 63
f 231/5/9 230/6/9 229/2/9
s 64
f 234/5/9 233/2/9 232/1/9
s 65
f 237/5/10 236/6/10 235/2/10
s 66
f 240/5/10 239/2/10 238/1/10
s 67
f 243/5/11 242/6/11 241/2/11
s 68
f 246/5/11 245/2/11 244/1/11
s 69
f 249/5/12 248/6/12 247/2/12
s 70
f 252/5/12 251/2/12 250/1/12
s 71
f 255/5/13 254/6/13 253/2/13
s 72
f 258/5/13 257/2/13 256/1/13
s 73
f 261/5/14 260/6/14 259/2/14
s 74
f 264/5/14 263/2/14 262/1/14
s 75
f 267/5/9 266/6/9 265/2/9
s 76
f 270/5/9 269/2/9 268/1/9
s 77
f 273/5/10 272/6/10 271/2/10
s 78
f 276/5/10 275/2/10 274/1/10
s 79
f 279/5/11 278/6/11 277/2/11
s 80
f 282/5/11 281/2/11 280/1/11
s 81
f 285/5/12 284/6/12 283/2/12
s 82
f 288/5/12 287/2/12 286/1/12
s 83
f 291/5/13 290/6/13 289/2/13
s 84
f 294/5/13 293/2/13 292/1/13
s 85
f 297/5/14 296/6/14 295/2/14
s 86
f 300/5/14 299/2/14 298/1/14
s 87
f 303/5/9 302/6/9 301/2/9
s 88
f 306/5/9 305/2/9 304/1/9
s 89
f 309/5/10 308/6/10 307/2/10
s 90
f 312/5/10 311/2/10 310/1/10
s 91
f 315/5/11 314/6/11 313/2/11
s 92
f 318/5/11 317/2/11 316/1/11
s 93
f 321/5/12 320/6/12 319/2/12
s 94
f 324/5/12 323/2/12 322/1/12
s 95
f 327/5/13 326/6/13 325/2/13
s 96
f 330/5/13 329/2/13 328/1/13
s 97
f 333/5/14 332/6/14 331/2/14
s 98
f 336/5/14 335/2/14 334/1/14
s 99
f 339/5/9 338/6/9 337/2/9
s 100
f 342/5/9 341/2/9 340/1/9
s 101
f 345/5/10 344/6/10 343/2/10
s 102
f 348/5/10 347/2/10 346/1/10
s 103
f 351/5/11 350/6/11 349/2/11
s 104
f 354/5/11 353/2/11 352/1/11
s 105
f 357/5/12 356/6/12 355/2/12
s 106
f 360/5/12 359/2/12 358/1/12
s 107
f 363/5/13 362/6/13 361/2/13
s 108
f 366/5/13 365/2/13 364/1/13
s 109
f 369/5/14 368/6/14 367/2/14
s 110
f 372/5/14 371/2/14 370/1/14
s 111
f 375/5/9 374/6/9 373/2/9
s 112
f 378/5/9 377/2/9 376/1/9
s 113
f 381/5/10 380/6/10 379/2/10
s 114
f 384/5/10 383/2/10 382/1/10
s 115
f 387/5/11 386/6/11 385/2/11
s 116
f 390/5/11 389/2/11 388/1/11
s 117
f 393/5/12 392/6/12 391/2/12
s 118
f 396/5/12 395/2/12 394/1/12
s 119
f 399/5/13 398/6/13 397/2/13
s 120
f 402/5/13 401/2/13 400/1/13
s 121
f 405/5/14 404/6/14 403/2/14
s 122
f 408/5/14 407/2/14 406/1/14
s 123
f 411/5/9 410/6/9 409/2/9
s 124
f 414/5/9 413/2/9 412/1/9
s 125
f 417/5/10 416/6/10 415/2/10
s 126
f 420/5/10 419/2/10 418/1/10
s 127
f 423/5/11 422/6/11 421/2/11
s 128
f 426/5/11 425/2/11 424/1/11
s 129
f 429/5/12 428/6/12 427/2/12
s 130
f 432/5/12 431/2/12 430/1/12
s 131
f 435/5/13 434/6/13 433/2/13
s 132
f 438/5/13 437/2/13 436/1/13
s 133
f 441/5/14 440/6/14 439/2/14
s 134
f 444/5/14 443/2/14 442/1/14
s 135
f 447/5/9 446/6/9 445/2/9
s 136
f 450/5/9 449/2/9 448/1/9
s 137
f 453/5/10 452/6/10 451/2/10
s 138
f 456/5/10 455/2/10 454/1/10
s 139
f 459/5/11 458/6/11 457/2/11
s 140
f 462/5/11 461/2/11 460/1/11
s 141
f 465/5/12 464/6/12 463/2/12
s 142
f 468/5/12 467/2/12 466/1/12
s 143
f 471/5/13 470/6/13 469/2/13
s 144
f 474/5/13 473/2/13 472/1/13
s 145
f 477/5/14 476/6/14 475/2/14
s 146
f 480/5/14 479/2/14 478/1/14
s 147
f 483/5/9 482/6/9 481/2/9
s 148
f 486/5/9 485/2/9 484/1/9
s 149
f 489/5/10 488/6/10 487/2/10
s 150
f 492/5/10 491/2/10 490/1/10
s 151
f 495/5/11 494/6/11 493/2/11
s 152
f 498/5/11 497/2/11 496/1/11
s 153
f 501/5/12 500/6/12 499/2/12
s 154
f 504/5/12 503/2/12 502/1/12
s 155
f 507/5/13 506/6/13 505/2/13
s 156
f 510/5/13 509/2/13 508/1/13
s 157
f 513/5/14 512/6/14 511/2/14
s 158
f 516/5/14 515/2/14 514/1/14
s 159
f 519/5/9 518/6/9 517/2/9
s 160
f 522/5/9 521/2/9 520/1/9
s 161
f 525/5/10 524/6/10 523/2/10
s 162
f 528/5/10 527/2/10 526/1/10
s 163
f 531/5/11 530/6/11 529/2/11
s 164
f 534/5/11 533/2/11 532/1/11
s 165
f 537/5/12 536/6/12 535/2/12
s 166
f 540/5/12 539/2/12 538/1/12
s 167
f 543/5/13 542/6/13 541/2/13
s 168
f 546/5/13 545/2/13 544/1/13
s 169
f 549/5/14 548/6/14 547/2/14
s 170
f 552/5/14 551/2/14 550/1/14
s 171
f 555/5/9 554/6/9 553/2/9
s 172
f 558/5/9 557/2/9 556/1/9
s 173
f 561/5/10 560/6/10 559/2/10
s 174
f 564/5/10 563/2/10 562/1/10
s 175
f 567/5/11 566/6/11 565/2/11
s 176
f 570/5/11 569/2/11 568/1/11
s 177
f 573/5/12 572/6/12 571/2/12
s 178
f 576/5/12 575/2/12 574/1/12
s 179
f 579/5/13 578/6/13 577/2/13
s 180
f 582/5/13 581/2/13 580/1/13
s 181
f 585/5/14 584/6/14 583/2/14
s 182
f 588/5/14 587/2/14 586/1/14
s 183
f 591/5/9 590/6/9 589/2/9
s 184
f 594/5/9 593/2/9 592/1/9
s 185
f 597/5/10 596/6/10 595/2/10
s 186
f 600/5/10 599/2/10 598/1/10
s 187
f 603/5/11 602/6/11 601/2/11
s 188
f 606/5/11 605/2/11 604/1/11
s 189
f 609/5/12 608/6/12 607/2/12
s 190
f 612/5/12 611/2/12 610/1/12
s 191
f 615/5/13 614/6/13 613/2/13
s 192
f 618/5/13 617/2/13 616/1/13
s 193
f 621/5/14 620/6/14 619/2/14
s 194
f 624/5/14 623/2/14 622/1/14
s 195
f 627/5/9 626/6/9 625/2/9
s 196
f 630/5/9 629/2/9 628/1/9
s 197
f 633/5/10 632/6/10 631/2/10
s 198
f 636/5/10 635/2/10 634/1/10
s 199
f 639/5/11 638/6/11 637/2/11
s 200
f 642/5/11 641/2/11 640/1/11
s 201
f 645/5/12 644/6/12 643/2/12
s 202
f 648/5/12 647/2/12 646/1/12
s 203
f 651/5/13 650/6/13 649/2/13
s 204
f 654/5/13 653/2/13 652/1/13
s 205
f 657/5/14 656/6/14 655/2/14
s 206
f 660/5/14 659/2/14 658/1/14
s 207
f 663/5/9 662/6/9 661/2/9
s 208
f 666/5/9 665/2/9 664/1/9
s 209
f 669/5/10 668/6/10 667/2/10
s 210
f 672/5/10 671/2/10 670/1/10
s 211
f 675/5/11 674/6/11 673/2/11
s 212
f 678/5/11 677/2/11 676/1/11
s 213
f 681/5/12 680/6/12 679/2/12
s 214
f 684/5/12 683/2/12 682/1/12
s 215
f 687/5/13 686/6/13 685/2/13
s 216
f 690/5/13 689/2/13 688/1/13
s 217
f 693/5/14 692/6/14 691/2/14
s 218
f 696/5/14 695/2/14 694/1/14
s 219
f 699/5/9 698/6/9 697/2/9
s 220
f 702/5/9 701/2/9 700/1/9
s 221
f 705/5/10 704/6/10 703/2/10
s 222
f 708/5/10 707/2/10 706/1/10
s 223
f 711/5/11 710/6/11 709/2/11
s 224
f 714/5/11 713/2/11 712/1/11
s 225
f 717/5/12 716/6/12 715/2/12
s 226
f 720/5/12 719/2/12 718/1/12
s 227
f 723/5/13 722/6/13 721/2/13
s 228
f 726/5/13 725/2/13 724/1/13
s 229
f 729/5/14 728/6/14 727/2/14
s 230
f 732/5/14 731/2/14 730/1/14
s 231
f 735/5/9 734/6/9 733/2/9
s 232
f 738/5/9 737/2/9 736/1/9
s 233
f 741/5/10 740/6/10 739/2/10
s 234
f 744/5/10 743/2/10 742/1/10
s 235
f 747/5/11 746/6/11 745/2/11
s 236
f 750/5/11 749/2/11 748/1/11
s 237
f 753/5/12 752/6/12 751/2/12
s 238
f 756/5/12 755/2/12 754/1/12
s 239
f 759/5/13 758/6/13 757/2/13
s 240
f 762/5/13 761/2/13 760/1/13
s 241
f 765/5/14 764/6/14 763/2/14
s 242
f 768/5/14 767/2/14 766/1/14
s 243
f 771/5/9 770/6/9 769/2/9
s 244
f 774/5/9 773/2/9 772/1/9
s 245
f 777/5/10 776/6/10 775/2/10
s 246
f 780/5/10 779/2/10 778/1/10
