# Blender 5.0.1
# www.blender.org
mtllib PeachBrazoD.mtl
o PeachBrazoD
v -0.075666 0.056756 0.011505
v -0.073753 0.023236 0.051189
v -0.003147 0.057780 0.010233
v -0.075417 0.049149 -0.038469
v -0.003802 0.018533 0.051665
v -0.002898 0.050172 -0.039741
v -0.075997 -0.013092 -0.043393
v -0.003487 -0.014065 -0.046234
v -0.074131 -0.056592 -0.011553
v -0.004180 -0.061295 -0.011077
v -0.074264 -0.037357 0.038133
v -0.001803 -0.040094 0.040191
v -0.198783 0.014734 0.042668
v -0.233725 -0.003624 0.005727
v -0.199198 -0.034116 0.032557
v -0.200951 -0.005629 -0.039365
v -0.199085 -0.049128 -0.007524
v -0.200687 0.050251 0.004554
v -0.200555 0.039230 -0.032390
vn -0.0573 0.9603 0.2731
vn -0.0310 0.2876 0.9573
vn 0.0040 0.9536 0.3009
vn -0.0470 0.6394 -0.7674
vn 0.0122 0.2788 0.9603
vn -0.0299 0.4300 -0.9023
vn -0.0432 -0.2572 -0.9654
vn -0.0397 -0.3742 -0.9265
vn -0.0595 -0.9479 -0.3130
vn -0.0591 -0.9969 -0.0523
vn -0.0542 -0.6129 0.7883
vn -0.0366 -0.4633 0.8854
vn -0.3381 0.2592 0.9047
vn -0.9531 0.0892 0.2893
vn -0.3773 -0.6572 0.6525
vn -0.5310 0.8154 0.2306
vn -0.4735 0.6636 -0.5791
vn -0.1747 -0.9509 -0.2555
vn -0.2628 -0.1084 -0.9587
vt 0.914931 0.172021
vt 0.921342 0.217574
vt 0.861814 0.182897
vt 0.911171 0.144263
vt 0.868916 0.232676
vt 0.857849 0.155473
vt 0.924822 0.240441
vt 0.872052 0.255031
vt 0.911133 0.904785
vt 0.973633 0.967285
vt 0.973633 0.904785
s 1
usemtl Material03
f 1/1/1 2/2/2 3/3/3
f 3/3/3 4/4/4 1/1/1
f 5/5/5 3/3/3 2/2/2
f 6/6/6 4/4/4 3/3/3
f 6/6/6 7/1/7 4/4/4
f 8/3/8 7/1/7 6/6/6
f 7/1/7 8/3/8 9/2/9
f 10/5/10 9/2/9 8/3/8
f 10/5/10 11/7/11 9/2/9
f 12/8/12 11/7/11 10/5/10
f 12/8/12 2/2/2 11/7/11
f 5/5/5 2/2/2 12/8/12
f 13/9/13 14/10/14 15/11/15
f 18/9/16 19/10/17 14/11/14
f 17/9/18 15/10/15 14/11/14
f 14/9/14 13/10/13 18/11/16
f 16/9/19 14/10/14 19/11/17
f 16/9/19 7/10/7 17/11/18
f 7/9/7 9/10/9 17/11/18
f 17/9/18 9/10/9 15/11/15
f 15/9/15 9/10/9 11/11/11
f 15/9/15 11/10/11 13/11/13
f 2/9/2 1/10/1 13/11/13
f 13/9/13 11/10/11 2/11/2
f 18/9/16 13/10/13 1/11/1
f 16/9/19 4/10/4 7/11/7
f 19/9/17 4/10/4 16/11/19
f 19/9/17 1/10/1 4/11/4
f 18/9/16 1/10/1 19/11/17
