# Blender 5.0.1
# www.blender.org
mtllib PeachBody.mtl
o Peach
v 0.500561 0.382310 0.008010
v 0.406997 0.001012 0.346668
v 0.576808 0.001702 0.008024
v 0.341147 0.400517 0.291746
v 0.340698 0.400386 -0.305270
v 0.447762 0.586736 0.012585
v 0.261668 0.751033 0.241416
v 0.001991 0.001316 0.481877
v 0.000727 0.382568 0.410907
v -0.000196 0.560858 0.367418
v 0.406461 0.000856 -0.364720
v 0.001217 0.001090 -0.545174
v 0.261310 0.750929 -0.234367
v -0.000775 0.560690 -0.401156
v 0.000072 0.382377 -0.458313
v -0.339052 0.400199 0.292169
v -0.403282 -0.001180 0.347172
v -0.403754 0.001404 -0.364216
v -0.339501 0.400068 -0.304847
v -0.571040 0.000652 0.008738
v -0.263945 0.746310 -0.234040
v -0.447487 0.586902 0.013141
v -0.499714 0.382649 0.008632
v -0.263585 0.746415 0.244031
v 0.002544 1.021433 -0.138178
v 0.112601 1.021131 -0.094786
v 0.000337 0.928224 -0.215934
v -0.112508 1.019152 -0.094645
v -0.202158 0.928378 -0.138036
v -0.112353 1.019197 0.111222
v -0.159912 1.020493 0.010605
v -0.284564 0.927964 0.031284
v 0.160163 1.019836 0.010406
v 0.202949 0.928104 -0.138288
v 0.285611 0.928593 0.030930
v 0.112756 1.021177 0.111082
v 0.002765 1.021497 0.154612
v -0.201914 0.928450 0.186778
v 0.000683 0.928325 0.243837
v 0.203194 0.928175 0.186526
v 0.069394 1.444971 0.022753
v 0.056935 1.598353 0.016433
v 0.004421 1.446636 0.066222
v 0.036909 1.596284 -0.038430
v 0.044363 1.442472 -0.043541
v -0.025585 1.596305 -0.038403
v 0.004457 1.599667 0.050752
v -0.033132 1.442412 -0.045793
v -0.045556 1.598387 0.016478
v -0.058095 1.445015 0.022808
v -0.083081 1.451282 0.043252
v -0.083129 1.447737 -0.050488
v -0.160566 1.417066 0.080805
v -0.050557 1.415671 0.117411
v -0.173106 1.250164 0.092069
v -0.173175 1.242322 -0.042754
v -0.055556 1.335190 0.165304
v -0.015551 1.378764 0.157274
v -0.095579 1.241942 0.165487
v -0.160629 1.412311 -0.044944
v -0.043067 1.286117 0.173456
v 0.056933 1.415635 0.117364
v 0.021946 1.378750 0.157257
v -0.083137 1.165180 0.094265
v 0.101904 1.241874 0.165401
v 0.166906 1.416955 0.080662
v 0.061934 1.335150 0.165253
v 0.179295 1.242202 -0.042908
v 0.179364 1.250043 0.091915
v 0.089404 1.451223 0.043177
v 0.089357 1.447679 -0.050564
v 0.166843 1.412199 -0.045087
v 0.001930 1.444588 0.084586
v 0.001925 1.264351 0.178586
v 0.001952 1.489213 0.104009
v 0.109423 1.501063 0.055588
v 0.091864 1.504621 -0.068084
v -0.103059 1.501135 0.055681
v 0.089348 1.165121 0.094190
v 0.049425 1.286085 0.173415
v -0.083172 1.412258 -0.118214
v 0.089313 1.412199 -0.118289
v -0.083209 1.240303 -0.095380
v 0.089279 1.157280 -0.040633
v -0.083206 1.157339 -0.040558
v 0.089276 1.240244 -0.095455
v -0.085621 1.504682 -0.068006
v 0.001955 1.330986 0.199719
v 0.040915 1.220557 0.104086
v 0.039820 1.116363 0.105918
v 0.086857 1.219885 0.060673
v -0.057236 1.061357 0.164418
v -0.089801 1.116946 0.063975
v -0.181675 1.063454 0.102221
v -0.098064 1.116518 0.003023
v -0.196536 1.062324 -0.023991
v -0.252471 0.925974 0.119425
v -0.083117 0.925544 0.230080
v -0.033657 1.117895 0.103952
v -0.050546 1.118712 -0.037577
v 0.084637 1.062256 0.188395
v 0.079287 1.219721 0.004792
v -0.033445 1.219487 0.104378
v 0.088951 1.115544 0.061115
v 0.079075 1.118129 0.004366
v 0.021669 1.221384 -0.038206
v -0.050334 1.220304 -0.037151
v -0.088706 1.221140 0.062143
v 0.021406 1.117053 -0.038527
v -0.094612 1.220701 0.001953
v -0.275822 0.927957 -0.053394
v -0.090735 1.062188 -0.133089
v 0.060428 1.061177 -0.140030
v -0.128983 0.924834 -0.200100
v 0.084618 0.925346 -0.203922
v 0.175576 1.060990 -0.046915
v 0.182899 1.060617 0.098788
v 0.247125 0.923677 -0.068706
v 0.248150 0.843854 -0.072125
v 0.261708 0.845855 0.119213
v 0.263872 0.925530 0.121241
v 0.126965 0.924269 0.242204
v -0.256437 0.846975 0.128930
v 0.122998 0.845269 0.251708
v -0.082092 0.845721 0.226661
v -0.128789 0.845148 -0.201366
v -0.273272 0.848261 -0.053897
v 0.084811 0.845660 -0.205187
v 0.086103 1.635992 0.172783
v 0.028559 1.635911 0.191104
v 0.003549 1.532418 0.162150
v -0.018939 1.635954 0.191005
v -0.076393 1.636142 0.172443
v 0.143891 1.626965 0.051708
v 0.148973 1.613293 0.013914
v 0.219190 1.721437 -0.040429
v 0.209130 1.646963 -0.039979
v 0.091286 1.578517 0.079439
v 0.123663 1.629354 0.145874
v 0.003992 1.534415 -0.017719
v -0.198359 1.647338 -0.040831
v -0.138519 1.613558 0.013313
v -0.208299 1.721831 -0.041322
v -0.133601 1.627221 0.051128
v -0.081209 1.578676 0.079078
v -0.113831 1.629572 0.145378
v -0.086303 1.711740 0.160325
v -0.138683 1.701627 0.108242
v -0.158649 1.783514 0.120819
v -0.071213 1.871124 0.174506
v 0.003700 1.827034 0.195150
v 0.081282 1.870984 0.174825
v 0.096192 1.711572 0.160707
v 0.003630 1.704001 0.184307
v 0.003519 1.667365 0.217882
v 0.148810 1.701362 0.108843
v 0.168842 1.783213 0.121504
v 0.004443 2.007382 -0.050766
v -0.042808 2.061776 -0.134569
v -0.115415 2.120553 -0.071435
v -0.053173 2.084102 0.022138
v 0.064323 2.083993 0.022384
v 0.127079 2.120330 -0.070928
v 0.004342 2.161119 0.039959
v 0.054690 2.061684 -0.134366
v 0.004799 2.133302 -0.155383
v 0.004677 1.998920 -0.148977
v -0.042864 2.007320 -0.129174
v 0.004212 2.001261 0.041979
v 0.054634 2.007230 -0.128970
v -0.100516 2.022521 -0.061690
v -0.053227 2.032370 0.027264
v 0.064270 2.032262 0.027510
v 0.111979 2.022326 -0.061246
v 0.426891 1.472846 -0.284894
v 0.374319 1.319225 -0.206298
v 0.244382 1.430300 -0.273886
v 0.314385 1.471174 -0.212225
v 0.289290 1.243783 -0.185452
v 0.239229 1.092021 -0.174425
v 0.104270 1.197932 -0.115034
v 0.279424 1.593360 -0.138801
v 0.216779 1.153257 -0.314739
v 0.126944 1.531040 -0.360720
v 0.119525 1.784886 -0.225297
v 0.144323 1.217064 -0.405991
v 0.111943 1.654727 -0.048904
v 0.169521 1.828318 -0.114571
v -0.415563 1.473229 -0.285005
v -0.363141 1.319559 -0.206396
v -0.303082 1.471456 -0.212307
v -0.278178 1.245213 -0.187595
v -0.233091 1.430517 -0.273949
v -0.228245 1.092234 -0.174487
v -0.093219 1.198022 -0.115060
v -0.205698 1.153451 -0.314795
v -0.268046 1.593609 -0.138874
v -0.103045 1.654824 -0.048932
v -0.157961 1.828465 -0.114615
v -0.107963 1.784991 -0.225327
v -0.113043 1.531149 -0.360751
v -0.133162 1.217191 -0.406027
v -0.047942 1.893632 -0.106614
v -0.140781 0.975466 -0.273588
v 0.151703 0.975333 -0.273549
v 0.004344 1.229319 -0.454331
v 0.004257 1.035730 -0.401584
v -0.113242 1.045907 -0.344487
v 0.126745 1.045797 -0.344455
v 0.304190 0.947304 -0.309841
v 0.004475 1.583229 -0.383202
v 0.004220 0.913424 -0.480126
v 0.059552 1.893584 -0.106600
v -0.293278 0.947576 -0.309921
v -0.150496 1.584594 -0.209583
v -0.283037 1.711819 -0.151047
v -0.180261 1.801791 -0.235773
v 0.004675 1.634513 -0.264896
v 0.004510 1.560730 -0.220729
v 0.192229 1.801448 -0.234994
v 0.294448 1.711288 -0.149840
v 0.161996 1.584307 -0.208930
v 0.324588 1.815504 -0.173928
v 0.264392 1.804451 -0.096938
v 0.196384 1.670668 0.068214
v 0.214103 1.746969 0.003101
v 0.271736 1.828408 -0.025586
v -0.203386 1.747354 0.002228
v -0.260749 1.828899 -0.026699
v -0.186105 1.671020 0.067414
v -0.312895 1.816092 -0.175261
v -0.253094 1.804929 -0.098020
v -0.283376 1.952383 0.064676
v -0.111175 1.973059 0.191967
v -0.193063 1.924401 -0.072883
v 0.204426 1.924034 -0.072053
v 0.294109 1.951851 0.065883
v 0.121318 1.972846 0.192453
v -0.110378 2.002583 -0.124232
v -0.090224 1.894792 -0.221774
v 0.004816 1.892116 -0.239747
v 0.004782 1.798708 -0.255829
v -0.123159 2.031275 -0.000409
v -0.093462 2.043916 0.127393
v 0.003623 1.889574 0.246539
v 0.003828 2.001475 0.198595
v 0.104033 2.043734 0.127806
v 0.102271 1.894615 -0.221372
v 0.122116 2.002369 -0.123746
v 0.134335 2.031038 0.000129
v 0.171438 1.563294 0.012003
v 0.133944 1.568774 0.011385
v 0.191510 1.579100 -0.012558
v 0.203938 1.574801 0.015534
v 0.219003 1.605520 -0.001300
v 0.216412 1.605252 0.035577
v 0.186366 1.576300 0.045296
v 0.208909 1.640195 0.048224
v 0.214058 1.642672 -0.011902
v 0.158841 1.595249 0.061791
v 0.183935 1.670491 0.047475
v 0.191584 1.672965 -0.012646
v 0.136367 1.625543 0.061048
v 0.111471 1.599068 0.010641
v 0.144104 1.631334 -0.033954
v 0.169078 1.601037 -0.033205
v -0.180975 1.579119 -0.015608
v -0.208485 1.605913 -0.002194
v -0.203431 1.643057 -0.012775
v -0.206076 1.605641 0.034694
v -0.176119 1.576310 0.042267
v -0.151151 1.595535 0.061143
v -0.193546 1.574844 0.012432
v -0.126043 1.568689 0.008570
v -0.161053 1.563600 0.011308
v -0.198580 1.640571 0.047372
v -0.126126 1.625785 0.060499
v -0.101018 1.598940 0.007926
v -0.176055 1.670823 0.046722
v -0.180906 1.673309 -0.013424
v -0.158408 1.601015 -0.036161
v -0.133388 1.631589 -0.034534
v -0.093273 1.377502 0.013561
v -0.070330 1.372578 -0.062256
v -0.094397 1.465888 -0.064706
v -0.087342 1.372002 -0.138386
v -0.086218 1.283617 -0.060120
v -0.138947 1.234344 -0.099617
v -0.144170 1.413924 -0.178561
v -0.140101 1.320850 -0.176219
v -0.151710 1.508592 -0.028845
v -0.148735 1.505785 -0.106435
v -0.139423 1.237123 -0.022014
v -0.150557 1.422087 0.047757
v -0.146487 1.329013 0.050098
v -0.257007 1.396801 -0.152821
v -0.261675 1.466709 -0.097949
v -0.263057 1.402996 0.018528
v -0.258755 1.333176 0.020291
v -0.264532 1.468822 -0.039760
v -0.255205 1.327010 -0.151071
v -0.253729 1.261184 -0.092784
v -0.254057 1.265148 -0.036246
v 0.103273 1.377502 0.013561
v 0.080330 1.372578 -0.062256
v 0.104397 1.465888 -0.064706
v 0.097342 1.372002 -0.138386
v 0.096218 1.283617 -0.060120
v 0.148947 1.234344 -0.099617
v 0.154170 1.413924 -0.178561
v 0.150101 1.320850 -0.176219
v 0.161710 1.508592 -0.028845
v 0.158735 1.505785 -0.106435
v 0.149423 1.237123 -0.022014
v 0.160557 1.422087 0.047757
v 0.156487 1.329013 0.050098
v 0.267007 1.396801 -0.152821
v 0.271675 1.466709 -0.097949
v 0.273057 1.402996 0.018528
v 0.268755 1.333176 0.020291
v 0.274532 1.468822 -0.039760
v 0.265205 1.327010 -0.151071
v 0.263729 1.261184 -0.092784
v 0.264057 1.265148 -0.036246
vn 0.9680 0.2236 0.1138
vn 0.7215 0.1998 0.6629
vn 0.9677 0.2044 -0.1474
vn 0.5695 0.2219 0.7914
vn 0.6613 0.2462 -0.7086
vn 0.9438 0.3296 0.0255
vn 0.5757 0.3419 0.7427
vn 0.0003 0.1856 0.9826
vn -0.0000 0.2100 0.9777
vn 0.0012 0.2554 0.9668
vn 0.6793 0.2162 -0.7013
vn -0.0009 0.2192 -0.9757
vn 0.6000 0.4285 -0.6756
vn -0.0022 0.3490 -0.9371
vn -0.0014 0.2639 -0.9646
vn -0.5689 0.2174 0.7931
vn -0.7225 0.1939 0.6637
vn -0.6827 0.2141 -0.6986
vn -0.6635 0.2422 -0.7079
vn -0.9699 0.1945 -0.1467
vn -0.6025 0.4268 -0.6743
vn -0.9446 0.3272 0.0258
vn -0.9695 0.2167 0.1143
vn -0.5750 0.3426 0.7430
vn -0.0044 0.9011 -0.4335
vn 0.2733 0.8743 -0.4011
vn -0.0003 0.5736 -0.8191
vn -0.2660 0.8756 -0.4032
vn -0.5425 0.6518 -0.5299
vn -0.1913 0.9522 0.2380
vn -0.4699 0.8787 -0.0843
vn -0.7812 0.6217 0.0564
vn 0.3203 0.9452 -0.0639
vn 0.5435 0.6516 -0.5292
vn 0.7816 0.6214 0.0539
vn 0.3358 0.8463 0.4136
vn -0.0025 0.9194 0.3934
vn -0.4831 0.6139 0.6243
vn 0.0021 0.5384 0.8427
vn 0.4863 0.6070 0.6285
vn 0.9943 0.0819 0.0690
vn 0.8279 0.0923 0.5533
vn 0.2097 0.0966 0.9730
vn 0.7229 0.0599 -0.6884
vn 0.3575 0.0531 -0.9324
vn -0.3396 0.0557 -0.9389
vn -0.2297 0.0968 0.9684
vn -0.7200 0.0685 -0.6906
vn -0.9939 0.0842 0.0706
vn -0.8362 0.0917 0.5407
vn -0.6460 0.3461 0.6804
vn -0.5903 0.6474 -0.4820
vn -0.6546 0.5600 0.5078
vn -0.1149 0.7699 0.6277
vn -0.8457 -0.4233 0.3250
vn -0.8828 -0.2467 -0.3997
vn -0.4069 0.2627 0.8749
vn -0.1697 0.6267 0.7605
vn -0.3400 -0.2131 0.9159
vn -0.7502 0.4013 -0.5256
vn -0.2850 -0.0523 0.9571
vn 0.0955 0.7650 0.6369
vn 0.2015 0.6000 0.7742
vn -0.2407 -0.8745 0.4211
vn 0.3011 -0.2823 0.9108
vn 0.6554 0.5597 0.5072
vn 0.4019 0.2619 0.8774
vn 0.8771 -0.3495 -0.3296
vn 0.8609 -0.3248 0.3916
vn 0.6385 0.5370 0.5514
vn 0.6277 0.4518 -0.6340
vn 0.7499 0.4008 -0.5263
vn 0.0960 0.2787 0.9556
vn -0.0031 -0.2351 0.9720
vn -0.1590 -0.0888 0.9833
vn 0.7569 0.4058 0.5124
vn 0.6195 0.3195 -0.7170
vn -0.8631 0.3527 0.3613
vn 0.4404 -0.8354 0.3289
vn 0.2773 -0.0525 0.9594
vn -0.3430 0.4266 -0.8369
vn 0.2282 0.4285 -0.8743
vn -0.2504 -0.2918 -0.9231
vn 0.2266 -0.8492 -0.4770
vn -0.4327 -0.8246 -0.3644
vn 0.3503 -0.2641 -0.8986
vn -0.3794 0.4246 -0.8221
vn -0.0059 0.1798 0.9837
vn 0.1956 0.5226 0.8299
vn 0.3194 0.4613 0.8277
vn 0.8204 0.3228 0.4719
vn -0.2237 0.6834 0.6949
vn -0.6637 0.4677 0.5837
vn -0.5576 0.7016 0.4436
vn -0.8317 0.5271 -0.1745
vn -0.6573 0.7278 -0.1956
vn -0.8800 0.2690 0.3915
vn -0.2999 0.2299 0.9259
vn -0.2231 0.3156 0.9223
vn -0.4118 0.4887 -0.7691
vn 0.1789 0.6810 0.7100
vn 0.6597 0.6933 -0.2901
vn -0.2592 0.7663 0.5879
vn 0.8184 0.5227 0.2388
vn 0.7194 0.5006 -0.4814
vn 0.3520 0.5168 -0.7804
vn -0.1731 0.6689 -0.7230
vn -0.7676 0.5583 0.3147
vn 0.1966 0.5609 -0.8042
vn -0.7999 0.3256 -0.5041
vn -0.8645 0.3177 -0.3896
vn -0.2577 0.6772 -0.6892
vn 0.2215 0.6971 -0.6819
vn -0.4506 0.2007 -0.8699
vn 0.3115 0.2402 -0.9194
vn 0.5735 0.7051 -0.4172
vn 0.6794 0.6921 0.2435
vn 0.9086 0.2572 -0.3292
vn 0.8091 0.0255 -0.5871
vn 0.9268 0.0018 0.3756
vn 0.8930 0.2558 0.3703
vn 0.4370 0.2506 0.8639
vn -0.7386 0.0527 0.6720
vn 0.1777 0.0470 0.9830
vn -0.3089 -0.0447 0.9501
vn -0.2596 0.0147 -0.9656
vn -0.9415 0.0052 -0.3371
vn 0.3203 0.0158 -0.9472
vn 0.4936 -0.0919 0.8648
vn 0.3132 -0.1122 0.9430
vn -0.0055 -0.7031 0.7111
vn -0.3237 -0.1169 0.9389
vn -0.4978 -0.0882 0.8628
vn 0.7367 -0.6598 0.1478
vn 0.6945 -0.6578 0.2914
vn 0.8847 -0.3469 0.3114
vn 0.8835 -0.3895 0.2601
vn 0.6184 -0.7723 0.1453
vn 0.7099 -0.4283 0.5591
vn -0.0044 -1.0000 -0.0085
vn -0.8854 -0.3881 0.2558
vn -0.6982 -0.6551 0.2888
vn -0.8867 -0.3456 0.3070
vn -0.7385 -0.6586 0.1441
vn -0.6247 -0.7679 0.1417
vn -0.7154 -0.4248 0.5548
vn -0.4341 -0.0183 0.9007
vn -0.6501 -0.0364 0.7589
vn -0.6696 -0.2329 0.7052
vn -0.4516 -0.2564 0.8546
vn -0.0072 -0.2491 0.9684
vn 0.4411 -0.2576 0.8597
vn 0.4273 -0.0182 0.9039
vn -0.0094 0.1759 0.9844
vn -0.0173 0.0161 0.9997
vn 0.6467 -0.0374 0.7619
vn 0.6660 -0.2339 0.7083
vn -0.0030 0.9943 -0.1062
vn -0.6313 0.2403 -0.7374
vn -0.2645 0.9437 -0.1989
vn -0.6420 0.3892 0.6606
vn 0.6325 0.3923 0.6678
vn 0.2747 0.9405 -0.1998
vn -0.0245 0.9211 0.3886
vn 0.6239 0.2437 -0.7425
vn -0.0271 0.8147 -0.5792
vn -0.0021 0.4275 -0.9040
vn -0.4348 0.4666 -0.7702
vn -0.0010 0.6379 0.7701
vn 0.4329 0.4633 -0.7732
vn -0.8192 0.5323 -0.2136
vn -0.1988 0.8763 0.4388
vn 0.1998 0.8766 0.4378
vn 0.8210 0.5310 -0.2096
vn 0.4812 0.7467 -0.4593
vn 0.8553 -0.5157 0.0497
vn 0.5613 0.1778 -0.8083
vn 0.6234 0.6191 0.4775
vn 0.8829 -0.2017 0.4240
vn 0.7668 -0.4654 0.4421
vn 0.1616 -0.2586 0.9524
vn 0.9123 0.2571 0.3187
vn 0.8223 -0.2435 -0.5144
vn 0.4788 0.2622 -0.8379
vn 0.4060 0.5905 -0.6975
vn 0.5636 -0.0756 -0.8226
vn 0.2015 0.1068 0.9736
vn 0.7270 0.5954 0.3420
vn -0.4804 0.7471 -0.4595
vn -0.8543 -0.5173 0.0502
vn -0.6191 0.6191 0.4832
vn -0.8845 -0.2001 0.4214
vn -0.5584 0.1797 -0.8099
vn -0.7676 -0.4657 0.4403
vn -0.1680 -0.3247 0.9308
vn -0.8193 -0.2468 -0.5175
vn -0.9139 0.2555 0.3154
vn -0.2041 0.0415 0.9781
vn -0.7276 0.5967 0.3383
vn -0.4601 0.5579 -0.6907
vn -0.4800 0.2622 -0.8372
vn -0.5630 -0.0759 -0.8230
vn -0.1956 0.8996 0.3904
vn -0.1273 -0.9171 0.3778
vn 0.1013 -0.8732 0.4767
vn -0.0044 -0.0648 -0.9979
vn -0.0077 0.1543 -0.9880
vn -0.5369 -0.1851 -0.8231
vn 0.5342 -0.1863 -0.8246
vn 0.3057 -0.8403 -0.4477
vn -0.0044 0.3965 -0.9180
vn -0.0080 -0.1144 -0.9934
vn 0.2828 0.8732 0.3969
vn -0.3008 -0.8433 -0.4453
vn -0.5960 -0.6928 -0.4059
vn -0.8352 -0.4744 -0.2780
vn -0.3832 0.2458 -0.8904
vn 0.0005 -0.2073 -0.9783
vn -0.0008 -0.8196 -0.5729
vn 0.3860 0.2449 -0.8894
vn 0.8357 -0.4759 -0.2740
vn 0.5948 -0.6951 -0.4038
vn 0.9593 0.2188 0.1785
vn 0.9154 0.4020 0.0225
vn 0.8621 -0.3091 0.4015
vn 0.9147 -0.2265 0.3347
vn 0.9760 -0.1991 0.0882
vn -0.9167 -0.2251 0.3303
vn -0.9767 -0.1976 0.0834
vn -0.8645 -0.3078 0.3974
vn -0.9598 0.2203 0.1738
vn -0.9148 0.4035 0.0180
vn -0.8780 0.4399 0.1887
vn -0.4417 0.1672 0.8814
vn -0.7273 0.5200 -0.4480
vn 0.7302 0.5189 -0.4445
vn 0.8778 0.4384 0.1930
vn 0.4348 0.1668 0.8850
vn -0.3845 0.7831 -0.4888
vn -0.3629 0.5498 -0.7523
vn 0.0008 0.3775 -0.9260
vn 0.0015 0.1124 -0.9937
vn -0.3560 0.9097 -0.2136
vn -0.0589 0.9653 0.2546
vn -0.0074 -0.2098 0.9777
vn -0.0006 0.7618 0.6478
vn 0.0629 0.9653 0.2535
vn 0.3652 0.5491 -0.7518
vn 0.3875 0.7815 -0.4890
vn 0.3586 0.9091 -0.2119
vn 0.0225 -0.9973 0.0698
vn -0.5179 -0.8524 -0.0725
vn 0.3110 -0.7144 -0.6268
vn 0.6669 -0.7451 0.0077
vn 0.8470 -0.2763 -0.4542
vn 0.9152 -0.1947 0.3528
vn 0.3796 -0.6172 0.6891
vn 0.7243 0.2219 0.6528
vn 0.8024 0.2339 -0.5491
vn -0.0646 -0.3954 0.9162
vn 0.3981 0.3440 0.8504
vn 0.7485 0.5708 -0.3376
vn -0.4419 -0.3072 0.8428
vn -0.7314 -0.5703 -0.3738
vn 0.0130 -0.0226 -0.9997
vn 0.0382 -0.3495 -0.9362
vn -0.4617 -0.5683 -0.6810
vn -0.9539 -0.1751 -0.2438
vn -0.8281 0.2436 -0.5049
vn -0.7939 -0.2905 0.5342
vn -0.2512 -0.7769 0.5773
vn 0.0739 -0.4278 0.9009
vn -0.6666 -0.7454 0.0045
vn 0.4956 -0.8583 -0.1333
vn -0.0416 -0.9795 -0.1972
vn -0.7183 0.2013 0.6660
vn 0.1157 -0.0795 0.9901
vn 0.7625 -0.6263 0.1627
vn -0.6896 0.5241 0.4998
vn -0.5166 0.4049 -0.7544
vn -0.0629 -0.3268 -0.9430
vn 0.3189 -0.2344 -0.9184
vn 0.8231 0.0498 0.5657
vn 0.9986 0.0387 0.0359
vn 0.8631 0.4974 -0.0879
vn 0.8610 -0.0572 -0.5054
vn 0.9085 -0.4159 0.0420
vn 0.4480 -0.7885 -0.4213
vn 0.1746 0.3371 -0.9251
vn 0.1737 -0.4069 -0.8968
vn 0.2257 0.8212 0.5241
vn 0.1095 0.9247 -0.3646
vn 0.2245 -0.8313 0.5085
vn 0.2001 0.3382 0.9195
vn 0.1197 -0.2095 0.9704
vn -0.9129 0.0792 -0.4004
vn -0.5747 0.6351 -0.5162
vn -0.6500 0.2433 0.7200
vn -0.8558 -0.2592 0.4477
vn -0.7761 0.6132 0.1474
vn -0.6641 -0.1965 -0.7214
vn -0.6291 -0.7123 -0.3113
vn -0.6368 -0.6885 0.3470
vn -0.8631 0.4973 -0.0879
vn -0.9986 0.0387 0.0359
vn -0.8231 0.0498 0.5657
vn -0.8610 -0.0572 -0.5054
vn -0.9085 -0.4159 0.0420
vn -0.4480 -0.7885 -0.4213
vn -0.1746 0.3371 -0.9251
vn -0.1737 -0.4069 -0.8968
vn -0.2257 0.8212 0.5241
vn -0.1095 0.9247 -0.3646
vn -0.2245 -0.8313 0.5085
vn -0.1197 -0.2095 0.9704
vn -0.2001 0.3382 0.9195
vn 0.5747 0.6351 -0.5162
vn 0.9129 0.0792 -0.4004
vn 0.8558 -0.2592 0.4477
vn 0.6500 0.2433 0.7200
vn 0.7761 0.6132 0.1474
vn 0.6641 -0.1965 -0.7214
vn 0.6291 -0.7123 -0.3112
vn 0.6368 -0.6885 0.3470
vt 0.391403 0.377307
vt 0.345737 0.396128
vt 0.391412 0.395864
vt 0.345093 0.376709
vt 0.362057 0.382755
vt 0.362071 0.392804
vt 0.441637 0.382347
vt 0.362057 0.385940
vt 0.361399 0.332969
vt 0.286552 0.382763
vt 0.281953 0.292295
vt 0.292845 0.396777
vt 0.291736 0.378114
vt 0.198664 0.343550
vt 0.199559 0.390220
vt 0.439602 0.396029
vt 0.440213 0.376554
vt 0.488424 0.396571
vt 0.443692 0.291453
vt 0.521886 0.342154
vt 0.521247 0.383079
vt 0.520239 0.393187
vt 0.521247 0.389116
vt 0.236952 0.377794
vt 0.237912 0.397428
vt 0.538344 0.397057
vt 0.538640 0.377422
vt 0.602111 0.382817
vt 0.602111 0.386548
vt 0.589831 0.397273
vt 0.602630 0.295776
vt 0.685410 0.338729
vt 0.685045 0.392276
vt 0.589507 0.378501
vt 0.638959 0.397005
vt 0.764107 0.386278
vt 0.637999 0.377371
vt 0.766161 0.295214
vt 0.525396 0.222164
vt 0.447083 0.221574
vt 0.523926 0.245936
vt 0.110239 0.388523
vt 0.112292 0.297459
vt 0.602686 0.222758
vt 0.614780 0.247056
vt 0.762634 0.222209
vt 0.680997 0.222776
vt 0.692581 0.247361
vt 0.365444 0.221282
vt 0.432559 0.244818
vt 0.353734 0.244229
vt 0.280481 0.222146
vt 0.193727 0.223303
vt 0.108765 0.224454
vt 0.110111 0.248788
vt 0.195584 0.247063
vt 0.038712 0.249606
vt 0.281824 0.245335
vt 0.860877 0.582765
vt 0.846307 0.504824
vt 0.884540 0.577920
vt 0.815297 0.510882
vt 0.822819 0.590267
vt 0.865439 0.500906
vt 0.075388 0.185339
vt 0.055964 0.194569
vt 0.083861 0.195332
vt 0.053014 0.238676
vt 0.082641 0.217098
vt 0.093101 0.205322
vt 0.072470 0.241186
vt 0.086003 0.229972
vt 0.112268 0.195235
vt 0.103082 0.205288
vt 0.075596 0.261219
vt 0.123910 0.241009
vt 0.140160 0.194280
vt 0.113607 0.216992
vt 0.143354 0.238938
vt 0.120686 0.185184
vt 0.097915 0.187553
vt 0.098047 0.235658
vt 0.097884 0.176099
vt 0.125257 0.172283
vt 0.120901 0.170293
vt 0.070746 0.172470
vt 0.120894 0.261064
vt 0.110315 0.229889
vt 0.075413 0.194216
vt 0.120710 0.194060
vt 0.075536 0.239171
vt 0.120833 0.239016
vt 0.075091 0.170450
vt 0.719917 0.596996
vt 0.740593 0.547723
vt 0.690558 0.548199
vt 0.687354 0.633654
vt 0.728302 0.652141
vt 0.670580 0.587953
vt 0.763709 0.629545
vt 0.763736 0.573460
vt 0.116457 0.416277
vt 0.116604 0.470108
vt 0.123874 0.414533
vt 0.097574 0.062995
vt 0.079829 0.031558
vt 0.061488 0.062546
vt 0.072148 0.030153
vt 0.046123 0.059163
vt 0.045822 0.135903
vt 0.098034 0.137442
vt 0.097746 0.032356
vt 0.079564 0.028409
vt 0.134424 0.062296
vt 0.115402 0.031436
vt 0.098948 0.471028
vt 0.116448 0.413127
vt 0.098800 0.416910
vt 0.124278 0.468650
vt 0.116852 0.466958
vt 0.098788 0.412328
vt 0.081032 0.470231
vt 0.080876 0.413249
vt 0.080884 0.416399
vt 0.098679 0.466161
vt 0.080767 0.467082
vt 0.073714 0.414705
vt 0.073350 0.468825
vt 0.024568 0.131395
vt 0.061211 0.054816
vt 0.097476 0.027489
vt 0.123075 0.029978
vt 0.097547 0.053259
vt 0.045794 0.125882
vt 0.097995 0.123412
vt 0.134147 0.054565
vt 0.115649 0.028285
vt 0.149258 0.058809
vt 0.149953 0.125524
vt 0.149555 0.167045
vt 0.171067 0.172412
vt 0.171465 0.130891
vt 0.149980 0.135546
vt 0.046449 0.177994
vt 0.149584 0.177640
vt 0.098148 0.178962
vt 0.046419 0.167113
vt 0.025194 0.172912
vt 0.098109 0.164931
vt 0.339024 0.851086
vt 0.241271 0.728001
vt 0.024568 0.903433
vt 0.147673 0.637665
vt 0.024706 0.547723
vt 0.568138 0.718265
vt 0.563421 0.722046
vt 0.621444 0.658126
vt 0.601663 0.708836
vt 0.535149 0.744448
vt 0.546725 0.716118
vt 0.471360 0.744392
vt 0.388160 0.603979
vt 0.411475 0.647499
vt 0.397126 0.547723
vt 0.409550 0.640373
vt 0.422367 0.689031
vt 0.427046 0.657328
vt 0.525620 0.965558
vt 0.543325 0.906553
vt 0.594035 0.917498
vt 0.467085 0.760312
vt 0.529268 0.707227
vt 0.444554 0.665650
vt 0.621212 0.858995
vt 0.538795 0.777961
vt 0.461250 0.799079
vt 0.467754 0.954087
vt 0.452533 0.895082
vt 0.491661 0.668126
vt 0.500159 0.636857
vt 0.474098 0.680233
vt 0.499444 0.692900
vt 0.558944 0.972511
vt 0.569830 0.963100
vt 0.616988 0.911185
vt 0.525071 0.957436
vt 0.758705 0.788983
vt 0.714730 0.707119
vt 0.670580 0.789081
vt 0.840561 0.819203
vt 0.841456 0.843673
vt 0.815331 0.849015
vt 0.815297 0.819016
vt 0.841151 0.791667
vt 0.868558 0.792573
vt 0.824543 0.801250
vt 0.862951 0.820964
vt 0.854148 0.834598
vt 0.967145 0.685972
vt 0.891405 0.763448
vt 0.896396 0.694994
vt 0.866330 0.725672
vt 0.877033 0.778112
vt 0.958941 0.770881
vt 0.952786 0.764179
vt 0.922719 0.794857
vt 0.854331 0.645296
vt 0.958525 0.695155
vt 0.889986 0.764895
vt 0.975432 0.794938
vt 0.817971 0.681427
vt 0.939073 0.831069
vt 0.890997 0.687520
vt 0.928875 0.801559
vt 0.860931 0.718199
vt 0.679688 0.906250
vt 0.742188 0.968750
vt 0.742188 0.906250
vt 0.806030 0.929016
vt 0.837280 0.960266
vt 0.837280 0.929016
vt 0.076025 0.137518
vt 0.070300 0.103176
vt 0.076351 0.069654
vt 0.074815 0.069659
vt 0.074233 0.137238
vt 0.087543 0.138051
vt 0.089055 0.036394
vt 0.087868 0.070187
vt 0.091196 0.070462
vt 0.090847 0.036388
vt 0.087891 0.171838
vt 0.090870 0.138040
vt 0.089683 0.172118
vt 0.118792 0.054618
vt 0.120072 0.054614
vt 0.120026 0.131354
vt 0.119328 0.156841
vt 0.120397 0.080097
vt 0.118094 0.080105
vt 0.117723 0.131362
vt 0.118049 0.156845
s 1
usemtl Material03
f 1/1/1 2/2/2 3/3/3
f 4/4/4 2/2/2 1/1/1
f 1/5/1 3/6/3 5/7/5
f 1/8/1 5/7/5 6/9/6
f 1/8/1 6/9/6 4/10/4
f 7/11/7 4/10/4 6/9/6
f 2/2/2 4/4/4 8/12/8
f 9/13/9 8/12/8 4/4/4
f 7/11/7 10/14/10 4/10/4
f 9/15/9 4/10/4 10/14/10
f 11/16/11 5/17/5 3/3/3
f 12/18/12 5/17/5 11/16/11
f 13/19/13 6/9/6 5/7/5
f 13/19/13 5/7/5 14/20/14
f 15/21/15 5/7/5 12/22/12
f 15/23/15 14/20/14 5/7/5
f 8/12/8 16/24/16 17/25/17
f 18/26/18 19/27/19 12/18/12
f 15/21/15 12/22/12 19/28/19
f 15/23/15 19/29/19 14/20/14
f 20/30/20 19/27/19 18/26/18
f 21/31/21 14/20/14 19/29/19
f 21/31/21 19/29/19 22/32/22
f 23/33/23 22/32/22 19/29/19
f 23/34/23 19/27/19 20/30/20
f 17/35/17 23/34/23 20/30/20
f 23/33/23 16/36/16 22/32/22
f 16/37/16 23/34/23 17/35/17
f 24/38/24 22/32/22 16/36/16
f 25/39/25 26/40/26 27/41/27
f 9/15/9 10/14/10 16/42/16
f 9/13/9 16/24/16 8/12/8
f 24/43/24 16/42/16 10/14/10
f 28/44/28 27/41/27 29/45/29
f 28/44/28 30/46/30 25/39/25
f 31/47/31 30/46/30 28/44/28
f 25/39/25 27/41/27 28/44/28
f 28/44/28 29/45/29 31/47/31
f 31/47/31 29/45/29 32/48/32
f 31/47/31 32/48/32 30/46/30
f 25/39/25 30/46/30 26/40/26
f 26/40/26 30/46/30 33/49/33
f 26/40/26 34/50/34 27/41/27
f 26/40/26 33/49/33 34/50/34
f 33/49/33 35/51/35 34/50/34
f 36/52/36 33/49/33 37/53/37
f 33/49/33 36/52/36 35/51/35
f 30/54/30 37/53/37 33/49/33
f 30/54/30 38/55/38 39/56/39
f 30/54/30 32/57/32 38/55/38
f 37/53/37 30/54/30 39/56/39
f 37/53/37 39/56/39 36/52/36
f 39/56/39 24/43/24 10/14/10
f 39/56/39 10/14/10 7/11/7
f 38/55/38 24/43/24 39/56/39
f 38/55/38 32/57/32 24/43/24
f 32/48/32 21/31/21 22/32/22
f 32/48/32 22/32/22 24/38/24
f 27/41/27 13/19/13 14/20/14
f 27/41/27 14/20/14 21/31/21
f 35/51/35 6/9/6 13/19/13
f 35/51/35 7/11/7 6/9/6
f 40/58/40 7/11/7 35/51/35
f 40/58/40 39/56/39 7/11/7
f 36/52/36 40/58/40 35/51/35
f 36/52/36 39/56/39 40/58/40
f 29/45/29 21/31/21 32/48/32
f 29/45/29 27/41/27 21/31/21
f 34/50/34 13/19/13 27/41/27
f 34/50/34 35/51/35 13/19/13
f 41/59/41 42/60/42 43/61/43
f 44/62/44 42/60/42 41/59/41
f 45/63/45 44/62/44 41/59/41
f 46/62/46 44/62/44 45/63/45
f 42/60/42 47/64/47 43/61/43
f 48/63/48 46/62/46 45/63/45
f 49/60/49 46/62/46 48/63/48
f 50/59/50 49/60/49 48/63/48
f 43/61/43 47/64/47 50/59/50
f 47/64/47 49/60/49 50/59/50
f 51/65/51 52/65/52 53/66/53
f 54/67/54 51/65/51 53/66/53
f 55/68/55 53/66/53 56/68/56
f 57/69/57 58/70/58 53/66/53
f 54/67/54 53/66/53 58/70/58
f 59/71/59 57/69/57 53/66/53
f 55/68/55 59/71/59 53/66/53
f 60/66/60 56/68/56 53/66/53
f 60/66/60 53/66/53 52/65/52
f 61/72/61 57/69/57 59/71/59
f 58/70/58 62/73/62 54/67/54
f 63/74/63 62/73/62 58/70/58
f 55/68/55 64/75/64 59/71/59
f 65/76/65 66/77/66 67/78/67
f 68/79/68 66/77/66 69/79/69
f 70/80/70 66/77/66 71/80/71
f 62/73/62 66/77/66 70/80/70
f 67/78/67 66/77/66 63/74/63
f 69/79/69 66/77/66 65/76/65
f 62/73/62 63/74/63 66/77/66
f 72/77/72 66/77/66 68/79/68
f 72/77/72 71/80/71 66/77/66
f 54/67/54 62/73/62 73/81/73
f 70/80/70 73/81/73 62/73/62
f 59/71/59 64/75/64 65/76/65
f 65/76/65 74/82/74 59/71/59
f 51/65/51 73/81/73 75/83/75
f 51/65/51 54/67/54 73/81/73
f 76/84/76 75/83/75 73/81/73
f 70/80/70 76/84/76 73/81/73
f 70/80/70 71/80/71 76/84/76
f 77/85/77 76/84/76 71/80/71
f 78/86/78 51/65/51 75/83/75
f 65/76/65 79/87/79 69/79/69
f 80/88/80 74/82/74 65/76/65
f 81/89/81 82/90/82 83/91/83
f 80/88/80 65/76/65 67/78/67
f 61/72/61 59/71/59 74/82/74
f 81/89/81 83/91/83 60/66/60
f 83/91/83 84/87/84 85/75/85
f 83/91/83 85/75/85 56/68/56
f 83/91/83 82/90/82 86/92/86
f 56/68/56 60/66/60 83/91/83
f 86/92/86 84/87/84 83/91/83
f 81/89/81 60/66/60 52/65/52
f 81/89/81 52/65/52 82/90/82
f 82/90/82 72/77/72 86/92/86
f 82/90/82 52/65/52 71/80/71
f 82/90/82 71/80/71 72/77/72
f 84/87/84 64/75/64 85/75/85
f 68/79/68 84/87/84 86/92/86
f 79/87/79 64/75/64 84/87/84
f 84/87/84 68/79/68 79/87/79
f 79/87/79 68/79/68 69/79/69
f 79/87/79 65/76/65 64/75/64
f 68/79/68 86/92/86 72/77/72
f 64/75/64 55/68/55 85/75/85
f 85/75/85 55/68/55 56/68/56
f 77/85/77 71/80/71 87/93/87
f 52/65/52 87/93/87 71/80/71
f 87/93/87 52/65/52 78/86/78
f 51/65/51 78/86/78 52/65/52
f 77/85/77 87/93/87 76/84/76
f 75/83/75 76/84/76 78/86/78
f 76/84/76 87/93/87 78/86/78
f 88/94/88 58/95/58 57/96/57
f 88/94/88 74/97/74 80/98/80
f 88/94/88 61/99/61 74/97/74
f 88/94/88 80/98/80 67/100/67
f 88/94/88 67/100/67 63/101/63
f 88/94/88 63/101/63 58/95/58
f 88/94/88 57/96/57 61/99/61
f 89/102/89 90/103/90 91/104/91
f 92/105/92 93/106/93 94/107/94
f 94/107/94 95/108/95 96/109/96
f 97/110/97 98/111/98 94/107/94
f 92/105/92 94/107/94 98/111/98
f 93/106/93 95/108/95 94/107/94
f 94/107/94 96/109/96 97/110/97
f 99/112/99 93/106/93 92/105/92
f 95/108/95 100/113/100 96/109/96
f 101/114/101 90/115/90 92/105/92
f 99/112/99 92/105/92 90/115/90
f 92/105/92 98/111/98 101/114/101
f 89/102/89 99/116/99 90/103/90
f 91/104/91 102/117/102 89/102/89
f 89/102/89 102/117/102 103/118/103
f 91/104/91 90/103/90 104/119/104
f 91/104/91 104/119/104 102/117/102
f 102/117/102 104/119/104 105/120/105
f 102/117/102 106/121/106 103/118/103
f 102/117/102 105/120/105 106/121/106
f 103/118/103 93/122/93 99/116/99
f 103/118/103 107/123/107 108/124/108
f 106/121/106 107/123/107 103/118/103
f 103/118/103 99/116/99 89/102/89
f 108/124/108 93/122/93 103/118/103
f 106/121/106 105/120/105 109/125/109
f 106/121/106 109/125/109 107/123/107
f 107/123/107 109/125/109 100/126/100
f 110/127/110 108/124/108 107/123/107
f 107/123/107 100/126/100 110/127/110
f 108/124/108 95/128/95 93/122/93
f 110/127/110 95/128/95 108/124/108
f 111/129/111 97/110/97 96/109/96
f 96/109/96 100/113/100 112/130/112
f 96/109/96 112/130/112 111/129/111
f 100/113/100 109/131/109 112/130/112
f 110/127/110 100/126/100 95/128/95
f 90/115/90 101/114/101 104/132/104
f 112/130/112 109/131/109 113/133/113
f 114/134/114 111/129/111 112/130/112
f 114/134/114 112/130/112 115/135/115
f 113/133/113 115/135/115 112/130/112
f 113/133/113 109/131/109 116/136/116
f 105/137/105 116/136/116 109/131/109
f 116/136/116 105/137/105 117/138/117
f 104/132/104 117/138/117 105/137/105
f 118/139/118 115/135/115 116/136/116
f 113/133/113 116/136/116 115/135/115
f 116/136/116 117/138/117 118/139/118
f 117/138/117 104/132/104 101/114/101
f 119/140/119 118/139/118 120/141/120
f 121/142/121 118/139/118 117/138/117
f 121/142/121 117/138/117 122/143/122
f 101/114/101 122/143/122 117/138/117
f 122/143/122 101/114/101 98/111/98
f 123/144/123 98/111/98 97/110/97
f 124/145/124 122/143/122 98/111/98
f 125/146/125 98/111/98 123/144/123
f 125/146/125 124/145/124 98/111/98
f 120/141/120 121/142/121 122/143/122
f 124/145/124 120/141/120 122/143/122
f 119/140/119 115/135/115 118/139/118
f 120/141/120 118/139/118 121/142/121
f 126/147/126 127/148/127 114/134/114
f 126/147/126 114/134/114 115/135/115
f 128/149/128 126/147/126 115/135/115
f 128/149/128 115/135/115 119/140/119
f 127/148/127 97/110/97 111/129/111
f 127/148/127 111/129/111 114/134/114
f 123/144/123 97/110/97 127/148/127
f 129/150/129 130/151/130 131/152/131
f 131/152/131 132/153/132 133/154/133
f 130/151/130 132/153/132 131/152/131
f 134/155/134 135/156/135 136/157/136
f 137/158/137 136/157/136 135/156/135
f 138/159/138 135/156/135 134/155/134
f 138/159/138 134/155/134 139/160/139
f 135/156/135 138/159/138 140/161/140
f 141/162/141 142/163/142 143/164/143
f 144/165/144 143/164/143 142/163/142
f 145/166/145 144/165/144 142/163/142
f 140/161/140 145/166/145 142/163/142
f 145/166/145 146/167/146 144/165/144
f 133/168/133 147/169/147 148/170/148
f 140/161/140 131/171/131 145/166/145
f 131/171/131 139/160/139 129/172/129
f 131/171/131 138/159/138 139/160/139
f 140/161/140 138/159/138 131/171/131
f 131/171/131 146/167/146 145/166/145
f 133/173/133 146/167/146 131/171/131
f 149/174/149 147/169/147 150/175/150
f 147/169/147 151/176/151 150/175/150
f 133/168/133 132/177/132 147/169/147
f 147/169/147 149/174/149 148/170/148
f 152/175/152 151/176/151 153/169/153
f 154/178/154 151/176/151 147/169/147
f 155/179/155 154/180/154 132/181/132
f 130/182/130 154/180/154 155/179/155
f 132/177/132 154/178/154 147/169/147
f 133/168/133 148/170/148 146/183/146
f 154/178/154 153/169/153 151/176/151
f 154/178/154 130/177/130 153/169/153
f 153/169/153 130/177/130 129/168/129
f 156/170/156 157/174/157 153/169/153
f 153/169/153 129/168/129 156/170/156
f 152/175/152 153/169/153 157/174/157
f 139/184/139 156/185/156 129/186/129
f 130/187/130 155/188/155 132/189/132
f 158/190/158 159/191/159 160/192/160
f 158/190/158 160/192/160 161/193/161
f 158/190/158 162/194/162 163/195/163
f 158/190/158 164/196/164 162/194/162
f 158/190/158 165/197/165 166/198/166
f 158/190/158 161/193/161 164/196/164
f 158/190/158 166/198/166 159/191/159
f 158/190/158 163/195/163 165/197/165
f 166/199/166 167/200/167 159/201/159
f 168/202/168 159/201/159 167/200/167
f 169/203/169 162/204/162 164/199/164
f 166/199/166 165/205/165 167/200/167
f 167/200/167 165/205/165 170/206/170
f 161/207/161 160/208/160 171/209/171
f 159/210/159 171/209/171 160/208/160
f 161/207/161 171/209/171 172/211/172
f 171/209/171 159/210/159 168/212/168
f 164/199/164 161/213/161 169/203/169
f 162/204/162 169/203/169 173/214/173
f 170/212/170 165/210/165 174/209/174
f 169/203/169 161/213/161 172/215/172
f 174/209/174 162/207/162 173/211/173
f 174/209/174 163/208/163 162/207/162
f 163/208/163 174/209/174 165/210/165
f 175/216/175 176/217/176 177/218/177
f 176/216/176 178/217/178 179/218/179
f 175/216/175 178/217/178 176/218/176
f 179/216/179 177/217/177 176/218/176
f 180/216/180 179/217/179 181/218/181
f 178/216/178 182/217/182 179/218/179
f 180/216/180 183/217/183 179/218/179
f 183/216/183 177/217/177 179/218/179
f 179/216/179 182/217/182 181/218/181
f 184/216/184 185/217/185 177/218/177
f 182/216/182 178/217/178 177/218/177
f 175/216/175 177/217/177 178/218/178
f 185/216/185 182/217/182 177/218/177
f 184/216/184 177/217/177 186/218/186
f 183/216/183 186/217/186 177/218/177
f 187/216/187 181/217/181 182/218/182
f 187/216/187 182/217/182 188/218/188
f 188/216/188 182/217/182 185/218/185
f 189/216/189 190/217/190 191/218/191
f 192/216/192 191/217/191 190/218/190
f 190/216/190 193/217/193 192/218/192
f 189/216/189 193/217/193 190/218/190
f 194/216/194 195/217/195 192/218/192
f 196/216/196 192/217/192 193/218/193
f 194/216/194 192/217/192 196/218/196
f 192/216/192 195/217/195 197/218/197
f 197/216/197 191/217/191 192/218/192
f 189/216/189 191/217/191 193/218/193
f 197/216/197 193/217/193 191/218/191
f 198/216/198 199/217/199 197/218/197
f 200/216/200 193/217/193 197/218/197
f 198/216/198 197/217/197 195/218/195
f 199/216/199 200/217/200 197/218/197
f 201/216/201 193/217/193 200/218/200
f 201/216/201 202/217/202 193/218/193
f 196/216/196 193/217/193 202/218/202
f 187/216/187 203/217/203 198/218/198
f 199/216/199 198/217/198 203/218/203
f 187/216/187 198/217/198 181/218/181
f 195/216/195 181/217/181 198/218/198
f 195/216/195 204/217/204 205/218/205
f 195/216/195 194/217/194 204/218/204
f 181/216/181 195/217/195 205/218/205
f 181/216/181 205/217/205 180/218/180
f 206/216/206 207/217/207 208/218/208
f 206/216/206 209/217/209 207/218/207
f 205/216/205 209/217/209 210/218/210
f 201/216/201 211/217/211 206/218/206
f 202/216/202 201/217/201 206/218/206
f 196/216/196 202/217/202 208/218/208
f 202/216/202 206/217/206 208/218/208
f 201/216/201 200/217/200 211/218/211
f 196/216/196 208/217/208 194/218/194
f 199/216/199 203/217/203 200/218/200
f 185/216/185 200/217/200 203/218/203
f 211/216/211 200/217/200 185/218/185
f 205/216/205 212/217/212 209/218/209
f 213/216/213 185/217/185 203/218/203
f 213/216/213 203/217/203 187/218/187
f 188/216/188 185/217/185 213/218/213
f 188/216/188 213/217/213 187/218/187
f 184/216/184 211/217/211 185/218/185
f 214/216/214 194/217/194 208/218/208
f 204/216/204 208/217/208 212/218/212
f 208/216/208 207/217/207 212/218/212
f 204/216/204 214/217/214 208/218/208
f 214/216/214 204/217/204 194/218/194
f 184/216/184 206/217/206 211/218/211
f 210/216/210 180/217/180 205/218/205
f 205/216/205 204/217/204 212/218/212
f 183/216/183 209/217/209 186/218/186
f 186/216/186 209/217/209 206/218/206
f 186/216/186 206/217/206 184/218/184
f 183/216/183 180/217/180 209/218/209
f 209/216/209 212/217/212 207/218/207
f 210/216/210 209/217/209 180/218/180
f 142/216/142 141/217/141 215/218/215
f 215/216/215 216/217/216 217/218/217
f 218/216/218 215/217/215 217/218/217
f 216/216/216 215/217/215 143/218/143
f 142/216/142 215/217/215 140/218/140
f 143/216/143 215/217/215 141/218/141
f 215/216/215 219/217/219 140/218/140
f 215/216/215 218/217/218 219/218/219
f 220/216/220 221/217/221 222/218/222
f 220/216/220 222/217/222 218/218/218
f 221/216/221 136/217/136 222/218/222
f 140/216/140 222/217/222 135/218/135
f 222/216/222 140/217/140 219/218/219
f 136/216/136 137/217/137 222/218/222
f 222/216/222 219/217/219 218/218/218
f 135/216/135 222/217/222 137/218/137
f 223/216/223 224/217/224 136/218/136
f 223/216/223 136/217/136 221/218/221
f 136/216/136 225/217/225 134/218/134
f 136/216/136 226/217/226 225/218/225
f 227/216/227 136/217/136 224/218/224
f 136/216/136 227/217/227 226/218/226
f 143/216/143 228/217/228 229/218/229
f 143/216/143 230/217/230 228/218/228
f 149/216/149 229/217/229 228/218/228
f 149/216/149 228/217/228 230/218/230
f 231/216/231 216/217/216 143/218/143
f 231/216/231 143/217/143 232/218/232
f 143/216/143 144/217/144 230/218/230
f 232/216/232 143/217/143 229/218/229
f 230/216/230 144/217/144 146/218/146
f 146/216/146 148/217/148 230/218/230
f 149/216/149 230/217/230 148/218/148
f 229/216/229 149/217/149 233/218/233
f 150/216/150 234/217/234 149/218/149
f 233/216/233 149/217/149 234/218/234
f 235/216/235 229/217/229 233/218/233
f 235/216/235 232/217/232 229/218/229
f 225/216/225 139/217/139 134/218/134
f 225/216/225 157/217/157 156/218/156
f 157/216/157 225/217/225 226/218/226
f 225/216/225 156/217/156 139/218/139
f 157/216/157 226/217/226 227/218/227
f 236/216/236 237/217/237 227/218/227
f 227/216/227 237/217/237 157/218/157
f 227/216/227 224/217/224 236/218/236
f 238/216/238 157/217/157 237/218/237
f 157/216/157 238/217/238 152/218/152
f 239/216/239 240/217/240 235/218/235
f 167/216/167 240/217/240 239/218/239
f 167/216/167 241/217/241 240/218/240
f 217/216/217 240/217/240 241/218/241
f 217/216/217 235/217/235 240/218/240
f 216/216/216 231/217/231 217/218/217
f 242/216/242 218/217/218 217/218/217
f 217/216/217 232/217/232 235/218/235
f 217/216/217 231/217/231 232/218/232
f 217/216/217 241/217/241 242/218/242
f 243/216/243 172/217/172 171/218/171
f 239/216/239 235/217/235 243/218/243
f 243/216/243 235/217/235 233/218/233
f 244/216/244 233/217/233 234/218/234
f 234/216/234 245/217/245 246/218/246
f 150/216/150 245/217/245 234/218/234
f 234/216/234 246/217/246 244/218/244
f 233/216/233 244/217/244 243/218/243
f 245/216/245 150/217/150 151/218/151
f 244/216/244 172/217/172 243/218/243
f 244/216/244 246/217/246 169/218/169
f 244/216/244 169/217/169 172/218/172
f 239/216/239 243/217/243 171/218/171
f 247/216/247 246/217/246 238/218/238
f 167/216/167 239/217/239 168/218/168
f 239/216/239 171/217/171 168/218/168
f 242/216/242 241/217/241 220/218/220
f 167/216/167 248/217/248 241/218/241
f 220/216/220 241/217/241 248/218/248
f 169/216/169 247/217/247 173/218/173
f 169/216/169 246/217/246 247/218/247
f 246/216/246 245/217/245 238/218/238
f 238/216/238 245/217/245 152/218/152
f 151/216/151 152/217/152 245/218/245
f 242/216/242 220/217/220 218/218/218
f 248/216/248 167/217/167 249/218/249
f 170/216/170 249/217/249 167/218/167
f 236/216/236 224/217/224 220/218/220
f 237/216/237 236/217/236 250/218/250
f 236/216/236 248/217/248 249/218/249
f 248/216/248 236/217/236 220/218/220
f 249/216/249 250/217/250 236/218/236
f 223/216/223 220/217/220 224/218/224
f 174/216/174 173/217/173 250/218/250
f 174/216/174 250/217/250 249/218/249
f 173/216/173 247/217/247 250/218/250
f 247/216/247 237/217/237 250/218/250
f 237/216/237 247/217/247 238/218/238
f 220/216/220 223/217/223 221/218/221
f 170/216/170 174/217/174 249/218/249
f 251/219/251 252/220/252 253/221/253
f 251/219/251 253/220/253 254/221/254
f 255/219/255 256/220/256 254/221/254
f 253/219/253 255/220/255 254/221/254
f 256/219/256 257/220/257 254/221/254
f 257/219/257 251/220/251 254/221/254
f 256/219/256 258/220/258 257/221/257
f 255/219/255 259/220/259 256/221/256
f 259/219/259 258/220/258 256/221/256
f 258/219/258 260/220/260 257/221/257
f 257/219/257 260/220/260 251/221/251
f 258/219/258 261/220/261 260/221/260
f 262/219/262 261/220/261 258/221/258
f 259/219/259 262/220/262 258/221/258
f 260/219/260 263/220/263 252/221/252
f 261/219/261 263/220/263 260/221/260
f 260/219/260 252/220/252 251/221/251
f 263/219/263 264/220/264 252/221/252
f 265/219/265 262/220/262 259/221/259
f 266/219/266 265/220/265 259/221/259
f 266/219/266 259/220/259 255/221/255
f 253/219/253 266/220/266 255/221/255
f 252/219/252 266/220/266 253/221/253
f 252/219/252 264/220/264 266/221/266
f 264/219/264 265/220/265 266/221/266
f 267/219/267 268/220/268 269/221/269
f 270/219/270 271/220/271 272/221/272
f 270/219/270 273/220/273 271/221/271
f 272/219/272 271/220/271 274/221/274
f 271/219/271 275/220/275 274/221/274
f 271/219/271 273/220/273 275/221/275
f 268/219/268 273/220/273 270/221/270
f 276/219/276 270/220/270 272/221/272
f 268/219/268 270/220/270 276/221/276
f 275/219/275 273/220/273 267/221/267
f 267/219/267 273/220/273 268/221/268
f 277/219/277 272/220/272 278/221/278
f 272/219/272 274/220/274 278/221/278
f 276/219/276 272/220/272 277/221/277
f 279/219/279 276/220/276 277/221/277
f 269/219/269 276/220/276 279/221/279
f 269/219/269 268/220/268 276/221/276
f 280/219/280 269/220/269 279/221/279
f 281/219/281 269/220/269 280/221/280
f 281/219/281 267/220/267 269/221/269
f 282/219/282 281/220/281 280/221/280
f 275/219/275 267/220/267 281/221/281
f 274/219/274 275/220/275 281/221/281
f 278/219/278 274/220/274 282/221/282
f 274/219/274 281/220/281 282/221/282
f 283/222/283 284/223/284 285/224/285
f 286/225/286 285/224/285 284/223/284
f 283/222/283 287/226/287 284/223/284
f 286/225/286 284/223/284 287/226/287
f 288/227/288 286/225/286 287/226/287
f 289/228/289 285/224/285 286/225/286
f 289/228/289 286/225/286 290/229/290
f 290/229/290 286/225/286 288/227/288
f 291/230/291 283/222/283 285/224/285
f 292/231/292 291/230/291 285/224/285
f 292/231/292 285/224/285 289/228/289
f 293/232/293 287/226/287 283/222/283
f 283/222/283 294/233/294 295/234/295
f 294/233/294 283/222/283 291/230/291
f 295/234/295 293/232/293 283/222/283
f 293/232/293 288/227/288 287/226/287
f 296/235/296 297/236/297 289/228/289
f 298/237/298 296/235/296 299/238/299
f 300/239/300 296/235/296 298/237/298
f 297/236/297 296/235/296 300/239/300
f 301/240/301 299/238/299 296/235/296
f 296/235/296 289/228/289 301/240/301
f 289/228/289 290/229/290 301/240/301
f 302/241/302 299/238/299 301/240/301
f 301/240/301 290/229/290 302/241/302
f 303/242/303 293/232/293 299/238/299
f 299/238/299 293/232/293 295/234/295
f 303/242/303 299/238/299 302/241/302
f 299/238/299 295/234/295 298/237/298
f 293/232/293 302/241/302 288/227/288
f 302/241/302 290/229/290 288/227/288
f 303/242/303 302/241/302 293/232/293
f 295/234/295 294/233/294 298/237/298
f 298/237/298 294/233/294 291/230/291
f 300/239/300 298/237/298 291/230/291
f 292/231/292 300/239/300 291/230/291
f 297/236/297 300/239/300 292/231/292
f 292/231/292 289/228/289 297/236/297
f 306/224/304 305/223/305 304/222/306
f 305/223/305 306/224/304 307/225/307
f 305/223/305 308/226/308 304/222/306
f 308/226/308 305/223/305 307/225/307
f 308/226/308 307/225/307 309/227/309
f 307/225/307 306/224/304 310/228/310
f 311/229/311 307/225/307 310/228/310
f 309/227/309 307/225/307 311/229/311
f 306/224/304 304/222/306 312/230/312
f 306/224/304 312/230/312 313/231/313
f 310/228/310 306/224/304 313/231/313
f 304/222/306 308/226/308 314/232/314
f 316/234/315 315/233/316 304/222/306
f 312/230/312 304/222/306 315/233/316
f 304/222/306 314/232/314 316/234/315
f 308/226/308 309/227/309 314/232/314
f 310/228/310 318/236/317 317/235/318
f 320/238/319 317/235/318 319/237/320
f 319/237/320 317/235/318 321/239/321
f 321/239/321 317/235/318 318/236/317
f 317/235/318 320/238/319 322/240/322
f 322/240/322 310/228/310 317/235/318
f 322/240/322 311/229/311 310/228/310
f 322/240/322 320/238/319 323/241/323
f 323/241/323 311/229/311 322/240/322
f 320/238/319 314/232/314 324/242/324
f 316/234/315 314/232/314 320/238/319
f 323/241/323 320/238/319 324/242/324
f 319/237/320 316/234/315 320/238/319
f 309/227/309 323/241/323 314/232/314
f 309/227/309 311/229/311 323/241/323
f 314/232/314 323/241/323 324/242/324
f 319/237/320 315/233/316 316/234/315
f 312/230/312 315/233/316 319/237/320
f 312/230/312 319/237/320 321/239/321
f 312/230/312 321/239/321 313/231/313
f 313/231/313 321/239/321 318/236/317
f 318/236/317 310/228/310 313/231/313
