# Blender 5.0.1
# www.blender.org
mtllib PeachBrazoI.mtl
o PeachBrazoI
v 0.073818 0.064454 0.011286
v 0.071904 0.030934 0.050970
v 0.001298 0.065478 0.010014
v 0.073568 0.056847 -0.038688
v 0.001953 0.026231 0.051445
v 0.001049 0.057870 -0.039960
v 0.074148 -0.005394 -0.043612
v 0.001639 -0.006367 -0.046453
v 0.072283 -0.048894 -0.011772
v 0.002331 -0.053596 -0.011296
v 0.072415 -0.029659 0.037914
v -0.000045 -0.032395 0.039971
v 0.196935 0.022432 0.042449
v 0.231876 0.004074 0.005508
v 0.197349 -0.026418 0.032337
v 0.199103 0.002069 -0.039584
v 0.197237 -0.041430 -0.007744
v 0.198839 0.057949 0.004334
v 0.198707 0.046929 -0.032610
vn -0.0040 0.9536 0.3010
vn 0.0310 0.2876 0.9573
vn 0.0573 0.9603 0.2731
vn 0.0470 0.6394 -0.7674
vn -0.0122 0.2788 0.9603
vn 0.0299 0.4300 -0.9023
vn 0.0432 -0.2572 -0.9654
vn 0.0397 -0.3742 -0.9265
vn 0.0595 -0.9479 -0.3130
vn 0.0591 -0.9969 -0.0523
vn 0.0542 -0.6129 0.7883
vn 0.0366 -0.4633 0.8854
vn 0.3773 -0.6572 0.6525
vn 0.9991 -0.0232 0.0355
vn 0.3381 0.2592 0.9047
vn 0.4226 -0.8042 -0.4178
vn 0.3842 -0.1472 -0.9114
vn 0.4735 0.6636 -0.5791
vn 0.5310 0.8154 0.2305
vt 0.861814 0.182897
vt 0.921342 0.217574
vt 0.914931 0.172021
vt 0.911171 0.144263
vt 0.868916 0.232676
vt 0.857849 0.155473
vt 0.924822 0.240441
vt 0.872052 0.255031
vt 0.973633 0.904785
vt 0.973633 0.967285
vt 0.911133 0.904785
s 1
usemtl Material03
f 3/1/1 2/2/2 1/3/3
f 1/3/3 4/4/4 3/1/1
f 2/2/2 3/1/1 5/5/5
f 3/1/1 4/4/4 6/6/6
f 4/4/4 7/3/7 6/6/6
f 6/6/6 7/3/7 8/1/8
f 9/2/9 8/1/8 7/3/7
f 8/1/8 9/2/9 10/5/10
f 9/2/9 11/7/11 10/5/10
f 10/5/10 11/7/11 12/8/12
f 11/7/11 2/2/2 12/8/12
f 12/8/12 2/2/2 5/5/5
f 15/9/13 14/10/14 13/11/15
f 17/9/16 16/10/17 14/11/14
f 14/9/14 19/10/18 18/11/19
f 14/9/14 15/10/13 17/11/16
f 18/9/19 13/10/15 14/11/14
f 19/9/18 14/10/14 16/11/17
f 17/9/16 7/10/7 16/11/17
f 17/9/16 9/10/9 7/11/7
f 15/9/13 9/10/9 17/11/16
f 11/9/11 9/10/9 15/11/13
f 13/9/15 11/10/11 15/11/13
f 13/9/15 1/10/3 2/11/2
f 2/9/2 11/10/11 13/11/15
f 1/9/3 13/10/15 18/11/19
f 7/9/7 4/10/4 16/11/17
f 16/9/17 4/10/4 19/11/18
f 4/9/4 1/10/3 19/11/18
f 19/9/18 1/10/3 18/11/19
