# Blender 5.0.1
# www.blender.org
mtllib PeachAnteBrazoD.mtl
o PeachBrazoAnteD
v -0.192047 -0.022156 -0.025327
v -0.196835 0.041807 0.017129
v -0.191775 -0.019482 0.018136
v -0.237779 0.047412 -0.046727
v -0.237523 0.052462 0.035639
v -0.230999 -0.042556 0.048821
v -0.195444 0.032483 -0.027648
v -0.337882 0.048500 -0.041437
v -0.337336 0.053850 0.045489
v -0.289212 -0.021455 0.060139
v -0.319121 -0.088608 0.078578
v -0.318667 -0.090532 0.046515
v -0.257544 -0.057663 0.014213
v -0.334255 -0.084060 0.081471
v -0.340834 -0.086068 0.056672
v -0.234479 -0.013142 -0.051014
v -0.283565 -0.031012 -0.013156
v -0.344214 0.001082 0.045977
v -0.328253 0.001839 -0.051288
v -0.434722 -0.006216 0.037370
v -0.438648 0.007173 -0.008929
v -0.425761 -0.008931 -0.018057
v -0.443912 0.006010 0.023532
v -0.018321 -0.003624 0.005727
v 0.014453 -0.005629 -0.039365
v 0.016318 -0.049128 -0.007524
v 0.052031 0.008440 -0.006400
v 0.001575 -0.057096 0.002834
v 0.002609 -0.029240 -0.041794
v -0.192017 0.020779 0.025170
v 0.012756 -0.024731 0.045486
v 0.012324 0.030964 -0.043826
v -0.002478 0.032869 0.041839
v -0.001487 0.063157 -0.001734
v -0.191837 -0.013570 0.025728
v -0.191406 0.037239 -0.001201
v -0.190925 -0.042451 -0.002278
v -0.190314 -0.025991 -0.028649
v -0.190568 0.020617 -0.029043
v -0.233758 0.001335 0.000435
vn 0.7882 -0.4219 -0.4480
vn 0.8127 0.4656 0.3504
vn 0.8892 -0.2689 0.3702
vn 0.2824 0.5497 -0.7862
vn 0.2361 0.7359 0.6346
vn 0.5842 -0.4520 0.6741
vn 0.7829 0.3842 -0.4894
vn -0.2479 0.6905 -0.6795
vn -0.2595 0.6537 0.7109
vn -0.3238 0.0745 0.9432
vn 0.1713 -0.6871 0.7060
vn 0.0733 -0.9387 -0.3370
vn 0.1995 -0.8940 -0.4012
vn -0.4854 -0.0755 0.8710
vn -0.8857 -0.4121 -0.2140
vn 0.0988 -0.5151 -0.8514
vn -0.4653 -0.6515 -0.5992
vn -0.2253 -0.6156 0.7552
vn -0.2320 -0.7002 -0.6752
vn -0.5101 -0.7114 0.4835
vn -0.8730 0.2320 -0.4289
vn -0.5263 -0.4114 -0.7442
vn -0.8393 0.4242 0.3402
vn -0.7199 -0.4283 -0.5462
vn -0.7686 -0.4360 -0.4681
vn -0.7876 -0.3341 -0.5178
vn 0.9985 0.0501 -0.0197
vn 0.4429 -0.8965 -0.0116
vn 0.2211 -0.4680 -0.8556
vn 0.3074 -0.4406 0.8434
vn 0.2637 0.5142 -0.8161
vn 0.1904 0.4868 0.8525
vn 0.3615 0.9320 0.0249
vn -0.2968 -0.2524 0.9210
vn -0.3677 0.4283 0.8255
vn -0.3197 0.9474 -0.0117
vn -0.3270 -0.9391 0.1057
vn -0.3916 -0.4122 -0.8226
vn -0.3159 0.3224 -0.8923
vn -0.9972 0.0420 0.0625
vt 0.911133 0.904785
vt 0.973633 0.967285
vt 0.973633 0.904785
s 1
usemtl Material03
f 1/1/1 2/2/2 3/3/3
f 2/1/2 4/2/4 5/3/5
f 3/1/3 2/2/2 6/3/6
f 5/1/5 6/2/6 2/3/2
f 7/1/7 2/2/2 1/3/1
f 7/1/7 4/2/4 2/3/2
f 5/1/5 8/2/8 9/3/9
f 6/1/6 5/2/5 10/3/10
f 5/1/5 9/2/9 10/3/10
f 4/1/4 8/2/8 5/3/5
f 11/1/11 6/2/6 10/3/10
f 3/1/3 6/2/6 1/3/1
f 12/1/12 13/2/13 6/3/6
f 6/1/6 13/2/13 1/3/1
f 11/1/11 12/2/12 6/3/6
f 7/1/7 1/2/1 4/3/4
f 14/1/14 15/2/15 11/3/11
f 1/1/1 16/2/16 4/3/4
f 16/1/16 1/2/1 13/3/13
f 12/1/12 17/2/17 13/3/13
f 16/1/16 13/2/13 17/3/17
f 10/1/10 18/2/18 19/3/19
f 20/1/20 18/2/18 9/3/9
f 10/1/10 9/2/9 18/3/18
f 20/1/20 19/2/19 18/3/18
f 15/1/15 10/2/10 17/3/17
f 17/1/17 10/2/10 19/3/19
f 14/1/14 10/2/10 15/3/15
f 14/1/14 11/2/11 10/3/10
f 16/1/16 17/2/17 19/3/19
f 19/1/19 4/2/4 16/3/16
f 15/1/15 17/2/17 12/3/12
f 11/1/11 15/2/15 12/3/12
f 21/1/21 8/2/8 22/3/22
f 8/1/8 21/2/21 9/3/9
f 23/1/23 20/2/20 9/3/9
f 23/1/23 9/2/9 21/3/21
f 20/1/20 21/2/21 22/3/22
f 22/1/22 19/2/19 20/3/20
f 23/1/23 21/2/21 20/3/20
f 22/1/22 8/2/8 19/3/19
f 8/1/8 4/2/4 19/3/19
f 24/1/24 25/2/25 26/3/26
f 27/1/27 28/2/28 29/3/29
f 28/1/28 27/2/27 31/3/30
f 29/1/29 32/2/31 27/3/27
f 33/1/32 31/2/30 27/3/27
f 27/1/27 34/2/33 33/3/32
f 34/1/33 27/2/27 32/3/31
f 33/1/32 35/2/34 31/3/30
f 30/1/35 35/2/34 33/3/32
f 30/1/35 33/2/32 36/3/36
f 36/1/36 33/2/32 34/3/33
f 37/1/37 31/2/30 35/3/34
f 28/1/28 31/2/30 37/3/37
f 38/1/38 39/2/39 29/3/29
f 29/1/29 39/2/39 32/3/31
f 38/1/38 29/2/29 37/3/37
f 37/1/37 29/2/29 28/3/28
f 34/1/33 32/2/31 36/3/36
f 36/1/36 32/2/31 39/3/39
f 36/1/36 39/2/39 40/3/40
f 40/1/40 39/2/39 38/3/38
f 40/1/40 30/2/35 36/3/36
f 35/1/34 40/2/40 37/3/37
f 30/1/35 40/2/40 35/3/34
f 40/1/40 38/2/38 37/3/37
