# Blender 5.0.1
# www.blender.org
mtllib PeachAnteBrazoI.mtl
o PeachBrazoAnteI
v 0.192303 -0.014458 -0.025547
v 0.197091 0.049505 0.016909
v 0.192031 -0.011783 0.017917
v 0.238034 0.055110 -0.046946
v 0.237779 0.060160 0.035420
v 0.231254 -0.034858 0.048602
v 0.195700 0.040181 -0.027867
v 0.338138 0.056198 -0.041657
v 0.337592 0.061548 0.045270
v 0.289467 -0.013757 0.059920
v 0.319377 -0.080909 0.078358
v 0.318923 -0.082834 0.046296
v 0.257800 -0.049965 0.013994
v 0.334510 -0.076362 0.081252
v 0.341090 -0.078369 0.056453
v 0.234735 -0.005443 -0.051233
v 0.283821 -0.023314 -0.013376
v 0.344470 0.008780 0.045758
v 0.328508 0.009537 -0.051507
v 0.434977 0.001482 0.037151
v 0.438903 0.014871 -0.009148
v 0.426017 -0.001232 -0.018276
v 0.444168 0.013709 0.023313
v -0.051776 0.016139 -0.006619
v -0.001319 -0.049398 0.002615
v -0.002353 -0.021542 -0.042013
v 0.192273 0.028477 0.024951
v -0.012500 -0.017033 0.045267
v -0.012069 0.038662 -0.044045
v 0.002734 0.040567 0.041620
v 0.001742 0.070856 -0.001953
v 0.192093 -0.005872 0.025509
v 0.191662 0.044937 -0.001421
v 0.191181 -0.034753 -0.002497
v 0.190570 -0.018293 -0.028869
v 0.190824 0.028315 -0.029262
v 0.234014 0.009033 0.000216
v 0.289467 -0.013757 0.059920
v 0.341090 -0.078369 0.056453
v 0.283821 -0.023314 -0.013376
vn -0.8892 -0.2689 0.3702
vn -0.8127 0.4656 0.3504
vn -0.7882 -0.4219 -0.4480
vn -0.2361 0.7359 0.6346
vn -0.2824 0.5497 -0.7862
vn -0.5842 -0.4520 0.6741
vn -0.7829 0.3842 -0.4894
vn 0.2594 0.6537 0.7109
vn 0.2479 0.6905 -0.6795
vn 0.0409 -0.1382 0.9896
vn -0.1713 -0.6871 0.7060
vn -0.1995 -0.8940 -0.4012
vn -0.0733 -0.9387 -0.3370
vn 0.8331 -0.5526 0.0242
vn 0.4854 -0.0754 0.8710
vn -0.0988 -0.5151 -0.8514
vn 0.3726 -0.8925 -0.2541
vn 0.2319 -0.7002 -0.6752
vn 0.2253 -0.6156 0.7552
vn 0.5101 -0.7114 0.4835
vn 0.5263 -0.4114 -0.7442
vn 0.8730 0.2320 -0.4289
vn 0.8393 0.4242 0.3401
vn -0.2211 -0.4680 -0.8556
vn -0.4429 -0.8965 -0.0116
vn -0.9985 0.0501 -0.0197
vn -0.3074 -0.4406 0.8434
vn -0.2637 0.5142 -0.8161
vn -0.1904 0.4868 0.8525
vn -0.3615 0.9320 0.0249
vn 0.2968 -0.2524 0.9210
vn 0.3677 0.4283 0.8255
vn 0.3197 0.9474 -0.0117
vn 0.3270 -0.9391 0.1056
vn 0.3159 0.3224 -0.8923
vn 0.3917 -0.4122 -0.8226
vn 0.9972 0.0420 0.0625
vn 0.8226 0.5671 0.0408
vn 0.8010 0.5475 -0.2422
vn 0.7061 0.6799 -0.1981
vt 0.973633 0.904785
vt 0.973633 0.967285
vt 0.911133 0.904785
s 1
usemtl Material03
f 3/1/1 2/2/2 1/3/3
f 5/1/4 4/2/5 2/3/2
f 6/1/6 2/2/2 3/3/1
f 2/1/2 6/2/6 5/3/4
f 1/1/3 2/2/2 7/3/7
f 2/1/2 4/2/5 7/3/7
f 9/1/8 8/2/9 5/3/4
f 10/1/10 5/2/4 6/3/6
f 10/1/10 9/2/8 5/3/4
f 5/1/4 8/2/9 4/3/5
f 10/1/10 6/2/6 11/3/11
f 1/1/3 6/2/6 3/3/1
f 6/1/6 13/2/12 12/3/13
f 1/1/3 13/2/12 6/3/6
f 6/1/6 12/2/13 11/3/11
f 4/1/5 1/2/3 7/3/7
f 11/1/11 15/2/14 14/3/15
f 4/1/5 16/2/16 1/3/3
f 13/1/12 1/2/3 16/3/16
f 13/1/12 17/2/17 12/3/13
f 17/1/17 13/2/12 16/3/16
f 19/1/18 18/2/19 10/3/10
f 9/1/8 18/2/19 20/3/20
f 18/1/19 9/2/8 10/3/10
f 18/1/19 19/2/18 20/3/20
f 19/1/18 10/2/10 17/3/17
f 15/1/14 10/2/10 14/3/15
f 10/1/10 11/2/11 14/3/15
f 19/1/18 17/2/17 16/3/16
f 16/1/16 4/2/5 19/3/18
f 12/1/13 17/2/17 15/3/14
f 12/1/13 15/2/14 11/3/11
f 22/1/21 8/2/9 21/3/22
f 9/1/8 21/2/22 8/3/9
f 9/1/8 20/2/20 23/3/23
f 21/1/22 9/2/8 23/3/23
f 22/1/21 21/2/22 20/3/20
f 20/1/20 19/2/18 22/3/21
f 20/1/20 21/2/22 23/3/23
f 19/1/18 8/2/9 22/3/21
f 19/1/18 4/2/5 8/3/9
f 26/1/24 25/2/25 24/3/26
f 28/1/27 24/2/26 25/3/25
f 24/1/26 29/2/28 26/3/24
f 24/1/26 28/2/27 30/3/29
f 30/1/29 31/2/30 24/3/26
f 29/1/28 24/2/26 31/3/30
f 28/1/27 32/2/31 30/3/29
f 30/1/29 32/2/31 27/3/32
f 33/1/33 30/2/29 27/3/32
f 31/1/30 30/2/29 33/3/33
f 32/1/31 28/2/27 34/3/34
f 34/1/34 28/2/27 25/3/25
f 26/1/24 36/2/35 35/3/36
f 29/1/28 36/2/35 26/3/24
f 34/1/34 26/2/24 35/3/36
f 25/1/25 26/2/24 34/3/34
f 33/1/33 29/2/28 31/3/30
f 36/1/35 29/2/28 33/3/33
f 37/1/37 36/2/35 33/3/33
f 35/1/36 36/2/35 37/3/37
f 33/1/33 27/2/32 37/3/37
f 34/1/34 37/2/37 32/3/31
f 32/1/31 37/2/37 27/3/32
f 34/1/34 35/2/36 37/3/37
f 40/1/38 38/2/39 39/3/40
